<svg width="25" height="24" viewBox="0 0 25 24" fill="none" xmlns="http://www.w3.org/2000/svg">
<path fill-rule="evenodd" clip-rule="evenodd" d="M12.9707 2.00302C10.3368 1.94394 7.68406 2.91939 5.67405 4.9294C1.76881 8.83464 1.76881 15.1663 5.67405 19.0715C9.57929 22.9768 15.9109 22.9768 19.8162 19.0715C21.8262 17.0615 22.8017 14.4087 22.7426 11.7748C22.7247 10.9777 22.612 10.1823 22.4046 9.40692C21.8384 9.94929 21.2529 10.4281 20.6614 10.843C19.31 11.7911 17.9277 12.4058 16.6752 12.6841C14.7693 13.1077 13.4607 12.7161 12.7451 12.0005C12.0295 11.2849 11.6379 9.97636 12.0615 8.07038C12.3398 6.81787 12.9546 5.4356 13.9026 4.08417C14.3175 3.4927 14.7963 2.90713 15.3387 2.34094C14.5633 2.13354 13.7679 2.0209 12.9707 2.00302ZM18.402 17.6573C19.6532 16.4061 20.4033 14.8436 20.6523 13.2191C17.1062 15.2648 13.3831 15.4669 11.3309 13.4147C9.27872 11.3625 9.4808 7.63944 11.5265 4.0933C9.90202 4.34232 8.33946 5.09242 7.08826 6.34361C3.96407 9.46781 3.96407 14.5331 7.08826 17.6573C10.2125 20.7815 15.2778 20.7815 18.402 17.6573Z" fill="#9A9BA2"/>
</svg>
