<svg width="275" height="68" viewBox="0 0 275 68" fill="none" xmlns="http://www.w3.org/2000/svg">
<mask id="path-1-inside-1" fill="white">
<path fill-rule="evenodd" clip-rule="evenodd" d="M0 57.4783V59.051C2.5786 62.0964 5.71695 64.7204 9.32051 66.7622L11.5051 68H13.5115L9.81893 65.9078C5.95324 63.7175 2.63909 60.8376 0 57.4783ZM275 59.7856C273.532 60.9907 271.947 62.0811 270.257 63.0389L261.501 68H259.495L269.758 62.1845C271.647 61.1144 273.399 59.8738 275 58.489V59.7856ZM0 48.1748C2.84357 54.3141 7.59231 59.5538 13.7432 63.0389L22.4991 68H24.5054L14.2416 62.1845C7.56029 58.3989 2.58518 52.4799 0 45.5922V48.1748ZM2 0V31.8369C2 43.1728 8.16237 53.6477 18.1658 59.3156L33.493 68H35.4993L18.6642 58.4612C8.96987 52.9684 3 42.8187 3 31.8369V0H2ZM7 0V29.095C7 40.0261 12.9423 50.1268 22.5885 55.5923L44.4869 68H46.4932L23.0869 54.738C13.7498 49.4476 8 39.672 8 29.095V0H7ZM275 36.6573V39.8783C272.497 46.3994 267.755 51.9981 261.411 55.5923L239.513 68H237.507L260.913 54.738C267.967 50.7413 272.973 44.185 275 36.6573ZM12 0V26.3531C12 36.8793 17.7222 46.606 27.0111 51.8691L55.4808 68H57.4871L27.5095 51.0147C18.5297 45.9267 13 36.5252 13 26.3531V0H12ZM271 0H272V26.3531C272 36.8794 266.278 46.606 256.989 51.8691L228.519 68H226.513L256.49 51.0147C265.47 45.9267 271 36.5252 271 26.3531V0ZM17 0V23.6112C17 33.7326 22.5021 43.0851 31.4338 48.1458L66.4747 68H68.481L31.9322 47.2914C23.3096 42.4058 18 33.3785 18 23.6112V0H17ZM266 0H267V23.6112C267 33.7326 261.498 43.0851 252.566 48.1458L217.525 68H215.519L252.068 47.2914C260.69 42.4058 266 33.3785 266 23.6112V0ZM22 0V20.8693C22 30.5858 27.282 39.5643 35.8564 44.4225L77.4686 68H79.4749L36.3548 43.5681C28.0895 38.885 23 30.2317 23 20.8693V0H22ZM261 0H262V20.8693C262 30.5859 256.718 39.5643 248.144 44.4225L206.531 68H204.525L247.645 43.5681C255.91 38.885 261 30.2317 261 20.8693V0ZM27 0V18.1275C27 27.4391 32.0619 36.0434 40.2791 40.6992L88.4625 68H90.4688L40.7775 39.8449C32.8694 35.3642 28 27.085 28 18.1275V0H27ZM256 0H257V18.1275C257 27.4391 251.938 36.0434 243.721 40.6992L195.537 68H193.531L243.222 39.8449C251.131 35.3642 256 27.085 256 18.1275V0ZM32 0V15.3855C32 24.2923 36.8419 32.5226 44.7017 36.9759L99.4564 68H101.463L45.2001 36.1216C37.6494 31.8433 33 23.9382 33 15.3855V0H32ZM251 0H252V15.3855C252 24.2923 247.158 32.5226 239.298 36.9759L184.544 68H182.537L238.8 36.1216C246.351 31.8433 251 23.9382 251 15.3855V0ZM37 0V12.6437C37 21.1456 41.6218 29.0017 49.1244 33.2527L110.45 68H112.457L49.6228 32.3983C42.4293 28.3225 38 20.7915 38 12.6437V0H37ZM246 0H247V12.6437C247 21.1456 242.378 29.0017 234.876 33.2527L173.55 68H171.543L234.377 32.3983C241.571 28.3225 246 20.7915 246 12.6437V0ZM42 0V10.4649C42 18.562 46.4017 26.044 53.547 30.0925L120.45 68H122.457L54.0454 29.2382C47.2092 25.3647 43 18.2079 43 10.4649V0H42ZM241 0H242V10.4649C242 18.562 237.598 26.044 230.453 30.0925L163.55 68H161.543L229.955 29.2382C236.791 25.3647 241 18.2079 241 10.4649V0ZM47 0V8.28612C47 15.9784 51.1816 23.0863 57.9697 26.9324L130.45 68H132.517C132.184 67.834 131.854 67.6588 131.529 67.4743L58.4681 26.078C51.9891 22.407 48 15.6242 48 8.28612V0H47ZM236 0H237V8.28612C237 15.9784 232.818 23.0863 226.03 26.9324L153.55 68H151.483C151.816 67.834 152.146 67.6588 152.471 67.4743L225.532 26.078C232.011 22.407 236 15.6242 236 8.28612V0ZM52 0V6.10743C52 13.3948 55.9615 20.1286 62.3923 23.7723L131.608 62.9898C138.038 66.6335 145.962 66.6335 152.392 62.9898L221.608 23.7723C228.038 20.1286 232 13.3948 232 6.10743V0H231V6.10743C231 13.0407 227.231 19.4494 221.109 22.9179L151.894 62.1354C145.772 65.6043 138.228 65.6043 132.106 62.1354L62.8907 22.9179C56.769 19.4494 53 13.0407 53 6.10743V0H52ZM57 0V3.92866C57 10.8112 60.7414 17.1709 66.815 20.6122L132.185 57.6509C138.259 61.0922 145.741 61.0922 151.815 57.6509L217.185 20.6122C223.259 17.1709 227 10.8112 227 3.92866V0H226V3.92866C226 10.4571 222.451 16.4916 216.687 19.7578L151.317 56.7965C145.552 60.0629 138.448 60.0629 132.683 56.7965L67.3134 19.7578C61.5489 16.4916 58 10.4571 58 3.92866V0H57ZM62 0V1.74988C62 8.22754 65.5214 14.2132 71.2376 17.452L132.762 52.312C138.479 55.5508 145.521 55.5508 151.238 52.312L212.762 17.452C218.479 14.2132 222 8.22755 222 1.74988V0H221V1.74988C221 7.87345 217.671 13.5339 212.264 16.5976L150.739 51.4576C145.332 54.5216 138.668 54.5216 133.261 51.4576L71.736 16.5976C66.3288 13.5339 63 7.87343 63 1.74988V0H62ZM67.0055 0C67.1568 5.90722 70.4276 11.3271 75.6603 14.2919L133.34 46.9732C138.699 50.0096 145.301 50.0096 150.66 46.9732L208.34 14.2919C213.572 11.3271 216.843 5.90723 216.995 0H215.994C215.843 5.55316 212.765 10.6479 207.841 13.4376L150.162 46.1188C145.111 48.9804 138.889 48.9804 133.838 46.1188L76.1587 13.4376C71.2352 10.6479 68.1569 5.55315 68.0058 0H67.0055ZM72.2195 0C73.0056 4.63235 75.8596 8.73882 80.0829 11.1317L133.917 41.6343C138.919 44.4682 145.081 44.4682 150.083 41.6343L203.917 11.1317C208.14 8.73882 210.994 4.63235 211.78 0H210.766C209.99 4.27678 207.331 8.0604 203.419 10.2774L149.584 40.7799C144.891 43.439 139.109 43.439 134.416 40.7799L80.5813 10.2774C76.6686 8.0604 74.01 4.27678 73.2344 0H72.2195ZM77.8141 0C78.9743 3.31286 81.3206 6.16699 84.5056 7.9716L134.494 36.2954C139.139 38.9269 144.861 38.9269 149.506 36.2954L199.494 7.9716C202.679 6.16699 205.026 3.31286 206.186 0H205.123C204.005 2.95364 201.865 5.4914 198.996 7.11722L149.007 35.441C144.671 37.8977 139.329 37.8977 134.993 35.441L85.004 7.11722C82.1345 5.4914 79.9953 2.95364 78.8766 0H77.8141ZM83.9556 0C85.1475 1.96141 86.8432 3.63007 88.9282 4.81146L135.072 30.9565C139.359 33.3856 144.641 33.3856 148.928 30.9565L195.072 4.81146C197.157 3.63007 198.853 1.96141 200.044 0H198.862C197.782 1.60026 196.326 2.96404 194.573 3.95708L148.43 30.1021C144.451 32.3564 139.549 32.3564 135.57 30.1021L89.4266 3.95708C87.674 2.96404 86.2183 1.60026 85.138 0H83.9556ZM91.0687 0C91.7562 0.625134 92.5198 1.18048 93.3509 1.65136L135.649 25.6176C139.579 27.8443 144.421 27.8443 148.351 25.6176L190.649 1.65136C191.48 1.18048 192.244 0.625134 192.931 0H191.374C190.986 0.288329 190.578 0.554779 190.151 0.796997L147.852 24.7632C144.231 26.8151 139.769 26.8151 136.148 24.7632L93.8493 0.796997C93.4218 0.554779 93.0137 0.28833 92.6264 0H91.0687ZM100.436 0L136.226 20.2787C139.799 22.303 144.201 22.303 147.773 20.2787L183.564 0H181.557L147.275 19.4243C144.011 21.2738 139.989 21.2738 136.725 19.4243L102.443 0H100.436ZM110.436 0L136.804 14.9398C140.019 16.7617 143.981 16.7617 147.196 14.9398L173.564 0H171.557L146.698 14.0854C143.791 15.7324 140.209 15.7324 137.302 14.0854L112.443 0H110.436ZM120.436 0L137.381 9.60097C140.239 11.2204 143.761 11.2204 146.619 9.60097L163.564 0H161.557L146.12 8.7466C143.571 10.1912 140.429 10.1912 137.88 8.7466L122.443 0H120.436ZM130.436 0L137.959 4.26207C140.459 5.67907 143.541 5.67907 146.041 4.26207L153.564 0H151.557L145.543 3.40771C143.351 4.64984 140.649 4.64984 138.457 3.40771L132.443 0H130.436ZM248.501 68L265.336 58.4612C269.194 56.2749 272.463 53.3508 275 49.93V51.5543C272.509 54.6374 269.418 57.285 265.834 59.3156L250.507 68H248.501Z"/>
</mask>
<path d="M0 59.051H-1V59.4175L-0.763181 59.6971L0 59.051ZM0 57.4783L0.786355 56.8605L-1 54.5867V57.4783H0ZM9.32051 66.7622L9.81347 65.8921H9.81347L9.32051 66.7622ZM11.5051 68L11.0122 68.87L11.2415 69H11.5051V68ZM13.5115 68V69H17.3049L14.0044 67.13L13.5115 68ZM9.81893 65.9078L10.3119 65.0378H10.3119L9.81893 65.9078ZM275 59.7856L275.634 60.5586L276 60.2585V59.7856H275ZM270.257 63.0389L269.764 62.1688V62.1688L270.257 63.0389ZM261.501 68V69H261.764L261.994 68.87L261.501 68ZM259.495 68L259.002 67.13L255.701 69H259.495V68ZM269.758 62.1845L269.265 61.3145V61.3145L269.758 62.1845ZM275 58.489H276V56.3015L274.346 57.7327L275 58.489ZM13.7432 63.0389L14.2361 62.1688H14.2361L13.7432 63.0389ZM0 48.1748H-1V48.3951L-0.907394 48.595L0 48.1748ZM22.4991 68L22.0061 68.87L22.2355 69H22.4991V68ZM24.5054 68V69H28.2988L24.9984 67.13L24.5054 68ZM14.2416 62.1845L14.7346 61.3145H14.7345L14.2416 62.1845ZM0 45.5922L0.936227 45.2408L-1 45.5922H0ZM2 0V-1H1V0H2ZM18.1658 59.3156L18.6588 58.4456L18.1658 59.3156ZM33.493 68L33 68.87L33.2294 69H33.493V68ZM35.4993 68V69H39.2927L35.9923 67.13L35.4993 68ZM18.6642 58.4612L19.1572 57.5912L18.6642 58.4612ZM3 0H4V-1H3V0ZM7 0V-1H6V0H7ZM22.5885 55.5923L22.0955 56.4624V56.4624L22.5885 55.5923ZM44.4869 68L43.9939 68.87L44.2233 69H44.4869V68ZM46.4932 68V69H50.2866L46.9862 67.13L46.4932 68ZM23.0869 54.738L23.5799 53.8679V53.8679L23.0869 54.738ZM8 0H9V-1H8V0ZM275 36.6573H276L274.034 36.3973L275 36.6573ZM275 39.8783L275.934 40.2367L276 40.0636V39.8783H275ZM261.411 55.5923L261.904 56.4624V56.4624L261.411 55.5923ZM239.513 68V69H239.777L240.006 68.87L239.513 68ZM237.507 68L237.014 67.13L233.713 69H237.507V68ZM260.913 54.738L260.42 53.8679L260.913 54.738ZM12 0V-1H11V0H12ZM27.0111 51.8691L26.5181 52.7391V52.7391L27.0111 51.8691ZM55.4808 68L54.9878 68.87L55.2171 69H55.4808V68ZM57.4871 68V69H61.2805L57.98 67.13L57.4871 68ZM27.5095 51.0147L28.0025 50.1446L27.5095 51.0147ZM13 0H14V-1H13V0ZM271 0V-1H270V0H271ZM272 0H273V-1H272V0ZM256.989 51.8691L257.482 52.7391V52.7391L256.989 51.8691ZM228.519 68V69H228.783L229.012 68.87L228.519 68ZM226.513 68L226.02 67.13L222.719 69H226.513V68ZM256.49 51.0147L255.997 50.1446L256.49 51.0147ZM17 0V-1H16V0H17ZM31.4338 48.1458L30.9408 49.0158V49.0158L31.4338 48.1458ZM66.4747 68L65.9817 68.87L66.2111 69H66.4747V68ZM68.481 68V69H72.2744L68.974 67.13L68.481 68ZM31.9322 47.2914L31.4392 48.1615V48.1615L31.9322 47.2914ZM18 0H19V-1H18V0ZM266 0V-1H265V0H266ZM267 0H268V-1H267V0ZM252.566 48.1458L253.059 49.0158V49.0158L252.566 48.1458ZM217.525 68V69H217.789L218.018 68.87L217.525 68ZM215.519 68L215.026 67.13L211.726 69H215.519V68ZM252.068 47.2914L252.561 48.1615V48.1615L252.068 47.2914ZM22 0V-1H21V0H22ZM35.8564 44.4225L36.3494 43.5525L35.8564 44.4225ZM77.4686 68L76.9756 68.87L77.205 69H77.4686V68ZM79.4749 68V69H83.2683L79.9678 67.13L79.4749 68ZM36.3548 43.5681L36.8478 42.6981L36.3548 43.5681ZM23 0H24V-1H23V0ZM261 0V-1H260V0H261ZM262 0H263V-1H262V0ZM248.144 44.4225L247.651 43.5525L248.144 44.4225ZM206.531 68V69H206.795L207.024 68.87L206.531 68ZM204.525 68L204.032 67.13L200.732 69H204.525V68ZM247.645 43.5681L247.152 42.6981L247.645 43.5681ZM27 0V-1H26V0H27ZM40.2791 40.6992L39.7861 41.5693L40.2791 40.6992ZM88.4625 68L87.9695 68.87L88.1989 69H88.4625V68ZM90.4688 68V69H94.2622L90.9618 67.13L90.4688 68ZM40.7775 39.8449L40.2845 40.7149V40.7149L40.7775 39.8449ZM28 0H29V-1H28V0ZM256 0V-1H255V0H256ZM257 0H258V-1H257V0ZM243.721 40.6992L244.214 41.5693V41.5693L243.721 40.6992ZM195.537 68V69H195.801L196.03 68.87L195.537 68ZM193.531 68L193.038 67.13L189.738 69H193.531V68ZM243.222 39.8449L243.715 40.7149L243.222 39.8449ZM32 0V-1H31V0H32ZM44.7017 36.9759L45.1947 36.1059L44.7017 36.9759ZM99.4564 68L98.9634 68.87L99.1928 69H99.4564V68ZM101.463 68V69H105.256L101.956 67.13L101.463 68ZM45.2001 36.1216L45.6931 35.2515L45.2001 36.1216ZM33 0H34V-1H33V0ZM251 0V-1H250V0H251ZM252 0H253V-1H252V0ZM239.298 36.9759L238.805 36.1059L239.298 36.9759ZM184.544 68V69H184.807L185.037 68.87L184.544 68ZM182.537 68L182.044 67.13L178.744 69H182.537V68ZM238.8 36.1216L239.293 36.9916L238.8 36.1216ZM37 0V-1H36V0H37ZM49.1244 33.2527L49.6173 32.3826L49.1244 33.2527ZM110.45 68L109.957 68.87L110.187 69H110.45V68ZM112.457 68V69H116.25L112.95 67.13L112.457 68ZM49.6228 32.3983L50.1157 31.5283L49.6228 32.3983ZM38 0H39V-1H38V0ZM246 0V-1H245V0H246ZM247 0H248V-1H247V0ZM234.876 33.2527L234.383 32.3826L234.876 33.2527ZM173.55 68V69H173.813L174.043 68.87L173.55 68ZM171.543 68L171.05 67.13L167.75 69H171.543V68ZM234.377 32.3983L233.884 31.5283L234.377 32.3983ZM42 0V-1H41V0H42ZM53.547 30.0925L53.054 30.9626L53.547 30.0925ZM120.45 68L119.957 68.87L120.187 69H120.45V68ZM122.457 68V69H126.25L122.95 67.13L122.457 68ZM54.0454 29.2382L53.5525 30.1082L54.0454 29.2382ZM43 0H44V-1H43V0ZM241 0V-1H240V0H241ZM242 0H243V-1H242V0ZM230.453 30.0925L230.946 30.9626L230.453 30.0925ZM163.55 68V69H163.813L164.043 68.87L163.55 68ZM161.543 68L161.05 67.13L157.75 69H161.543V68ZM229.955 29.2382L230.448 30.1082L229.955 29.2382ZM47 0V-1H46V0H47ZM57.9697 26.9324L57.4767 27.8024L57.9697 26.9324ZM130.45 68L129.957 68.87L130.187 69H130.45V68ZM132.517 68V69L132.963 67.1051L132.517 68ZM131.529 67.4743L132.022 66.6042L131.529 67.4743ZM58.4681 26.078L58.961 25.208L58.4681 26.078ZM48 0H49V-1H48V0ZM236 0V-1H235V0H236ZM237 0H238V-1H237V0ZM226.03 26.9324L226.523 27.8024L226.03 26.9324ZM153.55 68V69H153.813L154.043 68.87L153.55 68ZM151.483 68L151.037 67.1051L151.483 69V68ZM152.471 67.4743L151.978 66.6042L152.471 67.4743ZM225.532 26.078L225.039 25.208L225.532 26.078ZM52 0V-1H51V0H52ZM62.3923 23.7723L61.8993 24.6423L62.3923 23.7723ZM131.608 62.9898L132.101 62.1198V62.1198L131.608 62.9898ZM152.392 62.9898L151.899 62.1198V62.1198L152.392 62.9898ZM221.608 23.7723L222.101 24.6423L221.608 23.7723ZM232 0H233V-1H232V0ZM231 0V-1H230V0H231ZM221.109 22.9179L221.602 23.788L221.109 22.9179ZM151.894 62.1354L151.401 61.2654V61.2654L151.894 62.1354ZM132.106 62.1354L132.599 61.2654V61.2654L132.106 62.1354ZM62.8907 22.9179L63.3837 22.0479L62.8907 22.9179ZM53 0H54V-1H53V0ZM57 0V-1H56V0H57ZM66.815 20.6122L67.3079 19.7421L66.815 20.6122ZM132.185 57.6509L131.692 58.521L132.185 57.6509ZM151.815 57.6509L152.308 58.521L151.815 57.6509ZM217.185 20.6122L216.692 19.7421L217.185 20.6122ZM227 0H228V-1H227V0ZM226 0V-1H225V0H226ZM216.687 19.7578L217.18 20.6278L216.687 19.7578ZM151.317 56.7965L150.824 55.9265V55.9265L151.317 56.7965ZM132.683 56.7965L133.176 55.9265V55.9265L132.683 56.7965ZM67.3134 19.7578L66.8204 20.6278H66.8204L67.3134 19.7578ZM58 0H59V-1H58V0ZM62 0V-1H61V0H62ZM71.2376 17.452L70.7446 18.3221H70.7446L71.2376 17.452ZM132.762 52.312L133.255 51.442V51.442L132.762 52.312ZM151.238 52.312L150.745 51.442V51.442L151.238 52.312ZM212.762 17.452L213.255 18.3221L212.762 17.452ZM222 0H223V-1H222V0ZM221 0V-1H220V0H221ZM212.264 16.5976L212.757 17.4677L212.264 16.5976ZM150.739 51.4576L151.232 52.3277L150.739 51.4576ZM133.261 51.4576L133.754 50.5876V50.5876L133.261 51.4576ZM71.736 16.5976L71.2431 17.4677H71.2431L71.736 16.5976ZM63 0H64V-1H63V0ZM75.6603 14.2919L75.1673 15.162H75.1673L75.6603 14.2919ZM67.0055 0V-1H65.9795L66.0058 0.0256131L67.0055 0ZM133.34 46.9732L133.833 46.1031V46.1031L133.34 46.9732ZM150.66 46.9732L150.167 46.1031V46.1031L150.66 46.9732ZM208.34 14.2919L208.833 15.162L208.34 14.2919ZM216.995 0L217.994 0.0256131L218.02 -1H216.995V0ZM215.994 0V-1H215.021L214.995 -0.0271983L215.994 0ZM207.841 13.4376L207.348 12.5675V12.5675L207.841 13.4376ZM150.162 46.1188L149.669 45.2488L150.162 46.1188ZM133.838 46.1188L134.331 45.2488L133.838 46.1188ZM76.1587 13.4376L75.6657 14.3076H75.6657L76.1587 13.4376ZM68.0058 0L69.0055 -0.0271997L68.979 -1H68.0058V0ZM72.2195 0V-1H71.0355L71.2336 0.167297L72.2195 0ZM80.0829 11.1317L80.5759 10.2617L80.0829 11.1317ZM133.917 41.6343L134.41 40.7642V40.7642L133.917 41.6343ZM150.083 41.6343L149.59 40.7642V40.7642L150.083 41.6343ZM203.917 11.1317L203.424 10.2617L203.917 11.1317ZM211.78 0L212.766 0.167297L212.964 -1H211.78V0ZM210.766 0V-1H209.931L209.782 -0.178442L210.766 0ZM203.419 10.2774L203.912 11.1474V11.1474L203.419 10.2774ZM149.584 40.7799L149.092 39.9098V39.9098L149.584 40.7799ZM134.416 40.7799L134.908 39.9098V39.9098L134.416 40.7799ZM80.5813 10.2774L81.0743 9.40733L80.5813 10.2774ZM73.2344 0L74.2183 -0.178442L74.0693 -1H73.2344V0ZM77.8141 0V-1H76.4044L76.8703 0.330507L77.8141 0ZM84.5056 7.9716L84.0126 8.84165H84.0126L84.5056 7.9716ZM134.494 36.2954L134.987 35.4253L134.494 36.2954ZM149.506 36.2954L149.013 35.4253V35.4253L149.506 36.2954ZM199.494 7.9716L199.987 8.84165V8.84165L199.494 7.9716ZM206.186 0L207.13 0.330509L207.596 -1H206.186V0ZM205.123 0V-1H204.433L204.188 -0.354186L205.123 0ZM198.996 7.11722L198.503 6.24717V6.24718L198.996 7.11722ZM149.007 35.441L148.514 34.5709V34.5709L149.007 35.441ZM134.993 35.441L135.486 34.5709L134.993 35.441ZM85.004 7.11722L85.4969 6.24718L85.004 7.11722ZM78.8766 0L79.8118 -0.354186L79.5672 -1H78.8766V0ZM88.9282 4.81146L88.4352 5.68151L88.9282 4.81146ZM83.9556 0V-1H82.1778L83.101 0.519299L83.9556 0ZM135.072 30.9565L135.565 30.0864L135.072 30.9565ZM148.928 30.9565L148.435 30.0864L148.928 30.9565ZM195.072 4.81146L194.579 3.94141V3.94142L195.072 4.81146ZM200.044 0L200.899 0.519299L201.822 -1H200.044V0ZM198.862 0V-1H198.331L198.033 -0.559502L198.862 0ZM194.573 3.95708L194.08 3.08703V3.08703L194.573 3.95708ZM148.43 30.1021L147.937 29.232V29.232L148.43 30.1021ZM135.57 30.1021L136.063 29.232V29.232L135.57 30.1021ZM89.4266 3.95708L89.9196 3.08703V3.08703L89.4266 3.95708ZM85.138 0L85.9668 -0.5595L85.6695 -1H85.138V0ZM91.0687 0V-1H88.4825L90.3959 0.739861L91.0687 0ZM93.3509 1.65136L93.8438 0.781317V0.781317L93.3509 1.65136ZM135.649 25.6176L136.142 24.7476V24.7476L135.649 25.6176ZM148.351 25.6176L147.858 24.7476V24.7476L148.351 25.6176ZM190.649 1.65136L191.142 2.52141V2.52141L190.649 1.65136ZM192.931 0L193.604 0.739861L195.517 -1H192.931V0ZM191.374 0V-1H191.042L190.776 -0.802127L191.374 0ZM190.151 0.796997L190.644 1.66704V1.66704L190.151 0.796997ZM147.852 24.7632L147.359 23.8932L147.852 24.7632ZM136.148 24.7632L136.641 23.8932L136.148 24.7632ZM93.8493 0.796997L93.3563 1.66704L93.3563 1.66704L93.8493 0.796997ZM92.6264 0L93.2236 -0.802127L92.9578 -1H92.6264V0ZM136.226 20.2787L136.719 19.4087L136.226 20.2787ZM100.436 0V-1H96.643L99.9434 0.870047L100.436 0ZM147.773 20.2787L148.266 21.1488L147.773 20.2787ZM183.564 0L184.057 0.870047L187.357 -1H183.564V0ZM181.557 0V-1H181.294L181.064 -0.870047L181.557 0ZM147.275 19.4243L146.782 18.5543V18.5543L147.275 19.4243ZM136.725 19.4243L137.218 18.5543V18.5543L136.725 19.4243ZM102.443 0L102.936 -0.870047L102.706 -1H102.443V0ZM110.436 0V-1H106.643L109.943 0.870047L110.436 0ZM136.804 14.9398L137.297 14.0698L136.804 14.9398ZM147.196 14.9398L146.703 14.0698L147.196 14.9398ZM173.564 0L174.057 0.870047L177.357 -1H173.564V0ZM171.557 0V-1H171.294L171.064 -0.870047L171.557 0ZM146.698 14.0854L146.205 13.2154L146.698 14.0854ZM137.302 14.0854L137.795 13.2154L137.302 14.0854ZM112.443 0L112.936 -0.870047L112.706 -1H112.443V0ZM137.381 9.60097L137.874 8.73092L137.381 9.60097ZM120.436 0V-1H116.643L119.943 0.870047L120.436 0ZM146.619 9.60097L146.126 8.73092L146.619 9.60097ZM163.564 0L164.057 0.870047L167.357 -1H163.564V0ZM161.557 0V-1H161.294L161.064 -0.870047L161.557 0ZM146.12 8.7466L145.627 7.87656V7.87656L146.12 8.7466ZM137.88 8.7466L138.373 7.87656V7.87656L137.88 8.7466ZM122.443 0L122.936 -0.870047L122.706 -1H122.443V0ZM130.436 0V-1H126.643L129.943 0.870047L130.436 0ZM137.959 4.26207L138.452 3.39203V3.39203L137.959 4.26207ZM146.041 4.26207L145.548 3.39203V3.39203L146.041 4.26207ZM153.564 0L154.057 0.870047L157.357 -1H153.564V0ZM151.557 0V-1H151.294L151.064 -0.870047L151.557 0ZM145.543 3.40771L146.036 4.27775L145.543 3.40771ZM138.457 3.40771L137.964 4.27775L138.457 3.40771ZM132.443 0L132.936 -0.870047L132.706 -1H132.443V0ZM265.336 58.4612L264.843 57.5912L265.336 58.4612ZM248.501 68L248.008 67.13L244.707 69H248.501V68ZM275 49.93H276V46.903L274.197 49.3343L275 49.93ZM275 51.5543L275.778 52.1827L276 51.9078V51.5543H275ZM265.834 59.3156L266.327 60.1857V60.1857L265.834 59.3156ZM250.507 68V69H250.771L251 68.87L250.507 68ZM1 59.051V57.4783H-1V59.051H1ZM-0.763181 59.6971C1.89103 62.8319 5.12067 65.5319 8.82754 67.6322L9.81347 65.8921C6.31323 63.9089 3.26617 61.361 0.763181 58.4048L-0.763181 59.6971ZM8.82754 67.6322L11.0122 68.87L11.9981 67.13L9.81347 65.8921L8.82754 67.6322ZM13.5115 67H11.5051V69H13.5115V67ZM14.0044 67.13L10.3119 65.0378L9.32596 66.7779L13.0185 68.87L14.0044 67.13ZM10.3119 65.0378C6.56036 62.9121 3.34563 60.1182 0.786355 56.8605L-0.786355 58.0961C1.93256 61.5569 5.34612 64.5229 9.32596 66.7779L10.3119 65.0378ZM274.366 59.0126C272.941 60.1816 271.404 61.2394 269.764 62.1688L270.75 63.9089C272.49 62.9228 274.122 61.7999 275.634 60.5586L274.366 59.0126ZM269.764 62.1688L261.008 67.13L261.994 68.87L270.75 63.9089L269.764 62.1688ZM261.501 67H259.495V69H261.501V67ZM259.988 68.87L270.251 63.0545L269.265 61.3145L259.002 67.13L259.988 68.87ZM270.251 63.0546C272.198 61.9517 274.004 60.673 275.654 59.2452L274.346 57.7327C272.795 59.0745 271.096 60.277 269.265 61.3145L270.251 63.0546ZM274 58.489V59.7856H276V58.489H274ZM14.2361 62.1688C8.26805 58.7873 3.6637 53.7054 0.907394 47.7545L-0.907394 48.595C2.02345 54.9228 6.91656 60.3203 13.2502 63.9089L14.2361 62.1688ZM22.9921 67.13L14.2361 62.1688L13.2502 63.9089L22.0061 68.87L22.9921 67.13ZM24.5054 67H22.4991V69H24.5054V67ZM13.7486 63.0546L24.0124 68.87L24.9984 67.13L14.7346 61.3145L13.7486 63.0546ZM-0.936227 45.9436C1.73105 53.05 6.86263 59.153 13.7486 63.0546L14.7345 61.3145C8.25795 57.6448 3.4393 51.9098 0.936227 45.2408L-0.936227 45.9436ZM1 48.1748V45.5922H-1V48.1748H1ZM1 0V31.8369H3V0H1ZM1 31.8369C1 43.5393 7.3616 54.3433 17.6728 60.1857L18.6588 58.4456C8.96314 52.952 3 42.8063 3 31.8369H1ZM17.6728 60.1857L33 68.87L33.9859 67.13L18.6588 58.4456L17.6728 60.1857ZM35.4993 67H33.493V69H35.4993V67ZM35.9923 67.13L19.1572 57.5912L18.1713 59.3313L35.0063 68.87L35.9923 67.13ZM19.1572 57.5912C9.77064 52.2727 4 42.4522 4 31.8369H2C2 43.1852 8.1691 53.664 18.1713 59.3313L19.1572 57.5912ZM4 31.8369V0H2V31.8369H4ZM2 1H3V-1H2V1ZM8 29.095V0H6V29.095H8ZM23.0814 54.7223C13.7431 49.4311 8 39.6596 8 29.095H6C6 40.3926 12.1415 50.8224 22.0955 56.4624L23.0814 54.7223ZM44.9798 67.13L23.0814 54.7223L22.0955 56.4624L43.9939 68.87L44.9798 67.13ZM46.4932 67H44.4869V69H46.4932V67ZM22.5939 55.608L46.0002 68.87L46.9862 67.13L23.5799 53.8679L22.5939 55.608ZM7 29.095C7 40.0385 12.949 50.1432 22.5939 55.608L23.5799 53.8679C14.5506 48.7519 9 39.3055 9 29.095H7ZM7 0V29.095H9V0H7ZM7 1H8V-1H7V1ZM274 36.6573V39.8783H276V36.6573H274ZM274.066 39.5199C271.646 45.8254 267.059 51.2428 260.919 54.7223L261.904 56.4624C268.45 52.7534 273.347 46.9735 275.934 40.2367L274.066 39.5199ZM260.919 54.7223L239.02 67.13L240.006 68.87L261.904 56.4624L260.919 54.7223ZM239.513 67H237.507V69H239.513V67ZM238 68.87L261.406 55.608L260.42 53.8679L237.014 67.13L238 68.87ZM261.406 55.608C268.692 51.4796 273.869 44.7036 275.966 36.9173L274.034 36.3973C272.077 43.6664 267.241 50.0031 260.42 53.8679L261.406 55.608ZM11 0V26.3531H13V0H11ZM11 26.3531C11 37.2458 16.9214 47.3016 26.5181 52.7391L27.5041 50.999C18.523 45.9103 13 36.5128 13 26.3531H11ZM26.5181 52.7391L54.9878 68.87L55.9737 67.13L27.5041 50.999L26.5181 52.7391ZM57.4871 67H55.4808V69H57.4871V67ZM57.98 67.13L28.0025 50.1446L27.0166 51.8847L56.9941 68.87L57.98 67.13ZM28.0025 50.1446C19.3305 45.2311 14 36.1587 14 26.3531H12C12 36.8917 17.7289 46.6224 27.0166 51.8847L28.0025 50.1446ZM14 26.3531V0H12V26.3531H14ZM12 1H13V-1H12V1ZM271 1H272V-1H271V1ZM273 26.3531V0H271V26.3531H273ZM257.482 52.7391C267.079 47.3016 273 37.2459 273 26.3531H271C271 36.5129 265.477 45.9103 256.496 50.999L257.482 52.7391ZM229.012 68.87L257.482 52.7391L256.496 50.999L228.026 67.13L229.012 68.87ZM228.519 67H226.513V69H228.519V67ZM255.997 50.1446L226.02 67.13L227.006 68.87L256.983 51.8847L255.997 50.1446ZM270 26.3531C270 36.1587 264.669 45.2311 255.997 50.1446L256.983 51.8847C266.271 46.6224 272 36.8917 272 26.3531H270ZM270 0V26.3531H272V0H270ZM18 23.6112V0H16V23.6112H18ZM31.9267 47.2757C23.3029 42.3895 18 33.3661 18 23.6112H16C16 34.0991 21.7013 43.7808 30.9408 49.0158L31.9267 47.2757ZM66.9676 67.13L31.9267 47.2757L30.9408 49.0158L65.9817 68.87L66.9676 67.13ZM68.481 67H66.4747V69H68.481V67ZM31.4392 48.1615L67.988 68.87L68.974 67.13L32.4252 46.4214L31.4392 48.1615ZM17 23.6112C17 33.745 22.5088 43.1015 31.4392 48.1615L32.4252 46.4214C24.1104 41.7102 19 33.012 19 23.6112H17ZM17 0V23.6112H19V0H17ZM17 1H18V-1H17V1ZM266 1H267V-1H266V1ZM266 0V23.6112H268V0H266ZM266 23.6112C266 33.3661 260.697 42.3895 252.073 47.2757L253.059 49.0158C262.299 43.7808 268 34.0991 268 23.6112H266ZM252.073 47.2757L217.032 67.13L218.018 68.87L253.059 49.0158L252.073 47.2757ZM217.525 67H215.519V69H217.525V67ZM216.012 68.87L252.561 48.1615L251.575 46.4214L215.026 67.13L216.012 68.87ZM252.561 48.1615C261.491 43.1015 267 33.745 267 23.6112H265C265 33.012 259.89 41.7102 251.575 46.4214L252.561 48.1615ZM267 23.6112V0H265V23.6112H267ZM21 0V20.8693H23V0H21ZM21 20.8693C21 30.9523 26.4813 40.2599 35.3634 45.2926L36.3494 43.5525C28.0828 38.8686 23 30.2193 23 20.8693H21ZM35.3634 45.2926L76.9756 68.87L77.9615 67.13L36.3494 43.5525L35.3634 45.2926ZM79.4749 67H77.4686V69H79.4749V67ZM79.9678 67.13L36.8478 42.6981L35.8619 44.4382L78.9819 68.87L79.9678 67.13ZM36.8478 42.6981C28.8903 38.1894 24 29.8652 24 20.8693H22C22 30.5982 27.2888 39.5807 35.8619 44.4382L36.8478 42.6981ZM24 20.8693V0H22V20.8693H24ZM22 1H23V-1H22V1ZM261 1H262V-1H261V1ZM263 20.8693V0H261V20.8693H263ZM248.637 45.2926C257.519 40.2599 263 30.9524 263 20.8693H261C261 30.2193 255.917 38.8686 247.651 43.5525L248.637 45.2926ZM207.024 68.87L248.637 45.2926L247.651 43.5525L206.038 67.13L207.024 68.87ZM206.531 67H204.525V69H206.531V67ZM247.152 42.6981L204.032 67.13L205.018 68.87L248.138 44.4382L247.152 42.6981ZM260 20.8693C260 29.8652 255.11 38.1894 247.152 42.6981L248.138 44.4382C256.711 39.5807 262 30.5982 262 20.8693H260ZM260 0V20.8693H262V0H260ZM28 18.1275V0H26V18.1275H28ZM40.772 39.8292C32.8627 35.3478 28 27.0726 28 18.1275H26C26 27.8056 31.2612 36.7391 39.7861 41.5693L40.772 39.8292ZM88.9554 67.13L40.772 39.8292L39.7861 41.5693L87.9695 68.87L88.9554 67.13ZM90.4688 67H88.4625V69H90.4688V67ZM40.2845 40.7149L89.9758 68.87L90.9618 67.13L41.2705 38.9748L40.2845 40.7149ZM27 18.1275C27 27.4515 32.0687 36.0598 40.2845 40.7149L41.2705 38.9748C33.6702 34.6685 29 26.7185 29 18.1275H27ZM27 0V18.1275H29V0H27ZM27 1H28V-1H27V1ZM256 1H257V-1H256V1ZM256 0V18.1275H258V0H256ZM256 18.1275C256 27.0726 251.137 35.3478 243.228 39.8292L244.214 41.5693C252.739 36.7391 258 27.8056 258 18.1275H256ZM243.228 39.8292L195.045 67.13L196.03 68.87L244.214 41.5693L243.228 39.8292ZM195.537 67H193.531V69H195.537V67ZM194.024 68.87L243.715 40.7149L242.73 38.9748L193.038 67.13L194.024 68.87ZM243.715 40.7149C251.931 36.0598 257 27.4515 257 18.1275H255C255 26.7185 250.33 34.6685 242.73 38.9748L243.715 40.7149ZM257 18.1275V0H255V18.1275H257ZM31 0V15.3855H33V0H31ZM31 15.3855C31 24.6588 36.0411 33.2182 44.2087 37.846L45.1947 36.1059C37.6426 31.8269 33 23.9258 33 15.3855H31ZM44.2087 37.846L98.9634 68.87L99.9493 67.13L45.1947 36.1059L44.2087 37.846ZM101.463 67H99.4564V69H101.463V67ZM101.956 67.13L45.6931 35.2515L44.7072 36.9916L100.97 68.87L101.956 67.13ZM45.6931 35.2515C38.4501 31.1477 34 23.5717 34 15.3855H32C32 24.3047 36.8486 32.539 44.7072 36.9916L45.6931 35.2515ZM34 15.3855V0H32V15.3855H34ZM32 1H33V-1H32V1ZM251 1H252V-1H251V1ZM253 15.3855V0H251V15.3855H253ZM239.791 37.846C247.959 33.2182 253 24.6588 253 15.3855H251C251 23.9258 246.357 31.8269 238.805 36.1059L239.791 37.846ZM185.037 68.87L239.791 37.846L238.805 36.1059L184.051 67.13L185.037 68.87ZM184.544 67H182.537V69H184.544V67ZM238.307 35.2515L182.044 67.13L183.03 68.87L239.293 36.9916L238.307 35.2515ZM250 15.3855C250 23.5717 245.55 31.1477 238.307 35.2515L239.293 36.9916C247.151 32.539 252 24.3047 252 15.3855H250ZM250 0V15.3855H252V0H250ZM38 12.6437V0H36V12.6437H38ZM49.6173 32.3826C42.4225 28.3061 38 20.7791 38 12.6437H36C36 21.5121 40.821 29.6974 48.6314 34.1227L49.6173 32.3826ZM110.943 67.13L49.6173 32.3826L48.6314 34.1227L109.957 68.87L110.943 67.13ZM112.457 67H110.45V69H112.457V67ZM49.1298 33.2684L111.964 68.87L112.95 67.13L50.1157 31.5283L49.1298 33.2684ZM37 12.6437C37 21.158 41.6285 29.0181 49.1298 33.2684L50.1157 31.5283C43.23 27.6268 39 20.425 39 12.6437H37ZM37 0V12.6437H39V0H37ZM37 1H38V-1H37V1ZM246 1H247V-1H246V1ZM246 0V12.6437H248V0H246ZM246 12.6437C246 20.7791 241.577 28.3061 234.383 32.3826L235.369 34.1227C243.179 29.6974 248 21.5121 248 12.6437H246ZM234.383 32.3826L173.057 67.13L174.043 68.87L235.369 34.1227L234.383 32.3826ZM173.55 67H171.543V69H173.55V67ZM172.036 68.87L234.87 33.2684L233.884 31.5283L171.05 67.13L172.036 68.87ZM234.87 33.2684C242.371 29.0181 247 21.158 247 12.6437H245C245 20.425 240.77 27.6268 233.884 31.5283L234.87 33.2684ZM247 12.6437V0H245V12.6437H247ZM41 0V10.4649H43V0H41ZM41 10.4649C41 18.9285 45.6009 26.7396 53.054 30.9626L54.04 29.2225C47.2025 25.3483 43 18.1955 43 10.4649H41ZM53.054 30.9626L119.957 68.87L120.943 67.13L54.04 29.2225L53.054 30.9626ZM122.457 67H120.45V69H122.457V67ZM122.95 67.13L54.5384 28.3681L53.5525 30.1082L121.964 68.87L122.95 67.13ZM54.5384 28.3681C48.01 24.6691 44 17.8414 44 10.4649H42C42 18.5744 46.4084 26.0604 53.5525 30.1082L54.5384 28.3681ZM44 10.4649V0H42V10.4649H44ZM42 1H43V-1H42V1ZM241 1H242V-1H241V1ZM243 10.4649V0H241V10.4649H243ZM230.946 30.9626C238.399 26.7396 243 18.9285 243 10.4649H241C241 18.1955 236.798 25.3483 229.96 29.2225L230.946 30.9626ZM164.043 68.87L230.946 30.9626L229.96 29.2225L163.057 67.13L164.043 68.87ZM163.55 67H161.543V69H163.55V67ZM229.462 28.3681L161.05 67.13L162.036 68.87L230.448 30.1082L229.462 28.3681ZM240 10.4649C240 17.8414 235.99 24.6691 229.462 28.3681L230.448 30.1082C237.592 26.0604 242 18.5744 242 10.4649H240ZM240 0V10.4649H242V0H240ZM48 8.28612V0H46V8.28612H48ZM58.4626 26.0623C51.9824 22.3906 48 15.6118 48 8.28612H46C46 16.3449 50.3808 23.7819 57.4767 27.8024L58.4626 26.0623ZM130.943 67.13L58.4626 26.0623L57.4767 27.8024L129.957 68.87L130.943 67.13ZM132.517 67H130.45V69H132.517V67ZM131.036 68.3443C131.377 68.5376 131.722 68.7211 132.071 68.8949L132.963 67.1051C132.646 66.947 132.332 66.78 132.022 66.6042L131.036 68.3443ZM57.9751 26.948L131.036 68.3443L132.022 66.6042L58.961 25.208L57.9751 26.948ZM47 8.28612C47 15.9907 51.1883 23.1027 57.9751 26.948L58.961 25.208C52.7899 21.7114 49 15.2577 49 8.28612H47ZM47 0V8.28612H49V0H47ZM47 1H48V-1H47V1ZM236 1H237V-1H236V1ZM236 0V8.28612H238V0H236ZM236 8.28612C236 15.6118 232.018 22.3906 225.537 26.0623L226.523 27.8024C233.619 23.7819 238 16.3449 238 8.28612H236ZM225.537 26.0623L153.057 67.13L154.043 68.87L226.523 27.8024L225.537 26.0623ZM153.55 67H151.483V69H153.55V67ZM151.929 68.8949C152.278 68.7211 152.623 68.5376 152.964 68.3443L151.978 66.6042C151.668 66.78 151.354 66.947 151.037 67.1051L151.929 68.8949ZM152.964 68.3443L226.025 26.948L225.039 25.208L151.978 66.6042L152.964 68.3443ZM226.025 26.948C232.812 23.1027 237 15.9907 237 8.28612H235C235 15.2577 231.21 21.7114 225.039 25.208L226.025 26.948ZM237 8.28612V0H235V8.28612H237ZM51 0V6.10743H53V0H51ZM51 6.10743C51 13.7613 55.1608 20.8243 61.8993 24.6423L62.8853 22.9023C56.7623 19.433 53 13.0283 53 6.10743H51ZM61.8993 24.6423L131.115 63.8598L132.101 62.1198L62.8853 22.9023L61.8993 24.6423ZM131.115 63.8598C137.851 67.6768 146.149 67.6768 152.885 63.8598L151.899 62.1198C145.774 65.5902 138.226 65.5902 132.101 62.1198L131.115 63.8598ZM152.885 63.8598L222.101 24.6423L221.115 22.9023L151.899 62.1198L152.885 63.8598ZM222.101 24.6423C228.839 20.8243 233 13.7613 233 6.10743H231C231 13.0283 227.238 19.433 221.115 22.9023L222.101 24.6423ZM233 6.10743V0H231V6.10743H233ZM231 1H232V-1H231V1ZM230 0V6.10743H232V0H230ZM230 6.10743C230 12.6742 226.43 18.7537 220.616 22.0479L221.602 23.788C228.032 20.145 232 13.4072 232 6.10743H230ZM220.616 22.0479L151.401 61.2654L152.387 63.0055L221.602 23.788L220.616 22.0479ZM151.401 61.2654C145.585 64.5609 138.415 64.5609 132.599 61.2654L131.613 63.0055C138.041 66.6476 145.959 66.6476 152.387 63.0055L151.401 61.2654ZM132.599 61.2654L63.3837 22.0479L62.3978 23.788L131.613 63.0055L132.599 61.2654ZM63.3837 22.0479C57.5698 18.7537 54 12.6742 54 6.10743H52C52 13.4072 55.9682 20.145 62.3978 23.788L63.3837 22.0479ZM54 6.10743V0H52V6.10743H54ZM52 1H53V-1H52V1ZM58 3.92866V0H56V3.92866H58ZM67.3079 19.7421C61.5422 16.4753 58 10.4447 58 3.92866H56C56 11.1777 59.9407 17.8666 66.322 21.4822L67.3079 19.7421ZM132.678 56.7809L67.3079 19.7421L66.322 21.4822L131.692 58.521L132.678 56.7809ZM151.322 56.7809C145.554 60.0488 138.446 60.0488 132.678 56.7809L131.692 58.521C138.071 62.1355 145.929 62.1355 152.308 58.521L151.322 56.7809ZM216.692 19.7421L151.322 56.7809L152.308 58.521L217.678 21.4822L216.692 19.7421ZM226 3.92866C226 10.4447 222.458 16.4753 216.692 19.7421L217.678 21.4822C224.059 17.8666 228 11.1777 228 3.92866H226ZM226 0V3.92866H228V0H226ZM226 1H227V-1H226V1ZM227 3.92866V0H225V3.92866H227ZM217.18 20.6278C223.252 17.1873 227 10.8236 227 3.92866H225C225 10.0906 221.65 15.796 216.194 18.8877L217.18 20.6278ZM151.809 57.6666L217.18 20.6278L216.194 18.8877L150.824 55.9265L151.809 57.6666ZM132.191 57.6666C138.261 61.1063 145.739 61.1063 151.809 57.6666L150.824 55.9265C145.364 59.0196 138.636 59.0196 133.176 55.9265L132.191 57.6666ZM66.8204 20.6278L132.191 57.6666L133.176 55.9265L67.8063 18.8877L66.8204 20.6278ZM57 3.92866C57 10.8236 60.7482 17.1873 66.8204 20.6278L67.8064 18.8877C62.3497 15.796 59 10.0906 59 3.92866H57ZM57 0V3.92866H59V0H57ZM57 1H58V-1H57V1ZM61 0V1.74988H63V0H61ZM61 1.74988C61 8.59404 64.7206 14.9088 70.7446 18.3221L71.7306 16.582C66.3221 13.5175 63 7.86103 63 1.74988H61ZM70.7446 18.3221L132.269 53.1821L133.255 51.442L71.7306 16.582L70.7446 18.3221ZM132.269 53.1821C138.291 56.5942 145.709 56.5942 151.731 53.1821L150.745 51.442C145.334 54.5075 138.666 54.5075 133.255 51.442L132.269 53.1821ZM151.731 53.1821L213.255 18.3221L212.269 16.582L150.745 51.442L151.731 53.1821ZM213.255 18.3221C219.279 14.9088 223 8.59406 223 1.74988H221C221 7.86105 217.678 13.5175 212.269 16.582L213.255 18.3221ZM223 1.74988V0H221V1.74988H223ZM221 1H222V-1H221V1ZM220 0V1.74988H222V0H220ZM220 1.74988C220 7.50695 216.87 12.8383 211.771 15.7276L212.757 17.4677C218.472 14.2296 222 8.23994 222 1.74988H220ZM211.771 15.7276L150.246 50.5876L151.232 52.3277L212.757 17.4677L211.771 15.7276ZM150.246 50.5876C145.144 53.4783 138.856 53.4783 133.754 50.5876L132.768 52.3277C138.481 55.5649 145.519 55.5649 151.232 52.3277L150.246 50.5876ZM133.754 50.5876L72.229 15.7276L71.2431 17.4677L132.768 52.3277L133.754 50.5876ZM72.229 15.7276C67.1296 12.8383 64 7.50694 64 1.74988H62C62 8.23993 65.5281 14.2296 71.2431 17.4677L72.229 15.7276ZM64 1.74988V0H62V1.74988H64ZM62 1H63V-1H62V1ZM76.1532 13.4219C71.2212 10.6274 68.1474 5.52517 68.0052 -0.0256131L66.0058 0.0256131C66.1663 6.28927 69.6341 12.0269 75.1673 15.162L76.1532 13.4219ZM133.833 46.1031L76.1532 13.4219L75.1673 15.162L132.847 47.8432L133.833 46.1031ZM150.167 46.1031C145.114 48.9663 138.886 48.9663 133.833 46.1031L132.847 47.8432C138.512 51.0529 145.488 51.0529 151.153 47.8432L150.167 46.1031ZM207.847 13.4219L150.167 46.1031L151.153 47.8432L208.833 15.162L207.847 13.4219ZM215.995 -0.0256131C215.853 5.52518 212.779 10.6274 207.847 13.4219L208.833 15.162C214.366 12.0269 217.834 6.28928 217.994 0.0256131L215.995 -0.0256131ZM215.994 1H216.995V-1H215.994V1ZM208.334 14.3076C213.558 11.3479 216.833 5.93616 216.994 0.0271983L214.995 -0.0271983C214.853 5.17016 211.972 9.94791 207.348 12.5675L208.334 14.3076ZM150.655 46.9889L208.334 14.3076L207.348 12.5675L149.669 45.2488L150.655 46.9889ZM133.345 46.9889C138.701 50.0237 145.299 50.0237 150.655 46.9889L149.669 45.2488C144.924 47.937 139.076 47.937 134.331 45.2488L133.345 46.9889ZM75.6657 14.3076L133.345 46.9889L134.331 45.2488L76.6516 12.5675L75.6657 14.3076ZM67.0062 0.0271997C67.167 5.93615 70.4422 11.3479 75.6657 14.3076L76.6516 12.5675C72.0283 9.94792 69.1469 5.17015 69.0055 -0.0271997L67.0062 0.0271997ZM67.0055 1H68.0058V-1H67.0055V1ZM71.2336 0.167297C72.0703 5.09792 75.1067 9.46156 79.5899 12.0018L80.5759 10.2617C76.6126 8.01609 73.9409 4.16677 73.2054 -0.167297L71.2336 0.167297ZM79.5899 12.0018L133.424 42.5043L134.41 40.7642L80.5759 10.2617L79.5899 12.0018ZM133.424 42.5043C138.732 45.5116 145.268 45.5116 150.576 42.5043L149.59 40.7642C144.894 43.4249 139.106 43.4249 134.41 40.7642L133.424 42.5043ZM150.576 42.5043L204.41 12.0018L203.424 10.2617L149.59 40.7642L150.576 42.5043ZM204.41 12.0018C208.893 9.46156 211.93 5.09793 212.766 0.167297L210.795 -0.167297C210.059 4.16677 207.387 8.01609 203.424 10.2617L204.41 12.0018ZM210.766 1H211.78V-1H210.766V1ZM209.782 -0.178442C209.059 3.80477 206.582 7.33583 202.926 9.40733L203.912 11.1474C208.081 8.78498 210.921 4.74879 211.75 0.178442L209.782 -0.178442ZM202.926 9.40733L149.092 39.9098L150.077 41.6499L203.912 11.1474L202.926 9.40733ZM149.092 39.9098C144.704 42.3957 139.296 42.3957 134.908 39.9098L133.923 41.6499C138.921 44.4823 145.079 44.4823 150.077 41.6499L149.092 39.9098ZM134.908 39.9098L81.0743 9.40733L80.0884 11.1474L133.923 41.6499L134.908 39.9098ZM81.0743 9.40733C77.4183 7.33583 74.9407 3.80477 74.2183 -0.178442L72.2504 0.178442C73.0793 4.74878 75.9189 8.78498 80.0884 11.1474L81.0743 9.40733ZM72.2195 1H73.2344V-1H72.2195V1ZM76.8703 0.330507C78.1103 3.87126 80.6164 6.91738 84.0126 8.84165L84.9985 7.10156C82.0247 5.4166 79.8382 2.75446 78.7579 -0.330507L76.8703 0.330507ZM84.0126 8.84165L134.001 37.1654L134.987 35.4253L84.9985 7.10156L84.0126 8.84165ZM134.001 37.1654C138.952 39.9702 145.048 39.9702 149.999 37.1654L149.013 35.4253C144.674 37.8836 139.326 37.8836 134.987 35.4253L134.001 37.1654ZM149.999 37.1654L199.987 8.84165L199.001 7.10156L149.013 35.4253L149.999 37.1654ZM199.987 8.84165C203.384 6.91738 205.89 3.87127 207.13 0.330509L205.242 -0.330509C204.162 2.75446 201.975 5.4166 199.001 7.10156L199.987 8.84165ZM205.123 1H206.186V-1H205.123V1ZM204.188 -0.354186C203.152 2.38193 201.169 4.73683 198.503 6.24717L199.489 7.98727C202.562 6.24596 204.858 3.52534 206.059 0.354186L204.188 -0.354186ZM198.503 6.24718L148.514 34.5709L149.5 36.311L199.489 7.98727L198.503 6.24718ZM148.514 34.5709C144.484 36.8544 139.516 36.8544 135.486 34.5709L134.5 36.311C139.142 38.941 144.858 38.941 149.5 36.311L148.514 34.5709ZM135.486 34.5709L85.4969 6.24718L84.511 7.98727L134.5 36.311L135.486 34.5709ZM85.4969 6.24718C82.8313 4.73683 80.8481 2.38193 79.8118 -0.354186L77.9414 0.354186C79.1425 3.52534 81.4378 6.24596 84.511 7.98727L85.4969 6.24718ZM77.8141 1H78.8766V-1H77.8141V1ZM89.4212 3.94142C87.4858 2.84481 85.9141 1.29738 84.8102 -0.519299L83.101 0.519299C84.3808 2.62544 86.2005 4.41533 88.4352 5.68151L89.4212 3.94142ZM135.565 30.0864L89.4212 3.94142L88.4352 5.68151L134.579 31.8265L135.565 30.0864ZM148.435 30.0864C144.454 32.3423 139.546 32.3423 135.565 30.0864L134.579 31.8265C139.172 34.4289 144.828 34.4289 149.421 31.8265L148.435 30.0864ZM194.579 3.94142L148.435 30.0864L149.421 31.8265L195.565 5.68151L194.579 3.94142ZM199.19 -0.519299C198.086 1.29738 196.514 2.84481 194.579 3.94141L195.565 5.68151C197.799 4.41533 199.619 2.62544 200.899 0.519299L199.19 -0.519299ZM198.862 1H200.044V-1H198.862V1ZM195.066 4.82713C196.954 3.75732 198.525 2.28683 199.691 0.559502L198.033 -0.559502C197.039 0.9137 195.698 2.17077 194.08 3.08703L195.066 4.82713ZM148.923 30.9721L195.066 4.82713L194.08 3.08703L147.937 29.232L148.923 30.9721ZM135.077 30.9721C139.362 33.3997 144.638 33.3997 148.923 30.9721L147.937 29.232C144.264 31.3131 139.736 31.3131 136.063 29.232L135.077 30.9721ZM88.9337 4.82713L135.077 30.9721L136.063 29.232L89.9196 3.08703L88.9337 4.82713ZM84.3092 0.5595C85.4752 2.28683 87.0455 3.75732 88.9337 4.82713L89.9196 3.08703C88.3025 2.17077 86.9613 0.9137 85.9668 -0.5595L84.3092 0.5595ZM83.9556 1H85.138V-1H83.9556V1ZM90.3959 0.739861C91.1381 1.41468 91.9619 2.01375 92.8579 2.52141L93.8438 0.781317C93.0776 0.3472 92.3743 -0.16441 91.7415 -0.739861L90.3959 0.739861ZM92.8579 2.52141L135.156 26.4877L136.142 24.7476L93.8438 0.781317L92.8579 2.52141ZM135.156 26.4877C139.392 28.8876 144.608 28.8876 148.844 26.4877L147.858 24.7476C144.234 26.801 139.766 26.801 136.142 24.7476L135.156 26.4877ZM148.844 26.4877L191.142 2.52141L190.156 0.781317L147.858 24.7476L148.844 26.4877ZM191.142 2.52141C192.038 2.01375 192.862 1.41468 193.604 0.739861L192.259 -0.739861C191.626 -0.164409 190.922 0.347201 190.156 0.781319L191.142 2.52141ZM191.374 1H192.931V-1H191.374V1ZM190.776 -0.802127C190.422 -0.53851 190.049 -0.294755 189.658 -0.0730483L190.644 1.66704C191.107 1.40431 191.55 1.11517 191.971 0.802127L190.776 -0.802127ZM189.658 -0.0730497L147.359 23.8932L148.345 25.6333L190.644 1.66704L189.658 -0.0730497ZM147.359 23.8932C144.044 25.7718 139.956 25.7718 136.641 23.8932L135.655 25.6333C139.582 27.8584 144.418 27.8584 148.345 25.6333L147.359 23.8932ZM136.641 23.8932L94.3422 -0.0730497L93.3563 1.66704L135.655 25.6333L136.641 23.8932ZM94.3423 -0.0730483C93.951 -0.294758 93.5777 -0.538513 93.2236 -0.802127L92.0293 0.802127C92.4497 1.11517 92.8926 1.40432 93.3563 1.66704L94.3423 -0.0730483ZM91.0687 1H92.6264V-1H91.0687V1ZM136.719 19.4087L100.929 -0.870047L99.9434 0.870047L135.734 21.1488L136.719 19.4087ZM147.281 19.4087C144.014 21.2597 139.986 21.2597 136.719 19.4087L135.734 21.1488C139.612 23.3463 144.388 23.3463 148.266 21.1488L147.281 19.4087ZM183.071 -0.870047L147.281 19.4087L148.266 21.1488L184.057 0.870047L183.071 -0.870047ZM181.557 1H183.564V-1H181.557V1ZM147.768 20.2944L182.05 0.870047L181.064 -0.870047L146.782 18.5543L147.768 20.2944ZM136.232 20.2944C139.802 22.3171 144.198 22.3171 147.768 20.2944L146.782 18.5543C143.824 20.2305 140.176 20.2305 137.218 18.5543L136.232 20.2944ZM101.95 0.870047L136.232 20.2944L137.218 18.5543L102.936 -0.870047L101.95 0.870047ZM100.436 1H102.443V-1H100.436V1ZM109.943 0.870047L136.311 15.8099L137.297 14.0698L110.929 -0.870047L109.943 0.870047ZM136.311 15.8099C139.832 17.805 144.168 17.805 147.689 15.8099L146.703 14.0698C143.794 15.7183 140.206 15.7183 137.297 14.0698L136.311 15.8099ZM147.689 15.8099L174.057 0.870047L173.071 -0.870047L146.703 14.0698L147.689 15.8099ZM171.557 1H173.564V-1H171.557V1ZM171.064 -0.870047L146.205 13.2154L147.191 14.9555L172.05 0.870047L171.064 -0.870047ZM146.205 13.2154C143.604 14.6891 140.396 14.6891 137.795 13.2154L136.809 14.9555C140.022 16.7757 143.978 16.7757 147.191 14.9555L146.205 13.2154ZM137.795 13.2154L112.936 -0.870047L111.95 0.870047L136.809 14.9555L137.795 13.2154ZM110.436 1H112.443V-1H110.436V1ZM137.874 8.73092L120.929 -0.870047L119.943 0.870047L136.888 10.471L137.874 8.73092ZM146.126 8.73092C143.574 10.1771 140.426 10.1771 137.874 8.73092L136.888 10.471C140.052 12.2637 143.948 12.2637 147.112 10.471L146.126 8.73092ZM163.071 -0.870047L146.126 8.73092L147.112 10.471L164.057 0.870047L163.071 -0.870047ZM161.557 1H163.564V-1H161.557V1ZM146.613 9.61665L162.05 0.870047L161.064 -0.870047L145.627 7.87656L146.613 9.61665ZM137.387 9.61665C140.242 11.2345 143.758 11.2345 146.613 9.61665L145.627 7.87656C143.384 9.14785 140.616 9.14785 138.373 7.87656L137.387 9.61665ZM121.95 0.870047L137.387 9.61665L138.373 7.87656L122.936 -0.870047L121.95 0.870047ZM120.436 1H122.443V-1H120.436V1ZM129.943 0.870047L137.466 5.13212L138.452 3.39203L130.929 -0.870047L129.943 0.870047ZM137.466 5.13212C140.272 6.72239 143.728 6.72239 146.534 5.13212L145.548 3.39203C143.353 4.63575 140.647 4.63575 138.452 3.39203L137.466 5.13212ZM146.534 5.13212L154.057 0.870047L153.071 -0.870047L145.548 3.39203L146.534 5.13212ZM151.557 1H153.564V-1H151.557V1ZM151.064 -0.870047L145.05 2.53766L146.036 4.27775L152.05 0.870047L151.064 -0.870047ZM145.05 2.53766C143.164 3.60653 140.836 3.60653 138.95 2.53766L137.964 4.27775C140.462 5.69316 143.538 5.69316 146.036 4.27775L145.05 2.53766ZM138.95 2.53766L132.936 -0.870047L131.95 0.870047L137.964 4.27775L138.95 2.53766ZM130.436 1H132.443V-1H130.436V1ZM264.843 57.5912L248.008 67.13L248.994 68.87L265.829 59.3313L264.843 57.5912ZM274.197 49.3343C271.742 52.6438 268.579 55.4742 264.843 57.5912L265.829 59.3313C269.81 57.0756 273.184 54.0577 275.803 50.5257L274.197 49.3343ZM274 49.93V51.5543H276V49.93H274ZM266.327 60.1857C270.021 58.0926 273.208 55.3628 275.778 52.1827L274.222 50.9258C271.809 53.912 268.815 56.4773 265.341 58.4456L266.327 60.1857ZM251 68.87L266.327 60.1857L265.341 58.4456L250.014 67.13L251 68.87ZM250.507 67H248.501V69H250.507V67Z" fill="url(#paint0_linear)" mask="url(#path-1-inside-1)"/>
<defs>
<linearGradient id="paint0_linear" x1="0" y1="61.3204" x2="275" y2="61.3204" gradientUnits="userSpaceOnUse">
<stop stop-color="#CB36FC"/>
<stop offset="1" stop-color="#4B8FFB"/>
</linearGradient>
</defs>
</svg>
