<svg width="275" height="68" viewBox="0 0 275 68" fill="none" xmlns="http://www.w3.org/2000/svg">
<mask id="path-1-inside-1" fill="white">
<path fill-rule="evenodd" clip-rule="evenodd" d="M0 58.2883V59.8888C2.5786 62.9882 5.71695 65.6586 9.32051 67.7366L9.77692 67.9998H11.7833L9.81893 66.8671C5.95324 64.638 2.63909 61.707 0 58.2883ZM274.973 60.6588C273.513 61.8764 271.937 62.9785 270.257 63.9473L263.229 67.9998H261.223L269.758 63.0778C271.647 61.9888 273.399 60.7262 275 59.3169V59.9998C275 60.2217 274.991 60.4415 274.973 60.6588ZM0 48.82C2.84357 55.068 7.59231 60.4006 13.7432 63.9473L20.7709 67.9998H22.7772L14.2416 63.0778C7.56029 59.2252 2.58518 53.2014 0 46.1918V48.82ZM2 -0.000244141V32.1929C2 43.7295 8.16237 54.3898 18.1658 60.1581L31.7648 67.9998H33.7711L18.6642 59.2886C8.96987 53.6985 3 43.3692 3 32.1929V-0.000244141H2ZM7 -0.000244141V29.4025C7 40.5271 12.9423 50.8066 22.5885 56.3689L42.7587 67.9998H44.765L23.0869 55.4994C13.7498 50.1154 8 40.1667 8 29.4025V-0.000244141H7ZM275 37.0986V40.3767C272.497 47.0133 267.755 52.7111 261.411 56.3689L241.241 67.9998H239.235L260.913 55.4994C267.967 51.432 272.973 44.7597 275 37.0986ZM12 -0.000244141V26.612C12 37.3246 17.7222 47.2235 27.0111 52.5798L53.7525 67.9998H55.7589L27.5095 51.7103C18.5297 46.5322 13 36.9643 13 26.612V-0.000244141H12ZM271 -0.000244141H272V26.612C272 37.3246 266.278 47.2235 256.989 52.5798L230.247 67.9998H228.241L256.49 51.7103C265.47 46.5322 271 36.9643 271 26.612V-0.000244141ZM17 -0.000244141V23.8216C17 34.1222 22.5021 43.6403 31.4338 48.7906L64.7465 67.9998H66.7528L31.9322 47.9211C23.3096 42.949 18 33.7618 18 23.8216V-0.000244141H17ZM266 -0.000244141H267V23.8216C267 34.1222 261.498 43.6403 252.566 48.7906L219.254 67.9998H217.247L252.068 47.9211C260.69 42.949 266 33.7618 266 23.8216V-0.000244141ZM22 -0.000244141V21.0312C22 30.9197 27.282 40.0571 35.8564 45.0014L75.7404 67.9998H77.7467L36.3548 44.1319C28.0895 39.3658 23 30.5593 23 21.0312V-0.000244141H22ZM261 -0.000244141H262V21.0312C262 30.9197 256.718 40.0571 248.144 45.0014L208.26 67.9998H206.253L247.645 44.1319C255.91 39.3658 261 30.5593 261 21.0312V-0.000244141ZM27 -0.000244141V18.2407C27 27.7172 32.0619 36.4739 40.2791 41.2122L86.7343 67.9998H88.7406L40.7775 40.3427C32.8694 35.7826 28 27.3568 28 18.2407V-0.000244141H27ZM256 -0.000244141H257V18.2407C257 27.7172 251.938 36.4739 243.721 41.2122L197.266 67.9998H195.259L243.222 40.3427C251.131 35.7826 256 27.3569 256 18.2407V-0.000244141ZM32 -0.000244141V15.4503C32 24.5148 36.8419 32.8907 44.7017 37.4229L97.7282 67.9998H99.7345L45.2001 36.5534C37.6494 32.1994 33 24.1544 33 15.4503V-0.000244141H32ZM251 -0.000244141H252V15.4503C252 24.5148 247.158 32.8907 239.298 37.4229L186.272 67.9998H184.265L238.8 36.5534C246.351 32.1994 251 24.1544 251 15.4503V-0.000244141ZM37 -0.000244141V12.6598C37 21.3123 41.6218 29.3075 49.1244 33.6337L108.722 67.9998H110.728L49.6228 32.7643C42.4293 28.6162 38 20.9519 38 12.6598V-0.000244141H37ZM246 -0.000244141H247V12.6598C247 21.3123 242.378 29.3075 234.876 33.6337L175.278 67.9998H173.272L234.377 32.7643C241.571 28.6162 246 20.9519 246 12.6598V-0.000244141ZM42 -0.000244141V10.4425C42 18.6829 46.4017 26.2974 53.547 30.4176L118.722 67.9998H120.728L54.0454 29.5482C47.2092 25.6061 43 18.3225 43 10.4425V-0.000244141H42ZM241 -0.000244141H242V10.4425C242 18.6829 237.598 26.2974 230.453 30.4176L165.278 67.9998H163.272L229.955 29.5482C236.791 25.6061 241 18.3226 241 10.4425V-0.000244141ZM47 -0.000244141V8.22514C47 16.0536 51.1816 23.2873 57.9697 27.2016L128.722 67.9998H130.728L58.4681 26.332C51.9891 22.5961 48 15.6932 48 8.22514V-0.000244141H47ZM236 -0.000244141H237V8.22514C237 16.0536 232.818 23.2873 226.03 27.2016L155.278 67.9998H153.272L225.532 26.332C232.011 22.5961 236 15.6932 236 8.22514V-0.000244141ZM52 -0.000244141V6.00787C52 13.4243 55.9615 20.2773 62.3923 23.9855L131.608 63.8974C138.038 67.6056 145.962 67.6056 152.392 63.8974L221.608 23.9855C228.038 20.2773 232 13.4243 232 6.00787V-0.000244141H231V6.00787C231 13.0639 227.231 19.586 221.109 23.116L151.894 63.0279C145.772 66.5581 138.228 66.5581 132.106 63.0279L62.8907 23.116C56.769 19.586 53 13.0639 53 6.00787V-0.000244141H52ZM57 -0.000244141V3.79053C57 10.7949 60.7414 17.2672 66.815 20.7694L132.185 58.464C138.259 61.9662 145.741 61.9662 151.815 58.464L217.185 20.7694C223.259 17.2672 227 10.7949 227 3.79053V-0.000244141H226V3.79053C226 10.4345 222.451 16.576 216.687 19.8999L151.317 57.5945C145.552 60.9187 138.448 60.9187 132.683 57.5945L67.3134 19.8999C61.5489 16.576 58 10.4345 58 3.79053V-0.000244141H57ZM62 -0.000244141V1.57317C62 8.16552 65.5214 14.2571 71.2376 17.5533L132.762 53.0305C138.479 56.3267 145.521 56.3267 151.238 53.0305L212.762 17.5533C218.479 14.2571 222 8.16554 222 1.57317V-0.000244141H221V1.57317C221 7.80516 217.671 13.5659 212.264 16.6838L150.739 52.161C145.332 55.2793 138.668 55.2793 133.261 52.161L71.736 16.6838C66.3288 13.5659 63 7.80514 63 1.57317V-0.000244141H62ZM67.012 -0.000244141C67.2324 5.9308 70.4879 11.3547 75.6603 14.3373L133.34 47.5972C138.699 50.6874 145.301 50.6874 150.66 47.5972L208.34 14.3373C213.512 11.3547 216.768 5.93081 216.988 -0.000244141H215.987C215.767 5.57045 212.704 10.6635 207.841 13.4678L150.162 46.7277C145.111 49.6399 138.889 49.6399 133.838 46.7277L76.1587 13.4678C71.2955 10.6635 68.2326 5.57044 68.0127 -0.000244141H67.012ZM72.2555 -0.000244141C73.0897 4.6291 75.9217 8.72164 80.0829 11.1212L133.917 42.1637C138.919 45.0479 145.081 45.0479 150.083 42.1637L203.917 11.1212C208.078 8.72164 210.91 4.62911 211.745 -0.000244141H210.727C209.905 4.26699 207.269 8.03134 203.419 10.2517L149.584 41.2942C144.891 44.0004 139.109 44.0004 134.416 41.2942L80.5813 10.2517C76.7308 8.03134 74.0949 4.26698 73.2728 -0.000244141H72.2555ZM77.8872 -0.000244141C79.0711 3.28287 81.3861 6.10627 84.5056 7.90506L134.494 36.7303C139.139 39.4084 144.861 39.4084 149.506 36.7303L199.494 7.90506C202.614 6.10627 204.929 3.28287 206.113 -0.000244141H205.044C203.906 2.91696 201.799 5.41912 198.996 7.03555L149.007 35.8608C144.671 38.361 139.329 38.361 134.993 35.8608L85.004 7.03555C82.2008 5.41912 80.0944 2.91696 78.9557 -0.000244141H77.8872ZM84.082 -0.000244141C85.2661 1.90612 86.9158 3.52852 88.9282 4.68896L135.072 31.2969C139.359 33.769 144.641 33.769 148.928 31.2969L195.072 4.68896C197.084 3.52852 198.734 1.90612 199.918 -0.000244141H198.721C197.657 1.53883 196.251 2.85202 194.573 3.81945L148.43 30.4274C144.451 32.7216 139.549 32.7216 135.57 30.4274L89.4266 3.81945C87.7489 2.85202 86.3432 1.53883 85.2785 -0.000244141H84.082ZM91.2984 -0.000244141C91.9251 0.551868 92.6112 1.04643 93.3509 1.47291L135.649 25.8635C139.579 28.1296 144.421 28.1296 148.351 25.8635L190.649 1.47291C191.389 1.04643 192.075 0.551868 192.702 -0.000244141H191.091C190.789 0.214518 190.476 0.416088 190.151 0.603417L147.852 24.994C144.231 27.0822 139.769 27.0822 136.148 24.994L93.8493 0.603417C93.5244 0.416088 93.2108 0.214518 92.9089 -0.000244141H91.2984ZM100.796 -0.000244141L136.226 20.4301C139.799 22.4902 144.201 22.4902 147.773 20.4301L183.204 -0.000244141H181.198L147.275 19.5606C144.011 21.4428 139.989 21.4428 136.725 19.5606L102.802 -0.000244141H100.796ZM110.796 -0.000244141L136.804 14.9966C140.019 16.8507 143.981 16.8507 147.196 14.9966L173.204 -0.000244141H171.197L146.698 14.1271C143.791 15.8033 140.209 15.8033 137.302 14.1271L112.802 -0.000244141H110.796ZM120.796 -0.000244141L137.381 9.56327C140.239 11.2114 143.761 11.2114 146.619 9.56327L163.204 -0.000244141H161.198L146.12 8.69378C143.571 10.1639 140.429 10.1639 137.88 8.69378L122.802 -0.000244141H120.796ZM130.796 -0.000244141L137.959 4.12985C140.459 5.57193 143.541 5.57193 146.041 4.12985L153.204 -0.000244141H151.198L145.543 3.26035C143.351 4.52448 140.649 4.52448 138.457 3.26035L132.802 -0.000244141H130.796ZM250.229 67.9998L265.336 59.2886C269.194 57.0636 272.463 54.0877 275 50.6064V52.2594C272.509 55.3971 269.418 58.0916 265.834 60.1581L252.235 67.9998H250.229Z"/>
</mask>
<path d="M0 59.8888H-1V60.2504L-0.768737 60.5284L0 59.8888ZM0 58.2883L0.791583 57.6772L-1 55.3564V58.2883H0ZM9.32051 67.7366L9.82004 66.8703H9.82004L9.32051 67.7366ZM9.77692 67.9998L9.27739 68.8661L9.50926 68.9998H9.77692V67.9998ZM11.7833 67.9998V68.9998H15.5193L12.2828 67.1335L11.7833 67.9998ZM9.81893 66.8671L10.3185 66.0008H10.3185L9.81893 66.8671ZM274.973 60.6588L275.614 61.4269L275.936 61.1583L275.97 60.7401L274.973 60.6588ZM270.257 63.9473L270.756 64.8136L270.257 63.9473ZM263.229 67.9998V68.9998H263.497L263.729 68.8661L263.229 67.9998ZM261.223 67.9998L260.723 67.1335L257.487 68.9998H261.223V67.9998ZM269.758 63.0778L269.259 62.2115L269.758 63.0778ZM275 59.3169H276V57.104L274.339 58.5663L275 59.3169ZM13.7432 63.9473L14.2427 63.081L13.7432 63.9473ZM0 48.82H-1V49.0369L-0.910171 49.2343L0 48.82ZM20.7709 67.9998L20.2713 68.8661L20.5032 68.9998H20.7709V67.9998ZM22.7772 67.9998V68.9998H26.5133L23.2767 67.1335L22.7772 67.9998ZM14.2416 63.0778L14.7411 62.2115L14.2416 63.0778ZM0 46.1918L0.938227 45.8457L-1 46.1918H0ZM2 -0.000244141V-1.00024H1V-0.000244141H2ZM18.1658 60.1581L18.6653 59.2919H18.6653L18.1658 60.1581ZM31.7648 67.9998L31.2652 68.8661L31.4971 68.9998H31.7648V67.9998ZM33.7711 67.9998V68.9998H37.5072L34.2706 67.1335L33.7711 67.9998ZM18.6642 59.2886L19.1638 58.4223L18.6642 59.2886ZM3 -0.000244141H4V-1.00024H3V-0.000244141ZM7 -0.000244141V-1.00024H6V-0.000244141H7ZM22.5885 56.3689L22.0889 57.2352L22.5885 56.3689ZM42.7587 67.9998L42.2591 68.8661L42.491 68.9998H42.7587V67.9998ZM44.765 67.9998V68.9998H48.5011L45.2645 67.1335L44.765 67.9998ZM23.0869 55.4994L23.5864 54.6331H23.5864L23.0869 55.4994ZM8 -0.000244141H9V-1.00024H8V-0.000244141ZM275 37.0986H276L274.033 36.8428L275 37.0986ZM275 40.3767L275.936 40.7296L276 40.559V40.3767H275ZM261.411 56.3689L261.911 57.2352L261.411 56.3689ZM241.241 67.9998V68.9998H241.509L241.741 68.8661L241.241 67.9998ZM239.235 67.9998L238.735 67.1335L235.499 68.9998H239.235V67.9998ZM260.913 55.4994L261.413 56.3657L260.913 55.4994ZM12 -0.000244141V-1.00024H11V-0.000244141H12ZM27.0111 52.5798L26.5116 53.4461L27.0111 52.5798ZM53.7525 67.9998L53.253 68.8661L53.4849 68.9998H53.7525V67.9998ZM55.7589 67.9998V68.9998H59.4949L56.2584 67.1335L55.7589 67.9998ZM27.5095 51.7103L28.0091 50.844H28.0091L27.5095 51.7103ZM13 -0.000244141H14V-1.00024H13V-0.000244141ZM271 -0.000244141V-1.00024H270V-0.000244141H271ZM272 -0.000244141H273V-1.00024H272V-0.000244141ZM256.989 52.5798L257.488 53.4461L256.989 52.5798ZM230.247 67.9998V68.9998H230.515L230.747 68.8661L230.247 67.9998ZM228.241 67.9998L227.742 67.1335L224.505 68.9998H228.241V67.9998ZM256.49 51.7103L255.991 50.844L256.49 51.7103ZM17 -0.000244141V-1.00024H16V-0.000244141H17ZM31.4338 48.7906L30.9342 49.6568L31.4338 48.7906ZM64.7465 67.9998L64.2469 68.8661L64.4788 68.9998H64.7465V67.9998ZM66.7528 67.9998V68.9998H70.4889L67.2523 67.1335L66.7528 67.9998ZM31.9322 47.9211L31.4326 48.7873L31.9322 47.9211ZM18 -0.000244141H19V-1.00024H18V-0.000244141ZM266 -0.000244141V-1.00024H265V-0.000244141H266ZM267 -0.000244141H268V-1.00024H267V-0.000244141ZM252.566 48.7906L253.066 49.6568L252.566 48.7906ZM219.254 67.9998V68.9998H219.521L219.753 68.8661L219.254 67.9998ZM217.247 67.9998L216.748 67.1335L213.511 68.9998H217.247V67.9998ZM252.068 47.9211L252.567 48.7873H252.567L252.068 47.9211ZM22 -0.000244141V-1.00024H21V-0.000244141H22ZM35.8564 45.0014L35.3569 45.8676L35.8564 45.0014ZM75.7404 67.9998L75.2408 68.8661L75.4727 68.9998H75.7404V67.9998ZM77.7467 67.9998V68.9998H81.4827L78.2462 67.1335L77.7467 67.9998ZM36.3548 44.1319L36.8544 43.2656L36.3548 44.1319ZM23 -0.000244141H24V-1.00024H23V-0.000244141ZM261 -0.000244141V-1.00024H260V-0.000244141H261ZM262 -0.000244141H263V-1.00024H262V-0.000244141ZM248.144 45.0014L248.643 45.8676L248.144 45.0014ZM208.26 67.9998V68.9998H208.527L208.759 68.8661L208.26 67.9998ZM206.253 67.9998L205.754 67.1335L202.517 68.9998H206.253V67.9998ZM247.645 44.1319L248.145 44.9982L247.645 44.1319ZM27 -0.000244141V-1.00024H26V-0.000244141H27ZM40.2791 41.2122L39.7795 42.0784L40.2791 41.2122ZM86.7343 67.9998L86.2347 68.8661L86.4666 68.9998H86.7343V67.9998ZM88.7406 67.9998V68.9998H92.4766L89.2401 67.1335L88.7406 67.9998ZM40.7775 40.3427L40.2779 41.209L40.7775 40.3427ZM28 -0.000244141H29V-1.00024H28V-0.000244141ZM256 -0.000244141V-1.00024H255V-0.000244141H256ZM257 -0.000244141H258V-1.00024H257V-0.000244141ZM243.721 41.2122L244.22 42.0784L243.721 41.2122ZM197.266 67.9998V68.9998H197.533L197.765 68.8661L197.266 67.9998ZM195.259 67.9998L194.76 67.1335L191.523 68.9998H195.259V67.9998ZM243.222 40.3427L243.722 41.209L243.222 40.3427ZM32 -0.000244141V-1.00024H31V-0.000244141H32ZM44.7017 37.4229L45.2012 36.5566L44.7017 37.4229ZM97.7282 67.9998L97.2286 68.8661L97.4605 68.9998H97.7282V67.9998ZM99.7345 67.9998V68.9998H103.471L100.234 67.1335L99.7345 67.9998ZM45.2001 36.5534L45.6997 35.6872L45.2001 36.5534ZM33 -0.000244141H34V-1.00024H33V-0.000244141ZM251 -0.000244141V-1.00024H250V-0.000244141H251ZM252 -0.000244141H253V-1.00024H252V-0.000244141ZM239.298 37.4229L238.799 36.5566L239.298 37.4229ZM186.272 67.9998V68.9998H186.539L186.771 68.8661L186.272 67.9998ZM184.265 67.9998L183.766 67.1335L180.529 68.9998H184.265V67.9998ZM238.8 36.5534L239.299 37.4197L238.8 36.5534ZM37 -0.000244141V-1.00024H36V-0.000244141H37ZM49.1244 33.6337L49.6239 32.7674L49.1244 33.6337ZM108.722 67.9998L108.223 68.8661L108.454 68.9998H108.722V67.9998ZM110.728 67.9998V68.9998H114.464L111.228 67.1335L110.728 67.9998ZM49.6228 32.7643L49.1232 33.6305L49.6228 32.7643ZM38 -0.000244141H39V-1.00024H38V-0.000244141ZM246 -0.000244141V-1.00024H245V-0.000244141H246ZM247 -0.000244141H248V-1.00024H247V-0.000244141ZM234.876 33.6337L234.376 32.7674L234.876 33.6337ZM175.278 67.9998V68.9998H175.546L175.777 68.8661L175.278 67.9998ZM173.272 67.9998L172.772 67.1335L169.536 68.9998H173.272V67.9998ZM234.377 32.7643L233.878 31.898L234.377 32.7643ZM42 -0.000244141V-1.00024H41V-0.000244141H42ZM53.547 30.4176L53.0475 31.2839L53.547 30.4176ZM118.722 67.9998L118.223 68.8661L118.454 68.9998H118.722V67.9998ZM120.728 67.9998V68.9998H124.464L121.228 67.1335L120.728 67.9998ZM54.0454 29.5482L53.5459 30.4144L54.0454 29.5482ZM43 -0.000244141H44V-1.00024H43V-0.000244141ZM241 -0.000244141V-1.00024H240V-0.000244141H241ZM242 -0.000244141H243V-1.00024H242V-0.000244141ZM230.453 30.4176L230.952 31.2839L230.453 30.4176ZM165.278 67.9998V68.9998H165.546L165.777 68.8661L165.278 67.9998ZM163.272 67.9998L162.772 67.1335L159.535 68.9998H163.272V67.9998ZM229.955 29.5482L230.454 30.4144L229.955 29.5482ZM47 -0.000244141V-1.00024H46V-0.000244141H47ZM57.9697 27.2016L57.4701 28.0678L57.9697 27.2016ZM128.722 67.9998L128.223 68.8661L128.454 68.9998H128.722V67.9998ZM130.728 67.9998V68.9998H134.465L131.228 67.1335L130.728 67.9998ZM58.4681 26.332L58.9676 25.4657L58.4681 26.332ZM48 -0.000244141H49V-1.00024H48V-0.000244141ZM236 -0.000244141V-1.00024H235V-0.000244141H236ZM237 -0.000244141H238V-1.00024H237V-0.000244141ZM226.03 27.2016L226.53 28.0678L226.03 27.2016ZM155.278 67.9998V68.9998H155.546L155.777 68.8661L155.278 67.9998ZM153.272 67.9998L152.772 67.1335L149.535 68.9998H153.272V67.9998ZM225.532 26.332L225.032 25.4657L225.532 26.332ZM52 -0.000244141V-1.00024H51V-0.000244141H52ZM62.3923 23.9855L61.8928 24.8518V24.8518L62.3923 23.9855ZM131.608 63.8974L132.107 63.0311L131.608 63.8974ZM152.392 63.8974L151.893 63.0311L152.392 63.8974ZM221.608 23.9855L222.107 24.8518L222.107 24.8518L221.608 23.9855ZM232 -0.000244141H233V-1.00024H232V-0.000244141ZM231 -0.000244141V-1.00024H230V-0.000244141H231ZM221.109 23.116L221.609 23.9823L221.109 23.116ZM151.894 63.0279L151.394 62.1616L151.894 63.0279ZM132.106 63.0279L132.606 62.1616L132.106 63.0279ZM62.8907 23.116L63.3903 22.2497L62.8907 23.116ZM53 -0.000244141H54V-1.00024H53V-0.000244141ZM57 -0.000244141V-1.00024H56V-0.000244141H57ZM66.815 20.7694L67.3145 19.9031L66.815 20.7694ZM132.185 58.464L131.686 59.3303L132.185 58.464ZM151.815 58.464L152.314 59.3303L151.815 58.464ZM217.185 20.7694L216.686 19.9031L217.185 20.7694ZM227 -0.000244141H228V-1.00024H227V-0.000244141ZM226 -0.000244141V-1.00024H225V-0.000244141H226ZM216.687 19.8999L217.186 20.7662L216.687 19.8999ZM151.317 57.5945L150.817 56.7282L151.317 57.5945ZM132.683 57.5945L133.183 56.7282L132.683 57.5945ZM67.3134 19.8999L66.8138 20.7662L67.3134 19.8999ZM58 -0.000244141H59V-1.00024H58V-0.000244141ZM62 -0.000244141V-1.00024H61V-0.000244141H62ZM71.2376 17.5533L70.7381 18.4196L71.2376 17.5533ZM132.762 53.0305L133.262 52.1642L132.762 53.0305ZM151.238 53.0305L150.738 52.1642L151.238 53.0305ZM212.762 17.5533L213.262 18.4196L212.762 17.5533ZM222 -0.000244141H223V-1.00024H222V-0.000244141ZM221 -0.000244141V-1.00024H220V-0.000244141H221ZM212.264 16.6838L212.763 17.5501H212.764L212.264 16.6838ZM150.739 52.161L151.239 53.0273L150.739 52.161ZM133.261 52.161L133.76 51.2948L133.261 52.161ZM71.736 16.6838L71.2365 17.5501L71.736 16.6838ZM63 -0.000244141H64V-1.00024H63V-0.000244141ZM75.6603 14.3373L75.1607 15.2036L75.6603 14.3373ZM67.012 -0.000244141V-1.00024H65.9741L66.0126 0.0369005L67.012 -0.000244141ZM133.34 47.5972L133.839 46.7309H133.839L133.34 47.5972ZM150.66 47.5972L150.161 46.7309H150.161L150.66 47.5972ZM208.34 14.3373L207.84 13.471L208.34 14.3373ZM216.988 -0.000244141L217.987 0.0369005L218.026 -1.00024H216.988V-0.000244141ZM215.987 -0.000244141V-1.00024H215.026L214.988 -0.0396896L215.987 -0.000244141ZM207.841 13.4678L207.342 12.6015V12.6015L207.841 13.4678ZM150.162 46.7277L149.662 45.8614L150.162 46.7277ZM133.838 46.7277L134.338 45.8614L133.838 46.7277ZM76.1587 13.4678L75.6591 14.3341L76.1587 13.4678ZM68.0127 -0.000244141L69.0119 -0.039691L68.974 -1.00024H68.0127V-0.000244141ZM72.2555 -0.000244141V-1.00024H71.0592L71.2713 0.177105L72.2555 -0.000244141ZM80.0829 11.1212L80.5824 10.2549V10.2549L80.0829 11.1212ZM133.917 42.1637L134.417 41.2974H134.417L133.917 42.1637ZM150.083 42.1637L149.583 41.2974L149.583 41.2974L150.083 42.1637ZM203.917 11.1212L204.417 11.9874L203.917 11.1212ZM211.745 -0.000244141L212.729 0.177107L212.941 -1.00024H211.745V-0.000244141ZM210.727 -0.000244141V-1.00024H209.901L209.745 -0.189419L210.727 -0.000244141ZM203.419 10.2517L203.918 11.118H203.918L203.419 10.2517ZM149.584 41.2942L149.085 40.4279H149.085L149.584 41.2942ZM134.416 41.2942L134.915 40.4279H134.915L134.416 41.2942ZM80.5813 10.2517L81.0809 9.38536L80.5813 10.2517ZM73.2728 -0.000244141L74.2548 -0.189418L74.0986 -1.00024H73.2728V-0.000244141ZM77.8872 -0.000244141V-1.00024H76.4636L76.9465 0.338979L77.8872 -0.000244141ZM84.5056 7.90506L85.0051 7.03876L84.5056 7.90506ZM134.494 36.7303L134.994 35.864L134.494 36.7303ZM149.506 36.7303L149.006 35.864H149.006L149.506 36.7303ZM199.494 7.90506L199.994 8.77135H199.994L199.494 7.90506ZM206.113 -0.000244141L207.053 0.338977L207.536 -1.00024H206.113V-0.000244141ZM205.044 -0.000244141V-1.00024H204.361L204.113 -0.363864L205.044 -0.000244141ZM198.996 7.03555L198.496 6.16925V6.16925L198.996 7.03555ZM149.007 35.8608L149.507 36.7271L149.007 35.8608ZM134.993 35.8608L134.493 36.7271L134.993 35.8608ZM85.004 7.03555L84.5044 7.90184V7.90184L85.004 7.03555ZM78.9557 -0.000244141L79.8872 -0.363866L79.6388 -1.00024H78.9557V-0.000244141ZM88.9282 4.68896L88.4287 5.55525L88.9282 4.68896ZM84.082 -0.000244141V-1.00024H82.2836L83.2325 0.527388L84.082 -0.000244141ZM135.072 31.2969L135.571 30.4306L135.571 30.4306L135.072 31.2969ZM148.928 31.2969L148.429 30.4306L148.429 30.4306L148.928 31.2969ZM195.072 4.68896L195.571 5.55525L195.072 4.68896ZM199.918 -0.000244141L200.768 0.527388L201.716 -1.00024H199.918V-0.000244141ZM198.721 -0.000244141V-1.00024H198.197L197.899 -0.569153L198.721 -0.000244141ZM194.573 3.81945L194.074 2.95316V2.95316L194.573 3.81945ZM148.43 30.4274L147.93 29.5611L147.93 29.5611L148.43 30.4274ZM135.57 30.4274L136.07 29.5611L136.07 29.5611L135.57 30.4274ZM89.4266 3.81945L89.9262 2.95316V2.95316L89.4266 3.81945ZM85.2785 -0.000244141L86.101 -0.56915L85.8027 -1.00024H85.2785V-0.000244141ZM91.2984 -0.000244141V-1.00024H88.6508L90.6374 0.750072L91.2984 -0.000244141ZM93.3509 1.47291L93.8504 0.606617V0.606616L93.3509 1.47291ZM135.649 25.8635L136.149 24.9972L136.149 24.9972L135.649 25.8635ZM148.351 25.8635L147.851 24.9972L147.851 24.9972L148.351 25.8635ZM190.649 1.47291L191.149 2.33921L191.149 2.3392L190.649 1.47291ZM192.702 -0.000244141L193.363 0.750076L195.349 -1.00024H192.702V-0.000244141ZM191.091 -0.000244141V-1.00024H190.772L190.511 -0.815055L191.091 -0.000244141ZM190.151 0.603417L190.65 1.46971L190.65 1.46971L190.151 0.603417ZM147.852 24.994L147.353 24.1277L147.353 24.1277L147.852 24.994ZM136.148 24.994L136.647 24.1277L136.647 24.1277L136.148 24.994ZM93.8493 0.603417L94.3488 -0.262877V-0.262878L93.8493 0.603417ZM92.9089 -0.000244141L93.4886 -0.815048L93.2284 -1.00024H92.9089V-0.000244141ZM136.226 20.4301L136.726 19.5638L136.726 19.5638L136.226 20.4301ZM100.796 -0.000244141V-1.00024H97.0601L100.297 0.86605L100.796 -0.000244141ZM147.773 20.4301L148.273 21.2964L147.773 20.4301ZM183.204 -0.000244141L183.703 0.86605L186.94 -1.00024H183.204V-0.000244141ZM181.198 -0.000244141V-1.00024H180.93L180.698 -0.866538L181.198 -0.000244141ZM147.275 19.5606L146.776 18.6943L146.776 18.6943L147.275 19.5606ZM136.725 19.5606L137.224 18.6943L137.224 18.6943L136.725 19.5606ZM102.802 -0.000244141L103.302 -0.866538L103.07 -1.00024H102.802V-0.000244141ZM110.796 -0.000244141V-1.00024H107.06L110.297 0.86605L110.796 -0.000244141ZM136.804 14.9966L137.303 14.1303V14.1303L136.804 14.9966ZM147.196 14.9966L146.697 14.1303V14.1303L147.196 14.9966ZM173.204 -0.000244141L173.703 0.86605L176.94 -1.00024H173.204V-0.000244141ZM171.197 -0.000244141V-1.00024H170.93L170.698 -0.866538L171.197 -0.000244141ZM146.698 14.1271L146.198 13.2608L146.698 14.1271ZM137.302 14.1271L137.802 13.2608L137.302 14.1271ZM112.802 -0.000244141L113.302 -0.866538L113.07 -1.00024H112.802V-0.000244141ZM137.381 9.56327L137.881 8.69698L137.381 9.56327ZM120.796 -0.000244141V-1.00024H117.06L120.297 0.86605L120.796 -0.000244141ZM146.619 9.56327L146.119 8.69698L146.619 9.56327ZM163.204 -0.000244141L163.703 0.86605L166.94 -1.00024H163.204V-0.000244141ZM161.198 -0.000244141V-1.00024H160.93L160.698 -0.866538L161.198 -0.000244141ZM146.12 8.69378L145.621 7.82748L145.621 7.82748L146.12 8.69378ZM137.88 8.69378L138.379 7.82748L138.379 7.82748L137.88 8.69378ZM122.802 -0.000244141L123.302 -0.866539L123.07 -1.00024H122.802V-0.000244141ZM130.796 -0.000244141V-1.00024H127.06L130.297 0.86605L130.796 -0.000244141ZM137.959 4.12985L138.458 3.26355L138.458 3.26355L137.959 4.12985ZM146.041 4.12985L145.542 3.26355L145.542 3.26355L146.041 4.12985ZM153.204 -0.000244141L153.703 0.86605L156.94 -1.00024H153.204V-0.000244141ZM151.198 -0.000244141V-1.00024H150.93L150.698 -0.866538L151.198 -0.000244141ZM145.543 3.26035L146.043 4.12665L145.543 3.26035ZM138.457 3.26035L137.957 4.12665L138.457 3.26035ZM132.802 -0.000244141L133.302 -0.866538L133.07 -1.00024H132.802V-0.000244141ZM265.336 59.2886L264.836 58.4223L265.336 59.2886ZM250.229 67.9998L249.729 67.1335L246.493 68.9998H250.229V67.9998ZM275 50.6064H276V47.5362L274.192 50.0174L275 50.6064ZM275 52.2594L275.783 52.8812L276 52.6081V52.2594H275ZM265.834 60.1581L266.334 61.0244L265.834 60.1581ZM252.235 67.9998V68.9998H252.503L252.735 68.8661L252.235 67.9998ZM1 59.8888V58.2883H-1V59.8888H1ZM-0.768737 60.5284C1.88447 63.7175 5.11361 66.4651 8.82097 68.6029L9.82004 66.8703C6.32029 64.8522 3.27274 62.259 0.768737 59.2493L-0.768737 60.5284ZM8.82097 68.6029L9.27739 68.8661L10.2765 67.1335L9.82004 66.8703L8.82097 68.6029ZM11.7833 66.9998H9.77692V68.9998H11.7833V66.9998ZM12.2828 67.1335L10.3185 66.0008L9.3194 67.7334L11.2837 68.8661L12.2828 67.1335ZM10.3185 66.0008C6.56748 63.8378 3.35207 60.9942 0.791583 57.6772L-0.791583 58.8994C1.92611 62.4199 5.339 65.4381 9.3194 67.7334L10.3185 66.0008ZM274.333 59.8907C272.916 61.0718 271.387 62.141 269.757 63.081L270.756 64.8136C272.486 63.816 274.109 62.681 275.614 61.4269L274.333 59.8907ZM269.757 63.081L262.73 67.1335L263.729 68.8661L270.756 64.8136L269.757 63.081ZM263.229 66.9998H261.223V68.9998H263.229V66.9998ZM261.722 68.8661L270.258 63.9441L269.259 62.2115L260.723 67.1335L261.722 68.8661ZM270.258 63.9441C272.205 62.8216 274.011 61.5202 275.661 60.0674L274.339 58.5663C272.788 59.9321 271.09 61.1559 269.259 62.2115L270.258 63.9441ZM274 59.3169V59.9998H276V59.3169H274ZM274 59.9998C274 60.1945 273.992 60.3872 273.977 60.5775L275.97 60.7401C275.99 60.4957 276 60.2488 276 59.9998H274ZM14.2427 63.081C8.27553 59.6402 3.66881 54.4672 0.910171 48.4058L-0.910171 49.2343C2.01833 55.6689 6.90908 61.1609 13.2436 64.8136L14.2427 63.081ZM21.2704 67.1335L14.2427 63.081L13.2436 64.8136L20.2713 68.8661L21.2704 67.1335ZM22.7772 66.9998H20.7709V68.9998H22.7772V66.9998ZM13.742 63.9441L22.2777 68.8661L23.2767 67.1335L14.7411 62.2115L13.742 63.9441ZM-0.938227 46.5378C1.72659 53.7634 6.85504 59.9729 13.742 63.9441L14.7411 62.2115C8.26554 58.4775 3.44376 52.6395 0.938227 45.8457L-0.938227 46.5378ZM1 48.82V46.1918H-1V48.82H1ZM1 -0.000244141V32.1929H3V-0.000244141H1ZM1 32.1929C1 44.0874 7.35353 55.0778 17.6663 61.0244L18.6653 59.2919C8.97121 53.7019 3 43.3717 3 32.1929H1ZM17.6663 61.0244L31.2652 68.8661L32.2643 67.1335L18.6653 59.2919L17.6663 61.0244ZM33.7711 66.9998H31.7648V68.9998H33.7711V66.9998ZM34.2706 67.1335L19.1638 58.4223L18.1647 60.1549L33.2716 68.8661L34.2706 67.1335ZM19.1638 58.4223C9.77871 53.0106 4 43.0113 4 32.1929H2C2 43.727 8.16102 54.3865 18.1647 60.1549L19.1638 58.4223ZM4 32.1929V-0.000244141H2V32.1929H4ZM2 0.999756H3V-1.00024H2V0.999756ZM8 29.4025V-0.000244141H6V29.4025H8ZM23.088 55.5027C13.7511 50.1187 8 40.1692 8 29.4025H6C6 40.885 12.1334 51.4946 22.0889 57.2352L23.088 55.5027ZM43.2582 67.1335L23.088 55.5027L22.0889 57.2352L42.2591 68.8661L43.2582 67.1335ZM44.765 66.9998H42.7587V68.9998H44.765V66.9998ZM22.5873 56.3657L44.2655 68.8661L45.2645 67.1335L23.5864 54.6331L22.5873 56.3657ZM7 29.4025C7 40.5246 12.9409 50.8033 22.5874 56.3657L23.5864 54.6331C14.5586 49.4274 9 39.8088 9 29.4025H7ZM7 -0.000244141V29.4025H9V-0.000244141H7ZM7 0.999756H8V-1.00024H7V0.999756ZM274 37.0986V40.3767H276V37.0986H274ZM274.064 40.0237C271.641 46.4474 267.052 51.9622 260.912 55.5027L261.911 57.2352C268.458 53.46 273.352 47.5792 275.936 40.7296L274.064 40.0237ZM260.912 55.5027L240.742 67.1335L241.741 68.8661L261.911 57.2352L260.912 55.5027ZM241.241 66.9998H239.235V68.9998H241.241V66.9998ZM239.734 68.8661L261.413 56.3657L260.414 54.6331L238.735 67.1335L239.734 68.8661ZM261.413 56.3657C268.7 52.1635 273.873 45.2698 275.967 37.3544L274.033 36.8428C272.074 44.2496 267.233 50.7006 260.414 54.6331L261.413 56.3657ZM11 -0.000244141V26.612H13V-0.000244141H11ZM11 26.612C11 37.6825 16.9134 47.9114 26.5116 53.4461L27.5106 51.7135C18.531 46.5355 13 36.9668 13 26.612H11ZM26.5116 53.4461L53.253 68.8661L54.2521 67.1335L27.5106 51.7135L26.5116 53.4461ZM55.7589 66.9998H53.7525V68.9998H55.7589V66.9998ZM56.2584 67.1335L28.0091 50.844L27.01 52.5765L55.2593 68.8661L56.2584 67.1335ZM28.0091 50.844C19.3385 45.8443 14 36.6064 14 26.612H12C12 37.3221 17.7209 47.2201 27.01 52.5765L28.0091 50.844ZM14 26.612V-0.000244141H12V26.612H14ZM12 0.999756H13V-1.00024H12V0.999756ZM271 0.999756H272V-1.00024H271V0.999756ZM273 26.612V-0.000244141H271V26.612H273ZM257.488 53.4461C267.087 47.9114 273 37.6825 273 26.612H271C271 36.9668 265.469 46.5355 256.489 51.7135L257.488 53.4461ZM230.747 68.8661L257.488 53.4461L256.489 51.7135L229.748 67.1335L230.747 68.8661ZM230.247 66.9998H228.241V68.9998H230.247V66.9998ZM255.991 50.844L227.742 67.1335L228.741 68.8661L256.99 52.5765L255.991 50.844ZM270 26.612C270 36.6064 264.661 45.8443 255.991 50.844L256.99 52.5765C266.279 47.2201 272 37.3221 272 26.612H270ZM270 -0.000244141V26.612H272V-0.000244141H270ZM18 23.8216V-0.000244141H16V23.8216H18ZM31.9333 47.9243C23.311 42.9523 18 33.7643 18 23.8216H16C16 34.48 21.6933 44.3282 30.9342 49.6568L31.9333 47.9243ZM65.246 67.1335L31.9333 47.9243L30.9342 49.6568L64.2469 68.8661L65.246 67.1335ZM66.7528 66.9998H64.7465V68.9998H66.7528V66.9998ZM31.4326 48.7873L66.2533 68.8661L67.2523 67.1335L32.4317 47.0548L31.4326 48.7873ZM17 23.8216C17 34.1196 22.5008 43.6369 31.4326 48.7873L32.4317 47.0548C24.1185 42.2611 19 33.4039 19 23.8216H17ZM17 -0.000244141V23.8216H19V-0.000244141H17ZM17 0.999756H18V-1.00024H17V0.999756ZM266 0.999756H267V-1.00024H266V0.999756ZM266 -0.000244141V23.8216H268V-0.000244141H266ZM266 23.8216C266 33.7643 260.689 42.9523 252.067 47.9243L253.066 49.6568C262.307 44.3282 268 34.48 268 23.8216H266ZM252.067 47.9243L218.754 67.1335L219.753 68.8661L253.066 49.6568L252.067 47.9243ZM219.254 66.9998H217.247V68.9998H219.254V66.9998ZM217.747 68.8661L252.567 48.7873L251.568 47.0548L216.748 67.1335L217.747 68.8661ZM252.567 48.7873C261.499 43.6369 267 34.1196 267 23.8216H265C265 33.4039 259.882 42.2611 251.568 47.0548L252.567 48.7873ZM267 23.8216V-0.000244141H265V23.8216H267ZM21 -0.000244141V21.0312H23V-0.000244141H21ZM21 21.0312C21 31.2776 26.4732 40.745 35.3569 45.8676L36.3559 44.1351C28.0909 39.3691 23 30.5618 23 21.0312H21ZM35.3569 45.8676L75.2408 68.8661L76.2399 67.1335L36.3559 44.1351L35.3569 45.8676ZM77.7467 66.9998H75.7404V68.9998H77.7467V66.9998ZM78.2462 67.1335L36.8544 43.2656L35.8553 44.9982L77.2471 68.8661L78.2462 67.1335ZM36.8544 43.2656C28.8984 38.6779 24 30.2015 24 21.0312H22C22 30.9172 27.2807 40.0537 35.8553 44.9982L36.8544 43.2656ZM24 21.0312V-0.000244141H22V21.0312H24ZM22 0.999756H23V-1.00024H22V0.999756ZM261 0.999756H262V-1.00024H261V0.999756ZM263 21.0312V-0.000244141H261V21.0312H263ZM248.643 45.8676C257.527 40.745 263 31.2776 263 21.0312H261C261 30.5618 255.909 39.3691 247.644 44.1351L248.643 45.8676ZM208.759 68.8661L248.643 45.8676L247.644 44.1351L207.76 67.1335L208.759 68.8661ZM208.26 66.9998H206.253V68.9998H208.26V66.9998ZM247.146 43.2656L205.754 67.1335L206.753 68.8661L248.145 44.9982L247.146 43.2656ZM260 21.0312C260 30.2014 255.102 38.6779 247.146 43.2656L248.145 44.9982C256.719 40.0537 262 30.9172 262 21.0312H260ZM260 -0.000244141V21.0312H262V-0.000244141H260ZM28 18.2407V-0.000244141H26V18.2407H28ZM40.7786 40.3459C32.8708 35.786 28 27.3594 28 18.2407H26C26 28.0751 31.2531 37.1618 39.7795 42.0784L40.7786 40.3459ZM87.2338 67.1335L40.7786 40.3459L39.7795 42.0784L86.2347 68.8661L87.2338 67.1335ZM88.7406 66.9998H86.7343V68.9998H88.7406V66.9998ZM40.2779 41.209L88.241 68.8661L89.2401 67.1335L41.277 39.4764L40.2779 41.209ZM27 18.2407C27 27.7147 32.0606 36.4706 40.2779 41.209L41.277 39.4764C33.6783 35.0947 29 26.999 29 18.2407H27ZM27 -0.000244141V18.2407H29V-0.000244141H27ZM27 0.999756H28V-1.00024H27V0.999756ZM256 0.999756H257V-1.00024H256V0.999756ZM256 -0.000244141V18.2407H258V-0.000244141H256ZM256 18.2407C256 27.3594 251.129 35.786 243.221 40.3459L244.22 42.0784C252.747 37.1618 258 28.0751 258 18.2407H256ZM243.221 40.3459L196.766 67.1335L197.765 68.8661L244.22 42.0784L243.221 40.3459ZM197.266 66.9998H195.259V68.9998H197.266V66.9998ZM195.759 68.8661L243.722 41.209L242.723 39.4764L194.76 67.1335L195.759 68.8661ZM243.722 41.209C251.939 36.4706 257 27.7147 257 18.2407H255C255 26.999 250.322 35.0947 242.723 39.4764L243.722 41.209ZM257 18.2407V-0.000244141H255V18.2407H257ZM31 -0.000244141V15.4503H33V-0.000244141H31ZM31 15.4503C31 24.8726 36.033 33.5786 44.2022 38.2892L45.2012 36.5566C37.6507 32.2028 33 24.1569 33 15.4503H31ZM44.2022 38.2892L97.2286 68.8661L98.2277 67.1335L45.2012 36.5566L44.2022 38.2892ZM99.7345 66.9998H97.7282V68.9998H99.7345V66.9998ZM100.234 67.1335L45.6997 35.6872L44.7006 37.4197L99.235 68.8661L100.234 67.1335ZM45.6997 35.6872C38.4582 31.5115 34 23.7965 34 15.4503H32C32 24.5122 36.8405 32.8874 44.7006 37.4197L45.6997 35.6872ZM34 15.4503V-0.000244141H32V15.4503H34ZM32 0.999756H33V-1.00024H32V0.999756ZM251 0.999756H252V-1.00024H251V0.999756ZM253 15.4503V-0.000244141H251V15.4503H253ZM239.798 38.2892C247.967 33.5786 253 24.8726 253 15.4503H251C251 24.1569 246.349 32.2028 238.799 36.5566L239.798 38.2892ZM186.771 68.8661L239.798 38.2892L238.799 36.5566L185.772 67.1335L186.771 68.8661ZM186.272 66.9998H184.265V68.9998H186.272V66.9998ZM238.3 35.6872L183.766 67.1335L184.765 68.8661L239.299 37.4197L238.3 35.6872ZM250 15.4503C250 23.7965 245.542 31.5115 238.3 35.6872L239.299 37.4197C247.159 32.8874 252 24.5122 252 15.4503H250ZM250 -0.000244141V15.4503H252V-0.000244141H250ZM38 12.6598V-0.000244141H36V12.6598H38ZM49.6239 32.7674C42.4306 28.6196 38 20.9544 38 12.6598H36C36 21.6702 40.8129 29.9955 48.6248 34.5L49.6239 32.7674ZM109.222 67.1335L49.6239 32.7674L48.6248 34.5L108.223 68.8661L109.222 67.1335ZM110.728 66.9998H108.722V68.9998H110.728V66.9998ZM49.1232 33.6305L110.229 68.8661L111.228 67.1335L50.1223 31.898L49.1232 33.6305ZM37 12.6598C37 21.3098 41.6204 29.3042 49.1232 33.6305L50.1223 31.898C43.2381 27.9283 39 20.594 39 12.6598H37ZM37 -0.000244141V12.6598H39V-0.000244141H37ZM37 0.999756H38V-1.00024H37V0.999756ZM246 0.999756H247V-1.00024H246V0.999756ZM246 -0.000244141V12.6598H248V-0.000244141H246ZM246 12.6598C246 20.9544 241.569 28.6196 234.376 32.7674L235.375 34.5C243.187 29.9955 248 21.6702 248 12.6598H246ZM234.376 32.7674L174.778 67.1335L175.777 68.8661L235.375 34.5L234.376 32.7674ZM175.278 66.9998H173.272V68.9998H175.278V66.9998ZM173.771 68.8661L234.877 33.6305L233.878 31.898L172.772 67.1335L173.771 68.8661ZM234.877 33.6305C242.38 29.3042 247 21.3098 247 12.6598H245C245 20.5941 240.762 27.9283 233.878 31.898L234.877 33.6305ZM247 12.6598V-0.000244141H245V12.6598H247ZM41 -0.000244141V10.4425H43V-0.000244141H41ZM41 10.4425C41 19.0408 45.5929 26.9854 53.0475 31.2839L54.0465 29.5514C47.2105 25.6095 43 18.3251 43 10.4425H41ZM53.0475 31.2839L118.223 68.8661L119.222 67.1335L54.0465 29.5514L53.0475 31.2839ZM120.728 66.9998H118.722V68.9998H120.728V66.9998ZM121.228 67.1335L54.545 28.6819L53.5459 30.4144L120.229 68.8661L121.228 67.1335ZM54.545 28.6819C48.018 24.9182 44 17.9647 44 10.4425H42C42 18.6804 46.4003 26.2941 53.5459 30.4144L54.545 28.6819ZM44 10.4425V-0.000244141H42V10.4425H44ZM42 0.999756H43V-1.00024H42V0.999756ZM241 0.999756H242V-1.00024H241V0.999756ZM243 10.4425V-0.000244141H241V10.4425H243ZM230.952 31.2839C238.407 26.9854 243 19.0408 243 10.4425H241C241 18.3251 236.789 25.6095 229.953 29.5514L230.952 31.2839ZM165.777 68.8661L230.952 31.2839L229.953 29.5514L164.778 67.1335L165.777 68.8661ZM165.278 66.9998H163.272V68.9998H165.278V66.9998ZM229.455 28.6819L162.772 67.1335L163.771 68.8661L230.454 30.4144L229.455 28.6819ZM240 10.4425C240 17.9647 235.982 24.9182 229.455 28.6819L230.454 30.4144C237.6 26.2941 242 18.6804 242 10.4425H240ZM240 -0.000244141V10.4425H242V-0.000244141H240ZM48 8.22514V-0.000244141H46V8.22514H48ZM58.4692 26.3353C51.9904 22.5994 48 15.6957 48 8.22514H46C46 16.4114 50.3728 23.9753 57.4701 28.0678L58.4692 26.3353ZM129.222 67.1335L58.4692 26.3353L57.4701 28.0678L128.223 68.8661L129.222 67.1335ZM130.728 66.9998H128.722V68.9998H130.728V66.9998ZM57.9685 27.1983L130.229 68.8661L131.228 67.1335L58.9676 25.4657L57.9685 27.1983ZM47 8.22514C47 16.051 51.1803 23.284 57.9685 27.1983L58.9676 25.4657C52.7979 21.9081 49 15.3353 49 8.22514H47ZM47 -0.000244141V8.22514H49V-0.000244141H47ZM47 0.999756H48V-1.00024H47V0.999756ZM236 0.999756H237V-1.00024H236V0.999756ZM236 -0.000244141V8.22514H238V-0.000244141H236ZM236 8.22514C236 15.6957 232.01 22.5994 225.531 26.3353L226.53 28.0678C233.627 23.9753 238 16.4114 238 8.22514H236ZM225.531 26.3353L154.778 67.1335L155.777 68.8661L226.53 28.0678L225.531 26.3353ZM155.278 66.9998H153.272V68.9998H155.278V66.9998ZM153.771 68.8661L226.031 27.1983L225.032 25.4657L152.772 67.1335L153.771 68.8661ZM226.031 27.1983C232.82 23.284 237 16.0511 237 8.22514H235C235 15.3353 231.202 21.9081 225.032 25.4657L226.031 27.1983ZM237 8.22514V-0.000244141H235V8.22514H237ZM51 -0.000244141V6.00787H53V-0.000244141H51ZM51 6.00787C51 13.7821 55.1527 20.9652 61.8928 24.8518L62.8918 23.1192C56.7704 19.5894 53 13.0664 53 6.00787H51ZM61.8928 24.8518L131.108 64.7637L132.107 63.0311L62.8918 23.1192L61.8928 24.8518ZM131.108 64.7637C137.848 68.6502 146.152 68.6502 152.892 64.7637L151.893 63.0311C145.771 66.561 138.229 66.561 132.107 63.0311L131.108 64.7637ZM152.892 64.7637L222.107 24.8518L221.108 23.1192L151.893 63.0311L152.892 64.7637ZM222.107 24.8518C228.847 20.9653 233 13.7821 233 6.00787H231C231 13.0664 227.23 19.5894 221.108 23.1192L222.107 24.8518ZM233 6.00787V-0.000244141H231V6.00787H233ZM231 0.999756H232V-1.00024H231V0.999756ZM230 -0.000244141V6.00787H232V-0.000244141H230ZM230 6.00787C230 12.706 226.422 18.8981 220.61 22.2497L221.609 23.9823C228.04 20.274 232 13.4218 232 6.00787H230ZM220.61 22.2497L151.394 62.1616L152.393 63.8942L221.609 23.9823L220.61 22.2497ZM151.394 62.1616C145.581 65.5136 138.419 65.5136 132.606 62.1616L131.607 63.8942C138.038 67.6027 145.962 67.6027 152.393 63.8942L151.394 62.1616ZM132.606 62.1616L63.3903 22.2497L62.3912 23.9823L131.607 63.8942L132.606 62.1616ZM63.3903 22.2497C57.5779 18.8981 54 12.706 54 6.00787H52C52 13.4217 55.9602 20.274 62.3912 23.9823L63.3903 22.2497ZM54 6.00787V-0.000244141H52V6.00787H54ZM52 0.999756H53V-1.00024H52V0.999756ZM58 3.79053V-0.000244141H56V3.79053H58ZM67.3145 19.9031C61.5503 16.5793 58 10.437 58 3.79053H56C56 11.1528 59.9326 17.9552 66.3154 21.6357L67.3145 19.9031ZM132.685 57.5977L67.3145 19.9031L66.3154 21.6357L131.686 59.3303L132.685 57.5977ZM151.315 57.5977C145.551 60.9216 138.449 60.9216 132.685 57.5977L131.686 59.3303C138.068 63.0107 145.932 63.0107 152.314 59.3303L151.315 57.5977ZM216.686 19.9031L151.315 57.5977L152.314 59.3303L217.685 21.6357L216.686 19.9031ZM226 3.79053C226 10.437 222.45 16.5793 216.686 19.9031L217.685 21.6357C224.067 17.9552 228 11.1528 228 3.79053H226ZM226 -0.000244141V3.79053H228V-0.000244141H226ZM226 0.999756H227V-1.00024H226V0.999756ZM227 3.79053V-0.000244141H225V3.79053H227ZM217.186 20.7662C223.26 17.2639 227 10.7924 227 3.79053H225C225 10.0767 221.642 15.888 216.187 19.0336L217.186 20.7662ZM151.816 58.4608L217.186 20.7662L216.187 19.0336L150.817 56.7282L151.816 58.4608ZM132.184 58.4608C138.258 61.9633 145.742 61.9633 151.816 58.4608L150.817 56.7282C145.361 59.8741 138.639 59.8741 133.183 56.7282L132.184 58.4608ZM66.8138 20.7662L132.184 58.4608L133.183 56.7282L67.8129 19.0336L66.8138 20.7662ZM57 3.79053C57 10.7924 60.7401 17.2639 66.8138 20.7662L67.8129 19.0336C62.3578 15.888 59 10.0767 59 3.79053H57ZM57 -0.000244141V3.79053H59V-0.000244141H57ZM57 0.999756H58V-1.00024H57V0.999756ZM61 -0.000244141V1.57317H63V-0.000244141H61ZM61 1.57317C61 8.52339 64.7125 14.9451 70.7381 18.4196L71.7371 16.687C66.3302 13.5692 63 7.80765 63 1.57317H61ZM70.7381 18.4196L132.263 53.8968L133.262 52.1642L71.7371 16.687L70.7381 18.4196ZM132.263 53.8968C138.288 57.3713 145.712 57.3713 151.737 53.8968L150.738 52.1642C145.331 55.2822 138.669 55.2822 133.262 52.1642L132.263 53.8968ZM151.737 53.8968L213.262 18.4196L212.263 16.687L150.738 52.1642L151.737 53.8968ZM213.262 18.4196C219.287 14.9451 223 8.52341 223 1.57317H221C221 7.80766 217.67 13.5692 212.263 16.687L213.262 18.4196ZM223 1.57317V-0.000244141H221V1.57317H223ZM221 0.999756H222V-1.00024H221V0.999756ZM220 -0.000244141V1.57317H222V-0.000244141H220ZM220 1.57317C220 7.4473 216.862 12.8779 211.764 15.8175L212.764 17.5501C218.48 14.2538 222 8.16302 222 1.57317H220ZM211.764 15.8175L150.24 51.2948L151.239 53.0273L212.763 17.5501L211.764 15.8175ZM150.24 51.2948C145.141 54.2347 138.859 54.2347 133.76 51.2948L132.761 53.0273C138.478 56.3238 145.522 56.3238 151.239 53.0273L150.24 51.2948ZM133.76 51.2948L72.2356 15.8175L71.2365 17.5501L132.761 53.0273L133.76 51.2948ZM72.2356 15.8175C67.1377 12.8779 64 7.44728 64 1.57317H62C62 8.16301 65.52 14.2538 71.2365 17.5501L72.2356 15.8175ZM64 1.57317V-0.000244141H62V1.57317H64ZM62 0.999756H63V-1.00024H62V0.999756ZM76.1598 13.471C71.286 10.6606 68.219 5.55011 68.0113 -0.0373888L66.0126 0.0369005C66.2459 6.3115 69.6898 12.0488 75.1607 15.2036L76.1598 13.471ZM133.839 46.7309L76.1598 13.471L75.1607 15.2036L132.84 48.4635L133.839 46.7309ZM150.161 46.7309C145.111 49.6428 138.889 49.6428 133.839 46.7309L132.84 48.4635C138.508 51.7319 145.492 51.7319 151.16 48.4635L150.161 46.7309ZM207.84 13.471L150.161 46.7309L151.16 48.4635L208.839 15.2036L207.84 13.471ZM215.989 -0.0373888C215.781 5.55011 212.714 10.6606 207.84 13.471L208.839 15.2036C214.31 12.0488 217.754 6.31151 217.987 0.0369005L215.989 -0.0373888ZM215.987 0.999756H216.988V-1.00024H215.987V0.999756ZM208.341 14.3341C213.502 11.358 216.753 5.95254 216.987 0.0392013L214.988 -0.0396896C214.782 5.18836 211.907 9.96902 207.342 12.6015L208.341 14.3341ZM150.661 47.594L208.341 14.3341L207.342 12.6015L149.662 45.8614L150.661 47.594ZM133.339 47.594C138.698 50.6845 145.302 50.6845 150.661 47.594L149.662 45.8614C144.921 48.5953 139.079 48.5953 134.338 45.8614L133.339 47.594ZM75.6591 14.3341L133.339 47.594L134.338 45.8614L76.6582 12.6015L75.6591 14.3341ZM67.0135 0.0392027C67.2469 5.95253 70.4981 11.358 75.6591 14.3341L76.6582 12.6015C72.093 9.96902 69.2183 5.18835 69.0119 -0.039691L67.0135 0.0392027ZM67.012 0.999756H68.0127V-1.00024H67.012V0.999756ZM71.2713 0.177105C72.1573 5.09355 75.1647 9.43947 79.5834 11.9874L80.5824 10.2549C76.6786 8.00381 74.0221 4.16466 73.2396 -0.177593L71.2713 0.177105ZM79.5834 11.9874L133.418 43.03L134.417 41.2974L80.5824 10.2549L79.5834 11.9874ZM133.418 43.03C138.728 46.0925 145.272 46.0925 150.582 43.03L149.583 41.2974C144.891 44.0033 139.109 44.0033 134.417 41.2974L133.418 43.03ZM150.582 43.03L204.417 11.9874L203.418 10.2549L149.583 41.2974L150.582 43.03ZM204.417 11.9874C208.835 9.43947 211.843 5.09355 212.729 0.177107L210.76 -0.177595C209.978 4.16466 207.321 8.00381 203.418 10.2549L204.417 11.9874ZM210.727 0.999756H211.745V-1.00024H210.727V0.999756ZM209.745 -0.189419C208.977 3.79562 206.516 7.31147 202.919 9.38536L203.918 11.118C208.023 8.7512 210.833 4.73836 211.709 0.188931L209.745 -0.189419ZM202.919 9.38536L149.085 40.4279L150.084 42.1605L203.918 11.118L202.919 9.38536ZM149.085 40.4279C144.701 42.9559 139.299 42.9559 134.915 40.4279L133.916 42.1605C138.918 45.045 145.082 45.045 150.084 42.1605L149.085 40.4279ZM134.915 40.4279L81.0809 9.38536L80.0818 11.118L133.916 42.1605L134.915 40.4279ZM81.0809 9.38536C77.4843 7.31148 75.0225 3.79562 74.2548 -0.189418L72.2909 0.188929C73.1674 4.73835 75.9774 8.7512 80.0818 11.118L81.0809 9.38536ZM72.2555 0.999756H73.2728V-1.00024H72.2555V0.999756ZM76.9465 0.338979C78.2093 3.84093 80.6787 6.8527 84.006 8.77135L85.0051 7.03876C82.0935 5.35984 79.9329 2.7248 78.8279 -0.339467L76.9465 0.338979ZM84.006 8.77135L133.995 37.5966L134.994 35.864L85.0051 7.03876L84.006 8.77135ZM133.995 37.5966C138.949 40.453 145.051 40.453 150.005 37.5966L149.006 35.864C144.671 38.3639 139.329 38.3639 134.994 35.864L133.995 37.5966ZM150.005 37.5966L199.994 8.77135L198.995 7.03876L149.006 35.864L150.005 37.5966ZM199.994 8.77135C203.321 6.8527 205.791 3.84094 207.053 0.338977L205.172 -0.339465C204.067 2.7248 201.907 5.35984 198.995 7.03876L199.994 8.77135ZM205.044 0.999756H206.113V-1.00024H205.044V0.999756ZM204.113 -0.363864C203.055 2.34494 201.1 4.66821 198.496 6.16925L199.496 7.90184C202.499 6.17003 204.756 3.48898 205.976 0.363376L204.113 -0.363864ZM198.496 6.16925L148.508 34.9945L149.507 36.7271L199.496 7.90184L198.496 6.16925ZM148.508 34.9945C144.481 37.3164 139.519 37.3164 135.492 34.9945L134.493 36.7271C139.138 39.4056 144.862 39.4056 149.507 36.7271L148.508 34.9945ZM135.492 34.9945L85.5035 6.16925L84.5044 7.90184L134.493 36.7271L135.492 34.9945ZM85.5035 6.16925C82.9004 4.66821 80.9446 2.34494 79.8872 -0.363866L78.0241 0.363378C79.2442 3.48898 81.5011 6.17003 84.5044 7.90184L85.5035 6.16925ZM77.8872 0.999756H78.9557V-1.00024H77.8872V0.999756ZM89.4277 3.82267C87.5604 2.74591 86.03 1.24081 84.9314 -0.527876L83.2325 0.527388C84.5021 2.57143 86.2711 4.31114 88.4287 5.55525L89.4277 3.82267ZM135.571 30.4306L89.4277 3.82267L88.4287 5.55525L134.572 32.1632L135.571 30.4306ZM148.429 30.4306C144.451 32.7244 139.549 32.7244 135.571 30.4306L134.572 32.1632C139.169 34.8136 144.831 34.8136 149.428 32.1632L148.429 30.4306ZM194.572 3.82267L148.429 30.4306L149.428 32.1632L195.571 5.55525L194.572 3.82267ZM199.069 -0.527876C197.97 1.24081 196.44 2.74591 194.572 3.82267L195.571 5.55525C197.729 4.31114 199.498 2.57143 200.768 0.527388L199.069 -0.527876ZM198.721 0.999756H199.918V-1.00024H198.721V0.999756ZM195.073 4.68575C196.881 3.64317 198.396 2.22765 199.544 0.568665L197.899 -0.569153C196.917 0.850021 195.621 2.06087 194.074 2.95316L195.073 4.68575ZM148.929 31.2937L195.073 4.68575L194.074 2.95316L147.93 29.5611L148.929 31.2937ZM135.071 31.2937C139.358 33.7662 144.642 33.7662 148.929 31.2937L147.93 29.5611C144.261 31.677 139.739 31.677 136.07 29.5611L135.071 31.2937ZM88.9271 4.68575L135.071 31.2937L136.07 29.5611L89.9262 2.95316L88.9271 4.68575ZM84.4561 0.568662C85.6038 2.22765 87.119 3.64317 88.9271 4.68575L89.9262 2.95316C88.3787 2.06087 87.0827 0.850021 86.101 -0.56915L84.4561 0.568662ZM84.082 0.999756H85.2785V-1.00024H84.082V0.999756ZM90.6374 0.750072C91.3135 1.34577 92.0537 1.87927 92.8513 2.33921L93.8504 0.606616C93.1688 0.213584 92.5367 -0.242037 91.9595 -0.75056L90.6374 0.750072ZM92.8513 2.33921L135.15 26.7298L136.149 24.9972L93.8504 0.606617L92.8513 2.33921ZM135.15 26.7298C139.389 29.1742 144.611 29.1742 148.85 26.7298L147.851 24.9972C144.231 27.0851 139.769 27.0851 136.149 24.9972L135.15 26.7298ZM148.85 26.7298L191.149 2.33921L190.15 0.606617L147.851 24.9972L148.85 26.7298ZM191.149 2.3392C191.946 1.87927 192.687 1.34578 193.363 0.750076L192.04 -0.750564C191.463 -0.24204 190.831 0.213584 190.15 0.606618L191.149 2.3392ZM191.091 0.999756H192.702V-1.00024H191.091V0.999756ZM190.511 -0.815055C190.235 -0.618654 189.948 -0.434272 189.651 -0.262872L190.65 1.46971C191.003 1.26645 191.343 1.04769 191.671 0.814567L190.511 -0.815055ZM189.651 -0.262877L147.353 24.1277L148.352 25.8603L190.65 1.46971L189.651 -0.262877ZM147.353 24.1277C144.041 26.0376 139.959 26.0376 136.647 24.1277L135.648 25.8603C139.579 28.1268 144.421 28.1268 148.352 25.8603L147.353 24.1277ZM136.647 24.1277L94.3488 -0.262877L93.3497 1.46971L135.648 25.8603L136.647 24.1277ZM94.3488 -0.262878C94.0516 -0.434274 93.7647 -0.618653 93.4886 -0.815048L92.3292 0.81456C92.6568 1.04769 92.9973 1.26645 93.3497 1.46971L94.3488 -0.262878ZM91.2984 0.999756H92.9089V-1.00024H91.2984V0.999756ZM136.726 19.5638L101.296 -0.866538L100.297 0.86605L135.727 21.2964L136.726 19.5638ZM147.274 19.5638C144.01 21.4456 139.99 21.4456 136.726 19.5638L135.727 21.2964C139.609 23.5348 144.391 23.5348 148.273 21.2964L147.274 19.5638ZM182.704 -0.866538L147.274 19.5638L148.273 21.2964L183.703 0.86605L182.704 -0.866538ZM181.198 0.999756H183.204V-1.00024H181.198V0.999756ZM147.775 20.4269L181.697 0.86605L180.698 -0.866538L146.776 18.6943L147.775 20.4269ZM136.225 20.4269C139.799 22.4873 144.201 22.4873 147.775 20.4269L146.776 18.6943C143.821 20.3982 140.179 20.3982 137.224 18.6943L136.225 20.4269ZM102.303 0.86605L136.225 20.4269L137.224 18.6943L103.302 -0.866538L102.303 0.86605ZM100.796 0.999756H102.802V-1.00024H100.796V0.999756ZM110.297 0.86605L136.304 15.8629L137.303 14.1303L111.296 -0.866539L110.297 0.86605ZM136.304 15.8629C139.829 17.8953 144.171 17.8953 147.696 15.8629L146.697 14.1303C143.79 15.8062 140.21 15.8062 137.303 14.1303L136.304 15.8629ZM147.696 15.8629L173.703 0.86605L172.704 -0.866539L146.697 14.1303L147.696 15.8629ZM171.197 0.999756H173.204V-1.00024H171.197V0.999756ZM170.698 -0.866538L146.198 13.2608L147.197 14.9934L171.697 0.86605L170.698 -0.866538ZM146.198 13.2608C143.601 14.7587 140.399 14.7587 137.802 13.2608L136.803 14.9934C140.019 16.8479 143.981 16.8479 147.197 14.9934L146.198 13.2608ZM137.802 13.2608L113.302 -0.866538L112.303 0.86605L136.803 14.9934L137.802 13.2608ZM110.796 0.999756H112.802V-1.00024H110.796V0.999756ZM137.881 8.69698L121.296 -0.866538L120.297 0.86605L136.882 10.4296L137.881 8.69698ZM146.119 8.69698C143.57 10.1668 140.43 10.1668 137.881 8.69698L136.882 10.4296C140.049 12.2559 143.951 12.2559 147.118 10.4296L146.119 8.69698ZM162.704 -0.866538L146.119 8.69698L147.118 10.4296L163.703 0.86605L162.704 -0.866538ZM161.198 0.999756H163.204V-1.00024H161.198V0.999756ZM146.62 9.56007L161.697 0.86605L160.698 -0.866538L145.621 7.82748L146.62 9.56007ZM137.38 9.56007C140.239 11.2085 143.761 11.2085 146.62 9.56007L145.621 7.82748C143.38 9.11935 140.62 9.11935 138.379 7.82748L137.38 9.56007ZM122.303 0.86605L137.38 9.56007L138.379 7.82748L123.302 -0.866539L122.303 0.86605ZM120.796 0.999756H122.802V-1.00024H120.796V0.999756ZM130.297 0.86605L137.459 4.99614L138.458 3.26355L131.296 -0.866539L130.297 0.86605ZM137.459 4.99614C140.269 6.6165 143.731 6.6165 146.541 4.99614L145.542 3.26355C143.35 4.52736 140.65 4.52736 138.458 3.26355L137.459 4.99614ZM146.541 4.99614L153.703 0.86605L152.704 -0.866539L145.542 3.26355L146.541 4.99614ZM151.198 0.999756H153.204V-1.00024H151.198V0.999756ZM150.698 -0.866538L145.044 2.39406L146.043 4.12665L151.697 0.86605L150.698 -0.866538ZM145.044 2.39406C143.16 3.47991 140.84 3.47991 138.956 2.39406L137.957 4.12665C140.459 5.56905 143.541 5.56905 146.043 4.12665L145.044 2.39406ZM138.956 2.39406L133.302 -0.866538L132.303 0.86605L137.957 4.12665L138.956 2.39406ZM130.796 0.999756H132.802V-1.00024H130.796V0.999756ZM264.836 58.4223L249.729 67.1335L250.728 68.8661L265.835 60.1549L264.836 58.4223ZM274.192 50.0174C271.736 53.3874 268.572 56.2682 264.836 58.4223L265.835 60.1549C269.817 57.859 273.19 54.7879 275.808 51.1953L274.192 50.0174ZM274 50.6064V52.2594H276V50.6064H274ZM266.334 61.0244C270.028 58.8941 273.215 56.1161 275.783 52.8812L274.217 51.6376C271.803 54.6781 268.808 57.2891 265.335 59.2919L266.334 61.0244ZM252.735 68.8661L266.334 61.0244L265.335 59.2919L251.736 67.1335L252.735 68.8661ZM252.235 66.9998H250.229V68.9998H252.235V66.9998Z" fill="url(#paint0_linear)" mask="url(#path-1-inside-1)"/>
<defs>
<linearGradient id="paint0_linear" x1="8.0265" y1="45.2084" x2="275" y2="45.2084" gradientUnits="userSpaceOnUse">
<stop stop-color="#FED13C"/>
<stop offset="0.5" stop-color="#DD2A95"/>
<stop offset="1" stop-color="#471180"/>
</linearGradient>
</defs>
</svg>
