<svg width="275" height="68" viewBox="0 0 275 68" fill="none" xmlns="http://www.w3.org/2000/svg">
<mask id="path-1-inside-1" fill="white">
<path fill-rule="evenodd" clip-rule="evenodd" d="M13.5803 0H11.574L0 6.65427V7.81124C0.131462 7.73335 0.263558 7.65624 0.396282 7.57993L13.5803 0ZM0 12.2856C1.35196 11.2088 2.79452 10.2255 4.32051 9.34817L20.5801 0H22.5864L4.81893 10.2151C3.09994 11.2034 1.49001 12.3301 0 13.5764V12.2856ZM275 13.1133C273.366 11.7087 271.588 10.4455 269.679 9.34817L253.42 0H251.414L269.181 10.2151C271.292 11.4287 273.238 12.8509 275 14.447V13.1133ZM275 8.42674C274.543 8.13456 274.077 7.85217 273.604 7.57993L260.42 0H262.426L274.102 6.713C274.405 6.88691 274.704 7.06484 275 7.24672V8.42674ZM275 20.458C272.378 17.0817 269.09 14.1869 265.257 11.9833L244.414 0H242.407L264.758 12.8503C268.872 15.2155 272.339 18.4015 275 22.1323V20.458ZM275 31.3519C272.424 24.4053 267.476 18.4369 260.834 14.6185L235.408 0H233.401L260.336 15.4854C267.704 19.7217 272.921 26.6879 275 34.6797V31.3519ZM0 31.5328V28.9567C2.7565 23.0387 7.30103 17.9903 13.1658 14.6185L38.5923 0H40.5986L13.6642 15.4854C7.28114 19.1553 2.51275 24.8737 0 31.5328ZM272 66.2454V44.1405C272 33.0488 266.058 22.7995 256.411 17.2537L226.402 0H224.395L255.913 18.1206C265.25 23.4888 271 33.4081 271 44.1405V66.9297C271.351 66.7267 271.685 66.4977 272 66.2454ZM3 66.2454C2.63985 65.9567 2.30521 65.6375 2 65.2917V44.1405C2 33.0488 7.94229 22.7995 17.5885 17.2537L47.5984 0H49.6047L18.0869 18.1206C8.74978 23.4888 3 33.4081 3 44.1405V66.2454ZM267 68V45.7799C267 35.0989 261.278 25.2293 251.989 19.8888L217.395 0H215.389L251.49 20.7558C260.47 25.9185 266 35.4582 266 45.7799V68H267ZM7.99999 68C7.66133 68 7.32759 67.979 7 67.9381V45.7799C7 35.0989 12.7222 25.2293 22.0111 19.8888L56.6045 0H58.6108L22.5095 20.7558C13.5297 25.9185 8 35.4582 8 45.7799L7.99999 68ZM262 68V47.4192C262 37.1491 256.498 27.6591 247.566 22.524L208.389 0H206.383L247.068 23.3909C255.69 28.3483 261 37.5084 261 47.4192V68H262ZM13 68H12V47.4192C12 37.1491 17.5021 27.6591 26.4338 22.524L65.6106 0H67.6169L26.9322 23.3909C18.3096 28.3483 13 37.5084 13 47.4192V68ZM257 68V49.0586C257 39.1992 251.718 30.0888 243.144 25.1592L199.383 0H197.377L242.645 26.0261C250.91 30.7781 256 39.5586 256 49.0586V68H257ZM18 68H17V49.0586C17 39.1992 22.282 30.0888 30.8564 25.1592L74.6167 0H76.623L31.3548 26.0261C23.0895 30.7781 18 39.5586 18 49.0586V68ZM252 68V50.698C252 41.2494 246.938 32.5186 238.721 27.7943L190.377 0H188.371L238.222 28.6613C246.131 33.2078 251 41.6087 251 50.698V68H252ZM23 68H22V50.698C22 41.2494 27.0619 32.5186 35.2791 27.7943L83.6228 0H85.6291L35.7775 28.6613C27.8694 33.2078 23 41.6087 23 50.698V68ZM247 68V52.3373C247 43.2996 242.158 34.9483 234.298 30.4295L181.371 0H179.365L233.8 31.2964C241.351 35.6376 246 43.6589 246 52.3373V68H247ZM28 68H27V52.3373C27 43.2996 31.8419 34.9483 39.7017 30.4295L92.6289 0H94.6352L40.2001 31.2964C32.6494 35.6376 28 43.6589 28 52.3373V68ZM242 68V53.9767C242 45.3497 237.378 37.3781 229.876 33.0647L172.365 0H170.359L229.377 33.9316C236.571 38.0674 241 45.709 241 53.9767V68H242ZM33 68H32V53.9767C32 45.3497 36.6218 37.3781 44.1244 33.0647L101.635 0H103.641L44.6228 33.9316C37.4293 38.0674 33 45.709 33 53.9767V68ZM237 68V56.1874C237 47.9713 232.598 40.3793 225.453 36.2712L162.365 0H160.359L224.955 37.1382C231.791 41.0685 236 48.3306 236 56.1874V68H237ZM38 68H37V56.1874C37 47.9713 41.4017 40.3793 48.547 36.2712L111.635 0H113.641L49.0454 37.1382C42.2092 41.0685 38 48.3306 38 56.1874V68ZM232 68V58.3982C232 50.5929 227.818 43.3805 221.03 39.4778L152.365 0H150.359L220.532 40.3447C227.011 44.0697 231 50.9522 231 58.3982V68H232ZM43 68H42V58.3982C42 50.5929 46.1816 43.3805 52.9697 39.4778L121.635 0H123.641L53.4681 40.3447C46.9891 44.0697 43 50.9522 43 58.3982V68ZM227 68V60.609C227 53.2145 223.038 46.3817 216.608 42.6844L147.392 2.89034C140.962 -0.806915 133.038 -0.806915 126.608 2.89034L57.3923 42.6844C50.9615 46.3817 47 53.2145 47 60.609V68H48V60.609C48 53.5738 51.769 47.0709 57.8907 43.5514L127.106 3.75728C133.228 0.237442 140.772 0.237442 146.894 3.75728L216.109 43.5514C222.231 47.0709 226 53.5738 226 60.609V68H227ZM222 68V62.8198C222 55.8361 218.259 49.3829 212.185 45.891L146.815 8.3077C140.741 4.81585 133.259 4.81585 127.185 8.3077L61.815 45.891C55.7414 49.3829 52 55.8361 52 62.8198V68H53V62.8198C53 56.1954 56.5489 50.0721 62.3134 46.7579L127.683 9.17464C133.448 5.86021 140.552 5.86021 146.317 9.17464L211.687 46.7579C217.451 50.0721 221 56.1954 221 62.8198V68H222ZM217 68V65.0306C217 58.4577 213.479 52.384 207.762 49.0976L146.238 13.7251C140.521 10.4386 133.479 10.4386 127.762 13.7251L66.2376 49.0976C60.5214 52.384 57 58.4576 57 65.0305V68H58V65.0305C58 58.817 61.3288 53.0733 66.736 49.9645L128.261 14.592C133.668 11.483 140.332 11.483 145.739 14.592L207.264 49.9645C212.671 53.0733 216 58.817 216 65.0306V68H217ZM212 68V67.2414C212 61.0793 208.699 55.3853 203.34 52.3042L145.66 19.1425C140.301 16.0614 133.699 16.0614 128.34 19.1425L70.6603 52.3042C65.3013 55.3853 62 61.0793 62 67.2414V68H63V67.2414C63 61.4386 66.1088 56.0745 71.1587 53.1712L128.838 20.0094C133.889 17.1058 140.111 17.1058 145.162 20.0094L202.841 53.1712C207.891 56.0745 211 61.4386 211 67.2414V68H212ZM206.934 68C206.464 62.8173 203.495 58.1426 198.917 55.5108L145.083 24.5598C140.081 21.6842 133.919 21.6842 128.917 24.5598L75.0829 55.5108C70.5052 58.1426 67.5363 62.8173 67.0657 68H68.0701C68.5375 63.1769 71.3133 58.8316 75.5813 56.3777L129.416 25.4268C134.109 22.7286 139.891 22.7286 144.584 25.4268L198.419 56.3777C202.687 58.8316 205.463 63.1769 205.93 68H206.934ZM201.543 68C200.561 64.1344 198.051 60.762 194.494 58.7174L144.506 29.9772C139.861 27.307 134.139 27.307 129.494 29.9772L79.5056 58.7174C75.9492 60.762 73.4385 64.1344 72.4573 68H73.4914C74.4493 64.497 76.7601 61.4493 80.004 59.5843L129.993 30.8441C134.329 28.3513 139.671 28.3513 144.007 30.8441L193.996 59.5843C197.24 61.4493 199.551 64.497 200.509 68H201.543ZM195.682 68C194.498 65.4934 192.562 63.3559 190.072 61.924L143.928 35.3946C139.641 32.9297 134.359 32.9297 130.072 35.3946L83.9282 61.924C81.4375 63.3559 79.5024 65.4934 78.318 68H79.4339C80.5445 65.8598 82.2584 64.0375 84.4266 62.7909L130.57 36.2615C134.549 33.9741 139.451 33.9741 143.43 36.2615L189.573 62.7909C191.742 64.0375 193.455 65.8598 194.566 68H195.682ZM189.067 68C188.121 66.8667 186.971 65.8903 185.649 65.1306L143.351 40.812C139.421 38.5525 134.579 38.5525 130.649 40.812L88.3509 65.1306C87.0294 65.8903 85.8786 66.8667 84.933 68H86.2768C87.0259 67.2264 87.8886 66.5499 88.8493 65.9975L131.148 41.6789C134.769 39.5969 139.231 39.5969 142.852 41.6789L185.151 65.9975C186.111 66.5499 186.974 67.2264 187.723 68H189.067ZM180.64 68L142.773 46.2293C139.201 44.1753 134.799 44.1753 131.226 46.2293L93.36 68H95.3663L131.725 47.0963C134.989 45.2197 139.011 45.2197 142.275 47.0963L178.634 68H180.64ZM170.64 68L142.196 51.6467C138.981 49.7981 135.019 49.7981 131.804 51.6467L103.36 68H105.366L132.302 52.5136C135.209 50.8424 138.791 50.8424 141.698 52.5136L168.634 68H170.64ZM160.64 68L141.619 57.0641C138.761 55.4209 135.239 55.4209 132.381 57.0641L113.36 68H115.366L132.88 57.931C135.429 56.4652 138.571 56.4652 141.12 57.931L158.634 68H160.64ZM150.64 68L141.041 62.4815C138.541 61.0437 135.459 61.0437 132.959 62.4815L123.36 68H125.366L133.457 63.3484C135.649 62.088 138.351 62.088 140.543 63.3484L148.634 68H150.64ZM31.5925 0L9.24158 12.8503C5.62498 14.9296 2.5083 17.6431 0 20.8036V19.2315C2.44127 16.3784 5.38299 13.9152 8.74315 11.9833L29.5862 0H31.5925Z"/>
</mask>
<path fill-rule="evenodd" clip-rule="evenodd" d="M13.5803 0H11.574L0 6.65427V7.81124C0.131462 7.73335 0.263558 7.65624 0.396282 7.57993L13.5803 0ZM0 12.2856C1.35196 11.2088 2.79452 10.2255 4.32051 9.34817L20.5801 0H22.5864L4.81893 10.2151C3.09994 11.2034 1.49001 12.3301 0 13.5764V12.2856ZM275 13.1133C273.366 11.7087 271.588 10.4455 269.679 9.34817L253.42 0H251.414L269.181 10.2151C271.292 11.4287 273.238 12.8509 275 14.447V13.1133ZM275 8.42674C274.543 8.13456 274.077 7.85217 273.604 7.57993L260.42 0H262.426L274.102 6.713C274.405 6.88691 274.704 7.06484 275 7.24672V8.42674ZM275 20.458C272.378 17.0817 269.09 14.1869 265.257 11.9833L244.414 0H242.407L264.758 12.8503C268.872 15.2155 272.339 18.4015 275 22.1323V20.458ZM275 31.3519C272.424 24.4053 267.476 18.4369 260.834 14.6185L235.408 0H233.401L260.336 15.4854C267.704 19.7217 272.921 26.6879 275 34.6797V31.3519ZM0 31.5328V28.9567C2.7565 23.0387 7.30103 17.9903 13.1658 14.6185L38.5923 0H40.5986L13.6642 15.4854C7.28114 19.1553 2.51275 24.8737 0 31.5328ZM272 66.2454V44.1405C272 33.0488 266.058 22.7995 256.411 17.2537L226.402 0H224.395L255.913 18.1206C265.25 23.4888 271 33.4081 271 44.1405V66.9297C271.351 66.7267 271.685 66.4977 272 66.2454ZM3 66.2454C2.63985 65.9567 2.30521 65.6375 2 65.2917V44.1405C2 33.0488 7.94229 22.7995 17.5885 17.2537L47.5984 0H49.6047L18.0869 18.1206C8.74978 23.4888 3 33.4081 3 44.1405V66.2454ZM267 68V45.7799C267 35.0989 261.278 25.2293 251.989 19.8888L217.395 0H215.389L251.49 20.7558C260.47 25.9185 266 35.4582 266 45.7799V68H267ZM7.99999 68C7.66133 68 7.32759 67.979 7 67.9381V45.7799C7 35.0989 12.7222 25.2293 22.0111 19.8888L56.6045 0H58.6108L22.5095 20.7558C13.5297 25.9185 8 35.4582 8 45.7799L7.99999 68ZM262 68V47.4192C262 37.1491 256.498 27.6591 247.566 22.524L208.389 0H206.383L247.068 23.3909C255.69 28.3483 261 37.5084 261 47.4192V68H262ZM13 68H12V47.4192C12 37.1491 17.5021 27.6591 26.4338 22.524L65.6106 0H67.6169L26.9322 23.3909C18.3096 28.3483 13 37.5084 13 47.4192V68ZM257 68V49.0586C257 39.1992 251.718 30.0888 243.144 25.1592L199.383 0H197.377L242.645 26.0261C250.91 30.7781 256 39.5586 256 49.0586V68H257ZM18 68H17V49.0586C17 39.1992 22.282 30.0888 30.8564 25.1592L74.6167 0H76.623L31.3548 26.0261C23.0895 30.7781 18 39.5586 18 49.0586V68ZM252 68V50.698C252 41.2494 246.938 32.5186 238.721 27.7943L190.377 0H188.371L238.222 28.6613C246.131 33.2078 251 41.6087 251 50.698V68H252ZM23 68H22V50.698C22 41.2494 27.0619 32.5186 35.2791 27.7943L83.6228 0H85.6291L35.7775 28.6613C27.8694 33.2078 23 41.6087 23 50.698V68ZM247 68V52.3373C247 43.2996 242.158 34.9483 234.298 30.4295L181.371 0H179.365L233.8 31.2964C241.351 35.6376 246 43.6589 246 52.3373V68H247ZM28 68H27V52.3373C27 43.2996 31.8419 34.9483 39.7017 30.4295L92.6289 0H94.6352L40.2001 31.2964C32.6494 35.6376 28 43.6589 28 52.3373V68ZM242 68V53.9767C242 45.3497 237.378 37.3781 229.876 33.0647L172.365 0H170.359L229.377 33.9316C236.571 38.0674 241 45.709 241 53.9767V68H242ZM33 68H32V53.9767C32 45.3497 36.6218 37.3781 44.1244 33.0647L101.635 0H103.641L44.6228 33.9316C37.4293 38.0674 33 45.709 33 53.9767V68ZM237 68V56.1874C237 47.9713 232.598 40.3793 225.453 36.2712L162.365 0H160.359L224.955 37.1382C231.791 41.0685 236 48.3306 236 56.1874V68H237ZM38 68H37V56.1874C37 47.9713 41.4017 40.3793 48.547 36.2712L111.635 0H113.641L49.0454 37.1382C42.2092 41.0685 38 48.3306 38 56.1874V68ZM232 68V58.3982C232 50.5929 227.818 43.3805 221.03 39.4778L152.365 0H150.359L220.532 40.3447C227.011 44.0697 231 50.9522 231 58.3982V68H232ZM43 68H42V58.3982C42 50.5929 46.1816 43.3805 52.9697 39.4778L121.635 0H123.641L53.4681 40.3447C46.9891 44.0697 43 50.9522 43 58.3982V68ZM227 68V60.609C227 53.2145 223.038 46.3817 216.608 42.6844L147.392 2.89034C140.962 -0.806915 133.038 -0.806915 126.608 2.89034L57.3923 42.6844C50.9615 46.3817 47 53.2145 47 60.609V68H48V60.609C48 53.5738 51.769 47.0709 57.8907 43.5514L127.106 3.75728C133.228 0.237442 140.772 0.237442 146.894 3.75728L216.109 43.5514C222.231 47.0709 226 53.5738 226 60.609V68H227ZM222 68V62.8198C222 55.8361 218.259 49.3829 212.185 45.891L146.815 8.3077C140.741 4.81585 133.259 4.81585 127.185 8.3077L61.815 45.891C55.7414 49.3829 52 55.8361 52 62.8198V68H53V62.8198C53 56.1954 56.5489 50.0721 62.3134 46.7579L127.683 9.17464C133.448 5.86021 140.552 5.86021 146.317 9.17464L211.687 46.7579C217.451 50.0721 221 56.1954 221 62.8198V68H222ZM217 68V65.0306C217 58.4577 213.479 52.384 207.762 49.0976L146.238 13.7251C140.521 10.4386 133.479 10.4386 127.762 13.7251L66.2376 49.0976C60.5214 52.384 57 58.4576 57 65.0305V68H58V65.0305C58 58.817 61.3288 53.0733 66.736 49.9645L128.261 14.592C133.668 11.483 140.332 11.483 145.739 14.592L207.264 49.9645C212.671 53.0733 216 58.817 216 65.0306V68H217ZM212 68V67.2414C212 61.0793 208.699 55.3853 203.34 52.3042L145.66 19.1425C140.301 16.0614 133.699 16.0614 128.34 19.1425L70.6603 52.3042C65.3013 55.3853 62 61.0793 62 67.2414V68H63V67.2414C63 61.4386 66.1088 56.0745 71.1587 53.1712L128.838 20.0094C133.889 17.1058 140.111 17.1058 145.162 20.0094L202.841 53.1712C207.891 56.0745 211 61.4386 211 67.2414V68H212ZM206.934 68C206.464 62.8173 203.495 58.1426 198.917 55.5108L145.083 24.5598C140.081 21.6842 133.919 21.6842 128.917 24.5598L75.0829 55.5108C70.5052 58.1426 67.5363 62.8173 67.0657 68H68.0701C68.5375 63.1769 71.3133 58.8316 75.5813 56.3777L129.416 25.4268C134.109 22.7286 139.891 22.7286 144.584 25.4268L198.419 56.3777C202.687 58.8316 205.463 63.1769 205.93 68H206.934ZM201.543 68C200.561 64.1344 198.051 60.762 194.494 58.7174L144.506 29.9772C139.861 27.307 134.139 27.307 129.494 29.9772L79.5056 58.7174C75.9492 60.762 73.4385 64.1344 72.4573 68H73.4914C74.4493 64.497 76.7601 61.4493 80.004 59.5843L129.993 30.8441C134.329 28.3513 139.671 28.3513 144.007 30.8441L193.996 59.5843C197.24 61.4493 199.551 64.497 200.509 68H201.543ZM195.682 68C194.498 65.4934 192.562 63.3559 190.072 61.924L143.928 35.3946C139.641 32.9297 134.359 32.9297 130.072 35.3946L83.9282 61.924C81.4375 63.3559 79.5024 65.4934 78.318 68H79.4339C80.5445 65.8598 82.2584 64.0375 84.4266 62.7909L130.57 36.2615C134.549 33.9741 139.451 33.9741 143.43 36.2615L189.573 62.7909C191.742 64.0375 193.455 65.8598 194.566 68H195.682ZM189.067 68C188.121 66.8667 186.971 65.8903 185.649 65.1306L143.351 40.812C139.421 38.5525 134.579 38.5525 130.649 40.812L88.3509 65.1306C87.0294 65.8903 85.8786 66.8667 84.933 68H86.2768C87.0259 67.2264 87.8886 66.5499 88.8493 65.9975L131.148 41.6789C134.769 39.5969 139.231 39.5969 142.852 41.6789L185.151 65.9975C186.111 66.5499 186.974 67.2264 187.723 68H189.067ZM180.64 68L142.773 46.2293C139.201 44.1753 134.799 44.1753 131.226 46.2293L93.36 68H95.3663L131.725 47.0963C134.989 45.2197 139.011 45.2197 142.275 47.0963L178.634 68H180.64ZM170.64 68L142.196 51.6467C138.981 49.7981 135.019 49.7981 131.804 51.6467L103.36 68H105.366L132.302 52.5136C135.209 50.8424 138.791 50.8424 141.698 52.5136L168.634 68H170.64ZM160.64 68L141.619 57.0641C138.761 55.4209 135.239 55.4209 132.381 57.0641L113.36 68H115.366L132.88 57.931C135.429 56.4652 138.571 56.4652 141.12 57.931L158.634 68H160.64ZM150.64 68L141.041 62.4815C138.541 61.0437 135.459 61.0437 132.959 62.4815L123.36 68H125.366L133.457 63.3484C135.649 62.088 138.351 62.088 140.543 63.3484L148.634 68H150.64ZM31.5925 0L9.24158 12.8503C5.62498 14.9296 2.5083 17.6431 0 20.8036V19.2315C2.44127 16.3784 5.38299 13.9152 8.74315 11.9833L29.5862 0H31.5925Z" fill="#111112"/>
<path d="M11.574 0V-1H11.3071L11.0756 -0.866932L11.574 0ZM13.5803 0L14.0788 0.866932L17.326 -1H13.5803V0ZM0 6.65427L-0.498426 5.78734L-1 6.07571V6.65427H0ZM0 7.81124H-1V9.56612L0.509757 8.67156L0 7.81124ZM0.396282 7.57993L0.894709 8.44687H0.894709L0.396282 7.57993ZM4.32051 9.34817L4.81893 10.2151L4.32051 9.34817ZM0 12.2856L-0.623021 11.5034L-1 11.8037V12.2856H0ZM20.5801 0V-1H20.3132L20.0817 -0.866932L20.5801 0ZM22.5864 0L23.0849 0.866932L26.3321 -1H22.5864V0ZM4.81893 10.2151L4.32051 9.34816H4.3205L4.81893 10.2151ZM0 13.5764H-1V15.7165L0.641586 14.3434L0 13.5764ZM275 13.1133H276V12.6543L275.652 12.355L275 13.1133ZM269.679 9.34817L269.181 10.2151V10.2151L269.679 9.34817ZM253.42 0L253.918 -0.866932L253.687 -1H253.42V0ZM251.414 0V-1H247.668L250.915 0.866932L251.414 0ZM269.181 10.2151L268.683 11.082V11.082L269.181 10.2151ZM275 14.447L274.329 15.1881L276 16.7023V14.447H275ZM275 8.42674L274.462 9.26943L276 10.2523V8.42674H275ZM273.604 7.57993L274.102 6.713L274.102 6.713L273.604 7.57993ZM260.42 0V-1H256.674L259.921 0.866932L260.42 0ZM262.426 0L262.924 -0.866932L262.693 -1H262.426V0ZM274.102 6.713L273.604 7.57993V7.57993L274.102 6.713ZM275 7.24672H276V6.68739L275.523 6.39464L275 7.24672ZM265.257 11.9833L265.755 11.1164L265.257 11.9833ZM275 20.458H276V20.1152L275.79 19.8446L275 20.458ZM244.414 0L244.912 -0.866932L244.681 -1H244.414V0ZM242.407 0V-1H238.662L241.909 0.866932L242.407 0ZM264.758 12.8503L265.257 11.9833L264.758 12.8503ZM275 22.1323L274.186 22.7129L276 25.2568V22.1323H275ZM275 31.3519H276V31.1725L275.938 31.0042L275 31.3519ZM260.834 14.6185L261.333 13.7516L260.834 14.6185ZM235.408 0L235.906 -0.866932L235.675 -1H235.408V0ZM233.401 0V-1H229.656L232.903 0.866932L233.401 0ZM260.336 15.4854L259.837 16.3524L260.336 15.4854ZM275 34.6797L274.032 34.9315L276 34.6797H275ZM0 31.5328H-1L0.935608 31.8859L0 31.5328ZM0 28.9567L-0.906491 28.5345L-1 28.7353V28.9567H0ZM13.1658 14.6185L13.6642 15.4854L13.1658 14.6185ZM38.5923 0V-1H38.3253L38.0939 -0.866932L38.5923 0ZM40.5986 0L41.0971 0.866932L44.3443 -1H40.5986V0ZM13.6642 15.4854L14.1627 16.3524L13.6642 15.4854ZM272 66.2454L272.625 67.0256L273 66.7254V66.2454H272ZM256.411 17.2537L255.913 18.1206L256.411 17.2537ZM226.402 0L226.9 -0.866932L226.669 -1H226.402V0ZM224.395 0V-1H220.65L223.897 0.866932L224.395 0ZM255.913 18.1206L256.411 17.2537L255.913 18.1206ZM271 66.9297H270V68.6635L271.501 67.7953L271 66.9297ZM3 66.2454L2.37453 67.0256L4 68.3286V66.2454H3ZM2 65.2917H1V65.6698L1.25026 65.9534L2 65.2917ZM17.5885 17.2537L17.09 16.3867L17.5885 17.2537ZM47.5984 0V-1H47.3314L47.1 -0.866932L47.5984 0ZM49.6047 0L50.1031 0.866932L53.3504 -1H49.6047V0ZM18.0869 18.1206L17.5885 17.2537L18.0869 18.1206ZM267 68V69H268V68H267ZM251.989 19.8888L252.487 19.0219L251.989 19.8888ZM217.395 0L217.894 -0.866932L217.662 -1H217.395V0ZM215.389 0V-1H211.644L214.891 0.866932L215.389 0ZM251.49 20.7558L251.989 19.8888L251.49 20.7558ZM266 68H265V69H266V68ZM7.99999 68V69H8.99999V68H7.99999ZM7 67.9381H6V68.8212L6.87627 68.9304L7 67.9381ZM22.0111 19.8888L21.5127 19.0219L22.0111 19.8888ZM56.6045 0V-1H56.3375L56.1061 -0.866932L56.6045 0ZM58.6108 0L59.1092 0.866932L62.3565 -1H58.6108V0ZM22.5095 20.7558L22.0111 19.8888L22.5095 20.7558ZM8 45.7799H9H8ZM262 68V69H263V68H262ZM247.566 22.524L247.068 23.3909L247.566 22.524ZM208.389 0L208.888 -0.866932L208.656 -1H208.389V0ZM206.383 0V-1H202.637L205.885 0.866932L206.383 0ZM247.068 23.3909L247.566 22.524L247.068 23.3909ZM261 68H260V69H261V68ZM13 68V69H14V68H13ZM12 68H11V69H12V68ZM26.4338 22.524L26.9322 23.3909L26.4338 22.524ZM65.6106 0V-1H65.3436L65.1122 -0.866932L65.6106 0ZM67.6169 0L68.1153 0.866932L71.3626 -1H67.6169V0ZM26.9322 23.3909L27.4306 24.2579L26.9322 23.3909ZM257 68V69H258V68H257ZM243.144 25.1592L243.642 24.2922L243.144 25.1592ZM199.383 0L199.882 -0.866932L199.65 -1H199.383V0ZM197.377 0V-1H193.631L196.879 0.866932L197.377 0ZM242.645 26.0261L242.147 26.893L242.645 26.0261ZM256 68H255V69H256V68ZM18 68V69H19V68H18ZM17 68H16V69H17V68ZM30.8564 25.1592L30.358 24.2922L30.8564 25.1592ZM74.6167 0V-1H74.3497L74.1183 -0.866932L74.6167 0ZM76.623 0L77.1214 0.866932L80.3686 -1H76.623V0ZM31.3548 26.0261L31.8533 26.893L31.3548 26.0261ZM252 68V69H253V68H252ZM238.721 27.7943L239.219 26.9274L238.721 27.7943ZM190.377 0L190.876 -0.866932L190.644 -1H190.377V0ZM188.371 0V-1H184.625L187.872 0.866932L188.371 0ZM238.222 28.6613L237.724 29.5282L238.222 28.6613ZM251 68H250V69H251V68ZM23 68V69H24V68H23ZM22 68H21V69H22V68ZM35.2791 27.7943L35.7775 28.6613L35.2791 27.7943ZM83.6228 0V-1H83.3558L83.1243 -0.866932L83.6228 0ZM85.6291 0L86.1275 0.866932L89.3747 -1H85.6291V0ZM35.7775 28.6613L36.2759 29.5282L35.7775 28.6613ZM247 68V69H248V68H247ZM234.298 30.4295L234.797 29.5625L234.298 30.4295ZM181.371 0L181.87 -0.866932L181.638 -1H181.371V0ZM179.365 0V-1H175.619L178.866 0.866932L179.365 0ZM233.8 31.2964L233.301 32.1633L233.8 31.2964ZM246 68H245V69H246V68ZM28 68V69H29V68H28ZM27 68H26V69H27V68ZM39.7017 30.4295L40.2001 31.2964L39.7017 30.4295ZM92.6289 0V-1H92.3619L92.1304 -0.866932L92.6289 0ZM94.6352 0L95.1336 0.866932L98.3808 -1H94.6352V0ZM40.2001 31.2964L40.6986 32.1633L40.2001 31.2964ZM242 68V69H243V68H242ZM229.876 33.0647L229.377 33.9316L229.876 33.0647ZM172.365 0L172.863 -0.866932L172.632 -1H172.365V0ZM170.359 0V-1H166.613L169.86 0.866932L170.359 0ZM229.377 33.9316L228.879 34.7985L229.377 33.9316ZM241 68H240V69H241V68ZM33 68V69H34V68H33ZM32 68H31V69H32V68ZM44.1244 33.0647L44.6228 33.9316L44.1244 33.0647ZM101.635 0V-1H101.368L101.137 -0.866932L101.635 0ZM103.641 0L104.14 0.866932L107.387 -1H103.641V0ZM44.6228 33.9316L45.1212 34.7985L44.6228 33.9316ZM237 68V69H238V68H237ZM225.453 36.2712L225.951 35.4043L225.453 36.2712ZM162.365 0L162.863 -0.866932L162.632 -1H162.365V0ZM160.359 0V-1H156.613L159.86 0.866932L160.359 0ZM224.955 37.1382L224.456 38.0051L224.955 37.1382ZM236 68H235V69H236V68ZM38 68V69H39V68H38ZM37 68H36V69H37V68ZM48.547 36.2712L49.0454 37.1382H49.0454L48.547 36.2712ZM111.635 0V-1H111.368L111.136 -0.866932L111.635 0ZM113.641 0L114.14 0.866932L117.387 -1H113.641V0ZM49.0454 37.1382L49.5439 38.0051H49.5439L49.0454 37.1382ZM232 68V69H233V68H232ZM221.03 39.4778L221.529 38.6109L221.03 39.4778ZM152.365 0L152.864 -0.866932L152.632 -1H152.365V0ZM150.359 0V-1H146.613L149.86 0.866932L150.359 0ZM220.532 40.3447L220.033 41.2117L220.532 40.3447ZM231 68H230V69H231V68ZM43 68V69H44V68H43ZM42 68H41V69H42V68ZM52.9697 39.4778L52.4712 38.6109H52.4712L52.9697 39.4778ZM121.635 0V-1H121.368L121.136 -0.866932L121.635 0ZM123.641 0L124.14 0.866932L127.387 -1H123.641V0ZM53.4681 40.3447L52.9697 39.4778H52.9697L53.4681 40.3447ZM227 68V69H228V68H227ZM216.608 42.6844L217.106 41.8175L216.608 42.6844ZM147.392 2.89034L147.891 2.02341V2.02341L147.392 2.89034ZM126.608 2.89034L126.109 2.02341V2.02341L126.608 2.89034ZM57.3923 42.6844L56.8939 41.8175H56.8939L57.3923 42.6844ZM47 68H46V69H47V68ZM48 68V69H49V68H48ZM57.8907 43.5514L58.3892 44.4183H58.3892L57.8907 43.5514ZM127.106 3.75728L127.605 4.62421L127.106 3.75728ZM146.894 3.75728L146.395 4.62421L146.894 3.75728ZM216.109 43.5514L216.608 42.6844L216.109 43.5514ZM226 68H225V69H226V68ZM222 68V69H223V68H222ZM212.185 45.891L211.687 46.758L212.185 45.891ZM146.815 8.3077L147.313 7.44077V7.44077L146.815 8.3077ZM127.185 8.3077L126.687 7.44077V7.44077L127.185 8.3077ZM61.815 45.891L62.3134 46.758H62.3134L61.815 45.891ZM52 68H51V69H52V68ZM53 68V69H54V68H53ZM62.3134 46.7579L61.815 45.891H61.8149L62.3134 46.7579ZM127.683 9.17464L127.185 8.3077L127.683 9.17464ZM146.317 9.17464L146.815 8.3077L146.317 9.17464ZM211.687 46.7579L211.188 47.6249L211.687 46.7579ZM221 68H220V69H221V68ZM217 68V69H218V68H217ZM207.762 49.0976L208.261 48.2307L207.762 49.0976ZM146.238 13.7251L145.739 14.592L146.238 13.7251ZM127.762 13.7251L128.261 14.592L127.762 13.7251ZM66.2376 49.0976L65.7392 48.2307L66.2376 49.0976ZM57 68H56V69H57V68ZM58 68V69H59V68H58ZM66.736 49.9645L67.2345 50.8315L66.736 49.9645ZM128.261 14.592L128.759 15.4589L128.261 14.592ZM145.739 14.592L146.238 13.7251V13.7251L145.739 14.592ZM207.264 49.9645L206.766 50.8315L207.264 49.9645ZM216 68H215V69H216V68ZM212 68V69H213V68H212ZM203.34 52.3042L202.841 53.1712L203.34 52.3042ZM145.66 19.1425L145.162 20.0094L145.66 19.1425ZM128.34 19.1425L128.838 20.0094L128.34 19.1425ZM70.6603 52.3042L71.1587 53.1712L70.6603 52.3042ZM62 68H61V69H62V68ZM63 68V69H64V68H63ZM71.1587 53.1712L70.6602 52.3042L71.1587 53.1712ZM128.838 20.0094L129.337 20.8763L128.838 20.0094ZM145.162 20.0094L144.663 20.8763L145.162 20.0094ZM202.841 53.1712L202.343 54.0381L202.841 53.1712ZM211 68H210V69H211V68ZM206.934 68V69H208.029L207.93 67.9096L206.934 68ZM198.917 55.5108L198.419 56.3777L198.917 55.5108ZM145.083 24.5598L144.584 25.4268L145.083 24.5598ZM128.917 24.5598L128.419 23.6929L128.917 24.5598ZM75.0829 55.5108L75.5813 56.3777L75.0829 55.5108ZM67.0657 68L66.0698 67.9096L65.9708 69H67.0657V68ZM68.0701 68V69H68.9779L69.0655 68.0964L68.0701 68ZM75.5813 56.3777L75.0829 55.5108L75.5813 56.3777ZM129.416 25.4268L129.914 26.2937L129.416 25.4268ZM144.584 25.4268L144.086 26.2937L144.584 25.4268ZM198.419 56.3777L198.917 55.5108L198.419 56.3777ZM205.93 68L204.935 68.0964L205.022 69H205.93V68ZM201.543 68V69H202.828L202.512 67.754L201.543 68ZM194.494 58.7174L194.993 57.8504L194.494 58.7174ZM144.506 29.9772L144.007 30.8441L144.506 29.9772ZM129.494 29.9772L128.996 29.1103L129.494 29.9772ZM79.5056 58.7174L80.004 59.5843L79.5056 58.7174ZM72.4573 68L71.488 67.754L71.1717 69H72.4573V68ZM73.4914 68V69H74.2547L74.456 68.2638L73.4914 68ZM80.004 59.5843L80.5024 60.4512L80.004 59.5843ZM129.993 30.8441L129.494 29.9772L129.993 30.8441ZM144.007 30.8441L144.506 29.9772L144.007 30.8441ZM193.996 59.5843L193.498 60.4512L193.996 59.5843ZM200.509 68L199.544 68.2638L199.745 69H200.509V68ZM190.072 61.924L190.57 61.057L190.072 61.924ZM195.682 68V69H197.26L196.586 67.5728L195.682 68ZM143.928 35.3946L144.427 34.5276L143.928 35.3946ZM130.072 35.3946L129.573 34.5276L130.072 35.3946ZM83.9282 61.924L83.4298 61.057L83.9282 61.924ZM78.318 68L77.4139 67.5728L76.7395 69H78.318V68ZM79.4339 68V69H80.0416L80.3215 68.4606L79.4339 68ZM84.4266 62.7909L84.9251 63.6578L84.4266 62.7909ZM130.57 36.2615L131.069 37.1284L130.57 36.2615ZM143.43 36.2615L143.928 35.3946L143.43 36.2615ZM189.573 62.7909L189.075 63.6578L189.573 62.7909ZM194.566 68L193.679 68.4606L193.958 69H194.566V68ZM189.067 68V69H191.204L189.835 67.3593L189.067 68ZM185.649 65.1306L186.148 64.2637V64.2636L185.649 65.1306ZM143.351 40.812L142.852 41.6789L143.351 40.812ZM130.649 40.812L131.148 41.6789L130.649 40.812ZM88.3509 65.1306L88.8493 65.9975H88.8493L88.3509 65.1306ZM84.933 68L84.1652 67.3594L82.7963 69H84.933V68ZM86.2768 68V69H86.7005L86.9953 68.6956L86.2768 68ZM88.8493 65.9975L89.3477 66.8645H89.3477L88.8493 65.9975ZM131.148 41.6789L130.649 40.812L131.148 41.6789ZM142.852 41.6789L143.351 40.812L142.852 41.6789ZM185.151 65.9975L184.652 66.8645L185.151 65.9975ZM187.723 68L187.005 68.6956L187.299 69H187.723V68ZM142.773 46.2293L143.272 45.3624L142.773 46.2293ZM180.64 68V69H184.386L181.138 67.1331L180.64 68ZM131.226 46.2293L131.725 47.0963L131.226 46.2293ZM93.36 68L92.8615 67.1331L89.6143 69H93.36V68ZM95.3663 68V69H95.6332L95.8647 68.8669L95.3663 68ZM131.725 47.0963L132.223 47.9632L131.725 47.0963ZM142.275 47.0963L141.777 47.9632L142.275 47.0963ZM178.634 68L178.135 68.8669L178.367 69H178.634V68ZM170.64 68V69H174.386L171.138 67.1331L170.64 68ZM142.196 51.6467L142.695 50.7798L142.196 51.6467ZM131.804 51.6467L131.305 50.7798L131.804 51.6467ZM103.36 68L102.861 67.1331L99.6143 69H103.36V68ZM105.366 68V69H105.633L105.865 68.8669L105.366 68ZM132.302 52.5136L131.804 51.6467L132.302 52.5136ZM141.698 52.5136L141.199 53.3806L141.698 52.5136ZM168.634 68L168.135 68.8669L168.367 69H168.634V68ZM141.619 57.0641L141.12 57.931L141.619 57.0641ZM160.64 68V69H164.386L161.138 67.1331L160.64 68ZM132.381 57.0641L132.88 57.931L132.381 57.0641ZM113.36 68L112.862 67.1331L109.614 69H113.36V68ZM115.366 68V69H115.633L115.865 68.8669L115.366 68ZM132.88 57.931L133.378 58.798L132.88 57.931ZM141.12 57.931L140.622 58.798L141.12 57.931ZM158.634 68L158.135 68.8669L158.367 69H158.634V68ZM150.64 68V69H154.386L151.138 67.1331L150.64 68ZM141.041 62.4815L140.543 63.3484L141.041 62.4815ZM132.959 62.4815L133.457 63.3484L132.959 62.4815ZM123.36 68L122.862 67.1331L119.614 69H123.36V68ZM125.366 68V69H125.633L125.865 68.8669L125.366 68ZM133.457 63.3484L132.959 62.4815L133.457 63.3484ZM140.543 63.3484L141.041 62.4815L140.543 63.3484ZM148.634 68L148.135 68.8669L148.367 69H148.634V68ZM31.5925 0L32.091 0.866932L35.3382 -1H31.5925V0ZM9.24158 12.8503L8.74315 11.9833L9.24158 12.8503ZM0 20.8036H-1V23.6721L0.783285 21.4252L0 20.8036ZM0 19.2315L-0.759816 18.5814L-1 18.8621V19.2315H0ZM8.74315 11.9833L8.24473 11.1164L8.74315 11.9833ZM29.5862 0V-1H29.3192L29.0878 -0.866932L29.5862 0ZM11.574 1H13.5803V-1H11.574V1ZM0.498426 7.5212L12.0725 0.866932L11.0756 -0.866932L-0.498426 5.78734L0.498426 7.5212ZM1 7.81124V6.65427H-1V7.81124H1ZM-0.102144 6.713C-0.238662 6.79149 -0.374534 6.8708 -0.509757 6.95092L0.509757 8.67156C0.637459 8.59589 0.765778 8.52099 0.894709 8.44687L-0.102144 6.713ZM13.0819 -0.866932L-0.102144 6.713L0.894709 8.44687L14.0788 0.866932L13.0819 -0.866932ZM3.82208 8.48124C2.25226 9.38377 0.768068 10.3954 -0.623021 11.5034L0.623021 13.0678C1.93585 12.0221 3.33678 11.0672 4.81893 10.2151L3.82208 8.48124ZM20.0817 -0.866932L3.82208 8.48124L4.81893 10.2151L21.0786 0.866932L20.0817 -0.866932ZM20.5801 1H22.5864V-1H20.5801V1ZM5.31736 11.082L23.0849 0.866932L22.088 -0.866932L4.32051 9.34816L5.31736 11.082ZM0.641586 14.3434C2.08716 13.1343 3.64922 12.0411 5.31736 11.082L4.3205 9.34816C2.55066 10.3657 0.892859 11.5259 -0.641586 12.8093L0.641586 14.3434ZM1 13.5764V12.2856H-1V13.5764H1ZM275.652 12.355C273.971 10.9097 272.141 9.61015 270.178 8.48123L269.181 10.2151C271.035 11.2809 272.762 12.5076 274.348 13.8715L275.652 12.355ZM270.178 8.48124L253.918 -0.866932L252.921 0.866932L269.181 10.2151L270.178 8.48124ZM251.414 1H253.42V-1H251.414V1ZM250.915 0.866932L268.683 11.082L269.679 9.34816L251.912 -0.866932L250.915 0.866932ZM268.683 11.082C270.731 12.2597 272.619 13.6396 274.329 15.1881L275.671 13.7059C273.857 12.0621 271.853 10.5976 269.679 9.34816L268.683 11.082ZM274 13.1133V14.447H276V13.1133H274ZM275.538 7.58405C275.068 7.28349 274.589 6.99302 274.102 6.713L273.105 8.44686C273.565 8.71132 274.017 8.98563 274.462 9.26943L275.538 7.58405ZM274.102 6.713L260.918 -0.866932L259.921 0.866932L273.105 8.44687L274.102 6.713ZM260.42 1H262.426V-1H260.42V1ZM261.928 0.866932L273.604 7.57993L274.601 5.84607L262.924 -0.866932L261.928 0.866932ZM273.604 7.57993C273.898 7.74901 274.189 7.92199 274.477 8.0988L275.523 6.39464C275.219 6.20769 274.911 6.0248 274.601 5.84606L273.604 7.57993ZM274 7.24672V8.42674H276V7.24672H274ZM264.758 12.8503C268.477 14.9882 271.667 17.7964 274.21 21.0714L275.79 19.8446C273.089 16.3671 269.702 13.3856 265.755 11.1164L264.758 12.8503ZM243.915 0.866932L264.758 12.8503L265.755 11.1164L244.912 -0.866932L243.915 0.866932ZM242.407 1H244.414V-1H242.407V1ZM265.257 11.9833L242.906 -0.866932L241.909 0.866932L264.26 13.7172L265.257 11.9833ZM275.814 21.5517C273.071 17.7055 269.497 14.4212 265.257 11.9833L264.26 13.7172C268.248 16.0098 271.608 19.0974 274.186 22.7129L275.814 21.5517ZM274 20.458V22.1323H276V20.458H274ZM275.938 31.0042C273.282 23.8415 268.179 17.688 261.333 13.7516L260.336 15.4854C266.772 19.1858 271.567 24.969 274.062 31.6996L275.938 31.0042ZM261.333 13.7516L235.906 -0.866932L234.909 0.866932L260.336 15.4854L261.333 13.7516ZM233.401 1H235.408V-1H233.401V1ZM232.903 0.866932L259.837 16.3524L260.834 14.6185L233.9 -0.866932L232.903 0.866932ZM259.837 16.3524C266.971 20.4535 272.02 27.1967 274.032 34.9315L275.968 34.428C273.822 26.1791 268.438 18.9899 260.834 14.6185L259.837 16.3524ZM274 31.3519V34.6797H276V31.3519H274ZM1 31.5328V28.9567H-1V31.5328H1ZM12.6674 13.7516C6.62135 17.2276 1.93567 22.4326 -0.906491 28.5345L0.906491 29.3789C3.57733 23.6448 7.9807 18.7531 13.6642 15.4854L12.6674 13.7516ZM38.0939 -0.866932L12.6674 13.7516L13.6642 15.4854L39.0907 0.866932L38.0939 -0.866932ZM38.5923 1H40.5986V-1H38.5923V1ZM14.1627 16.3524L41.0971 0.866932L40.1002 -0.866932L13.1658 14.6185L14.1627 16.3524ZM0.935608 31.8859C3.36769 25.4405 7.98318 19.9051 14.1627 16.3524L13.1658 14.6185C6.57911 18.4054 1.65781 24.3069 -0.935608 31.1798L0.935608 31.8859ZM271 44.1405V66.2454H273V44.1405H271ZM255.913 18.1206C265.25 23.4888 271 33.4081 271 44.1405H273C273 32.6894 266.865 22.1103 256.91 16.3867L255.913 18.1206ZM225.903 0.866932L255.913 18.1206L256.91 16.3867L226.9 -0.866932L225.903 0.866932ZM224.395 1H226.402V-1H224.395V1ZM256.411 17.2537L224.894 -0.866932L223.897 0.866932L255.415 18.9875L256.411 17.2537ZM272 44.1405C272 33.0488 266.058 22.7995 256.411 17.2537L255.415 18.9875C264.443 24.178 270 33.7674 270 44.1405H272ZM272 66.9297V44.1405H270V66.9297H272ZM271.375 65.4651C271.099 65.686 270.806 65.8865 270.499 66.0641L271.501 67.7953C271.896 67.5668 272.272 67.3093 272.625 67.0256L271.375 65.4651ZM3.62547 65.4651C3.31011 65.2123 3.01704 64.9328 2.74974 64.6299L1.25026 65.9534C1.59339 66.3421 1.9696 66.701 2.37453 67.0256L3.62547 65.4651ZM3 65.2917V44.1405H1V65.2917H3ZM3 44.1405C3 33.4081 8.74978 23.4888 18.0869 18.1206L17.09 16.3867C7.13479 22.1103 1 32.6894 1 44.1405H3ZM18.0869 18.1206L48.0968 0.866932L47.1 -0.866932L17.09 16.3867L18.0869 18.1206ZM47.5984 1H49.6047V-1H47.5984V1ZM49.1063 -0.866932L17.5885 17.2537L18.5853 18.9875L50.1031 0.866932L49.1063 -0.866932ZM17.5885 17.2537C7.94228 22.7995 2 33.0488 2 44.1405H4C4 33.7674 9.55728 24.178 18.5853 18.9875L17.5885 17.2537ZM2 44.1405V66.2454H4V44.1405H2ZM268 68V45.7799H266V68H268ZM268 45.7799C268 34.7396 262.085 24.5401 252.487 19.0219L251.49 20.7558C260.47 25.9185 266 35.4582 266 45.7799H268ZM252.487 19.0219L217.894 -0.866932L216.897 0.866932L251.49 20.7558L252.487 19.0219ZM215.389 1H217.395V-1H215.389V1ZM214.891 0.866932L250.992 21.6227L251.989 19.8888L215.888 -0.866932L214.891 0.866932ZM250.992 21.6227C259.663 26.6078 265 35.8176 265 45.7799H267C267 35.0989 261.278 25.2293 251.989 19.8888L250.992 21.6227ZM265 45.7799V68H267V45.7799H265ZM267 67H266V69H267V67ZM7.99999 67C7.7028 67 7.41038 66.9815 7.12373 66.9458L6.87627 68.9304C7.24481 68.9764 7.61987 69 7.99999 69V67ZM6 45.7799V67.9381H8V45.7799H6ZM21.5127 19.0219C11.9147 24.5401 6 34.7396 6 45.7799H8C8 35.4582 13.5297 25.9185 22.5095 20.7558L21.5127 19.0219ZM56.1061 -0.866932L21.5127 19.0219L22.5095 20.7558L57.1029 0.866932L56.1061 -0.866932ZM56.6045 1H58.6108V-1H56.6045V1ZM23.008 21.6227L59.1092 0.866932L58.1124 -0.866932L22.0111 19.8888L23.008 21.6227ZM9 45.7799C9 35.8176 14.3372 26.6078 23.008 21.6227L22.0111 19.8888C12.7222 25.2293 7 35.0989 7 45.7799H9ZM8.99999 68L9 45.7799H7L6.99999 68H8.99999ZM261 47.4192V68H263V47.4192H261ZM247.068 23.3909C255.69 28.3483 261 37.5084 261 47.4192H263C263 36.7898 257.305 26.9698 248.065 21.6571L247.068 23.3909ZM207.891 0.866932L247.068 23.3909L248.065 21.6571L208.888 -0.866932L207.891 0.866932ZM206.383 1H208.389V-1H206.383V1ZM247.566 22.524L206.882 -0.866932L205.885 0.866932L246.569 24.2579L247.566 22.524ZM262 47.4192C262 37.1491 256.498 27.6591 247.566 22.524L246.569 24.2579C254.883 29.0375 260 37.8677 260 47.4192H262ZM262 68V47.4192H260V68H262ZM262 67H261V69H262V67ZM13 67H12V69H13V67ZM13 68V47.4192H11V68H13ZM13 47.4192C13 37.5084 18.3096 28.3483 26.9322 23.3909L25.9353 21.6571C16.6946 26.9698 11 36.7898 11 47.4192H13ZM26.9322 23.3909L66.109 0.866932L65.1122 -0.866932L25.9353 21.6571L26.9322 23.3909ZM65.6106 1H67.6169V-1H65.6106V1ZM67.1185 -0.866932L26.4338 22.524L27.4306 24.2579L68.1153 0.866932L67.1185 -0.866932ZM26.4338 22.524C17.5021 27.6591 12 37.1491 12 47.4192H14C14 37.8677 19.1171 29.0375 27.4306 24.2579L26.4338 22.524ZM12 47.4192V68H14V47.4192H12ZM258 68V49.0586H256V68H258ZM258 49.0586C258 38.8399 252.525 29.3996 243.642 24.2922L242.645 26.0261C250.91 30.7781 256 39.5586 256 49.0586H258ZM243.642 24.2922L199.882 -0.866932L198.885 0.866932L242.645 26.0261L243.642 24.2922ZM197.377 1H199.383V-1H197.377V1ZM196.879 0.866932L242.147 26.893L243.144 25.1592L197.875 -0.866932L196.879 0.866932ZM242.147 26.893C250.103 31.4673 255 39.9179 255 49.0586H257C257 39.1992 251.718 30.0888 243.144 25.1592L242.147 26.893ZM255 49.0586V68H257V49.0586H255ZM257 67H256V69H257V67ZM18 67H17V69H18V67ZM16 49.0586V68H18V49.0586H16ZM30.358 24.2922C21.4745 29.3996 16 38.8399 16 49.0586H18C18 39.5586 23.0895 30.7781 31.3548 26.0261L30.358 24.2922ZM74.1183 -0.866932L30.358 24.2922L31.3548 26.0261L75.1151 0.866932L74.1183 -0.866932ZM74.6167 1H76.623V-1H74.6167V1ZM31.8533 26.893L77.1214 0.866932L76.1246 -0.866932L30.8564 25.1592L31.8533 26.893ZM19 49.0586C19 39.9179 23.897 31.4673 31.8533 26.893L30.8564 25.1592C22.282 30.0888 17 39.1993 17 49.0586H19ZM19 68V49.0586H17V68H19ZM251 50.698V68H253V50.698H251ZM238.222 28.6613C246.131 33.2078 251 41.6087 251 50.698H253C253 40.8901 247.746 31.8294 239.219 26.9274L238.222 28.6613ZM189.879 0.866932L238.222 28.6613L239.219 26.9274L190.876 -0.866932L189.879 0.866932ZM188.371 1H190.377V-1H188.371V1ZM238.721 27.7943L188.869 -0.866932L187.872 0.866932L237.724 29.5282L238.721 27.7943ZM252 50.698C252 41.2494 246.938 32.5186 238.721 27.7943L237.724 29.5282C245.323 33.8971 250 41.968 250 50.698H252ZM252 68V50.698H250V68H252ZM252 67H251V69H252V67ZM23 67H22V69H23V67ZM23 68V50.698H21V68H23ZM23 50.698C23 41.6087 27.8694 33.2078 35.7775 28.6613L34.7806 26.9274C26.2544 31.8294 21 40.8901 21 50.698H23ZM35.7775 28.6613L84.1212 0.866932L83.1243 -0.866932L34.7806 26.9274L35.7775 28.6613ZM83.6228 1H85.6291V-1H83.6228V1ZM85.1307 -0.866932L35.2791 27.7943L36.2759 29.5282L86.1275 0.866932L85.1307 -0.866932ZM35.2791 27.7943C27.0619 32.5186 22 41.2494 22 50.698H24C24 41.968 28.6769 33.8971 36.2759 29.5282L35.2791 27.7943ZM22 50.698V68H24V50.698H22ZM248 68V52.3373H246V68H248ZM248 52.3373C248 42.9403 242.966 34.2591 234.797 29.5625L233.8 31.2964C241.351 35.6376 246 43.6589 246 52.3373H248ZM234.797 29.5625L181.87 -0.866932L180.873 0.866932L233.8 31.2964L234.797 29.5625ZM179.365 1H181.371V-1H179.365V1ZM178.866 0.866932L233.301 32.1633L234.298 30.4295L179.863 -0.866932L178.866 0.866932ZM233.301 32.1633C240.543 36.3268 245 44.0182 245 52.3373H247C247 43.2996 242.158 34.9484 234.298 30.4295L233.301 32.1633ZM245 52.3373V68H247V52.3373H245ZM247 67H246V69H247V67ZM28 67H27V69H28V67ZM26 52.3373V68H28V52.3373H26ZM39.2033 29.5625C31.0344 34.2591 26 42.9403 26 52.3373H28C28 43.6589 32.6494 35.6376 40.2001 31.2964L39.2033 29.5625ZM92.1304 -0.866932L39.2033 29.5625L40.2001 31.2964L93.1273 0.866932L92.1304 -0.866932ZM92.6289 1H94.6352V-1H92.6289V1ZM40.6986 32.1633L95.1336 0.866932L94.1368 -0.866932L39.7017 30.4295L40.6986 32.1633ZM29 52.3373C29 44.0182 33.4569 36.3268 40.6986 32.1633L39.7017 30.4295C31.8419 34.9484 27 43.2996 27 52.3373H29ZM29 68V52.3373H27V68H29ZM241 53.9767V68H243V53.9767H241ZM229.377 33.9316C236.571 38.0674 241 45.709 241 53.9767H243C243 44.9904 238.186 36.6889 230.374 32.1977L229.377 33.9316ZM171.867 0.866932L229.377 33.9316L230.374 32.1977L172.863 -0.866932L171.867 0.866932ZM170.359 1H172.365V-1H170.359V1ZM229.876 33.0646L170.857 -0.866932L169.86 0.866932L228.879 34.7985L229.876 33.0646ZM242 53.9767C242 45.3497 237.378 37.3781 229.876 33.0646L228.879 34.7985C235.763 38.7566 240 46.0684 240 53.9767H242ZM242 68V53.9767H240V68H242ZM242 67H241V69H242V67ZM33 67H32V69H33V67ZM33 68V53.9767H31V68H33ZM33 53.9767C33 45.709 37.4293 38.0674 44.6228 33.9316L43.6259 32.1977C35.8143 36.6889 31 44.9904 31 53.9767H33ZM44.6228 33.9316L102.133 0.866932L101.137 -0.866932L43.6259 32.1977L44.6228 33.9316ZM101.635 1H103.641V-1H101.635V1ZM103.143 -0.866932L44.1244 33.0646L45.1212 34.7985L104.14 0.866932L103.143 -0.866932ZM44.1244 33.0646C36.6218 37.3781 32 45.3497 32 53.9767H34C34 46.0684 38.2368 38.7566 45.1212 34.7985L44.1244 33.0646ZM32 53.9767V68H34V53.9767H32ZM238 68V56.1874H236V68H238ZM238 56.1874C238 47.612 233.406 39.69 225.951 35.4043L224.955 37.1382C231.791 41.0685 236 48.3306 236 56.1874H238ZM225.951 35.4043L162.863 -0.866932L161.867 0.866932L224.955 37.1382L225.951 35.4043ZM160.359 1H162.365V-1H160.359V1ZM159.86 0.866932L224.456 38.0051L225.453 36.2712L160.857 -0.866932L159.86 0.866932ZM224.456 38.0051C230.983 41.7578 235 48.6899 235 56.1874H237C237 47.9713 232.598 40.3793 225.453 36.2712L224.456 38.0051ZM235 56.1874V68H237V56.1874H235ZM237 67H236V69H237V67ZM38 67H37V69H38V67ZM36 56.1874V68H38V56.1874H36ZM48.0486 35.4043C40.5942 39.69 36 47.612 36 56.1874H38C38 48.3306 42.2092 41.0685 49.0454 37.1382L48.0486 35.4043ZM111.136 -0.866932L48.0486 35.4043L49.0454 37.1382L112.133 0.866932L111.136 -0.866932ZM111.635 1H113.641V-1H111.635V1ZM49.5439 38.0051L114.14 0.866932L113.143 -0.866932L48.547 36.2712L49.5439 38.0051ZM39 56.1874C39 48.6899 43.0167 41.7578 49.5439 38.0051L48.547 36.2712C41.4017 40.3793 37 47.9713 37 56.1874H39ZM39 68V56.1874H37V68H39ZM231 58.3982V68H233V58.3982H231ZM220.532 40.3447C227.011 44.0697 231 50.9522 231 58.3982H233C233 50.2336 228.626 42.6912 221.529 38.6109L220.532 40.3447ZM151.867 0.866932L220.532 40.3447L221.529 38.6109L152.864 -0.866932L151.867 0.866932ZM150.359 1H152.365V-1H150.359V1ZM221.03 39.4778L150.857 -0.866932L149.86 0.866932L220.033 41.2117L221.03 39.4778ZM232 58.3982C232 50.5929 227.818 43.3805 221.03 39.4778L220.033 41.2117C226.203 44.7589 230 51.3115 230 58.3982H232ZM232 68V58.3982H230V68H232ZM232 67H231V69H232V67ZM43 67H42V69H43V67ZM43 68V58.3982H41V68H43ZM43 58.3982C43 50.9522 46.9891 44.0697 53.4681 40.3447L52.4712 38.6109C45.3741 42.6912 41 50.2336 41 58.3982H43ZM53.4681 40.3447L122.133 0.866932L121.136 -0.866932L52.4712 38.6109L53.4681 40.3447ZM121.635 1H123.641V-1H121.635V1ZM123.143 -0.866932L52.9697 39.4778L53.9665 41.2117L124.14 0.866932L123.143 -0.866932ZM52.9697 39.4778C46.1816 43.3805 42 50.5929 42 58.3982H44C44 51.3115 47.7966 44.7589 53.9665 41.2117L52.9697 39.4778ZM42 58.3982V68H44V58.3982H42ZM228 68V60.609H226V68H228ZM228 60.609C228 52.8552 223.846 45.6925 217.106 41.8175L216.109 43.5514C222.231 47.0709 226 53.5738 226 60.609H228ZM217.106 41.8175L147.891 2.02341L146.894 3.75727L216.109 43.5514L217.106 41.8175ZM147.891 2.02341C141.151 -1.85127 132.849 -1.85127 126.109 2.02341L127.106 3.75727C133.228 0.237441 140.772 0.237441 146.894 3.75727L147.891 2.02341ZM126.109 2.02341L56.8939 41.8175L57.8907 43.5514L127.106 3.75727L126.109 2.02341ZM56.8939 41.8175C50.154 45.6925 46 52.8552 46 60.609H48C48 53.5738 51.769 47.0709 57.8907 43.5514L56.8939 41.8175ZM46 60.609V68H48V60.609H46ZM48 67H47V69H48V67ZM49 68V60.609H47V68H49ZM49 60.609C49 53.9331 52.5765 47.7602 58.3892 44.4183L57.3923 42.6844C50.9615 46.3817 47 53.2145 47 60.609H49ZM58.3892 44.4183L127.605 4.62421L126.608 2.89035L57.3923 42.6844L58.3892 44.4183ZM127.605 4.62421C133.418 1.2818 140.582 1.2818 146.395 4.62421L147.392 2.89035C140.962 -0.806914 133.038 -0.806914 126.608 2.89035L127.605 4.62421ZM146.395 4.62421L215.611 44.4183L216.608 42.6844L147.392 2.89035L146.395 4.62421ZM215.611 44.4183C221.423 47.7602 225 53.9331 225 60.609H227C227 53.2145 223.038 46.3817 216.608 42.6844L215.611 44.4183ZM225 60.609V68H227V60.609H225ZM227 67H226V69H227V67ZM221 62.8198V68H223V62.8198H221ZM211.687 46.758C217.451 50.0721 221 56.1954 221 62.8198H223C223 55.4768 219.066 48.6936 212.683 45.0241L211.687 46.758ZM146.317 9.17463L211.687 46.758L212.683 45.0241L147.313 7.44077L146.317 9.17463ZM127.683 9.17463C133.448 5.86021 140.552 5.86021 146.317 9.17463L147.313 7.44077C140.931 3.77149 133.069 3.77149 126.687 7.44077L127.683 9.17463ZM62.3134 46.758L127.683 9.17463L126.687 7.44077L61.3165 45.0241L62.3134 46.758ZM53 62.8198C53 56.1954 56.5489 50.0721 62.3134 46.758L61.3165 45.0241C54.9339 48.6936 51 55.4768 51 62.8198H53ZM53 68V62.8198H51V68H53ZM53 67H52V69H53V67ZM52 62.8198V68H54V62.8198H52ZM61.8149 45.891C55.7414 49.3829 52 55.8361 52 62.8198H54C54 56.5547 57.3564 50.7613 62.8118 47.6249L61.8149 45.891ZM127.185 8.3077L61.815 45.891L62.8118 47.6249L128.182 10.0416L127.185 8.3077ZM146.815 8.3077C140.741 4.81585 133.259 4.81585 127.185 8.3077L128.182 10.0416C133.638 6.90456 140.362 6.90456 145.818 10.0416L146.815 8.3077ZM212.185 45.891L146.815 8.3077L145.818 10.0416L211.188 47.6249L212.185 45.891ZM222 62.8198C222 55.8361 218.259 49.3829 212.185 45.891L211.188 47.6249C216.644 50.7613 220 56.5547 220 62.8198H222ZM222 68V62.8198H220V68H222ZM222 67H221V69H222V67ZM218 68V65.0306H216V68H218ZM218 65.0306C218 58.0983 214.286 51.6948 208.261 48.2307L207.264 49.9645C212.671 53.0733 216 58.817 216 65.0306H218ZM208.261 48.2307L146.736 12.8581L145.739 14.592L207.264 49.9645L208.261 48.2307ZM146.736 12.8581C140.711 9.39425 133.289 9.39425 127.264 12.8581L128.261 14.592C133.668 11.483 140.332 11.483 145.739 14.592L146.736 12.8581ZM127.264 12.8581L65.7392 48.2307L66.736 49.9645L128.261 14.592L127.264 12.8581ZM65.7392 48.2307C59.7139 51.6948 56 58.0983 56 65.0305H58C58 58.817 61.3288 53.0733 66.736 49.9645L65.7392 48.2307ZM56 65.0305V68H58V65.0305H56ZM58 67H57V69H58V67ZM59 68V65.0305H57V68H59ZM59 65.0305C59 59.1763 62.1364 53.7625 67.2345 50.8315L66.2376 49.0976C60.5213 52.384 57 58.4577 57 65.0305H59ZM67.2345 50.8315L128.759 15.4589L127.762 13.7251L66.2376 49.0976L67.2345 50.8315ZM128.759 15.4589C133.858 12.5273 140.142 12.5273 145.241 15.4589L146.238 13.7251C140.521 10.4386 133.479 10.4386 127.762 13.7251L128.759 15.4589ZM145.241 15.4589L206.766 50.8315L207.762 49.0976L146.238 13.7251L145.241 15.4589ZM206.766 50.8315C211.864 53.7625 215 59.1763 215 65.0306H217C217 58.4577 213.479 52.384 207.762 49.0976L206.766 50.8315ZM215 65.0306V68H217V65.0306H215ZM217 67H216V69H217V67ZM211 67.2414V68H213V67.2414H211ZM202.841 53.1712C207.891 56.0745 211 61.4386 211 67.2414H213C213 60.72 209.506 54.696 203.838 51.4373L202.841 53.1712ZM145.162 20.0094L202.841 53.1712L203.838 51.4373L146.159 18.2755L145.162 20.0094ZM128.838 20.0094C133.889 17.1058 140.111 17.1058 145.162 20.0094L146.159 18.2755C140.491 15.0171 133.509 15.0171 127.841 18.2755L128.838 20.0094ZM71.1587 53.1712L128.838 20.0094L127.841 18.2755L70.1618 51.4373L71.1587 53.1712ZM63 67.2414C63 61.4386 66.1088 56.0745 71.1587 53.1712L70.1618 51.4373C64.4938 54.696 61 60.72 61 67.2414H63ZM63 68V67.2414H61V68H63ZM63 67H62V69H63V67ZM62 67.2414V68H64V67.2414H62ZM70.6602 52.3042C65.3013 55.3853 62 61.0793 62 67.2414H64C64 61.7979 66.9163 56.7638 71.6571 54.0381L70.6602 52.3042ZM128.34 19.1425L70.6602 52.3042L71.6571 54.0381L129.337 20.8763L128.34 19.1425ZM145.66 19.1425C140.301 16.0614 133.699 16.0614 128.34 19.1425L129.337 20.8763C134.078 18.1501 139.922 18.1501 144.663 20.8763L145.66 19.1425ZM203.34 52.3042L145.66 19.1425L144.663 20.8763L202.343 54.0381L203.34 52.3042ZM212 67.2414C212 61.0793 208.699 55.3853 203.34 52.3042L202.343 54.0381C207.084 56.7638 210 61.7979 210 67.2414H212ZM212 68V67.2414H210V68H212ZM212 67H211V69H212V67ZM207.93 67.9096C207.43 62.403 204.276 57.4384 199.416 54.6439L198.419 56.3777C202.713 58.8469 205.497 63.2315 205.938 68.0904L207.93 67.9096ZM199.416 54.6439L145.581 23.6929L144.584 25.4268L198.419 56.3777L199.416 54.6439ZM145.581 23.6929C140.271 20.6398 133.729 20.6398 128.419 23.6929L129.416 25.4268C134.109 22.7286 139.891 22.7286 144.584 25.4268L145.581 23.6929ZM128.419 23.6929L74.5845 54.6439L75.5813 56.3777L129.416 25.4268L128.419 23.6929ZM74.5845 54.6439C69.7239 57.4384 66.5697 62.4031 66.0698 67.9096L68.0616 68.0904C68.5028 63.2315 71.2866 58.8469 75.5813 56.3777L74.5845 54.6439ZM68.0701 67H67.0657V69H68.0701V67ZM69.0655 68.0964C69.5017 63.5947 72.0929 59.5368 76.0798 57.2447L75.0829 55.5108C70.5336 58.1263 67.5733 62.7591 67.0748 67.9036L69.0655 68.0964ZM76.0798 57.2447L129.914 26.2937L128.917 24.5598L75.0829 55.5108L76.0798 57.2447ZM129.914 26.2937C134.298 23.7729 139.702 23.7729 144.086 26.2937L145.083 24.5598C140.081 21.6842 133.919 21.6842 128.917 24.5598L129.914 26.2937ZM144.086 26.2937L197.92 57.2447L198.917 55.5108L145.083 24.5598L144.086 26.2937ZM197.92 57.2447C201.907 59.5368 204.498 63.5948 204.935 68.0964L206.925 67.9036C206.427 62.7591 203.466 58.1263 198.917 55.5108L197.92 57.2447ZM206.934 67H205.93V69H206.934V67ZM202.512 67.754C201.465 63.6289 198.786 60.0312 194.993 57.8504L193.996 59.5843C197.316 61.4928 199.658 64.6399 200.573 68.246L202.512 67.754ZM194.993 57.8504L145.004 29.1103L144.007 30.8441L193.996 59.5843L194.993 57.8504ZM145.004 29.1103C140.051 26.2626 133.949 26.2626 128.996 29.1103L129.993 30.8441C134.329 28.3513 139.671 28.3513 144.007 30.8441L145.004 29.1103ZM128.996 29.1103L79.0071 57.8504L80.004 59.5843L129.993 30.8441L128.996 29.1103ZM79.0071 57.8504C75.214 60.0312 72.5351 63.6289 71.488 67.754L73.4265 68.246C74.3419 64.6399 76.6845 61.4928 80.004 59.5843L79.0071 57.8504ZM73.4914 67H72.4573V69H73.4914V67ZM74.456 68.2638C75.345 65.0127 77.4899 62.1832 80.5024 60.4512L79.5056 58.7174C76.0302 60.7154 73.5536 63.9813 72.5269 67.7362L74.456 68.2638ZM80.5024 60.4512L130.491 31.7111L129.494 29.9772L79.5056 58.7174L80.5024 60.4512ZM130.491 31.7111C134.519 29.3957 139.481 29.3957 143.509 31.7111L144.506 29.9772C139.861 27.307 134.139 27.307 129.494 29.9772L130.491 31.7111ZM143.509 31.7111L193.498 60.4512L194.494 58.7174L144.506 29.9772L143.509 31.7111ZM193.498 60.4512C196.51 62.1832 198.655 65.0127 199.544 68.2638L201.473 67.7362C200.446 63.9813 197.97 60.7154 194.494 58.7174L193.498 60.4512ZM201.543 67H200.509V69H201.543V67ZM189.573 62.7909C191.884 64.1196 193.679 66.1024 194.778 68.4272L196.586 67.5728C195.316 64.8845 193.24 62.5923 190.57 61.057L189.573 62.7909ZM143.43 36.2615L189.573 62.7909L190.57 61.057L144.427 34.5276L143.43 36.2615ZM130.57 36.2615C134.549 33.9741 139.451 33.9741 143.43 36.2615L144.427 34.5276C139.831 31.8854 134.169 31.8854 129.573 34.5276L130.57 36.2615ZM84.4266 62.7909L130.57 36.2615L129.573 34.5276L83.4298 61.057L84.4266 62.7909ZM79.2222 68.4272C80.3207 66.1024 82.1155 64.1196 84.4266 62.7909L83.4298 61.057C80.7595 62.5923 78.6842 64.8845 77.4139 67.5728L79.2222 68.4272ZM79.4339 67H78.318V69H79.4339V67ZM83.9282 61.924C81.5915 63.2674 79.7438 65.2319 78.5463 67.5394L80.3215 68.4606C81.3453 66.4877 82.9253 64.8076 84.9251 63.6578L83.9282 61.924ZM130.072 35.3946L83.9282 61.924L84.9251 63.6578L131.069 37.1284L130.072 35.3946ZM143.928 35.3946C139.641 32.9297 134.359 32.9297 130.072 35.3946L131.069 37.1284C134.739 35.0184 139.261 35.0184 142.931 37.1284L143.928 35.3946ZM190.072 61.924L143.928 35.3946L142.931 37.1284L189.075 63.6578L190.072 61.924ZM195.454 67.5394C194.256 65.2319 192.408 63.2674 190.072 61.924L189.075 63.6578C191.075 64.8076 192.655 66.4877 193.679 68.4606L195.454 67.5394ZM195.682 67H194.566V69H195.682V67ZM189.835 67.3593C188.814 66.1365 187.573 65.083 186.148 64.2637L185.151 65.9975C186.368 66.6976 187.428 67.597 188.299 68.6407L189.835 67.3593ZM186.148 64.2636L143.849 39.945L142.852 41.6789L185.151 65.9975L186.148 64.2636ZM143.849 39.945C139.611 37.5082 134.389 37.5082 130.151 39.945L131.148 41.6789C134.769 39.5969 139.231 39.5969 142.852 41.6789L143.849 39.945ZM130.151 39.945L87.8524 64.2636L88.8493 65.9975L131.148 41.6789L130.151 39.945ZM87.8524 64.2636C86.4272 65.083 85.1855 66.1365 84.1652 67.3594L85.7008 68.6406C86.5716 67.597 87.6316 66.6976 88.8493 65.9975L87.8524 64.2636ZM86.2768 67H84.933V69H86.2768V67ZM86.9953 68.6956C87.68 67.9884 88.4688 67.3698 89.3477 66.8645L88.3509 65.1306C87.3084 65.73 86.3718 66.4644 85.5584 67.3044L86.9953 68.6956ZM89.3477 66.8645L131.646 42.5458L130.649 40.812L88.3509 65.1306L89.3477 66.8645ZM131.646 42.5458C134.959 40.6413 139.041 40.6413 142.354 42.5458L143.351 40.812C139.421 38.5525 134.579 38.5525 130.649 40.812L131.646 42.5458ZM142.354 42.5458L184.652 66.8645L185.649 65.1306L143.351 40.812L142.354 42.5458ZM184.652 66.8645C185.531 67.3698 186.32 67.9884 187.005 68.6956L188.442 67.3044C187.628 66.4644 186.692 65.7299 185.649 65.1306L184.652 66.8645ZM189.067 67H187.723V69H189.067V67ZM142.275 47.0963L180.142 68.8669L181.138 67.1331L143.272 45.3624L142.275 47.0963ZM131.725 47.0963C134.989 45.2197 139.011 45.2197 142.275 47.0963L143.272 45.3624C139.391 43.1309 134.609 43.131 130.728 45.3624L131.725 47.0963ZM93.8584 68.8669L131.725 47.0963L130.728 45.3624L92.8615 67.1331L93.8584 68.8669ZM95.3663 67H93.36V69H95.3663V67ZM131.226 46.2293L94.8678 67.1331L95.8647 68.8669L132.223 47.9632L131.226 46.2293ZM142.773 46.2293C139.201 44.1753 134.799 44.1753 131.226 46.2293L132.223 47.9632C135.179 46.264 138.821 46.264 141.777 47.9632L142.773 46.2293ZM179.132 67.1331L142.773 46.2293L141.777 47.9632L178.135 68.8669L179.132 67.1331ZM180.64 67H178.634V69H180.64V67ZM171.138 67.1331L142.695 50.7798L141.698 52.5136L170.142 68.8669L171.138 67.1331ZM142.695 50.7798C139.171 48.7537 134.829 48.7537 131.305 50.7798L132.302 52.5136C135.209 50.8424 138.791 50.8424 141.698 52.5136L142.695 50.7798ZM131.305 50.7798L102.861 67.1331L103.858 68.8669L132.302 52.5136L131.305 50.7798ZM105.366 67H103.36V69H105.366V67ZM105.865 68.8669L132.801 53.3806L131.804 51.6467L104.868 67.1331L105.865 68.8669ZM132.801 53.3806C135.399 51.8868 138.601 51.8868 141.199 53.3806L142.196 51.6467C138.981 49.7981 135.019 49.7981 131.804 51.6467L132.801 53.3806ZM141.199 53.3806L168.135 68.8669L169.132 67.1331L142.196 51.6467L141.199 53.3806ZM170.64 67H168.634V69H170.64V67ZM141.12 57.931L160.142 68.8669L161.138 67.1331L142.117 56.1972L141.12 57.931ZM132.88 57.931C135.429 56.4652 138.571 56.4652 141.12 57.931L142.117 56.1972C138.951 54.3765 135.049 54.3765 131.883 56.1972L132.88 57.931ZM113.858 68.8669L132.88 57.931L131.883 56.1972L112.862 67.1331L113.858 68.8669ZM115.366 67H113.36V69H115.366V67ZM132.381 57.0641L114.868 67.1331L115.865 68.8669L133.378 58.798L132.381 57.0641ZM141.619 57.0641C138.761 55.4209 135.239 55.4209 132.381 57.0641L133.378 58.798C135.619 57.5096 138.381 57.5096 140.622 58.798L141.619 57.0641ZM159.132 67.1331L141.619 57.0641L140.622 58.798L158.135 68.8669L159.132 67.1331ZM160.64 67H158.634V69H160.64V67ZM151.138 67.1331L141.54 61.6145L140.543 63.3484L150.142 68.8669L151.138 67.1331ZM141.54 61.6145C138.73 59.9993 135.27 59.9993 132.46 61.6145L133.457 63.3484C135.649 62.088 138.351 62.088 140.543 63.3484L141.54 61.6145ZM132.46 61.6145L122.862 67.1331L123.858 68.8669L133.457 63.3484L132.46 61.6145ZM125.366 67H123.36V69H125.366V67ZM125.865 68.8669L133.955 64.2153L132.959 62.4815L124.868 67.1331L125.865 68.8669ZM133.955 64.2153C135.839 63.1324 138.161 63.1324 140.045 64.2153L141.041 62.4815C138.541 61.0437 135.459 61.0437 132.959 62.4815L133.955 64.2153ZM140.045 64.2153L148.135 68.8669L149.132 67.1331L141.041 62.4815L140.045 64.2153ZM150.64 67H148.634V69H150.64V67ZM31.0941 -0.866932L8.74315 11.9833L9.74001 13.7172L32.091 0.866932L31.0941 -0.866932ZM8.74315 11.9833C5.01553 14.1265 1.80259 16.9237 -0.783285 20.1819L0.783285 21.4252C3.21402 18.3625 6.23443 15.7327 9.74001 13.7172L8.74315 11.9833ZM1 20.8036V19.2315H-1V20.8036H1ZM0.759816 19.8817C3.12785 17.1141 5.98146 14.7246 9.24158 12.8503L8.24473 11.1164C4.78452 13.1058 1.75469 15.6427 -0.759816 18.5814L0.759816 19.8817ZM9.24158 12.8503L30.0846 0.866932L29.0878 -0.866932L8.24473 11.1164L9.24158 12.8503ZM29.5862 1H31.5925V-1H29.5862V1Z" fill="url(#paint0_linear)" mask="url(#path-1-inside-1)"/>
<defs>
<linearGradient id="paint0_linear" x1="137.5" y1="0" x2="137.5" y2="68" gradientUnits="userSpaceOnUse">
<stop stop-color="#A6D4FF"/>
<stop offset="1" stop-color="#6990FF"/>
</linearGradient>
</defs>
</svg>
