<svg width="275" height="68" viewBox="0 0 275 68" fill="none" xmlns="http://www.w3.org/2000/svg">
<mask id="path-1-inside-1" fill="white">
<path fill-rule="evenodd" clip-rule="evenodd" d="M275 7.19259L262.489 -0.000244089H260.483L275 8.34608V7.19259ZM275 3.1682L269.489 -0.000244089H271.495L275 2.01472V3.1682ZM275 12.4813C274.122 11.9029 273.223 11.349 272.304 10.8206L253.483 -0.000244089H251.477L271.806 11.6876C272.9 12.3167 273.965 12.9829 275 13.6839V12.4813ZM275 18.3993C272.794 16.5698 270.417 14.9132 267.882 13.4558L244.477 -0.000244089H242.471L267.383 14.3227C270.115 15.8932 272.66 17.6996 275 19.7077V18.3993ZM275 25.2461C271.679 21.6877 267.805 18.5896 263.459 16.091L235.471 -0.000244089H233.465L262.961 16.9579C267.542 19.592 271.588 22.9058 275 26.7294V25.2461ZM275 33.5532C270.946 27.5648 265.531 22.4602 259.036 18.7262L226.465 -0.000244089H224.459L258.538 19.5931C265.352 23.5107 270.953 28.9686 275 35.3802V33.5532ZM275 44.9326C271.138 35.1592 264.041 26.7812 254.614 21.3613L217.459 -0.000244089H215.452L254.115 22.2282C264.162 28.0041 271.504 37.2113 275 47.8755V44.9326ZM273.285 64.9497V63.8289C273.285 47.3966 264.482 32.2126 250.191 23.9965L208.453 -0.000244089H206.446L249.693 24.8634C263.674 32.9019 272.285 47.756 272.285 63.8289V66.0055C272.649 65.6847 272.984 65.3312 273.285 64.9497ZM268.285 67.8971V65.4682C268.285 49.4468 259.702 34.6424 245.768 26.6317L199.447 -0.000244089H197.44L245.27 27.4986C258.894 35.3316 267.285 49.8061 267.285 65.4682V67.9948C267.624 67.9829 267.958 67.9499 268.285 67.8971ZM263.285 67.9998V67.1076C263.285 51.4969 254.922 37.0721 241.346 29.2668L190.44 -0.000244089H188.434L240.847 30.1337C254.114 37.7614 262.285 51.8563 262.285 67.1076V67.9998H263.285ZM258.279 67.9998C258.017 53.088 249.925 39.3772 236.923 31.902L181.434 -0.000244089H179.428L236.425 32.7689C249.118 40.0664 257.017 53.4472 257.278 67.9998H258.279ZM253.216 67.9998C252.415 54.1389 244.667 41.5321 232.501 34.5371L172.428 -0.000244089H170.422L232.002 35.4041C243.859 42.2212 251.414 54.4982 252.215 67.9998H253.216ZM248.083 67.9998C246.793 55.2009 239.405 43.6849 228.078 37.1723L163.422 -0.000244089H161.416L227.579 38.0392C238.597 44.3738 245.791 55.5607 247.078 67.9998H248.083ZM242.872 67.9998C241.149 56.2742 234.139 45.8349 223.655 39.8075L154.416 -0.000244089H152.41L223.157 40.6744C233.33 46.5235 240.145 56.6346 241.86 67.9998H242.872ZM237.573 67.9998C235.478 57.3587 228.867 47.9815 219.233 42.4426L145.41 -0.000244089H143.404L218.734 43.3096C228.057 48.6696 234.472 57.72 236.554 67.9998H237.573ZM232.178 67.9998C229.775 58.4542 223.586 50.1235 214.81 45.0778L136.404 -0.000244089H134.398L214.311 45.9447C222.776 50.811 228.765 58.8166 231.146 67.9998H232.178ZM0 6.99819V5.8447L10.1663 -0.000244089H12.1726L0 6.99819ZM226.672 67.9998C224.036 59.56 218.296 52.2598 210.387 47.713L127.398 -0.000244089H125.392L209.889 48.5799C217.483 52.9462 223.02 59.9237 225.623 67.9998H226.672ZM0 12.1761V11.0226L19.1724 -0.000244089H21.1787L0 12.1761ZM221.038 67.9998C218.25 60.6754 212.992 54.3884 205.965 50.3481L118.392 -0.000244089H116.385L205.466 51.2151C212.177 55.0733 217.226 61.0404 219.966 67.9998H221.038ZM0 17.354V16.2005L28.1785 -0.000244089H30.1848L0 17.354ZM215.255 67.9998C212.408 61.7987 207.671 56.5071 201.542 52.9833L109.386 -0.000244089H107.379L201.044 53.8502C206.852 57.1896 211.371 62.1649 214.151 67.9998H215.255ZM0 22.5318V21.3783L37.1846 -0.000244089H39.1909L0 22.5318ZM209.291 67.9998C206.493 62.9275 202.326 58.6122 197.119 55.6185L100.38 -0.000244089H98.3733L196.621 56.4854C201.501 59.2911 205.437 63.2943 208.143 67.9998H209.291ZM0 27.7097V26.5562L46.1907 -0.000244089H48.197L0 27.7097ZM203.103 67.9998C200.482 64.0575 196.949 60.6985 192.697 58.2536L91.3735 -0.000244089H89.3672L192.198 59.1206C196.114 61.3718 199.399 64.4234 201.893 67.9998H203.103ZM0 32.8876V31.7341L55.1968 -0.000244089H57.2031L0 32.8876ZM196.623 67.9998C194.338 65.181 191.525 62.7576 188.274 60.8888L88.2962 3.40844C85.4444 1.76882 82.3894 0.632593 79.2559 -0.000243986L67.3144 -0.000244141C64.1809 0.632592 61.1259 1.76882 58.274 3.40844L0 36.912V38.0655L58.7725 4.27537C67.7528 -0.887688 78.8175 -0.887688 87.7978 4.27537L187.776 61.7557C190.673 63.4216 193.211 65.5432 195.321 67.9998H196.623ZM189.738 67.9998C187.999 66.2839 186.027 64.7747 183.851 63.524L87.7189 8.25439C78.7873 3.11931 67.783 3.11931 58.8514 8.25439L0 42.0899V43.2434L59.3498 9.12132C67.9729 4.16366 78.5974 4.16366 87.2205 9.12132L183.353 64.3909C185.147 65.4223 186.797 66.6356 188.287 67.9998H189.738ZM182.226 67.9998C181.338 67.3354 180.405 66.7202 179.429 66.1591L87.1415 13.1003C78.5672 8.17066 68.0031 8.17066 59.4287 13.1003L0 47.2678V48.4213L59.9272 13.9673C68.1929 9.21501 78.3773 9.21501 86.6431 13.9673L178.93 67.0261C179.466 67.334 179.988 67.6589 180.497 67.9998H182.226ZM173.624 67.9998L86.5642 17.9463C78.3471 13.222 68.2232 13.222 60.0061 17.9463L0 52.4457V53.5992L60.5045 18.8132C68.413 14.2664 78.1573 14.2664 86.0658 18.8132L171.618 67.9998H173.624ZM164.618 67.9998L85.9868 22.7922C78.127 18.2734 68.4433 18.2734 60.5834 22.7922L0 57.6236V58.777L61.0819 23.6592C68.6331 19.3177 77.9372 19.3177 85.4884 23.6592L162.612 67.9998H164.618ZM155.612 67.9998L85.4095 27.6382C77.9069 23.3247 68.6634 23.3247 61.1608 27.6382L0.418689 62.5607C0.526992 62.8815 0.655076 63.1931 0.80149 63.4941L61.6592 28.5051C68.8532 24.3691 77.7171 24.3691 84.9111 28.5051L153.606 67.9998H155.612ZM145.612 67.9998L84.8322 33.0555C77.6868 28.9475 68.8834 28.9475 61.7381 33.0555L3.43935 66.5733C3.75282 66.7912 4.08263 66.9873 4.42655 67.1593L62.2366 33.9225C69.0733 29.9918 77.497 29.9918 84.3337 33.9225L143.606 67.9998H145.612ZM135.612 67.9998L84.2548 38.4729C77.4667 34.5702 69.1035 34.5702 62.3155 38.4729L10.9583 67.9998H12.9646L62.8139 39.3398C69.2934 35.6146 77.2769 35.6146 83.7564 39.3398L133.606 67.9998H135.612ZM125.612 67.9998L83.6775 43.8903C77.2467 40.1931 69.3236 40.1931 62.8929 43.8903L20.9584 67.9998H22.9647L63.3913 44.7572C69.5134 41.2374 77.0568 41.2374 83.179 44.7572L123.606 67.9998H125.612ZM115.612 67.9998L83.1001 49.3077C77.0266 45.8158 69.5437 45.8158 63.4702 49.3077L30.9583 67.9998H32.9647L63.9686 50.1746C69.7336 46.8602 76.8368 46.8602 82.6017 50.1746L113.606 67.9998H115.612ZM105.612 67.9998L82.5228 54.725C76.8065 51.4386 69.7638 51.4386 64.0475 54.725L40.9583 67.9998H42.9646L64.546 55.592C69.9536 52.4829 76.6167 52.4829 82.0243 55.592L103.606 67.9998H105.612ZM95.6119 67.9998L81.9454 60.1425C76.5864 57.0614 69.9839 57.0614 64.6249 60.1425L50.9584 67.9998H52.9647L65.1233 61.0094C70.1737 58.1058 76.3966 58.1058 81.447 61.0094L93.6056 67.9998H95.6119ZM85.6119 67.9998L81.368 65.5598C76.3663 62.6842 70.204 62.6842 65.2022 65.5598L60.9584 67.9998H62.9647L65.7007 66.4267C70.3938 63.7285 76.1765 63.7285 80.8696 66.4267L83.6056 67.9998H85.6119ZM3.16656 -0.000244089L0 1.82031V0.666817L1.16024 -0.000244089H3.16656Z"/>
</mask>
<path d="M275 7.19259H276V6.61403L275.498 6.32566L275 7.19259ZM262.489 -0.000244089L262.988 -0.867176L262.756 -1.00024H262.489V-0.000244089ZM260.483 -0.000244089V-1.00024H256.737L259.984 0.866688L260.483 -0.000244089ZM275 8.34608L274.502 9.21301L276 10.0745V8.34608H275ZM275 3.1682L274.502 4.03513L276 4.89663V3.1682H275ZM269.489 -0.000244089V-1.00024H265.743L268.991 0.866688L269.489 -0.000244089ZM271.495 -0.000244089L271.994 -0.867176L271.762 -1.00024H271.495V-0.000244089ZM275 2.01472H276V1.43616L275.498 1.14778L275 2.01472ZM272.304 10.8206L272.803 9.95372L272.803 9.95372L272.304 10.8206ZM275 12.4813H276V11.9426L275.55 11.6462L275 12.4813ZM253.483 -0.000244089L253.982 -0.867176L253.75 -1.00024H253.483V-0.000244089ZM251.477 -0.000244089V-1.00024H247.731L250.978 0.866688L251.477 -0.000244089ZM271.806 11.6876L271.308 12.5545V12.5545L271.806 11.6876ZM275 13.6839L274.439 14.5118L276 15.5694V13.6839H275ZM275 18.3993H276V17.9296L275.638 17.6297L275 18.3993ZM267.882 13.4558L268.38 12.5889L268.38 12.5889L267.882 13.4558ZM244.477 -0.000244089L244.975 -0.867176L244.744 -1.00024H244.477V-0.000244089ZM242.471 -0.000244089V-1.00024H238.725L241.972 0.866688L242.471 -0.000244089ZM267.383 14.3227L267.882 13.4558L267.383 14.3227ZM275 19.7077L274.349 20.4666L276 21.8838V19.7077H275ZM263.459 16.091L262.961 16.9579V16.9579L263.459 16.091ZM275 25.2461H276V24.8519L275.731 24.5637L275 25.2461ZM235.471 -0.000244089L235.969 -0.867176L235.738 -1.00024H235.471V-0.000244089ZM233.465 -0.000244089V-1.00024H229.719L232.966 0.866688L233.465 -0.000244089ZM262.961 16.9579L262.462 17.8248L262.961 16.9579ZM275 26.7294L274.254 27.3952L276 29.3521V26.7294H275ZM275 33.5532H276V33.2465L275.828 32.9926L275 33.5532ZM259.036 18.7262L259.535 17.8592L259.036 18.7262ZM226.465 -0.000244089L226.963 -0.867176L226.732 -1.00024H226.465V-0.000244089ZM224.459 -0.000244089V-1.00024H220.713L223.96 0.866688L224.459 -0.000244089ZM258.538 19.5931L259.036 18.7262L258.538 19.5931ZM275 35.3802L274.154 35.914L276 38.8378V35.3802H275ZM254.614 21.3613L254.115 22.2282L254.614 21.3613ZM275 44.9326H276V44.7422L275.93 44.5651L275 44.9326ZM217.459 -0.000244089L217.957 -0.867176L217.726 -1.00024H217.459V-0.000244089ZM215.452 -0.000244089V-1.00024H211.707L214.954 0.866688L215.452 -0.000244089ZM254.115 22.2282L254.614 21.3613L254.115 22.2282ZM275 47.8755L274.05 48.187L276 47.8755H275ZM273.285 64.9497L274.07 65.569L274.285 65.2966V64.9497H273.285ZM250.191 23.9965L250.69 23.1295L250.191 23.9965ZM208.453 -0.000244089L208.951 -0.867176L208.72 -1.00024H208.453V-0.000244089ZM206.446 -0.000244089V-1.00024H202.701L205.948 0.866688L206.446 -0.000244089ZM249.693 24.8634L249.194 25.7304L249.693 24.8634ZM272.285 66.0055H271.285V68.2187L272.946 66.7559L272.285 66.0055ZM268.285 67.8971L268.445 68.8843L269.285 68.7485V67.8971H268.285ZM245.768 26.6317L245.27 27.4986L245.768 26.6317ZM199.447 -0.000244089L199.945 -0.867176L199.714 -1.00024H199.447V-0.000244089ZM197.44 -0.000244089V-1.00024H193.695L196.942 0.866688L197.44 -0.000244089ZM245.27 27.4986L244.772 28.3655L245.27 27.4986ZM267.285 67.9948H266.285V69.0304L267.32 68.9942L267.285 67.9948ZM263.285 67.9998V68.9998H264.285V67.9998H263.285ZM241.346 29.2668L241.844 28.3999L241.346 29.2668ZM190.44 -0.000244089L190.939 -0.867176L190.707 -1.00024H190.44V-0.000244089ZM188.434 -0.000244089V-1.00024H184.689L187.936 0.866688L188.434 -0.000244089ZM240.847 30.1337L240.349 31.0007L240.847 30.1337ZM262.285 67.9998H261.285V68.9998H262.285V67.9998ZM236.923 31.902L237.422 31.035L236.923 31.902ZM258.279 67.9998V68.9998H259.296L259.278 67.9822L258.279 67.9998ZM181.434 -0.000244089L181.933 -0.867176L181.701 -1.00024H181.434V-0.000244089ZM179.428 -0.000244089V-1.00024H175.682L178.93 0.866688L179.428 -0.000244089ZM236.425 32.7689L236.923 31.902L236.425 32.7689ZM257.278 67.9998L256.279 68.0178L256.296 68.9998H257.278V67.9998ZM253.216 67.9998V68.9998H254.276L254.215 67.942L253.216 67.9998ZM232.501 34.5371L232.999 33.6702L232.501 34.5371ZM172.428 -0.000244089L172.927 -0.867176L172.695 -1.00024H172.428V-0.000244089ZM170.422 -0.000244089V-1.00024H166.676L169.924 0.866688L170.422 -0.000244089ZM232.002 35.4041L232.501 34.5372L232.002 35.4041ZM252.215 67.9998L251.216 68.0589L251.272 68.9998H252.215V67.9998ZM228.078 37.1723L228.576 36.3054L228.078 37.1723ZM248.083 67.9998V68.9998H249.189L249.078 67.8995L248.083 67.9998ZM163.422 -0.000244089L163.921 -0.867176L163.689 -1.00024H163.422V-0.000244089ZM161.416 -0.000244089V-1.00024H157.67L160.917 0.866688L161.416 -0.000244089ZM227.579 38.0392L228.078 37.1723L227.579 38.0392ZM247.078 67.9998L246.083 68.1026L246.176 68.9998H247.078V67.9998ZM242.872 67.9998V68.9998H244.029L243.861 67.8544L242.872 67.9998ZM223.655 39.8075L223.157 40.6744L223.655 39.8075ZM154.416 -0.000244089L154.915 -0.867176L154.683 -1.00024H154.416V-0.000244089ZM152.41 -0.000244089V-1.00024H148.664L151.911 0.866688L152.41 -0.000244089ZM223.157 40.6744L223.655 39.8075L223.157 40.6744ZM241.86 67.9998L240.872 68.149L241 68.9998H241.86V67.9998ZM219.233 42.4426L218.734 43.3096L219.233 42.4426ZM237.573 67.9998V68.9998H238.79L238.555 67.8065L237.573 67.9998ZM145.41 -0.000244089L145.908 -0.867176L145.677 -1.00024H145.41V-0.000244089ZM143.404 -0.000244089V-1.00024H139.658L142.905 0.866688L143.404 -0.000244089ZM218.734 43.3096L219.233 42.4426L218.734 43.3096ZM236.554 67.9998L235.573 68.1982L235.736 68.9998H236.554V67.9998ZM232.178 67.9998V68.9998H233.461L233.148 67.7557L232.178 67.9998ZM214.81 45.0778L214.312 45.9447L214.81 45.0778ZM136.404 -0.000244089L136.902 -0.867176L136.671 -1.00024H136.404V-0.000244089ZM134.398 -0.000244089V-1.00024H130.652L133.899 0.866688L134.398 -0.000244089ZM214.311 45.9447L213.813 46.8117L214.311 45.9447ZM231.146 67.9998L230.178 68.2507L230.372 68.9998H231.146V67.9998ZM0 6.99819H-1V8.72662L0.498426 7.86512L0 6.99819ZM0 5.8447L-0.498426 4.97777L-1 5.26614V5.8447H0ZM10.1663 -0.000244089V-1.00024H9.89936L9.66791 -0.867176L10.1663 -0.000244089ZM12.1726 -0.000244089L12.6711 0.866688L15.9183 -1.00024H12.1726V-0.000244089ZM210.387 47.713L210.886 46.846L210.387 47.713ZM226.672 67.9998V68.9998H228.032L227.626 67.7016L226.672 67.9998ZM127.398 -0.000244089L127.896 -0.867176L127.665 -1.00024H127.398V-0.000244089ZM125.392 -0.000244089V-1.00024H121.646L124.893 0.866688L125.392 -0.000244089ZM209.889 48.5799L209.39 49.4468L209.889 48.5799ZM225.623 67.9998L224.671 68.3065L224.894 68.9998H225.623V67.9998ZM0 12.1761H-1V13.9045L0.498426 13.043L0 12.1761ZM0 11.0226L-0.498426 10.1557L-1 10.444V11.0226H0ZM19.1724 -0.000244089V-1.00024H18.9055L18.674 -0.867176L19.1724 -0.000244089ZM21.1787 -0.000244089L21.6772 0.866688L24.9244 -1.00024H21.1787V-0.000244089ZM221.038 67.9998V68.9998H222.489L221.973 67.644L221.038 67.9998ZM205.965 50.3481L205.466 51.2151L205.965 50.3481ZM118.392 -0.000244089L118.89 -0.867176L118.659 -1.00024H118.392V-0.000244089ZM116.385 -0.000244089V-1.00024H112.64L115.887 0.866688L116.385 -0.000244089ZM205.466 51.2151L205.965 50.3481L205.466 51.2151ZM219.966 67.9998L219.035 68.3661L219.285 68.9998H219.966V67.9998ZM0 17.354H-1V19.0824L0.498426 18.2209L0 17.354ZM0 16.2005L-0.498426 15.3335L-1 15.6219V16.2005H0ZM28.1785 -0.000244089V-1.00024H27.9115L27.6801 -0.867176L28.1785 -0.000244089ZM30.1848 -0.000244089L30.6833 0.866688L33.9305 -1.00024H30.1848V-0.000244089ZM201.542 52.9833L202.04 52.1164L201.542 52.9833ZM215.255 67.9998V68.9998H216.814L216.164 67.5825L215.255 67.9998ZM109.386 -0.000244089L109.884 -0.867176L109.653 -1.00024H109.386V-0.000244089ZM107.379 -0.000244089V-1.00024H103.634L106.881 0.866688L107.379 -0.000244089ZM201.044 53.8502L201.542 52.9833L201.044 53.8502ZM214.151 67.9998L213.248 68.4299L213.52 68.9998H214.151V67.9998ZM0 22.5318H-1V24.2603L0.498426 23.3988L0 22.5318ZM0 21.3783L-0.498426 20.5114L-1 20.7998V21.3783H0ZM37.1846 -0.000244089V-1.00024H36.9176L36.6862 -0.867176L37.1846 -0.000244089ZM39.1909 -0.000244089L39.6893 0.866688L42.9366 -1.00024H39.1909V-0.000244089ZM209.291 67.9998V68.9998H210.985L210.167 67.5167L209.291 67.9998ZM197.119 55.6185L197.618 54.7515L197.119 55.6185ZM100.38 -0.000244089L100.878 -0.867176L100.647 -1.00024H100.38V-0.000244089ZM98.3733 -0.000244089V-1.00024H94.6276L97.8748 0.866688L98.3733 -0.000244089ZM196.621 56.4854L197.119 55.6185L196.621 56.4854ZM208.143 67.9998L207.276 68.4983L207.565 68.9998H208.143V67.9998ZM0 27.7097H-1V29.4382L0.498426 28.5767L0 27.7097ZM0 26.5562L-0.498426 25.6893L-1 25.9777V26.5562H0ZM46.1907 -0.000244089V-1.00024H45.9237L45.6923 -0.867176L46.1907 -0.000244089ZM48.197 -0.000244089L48.6954 0.866688L51.9427 -1.00024H48.197V-0.000244089ZM192.697 58.2536L192.198 59.1206L192.697 58.2536ZM203.103 67.9998V68.9998H204.969L203.936 67.4461L203.103 67.9998ZM91.3735 -0.000244089L91.8719 -0.867176L91.6405 -1.00024H91.3735V-0.000244089ZM89.3672 -0.000244089V-1.00024H85.6215L88.8687 0.866688L89.3672 -0.000244089ZM192.198 59.1206L192.697 58.2536L192.198 59.1206ZM201.893 67.9998L201.073 68.5718L201.371 68.9998H201.893V67.9998ZM0 32.8876H-1V34.616L0.498426 33.7545L0 32.8876ZM0 31.7341L-0.498426 30.8672L-1 31.1556V31.7341H0ZM55.1968 -0.000244089V-1.00024H54.9298L54.6984 -0.867176L55.1968 -0.000244089ZM57.2031 -0.000244089L57.7015 0.866688L60.9488 -1.00024H57.2031V-0.000244089ZM196.623 67.9998V68.9998H198.721L197.4 67.3701L196.623 67.9998ZM188.274 60.8888L188.772 60.0219L188.274 60.8888ZM88.2962 3.40844L88.7947 2.54151V2.54151L88.2962 3.40844ZM79.2559 -0.000243986L79.4539 -0.980453L79.3559 -1.00024H79.2559V-0.000243986ZM67.3144 -0.000244141V-1.00024H67.2144L67.1164 -0.980453L67.3144 -0.000244141ZM58.274 3.40844L58.7725 4.27537L58.274 3.40844ZM0 36.912L-0.498426 36.0451L-1 36.3335V36.912H0ZM0 38.0655H-1V39.7939L0.498426 38.9324L0 38.0655ZM58.7725 4.27537L58.274 3.40844L58.7725 4.27537ZM87.7978 4.27537L88.2962 3.40844L87.7978 4.27537ZM187.776 61.7557L188.274 60.8888L187.776 61.7557ZM195.321 67.9998L194.562 68.6512L194.861 68.9998H195.321V67.9998ZM183.851 63.524L183.353 64.3909L183.851 63.524ZM189.738 67.9998V68.9998H192.174L190.44 67.288L189.738 67.9998ZM87.7189 8.25439L88.2173 7.38745L87.7189 8.25439ZM58.8514 8.25439L59.3498 9.12132H59.3498L58.8514 8.25439ZM0 42.0899L-0.498426 41.223L-1 41.5113V42.0899H0ZM0 43.2434H-1V44.9718L0.498426 44.1103L0 43.2434ZM59.3498 9.12132L58.8514 8.25438H58.8514L59.3498 9.12132ZM87.2205 9.12132L86.722 9.98825L87.2205 9.12132ZM183.353 64.3909L182.855 65.2578L183.353 64.3909ZM188.287 67.9998L187.611 68.7371L187.898 68.9998H188.287V67.9998ZM182.226 67.9998V68.9998H185.231L182.825 67.1991L182.226 67.9998ZM179.429 66.1591L179.927 65.2922V65.2922L179.429 66.1591ZM87.1415 13.1003L87.64 12.2334L87.1415 13.1003ZM59.4287 13.1003L58.9303 12.2334L59.4287 13.1003ZM0 47.2678L-0.498426 46.4009L-1 46.6892V47.2678H0ZM0 48.4213H-1V50.1497L0.498426 49.2882L0 48.4213ZM59.9272 13.9673L59.4287 13.1003H59.4287L59.9272 13.9673ZM86.6431 13.9673L86.1447 14.8342L86.6431 13.9673ZM178.93 67.0261L178.432 67.893H178.432L178.93 67.0261ZM180.497 67.9998L179.94 68.8303L180.192 68.9998H180.497V67.9998ZM86.5642 17.9463L86.0658 18.8132L86.5642 17.9463ZM173.624 67.9998V68.9998H177.37L174.123 67.1328L173.624 67.9998ZM60.0061 17.9463L59.5077 17.0793H59.5077L60.0061 17.9463ZM0 52.4457L-0.498426 51.5787L-1 51.8671V52.4457H0ZM0 53.5992H-1V55.3276L0.498426 54.4661L0 53.5992ZM60.5045 18.8132L61.0029 19.6801H61.0029L60.5045 18.8132ZM86.0658 18.8132L86.5642 17.9463L86.0658 18.8132ZM171.618 67.9998L171.119 68.8667L171.351 68.9998H171.618V67.9998ZM164.618 67.9998V68.9998H168.364L165.116 67.1328L164.618 67.9998ZM85.9868 22.7922L85.4884 23.6592L85.9868 22.7922ZM60.5834 22.7922L61.0819 23.6592H61.0819L60.5834 22.7922ZM0 57.6236L-0.498426 56.7566L-1 57.045V57.6236H0ZM0 58.777H-1V60.5055L0.498426 59.644L0 58.777ZM61.0819 23.6592L61.5803 24.5261H61.5803L61.0819 23.6592ZM85.4884 23.6592L84.99 24.5261L85.4884 23.6592ZM162.612 67.9998L162.113 68.8667L162.345 68.9998H162.612V67.9998ZM85.4095 27.6382L85.9079 26.7712L85.4095 27.6382ZM155.612 67.9998V68.9998H159.358L156.11 67.1328L155.612 67.9998ZM61.1608 27.6382L61.6592 28.5051H61.6592L61.1608 27.6382ZM0.418689 62.5607L-0.079737 61.6938L-0.79137 62.1029L-0.528752 62.8806L0.418689 62.5607ZM0.80149 63.4941L-0.0978015 63.9315L0.37088 64.8952L1.29992 64.3611L0.80149 63.4941ZM61.6592 28.5051L62.1576 29.372H62.1576L61.6592 28.5051ZM84.9111 28.5051L84.4126 29.372L84.9111 28.5051ZM153.606 67.9998L153.107 68.8667L153.339 68.9998H153.606V67.9998ZM145.612 67.9998V68.9998H149.358L146.11 67.1328L145.612 67.9998ZM84.8322 33.0555L85.3306 32.1886L84.8322 33.0555ZM61.7381 33.0555L62.2366 33.9225L61.7381 33.0555ZM3.43935 66.5733L2.94092 65.7064L1.57219 66.4933L2.86859 67.3945L3.43935 66.5733ZM4.42655 67.1593L3.97928 68.0537L4.4595 68.2938L4.92498 68.0262L4.42655 67.1593ZM62.2366 33.9225L62.735 34.7894L62.2366 33.9225ZM84.3337 33.9225L84.8321 33.0555L84.3337 33.9225ZM143.606 67.9998L143.107 68.8667L143.339 68.9998H143.606V67.9998ZM84.2548 38.4729L83.7564 39.3398L84.2548 38.4729ZM135.612 67.9998V68.9998H139.358L136.11 67.1328L135.612 67.9998ZM62.3155 38.4729L62.8139 39.3398H62.8139L62.3155 38.4729ZM10.9583 67.9998L10.4599 67.1328L7.21264 68.9998H10.9583V67.9998ZM12.9646 67.9998V68.9998H13.2316L13.463 68.8667L12.9646 67.9998ZM62.8139 39.3398L62.3155 38.4729H62.3155L62.8139 39.3398ZM83.7564 39.3398L84.2548 38.4729L83.7564 39.3398ZM133.606 67.9998L133.107 68.8667L133.339 68.9998H133.606V67.9998ZM125.612 67.9998V68.9998H129.358L126.11 67.1328L125.612 67.9998ZM83.6775 43.8903L84.1759 43.0234L83.6775 43.8903ZM62.8929 43.8903L62.3944 43.0234L62.8929 43.8903ZM20.9584 67.9998L20.46 67.1328L17.2127 68.9998H20.9584V67.9998ZM22.9647 67.9998V68.9998H23.2317L23.4631 68.8667L22.9647 67.9998ZM63.3913 44.7572L63.8897 45.6242L63.3913 44.7572ZM83.179 44.7572L82.6806 45.6242L83.179 44.7572ZM123.606 67.9998L123.107 68.8667L123.339 68.9998H123.606V67.9998ZM83.1001 49.3077L83.5985 48.4407L83.1001 49.3077ZM115.612 67.9998V68.9998H119.358L116.11 67.1328L115.612 67.9998ZM63.4702 49.3077L62.9718 48.4407H62.9718L63.4702 49.3077ZM30.9583 67.9998L30.4599 67.1328L27.2127 68.9998H30.9583V67.9998ZM32.9647 67.9998V68.9998H33.2316L33.4631 68.8667L32.9647 67.9998ZM63.9686 50.1746L64.4671 51.0415L63.9686 50.1746ZM82.6017 50.1746L83.1001 49.3077L82.6017 50.1746ZM113.606 67.9998L113.107 68.8667L113.339 68.9998H113.606V67.9998ZM105.612 67.9998V68.9998H109.358L106.11 67.1328L105.612 67.9998ZM82.5228 54.725L82.0243 55.592L82.5228 54.725ZM64.0475 54.725L64.546 55.592L64.0475 54.725ZM40.9583 67.9998L40.4599 67.1328L37.2127 68.9998H40.9583V67.9998ZM42.9646 67.9998V68.9998H43.2316L43.4631 68.8667L42.9646 67.9998ZM64.546 55.592L65.0444 56.4589L64.546 55.592ZM82.0243 55.592L82.5228 54.725L82.0243 55.592ZM103.606 67.9998L103.107 68.8667L103.339 68.9998H103.606V67.9998ZM81.9454 60.1425L81.447 61.0094L81.9454 60.1425ZM95.6119 67.9998V68.9998H99.3576L96.1103 67.1328L95.6119 67.9998ZM64.6249 60.1425L65.1233 61.0094L64.6249 60.1425ZM50.9584 67.9998L50.46 67.1328L47.2127 68.9998H50.9584V67.9998ZM52.9647 67.9998V68.9998H53.2317L53.4631 68.8667L52.9647 67.9998ZM65.1233 61.0094L64.6249 60.1425L65.1233 61.0094ZM81.447 61.0094L81.9454 60.1425L81.447 61.0094ZM93.6056 67.9998L93.1071 68.8667L93.3386 68.9998H93.6056V67.9998ZM85.6119 67.9998V68.9998H89.3576L86.1104 67.1328L85.6119 67.9998ZM81.368 65.5598L80.8696 66.4268L81.368 65.5598ZM65.2022 65.5598L64.7038 64.6929L65.2022 65.5598ZM60.9584 67.9998L60.4599 67.1328L57.2127 68.9998H60.9584V67.9998ZM62.9647 67.9998V68.9998H63.2316L63.4631 68.8667L62.9647 67.9998ZM65.7007 66.4267L66.1991 67.2937V67.2937L65.7007 66.4267ZM80.8696 66.4267L80.3712 67.2937V67.2937L80.8696 66.4267ZM83.6056 67.9998L83.1072 68.8667L83.3387 68.9998H83.6056V67.9998ZM3.16656 -0.000244089L3.66499 0.866688L6.91221 -1.00024H3.16656V-0.000244089ZM0 1.82031H-1V3.54873L0.498426 2.68724L0 1.82031ZM0 0.666817L-0.498426 -0.200115L-1 0.0882554V0.666817H0ZM1.16024 -0.000244089V-1.00024H0.893269L0.661818 -0.867176L1.16024 -0.000244089ZM275.498 6.32566L262.988 -0.867176L261.991 0.866688L274.502 8.05953L275.498 6.32566ZM260.483 0.999756H262.489V-1.00024H260.483V0.999756ZM259.984 0.866688L274.502 9.21301L275.498 7.47915L260.981 -0.867176L259.984 0.866688ZM274 7.19259V8.34608H276V7.19259H274ZM275.498 2.30127L269.987 -0.867176L268.991 0.866688L274.502 4.03513L275.498 2.30127ZM269.489 0.999756H271.495V-1.00024H269.489V0.999756ZM270.997 0.866688L274.502 2.88165L275.498 1.14778L271.994 -0.867176L270.997 0.866688ZM274 2.01472V3.1682H276V2.01472H274ZM271.806 11.6876C272.707 12.2058 273.589 12.7491 274.45 13.3164L275.55 11.6462C274.655 11.0567 273.739 10.4922 272.803 9.95372L271.806 11.6876ZM252.985 0.866688L271.806 11.6876L272.803 9.95372L253.982 -0.867176L252.985 0.866688ZM251.477 0.999756H253.483V-1.00024H251.477V0.999756ZM272.304 10.8207L251.975 -0.867176L250.978 0.866688L271.308 12.5545L272.304 10.8207ZM275.561 12.856C274.506 12.1412 273.42 11.4621 272.304 10.8207L271.308 12.5545C272.38 13.1714 273.425 13.8245 274.439 14.5118L275.561 12.856ZM274 12.4813V13.6839H276V12.4813H274ZM275.638 17.6297C273.389 15.764 270.965 14.0748 268.38 12.5889L267.383 14.3227C269.868 15.7515 272.199 17.3756 274.362 19.169L275.638 17.6297ZM268.38 12.5889L244.975 -0.867176L243.979 0.866688L267.383 14.3228L268.38 12.5889ZM242.471 0.999756H244.477V-1.00024H242.471V0.999756ZM241.972 0.866688L266.885 15.1897L267.882 13.4558L242.969 -0.867176L241.972 0.866688ZM266.885 15.1897C269.562 16.7287 272.056 18.4989 274.349 20.4666L275.651 18.9489C273.264 16.9003 270.668 15.0576 267.882 13.4558L266.885 15.1897ZM274 18.3993V19.7077H276V18.3993H274ZM262.961 16.9579C267.219 19.4064 271.015 22.442 274.269 25.9284L275.731 24.5637C272.343 20.9334 268.391 17.7728 263.957 15.224L262.961 16.9579ZM234.973 0.866688L262.961 16.9579L263.957 15.224L235.969 -0.867176L234.973 0.866688ZM233.465 0.999756H235.471V-1.00024H233.465V0.999756ZM263.459 16.091L233.963 -0.867176L232.966 0.866688L262.462 17.8248L263.459 16.091ZM275.746 26.0636C272.264 22.161 268.134 18.779 263.459 16.091L262.462 17.8248C266.95 20.4049 270.912 23.6505 274.254 27.3952L275.746 26.0636ZM274 25.2461V26.7294H276V25.2461H274ZM275.828 32.9926C271.691 26.8803 266.163 21.6701 259.535 17.8592L258.538 19.5931C264.899 23.2502 270.202 28.2494 274.172 34.1137L275.828 32.9926ZM259.535 17.8592L226.963 -0.867176L225.966 0.866688L258.538 19.5931L259.535 17.8592ZM224.459 0.999756H226.465V-1.00024H224.459V0.999756ZM223.96 0.866688L258.04 20.46L259.036 18.7262L224.957 -0.867176L223.96 0.866688ZM258.04 20.46C264.71 24.2953 270.193 29.638 274.154 35.914L275.846 34.8464C271.713 28.2992 265.994 22.7262 259.036 18.7262L258.04 20.46ZM274 33.5532V35.3802H276V33.5532H274ZM254.115 22.2282C263.343 27.5337 270.29 35.7342 274.07 45.3001L275.93 44.5651C271.986 34.5841 264.738 26.0286 255.112 20.4944L254.115 22.2282ZM216.96 0.866688L254.115 22.2282L255.112 20.4944L217.957 -0.867176L216.96 0.866688ZM215.452 0.999756H217.459V-1.00024H215.452V0.999756ZM254.614 21.3613L215.951 -0.867176L214.954 0.866688L253.617 23.0952L254.614 21.3613ZM275.95 47.564C272.378 36.6682 264.877 27.2618 254.614 21.3613L253.617 23.0952C263.447 28.7465 270.63 37.7544 274.05 48.187L275.95 47.564ZM274 44.9326V47.8755H276V44.9326H274ZM274.285 64.9497V63.8289H272.285V64.9497H274.285ZM274.285 63.8289C274.285 47.0373 265.289 31.5234 250.69 23.1295L249.693 24.8634C263.674 32.9018 272.285 47.7559 272.285 63.8289H274.285ZM250.69 23.1295L208.951 -0.867176L207.954 0.866688L249.693 24.8634L250.69 23.1295ZM206.446 0.999756H208.453V-1.00024H206.446V0.999756ZM205.948 0.866688L249.194 25.7304L250.191 23.9965L206.945 -0.867176L205.948 0.866688ZM249.194 25.7304C262.867 33.5911 271.285 48.1153 271.285 63.8289H273.285C273.285 47.3966 264.482 32.2126 250.191 23.9965L249.194 25.7304ZM271.285 63.8289V66.0055H273.285V63.8289H271.285ZM272.5 64.3305C272.237 64.6645 271.943 64.9741 271.624 65.255L272.946 66.7559C273.356 66.3952 273.732 65.9979 274.07 65.569L272.5 64.3305ZM267.285 65.4682V67.8971H269.285V65.4682H267.285ZM245.27 27.4986C258.894 35.3316 267.285 49.8061 267.285 65.4682H269.285C269.285 49.0875 260.509 33.9531 246.267 25.7647L245.27 27.4986ZM198.948 0.866688L245.27 27.4986L246.267 25.7647L199.945 -0.867176L198.948 0.866688ZM197.44 0.999756H199.447V-1.00024H197.44V0.999756ZM245.768 26.6316L197.939 -0.867176L196.942 0.866688L244.772 28.3655L245.768 26.6316ZM268.285 65.4682C268.285 49.4468 259.702 34.6424 245.768 26.6316L244.772 28.3655C258.087 36.0208 266.285 50.1654 266.285 65.4682H268.285ZM268.285 67.9948V65.4682H266.285V67.9948H268.285ZM268.126 66.9099C267.84 66.9561 267.547 66.985 267.25 66.9954L267.32 68.9942C267.701 68.9808 268.076 68.9437 268.445 68.8843L268.126 66.9099ZM264.285 67.9998V67.1076H262.285V67.9998H264.285ZM264.285 67.1076C264.285 51.1376 255.729 36.3829 241.844 28.3999L240.847 30.1337C254.114 37.7614 262.285 51.8563 262.285 67.1076H264.285ZM241.844 28.3999L190.939 -0.867176L189.942 0.866688L240.847 30.1337L241.844 28.3999ZM188.434 0.999756H190.44V-1.00024H188.434V0.999756ZM187.936 0.866688L240.349 31.0007L241.346 29.2668L188.933 -0.867176L187.936 0.866688ZM240.349 31.0007C253.307 38.4506 261.285 52.2156 261.285 67.1076H263.285C263.285 51.497 254.922 37.0721 241.346 29.2668L240.349 31.0007ZM261.285 67.1076V67.9998H263.285V67.1076H261.285ZM263.285 66.9998H262.285V68.9998H263.285V66.9998ZM236.425 32.7689C249.123 40.0693 257.023 53.4581 257.279 68.0173L259.278 67.9822C259.01 52.7178 250.728 38.6851 237.422 31.035L236.425 32.7689ZM180.936 0.866688L236.425 32.7689L237.422 31.035L181.933 -0.867176L180.936 0.866688ZM179.428 0.999756H181.434V-1.00024H179.428V0.999756ZM236.923 31.902L179.927 -0.867176L178.93 0.866688L235.926 33.6358L236.923 31.902ZM258.278 67.9818C258.01 53.0769 249.92 39.3742 236.923 31.902L235.926 33.6358C248.315 40.7586 256.023 53.8176 256.279 68.0178L258.278 67.9818ZM258.279 66.9998H257.278V68.9998H258.279V66.9998ZM254.215 67.942C253.393 53.7443 245.458 40.8333 232.999 33.6702L232.002 35.4041C243.876 42.2309 251.436 54.5334 252.218 68.0575L254.215 67.942ZM232.999 33.6702L172.927 -0.867176L171.93 0.866688L232.002 35.4041L232.999 33.6702ZM170.422 0.999756H172.428V-1.00024H170.422V0.999756ZM169.924 0.866688L231.504 36.271L232.501 34.5372L170.92 -0.867176L169.924 0.866688ZM231.504 36.271C243.069 42.9203 250.436 54.8937 251.216 68.0589L253.213 67.9406C252.392 54.1028 244.65 41.5222 232.501 34.5372L231.504 36.271ZM253.216 66.9998H252.215V68.9998H253.216V66.9998ZM227.579 38.0392C238.627 44.3908 245.83 55.621 247.088 68.1L249.078 67.8995C247.756 54.7808 240.184 42.979 228.576 36.3054L227.579 38.0392ZM162.924 0.866688L227.579 38.0392L228.576 36.3054L163.921 -0.867176L162.924 0.866688ZM161.416 0.999756H163.422V-1.00024H161.416V0.999756ZM228.078 37.1723L161.914 -0.867176L160.917 0.866688L227.081 38.9062L228.078 37.1723ZM248.072 67.8969C246.753 55.139 239.375 43.6675 228.078 37.1723L227.081 38.9062C237.82 45.0801 244.83 55.9823 246.083 68.1026L248.072 67.8969ZM248.083 66.9998H247.078V68.9998H248.083V66.9998ZM243.861 67.8544C242.094 55.8274 234.904 45.1214 224.154 38.9405L223.157 40.6744C233.374 46.5485 240.203 56.7211 241.882 68.1451L243.861 67.8544ZM224.154 38.9405L154.915 -0.867176L153.918 0.866688L223.157 40.6744L224.154 38.9405ZM152.41 0.999756H154.416V-1.00024H152.41V0.999756ZM151.911 0.866688L222.658 41.5413L223.655 39.8075L152.908 -0.867176L151.911 0.866688ZM222.658 41.5413C232.566 47.2377 239.202 57.0837 240.872 68.149L242.849 67.8505C241.089 56.1855 234.095 45.8094 223.655 39.8075L222.658 41.5413ZM242.872 66.9998H241.86V68.9998H242.872V66.9998ZM218.734 43.3096C228.115 48.7031 234.552 57.8336 236.592 68.193L238.555 67.8065C236.403 56.8839 229.618 47.2598 219.731 41.5757L218.734 43.3096ZM144.912 0.866688L218.734 43.3096L219.731 41.5757L145.908 -0.867176L144.912 0.866688ZM143.404 0.999756H145.41V-1.00024H143.404V0.999756ZM219.233 42.4426L143.902 -0.867176L142.905 0.866688L218.236 44.1765L219.233 42.4426ZM237.534 67.8013C235.395 57.2421 228.807 47.9471 219.233 42.4426L218.236 44.1765C227.308 49.3922 233.548 58.198 235.573 68.1982L237.534 67.8013ZM237.573 66.9998H236.554V68.9998H237.573V66.9998ZM233.148 67.7557C230.68 57.9498 224.322 49.3931 215.308 44.2109L214.312 45.9447C222.85 50.854 228.871 58.9585 231.208 68.2438L233.148 67.7557ZM215.308 44.2109L136.902 -0.867176L135.906 0.866688L214.312 45.9447L215.308 44.2109ZM134.398 0.999756H136.404V-1.00024H134.398V0.999756ZM133.899 0.866688L213.813 46.8117L214.81 45.0778L134.896 -0.867176L133.899 0.866688ZM213.813 46.8117C222.042 51.5426 227.864 59.3249 230.178 68.2507L232.114 67.7488C229.667 58.3083 223.509 50.0793 214.81 45.0778L213.813 46.8117ZM232.178 66.9998H231.146V68.9998H232.178V66.9998ZM1 6.99819V5.8447H-1V6.99819H1ZM9.66791 -0.867176L-0.498426 4.97777L0.498426 6.71163L10.6648 0.866688L9.66791 -0.867176ZM10.1663 0.999756H12.1726V-1.00024H10.1663V0.999756ZM0.498426 7.86512L12.6711 0.866688L11.6742 -0.867176L-0.498426 6.13126L0.498426 7.86512ZM209.889 48.5799C217.576 52.9997 223.155 60.0955 225.717 68.2979L227.626 67.7016C224.916 59.0245 219.015 51.5198 210.886 46.846L209.889 48.5799ZM126.899 0.866688L209.889 48.5799L210.886 46.846L127.896 -0.867176L126.899 0.866688ZM125.392 0.999756H127.398V-1.00024H125.392V0.999756ZM210.387 47.713L125.89 -0.867176L124.893 0.866688L209.39 49.4468L210.387 47.713ZM226.574 67.693C223.896 59.3833 218.2 52.2047 210.387 47.713L209.39 49.4468C216.767 53.6877 222.143 60.4641 224.671 68.3065L226.574 67.693ZM226.672 66.9998H225.623V68.9998H226.672V66.9998ZM1 12.1761V11.0226H-1V12.1761H1ZM0.498426 11.8895L19.6709 0.866688L18.674 -0.867176L-0.498426 10.1557L0.498426 11.8895ZM19.1724 0.999756H21.1787V-1.00024H19.1724V0.999756ZM20.6803 -0.867176L-0.498426 11.3091L0.498426 13.043L21.6772 0.866688L20.6803 -0.867176ZM221.973 67.644C219.104 60.107 213.693 53.6381 206.463 49.4812L205.466 51.2151C212.291 55.1388 217.397 61.2437 220.104 68.3555L221.973 67.644ZM206.463 49.4812L118.89 -0.867176L117.893 0.866688L205.466 51.2151L206.463 49.4812ZM116.385 0.999756H118.392V-1.00024H116.385V0.999756ZM115.887 0.866688L204.968 52.082L205.965 50.3481L116.884 -0.867176L115.887 0.866688ZM204.968 52.082C211.479 55.8256 216.377 61.6148 219.035 68.3661L220.896 67.6334C218.074 60.466 212.875 54.321 205.965 50.3481L204.968 52.082ZM221.038 66.9998H219.966V68.9998H221.038V66.9998ZM1 17.354V16.2005H-1V17.354H1ZM27.6801 -0.867176L-0.498426 15.3335L0.498426 17.0674L28.677 0.866688L27.6801 -0.867176ZM28.1785 0.999756H30.1848V-1.00024H28.1785V0.999756ZM0.498426 18.2209L30.6833 0.866688L29.6864 -0.867176L-0.498426 16.487L0.498426 18.2209ZM201.044 53.8502C206.99 57.2689 211.585 62.402 214.346 68.417L216.164 67.5825C213.231 61.1954 208.352 55.7453 202.04 52.1164L201.044 53.8502ZM108.887 0.866688L201.044 53.8502L202.04 52.1164L109.884 -0.867176L108.887 0.866688ZM107.379 0.999756H109.386V-1.00024H107.379V0.999756ZM201.542 52.9833L107.878 -0.867176L106.881 0.866688L200.545 54.7172L201.542 52.9833ZM215.054 67.5696C212.187 61.5543 207.529 56.4254 201.542 52.9833L200.545 54.7172C206.175 57.9538 210.554 62.7755 213.248 68.4299L215.054 67.5696ZM215.255 66.9998H214.151V68.9998H215.255V66.9998ZM1 22.5318V21.3783H-1V22.5318H1ZM0.498426 22.2453L37.683 0.866688L36.6862 -0.867176L-0.498426 20.5114L0.498426 22.2453ZM37.1846 0.999756H39.1909V-1.00024H37.1846V0.999756ZM38.6925 -0.867176L-0.498426 21.6649L0.498426 23.3988L39.6893 0.866688L38.6925 -0.867176ZM210.167 67.5167C207.281 62.2869 202.986 57.8378 197.618 54.7515L196.621 56.4854C201.667 59.3867 205.704 63.5681 208.415 68.4828L210.167 67.5167ZM197.618 54.7515L100.878 -0.867176L99.8812 0.866688L196.621 56.4854L197.618 54.7515ZM98.3733 0.999756H100.38V-1.00024H98.3733V0.999756ZM97.8748 0.866688L196.122 57.3523L197.119 55.6185L98.8717 -0.867176L97.8748 0.866688ZM196.122 57.3523C200.847 60.0686 204.657 63.9436 207.276 68.4983L209.01 67.5012C206.217 62.6449 202.155 58.5136 197.119 55.6185L196.122 57.3523ZM209.291 66.9998H208.143V68.9998H209.291V66.9998ZM1 27.7097V26.5562H-1V27.7097H1ZM45.6923 -0.867176L-0.498426 25.6893L0.498426 27.4232L46.6891 0.866688L45.6923 -0.867176ZM46.1907 0.999756H48.197V-1.00024H46.1907V0.999756ZM0.498426 28.5767L48.6954 0.866688L47.6986 -0.867176L-0.498426 26.8428L0.498426 28.5767ZM192.198 59.1206C196.315 61.4872 199.733 64.7381 202.27 68.5534L203.936 67.4461C201.23 63.3768 197.584 59.9099 193.195 57.3867L192.198 59.1206ZM90.8751 0.866688L192.198 59.1206L193.195 57.3867L91.8719 -0.867176L90.8751 0.866688ZM89.3672 0.999756H91.3735V-1.00024H89.3672V0.999756ZM192.697 58.2536L89.8656 -0.867176L88.8687 0.866688L191.7 59.9875L192.697 58.2536ZM202.713 67.4277C200.136 63.7323 196.742 60.5793 192.697 58.2536L191.7 59.9875C195.486 62.1643 198.661 65.1145 201.073 68.5718L202.713 67.4277ZM203.103 66.9998H201.893V68.9998H203.103V66.9998ZM1 32.8876V31.7341H-1V32.8876H1ZM0.498426 32.6011L55.6952 0.866688L54.6984 -0.867176L-0.498426 30.8672L0.498426 32.6011ZM55.1968 0.999756H57.2031V-1.00024H55.1968V0.999756ZM56.7047 -0.867176L-0.498426 32.0207L0.498426 33.7545L57.7015 0.866688L56.7047 -0.867176ZM197.4 67.3701C195.039 64.4571 192.131 61.9528 188.772 60.0219L187.776 61.7557C190.918 63.5625 193.638 65.905 195.846 68.6294L197.4 67.3701ZM188.772 60.0219L88.7947 2.54151L87.7978 4.27537L187.776 61.7557L188.772 60.0219ZM88.7947 2.54151C85.8481 0.847455 82.6915 -0.326583 79.4539 -0.980453L79.058 0.979965C82.0873 1.59177 85.0406 2.69019 87.7978 4.27537L88.7947 2.54151ZM67.3144 0.999756L79.2559 0.999756V-1.00024L67.3144 -1.00024V0.999756ZM67.1164 -0.980453C63.8788 -0.326584 60.7222 0.847454 57.7756 2.54151L58.7725 4.27537C61.5296 2.69019 64.483 1.59177 67.5123 0.979965L67.1164 -0.980453ZM57.7756 2.54151L-0.498426 36.0451L0.498426 37.7789L58.7725 4.27537L57.7756 2.54151ZM1 38.0655V36.912H-1V38.0655H1ZM0.498426 38.9324L59.2709 5.1423L58.274 3.40844L-0.498426 37.1986L0.498426 38.9324ZM59.2709 5.1423C67.9426 0.156668 78.6277 0.156668 87.2994 5.1423L88.2962 3.40844C79.0073 -1.93204 67.5629 -1.93204 58.274 3.40844L59.2709 5.1423ZM87.2994 5.1423L187.277 62.6227L188.274 60.8888L88.2962 3.40844L87.2994 5.1423ZM187.277 62.6227C190.075 64.2313 192.526 66.2797 194.562 68.6512L196.079 67.3483C193.897 64.8067 191.271 62.6119 188.274 60.8888L187.277 62.6227ZM196.623 66.9998H195.321V68.9998H196.623V66.9998ZM183.353 64.3909C185.453 65.5985 187.357 67.0553 189.035 68.7115L190.44 67.288C188.641 65.5124 186.6 63.951 184.35 62.657L183.353 64.3909ZM87.2205 9.12132L183.353 64.3909L184.35 62.657L88.2173 7.38745L87.2205 9.12132ZM59.3498 9.12132C67.9728 4.16366 78.5974 4.16366 87.2205 9.12132L88.2173 7.38745C78.9771 2.07495 67.5932 2.07495 58.353 7.38746L59.3498 9.12132ZM0.498426 42.9568L59.3498 9.12132L58.353 7.38745L-0.498426 41.223L0.498426 42.9568ZM1 43.2434V42.0899H-1V43.2434H1ZM58.8514 8.25438L-0.498426 42.3765L0.498426 44.1103L59.8483 9.98825L58.8514 8.25438ZM87.7189 8.25438C78.7873 3.1193 67.783 3.1193 58.8514 8.25438L59.8482 9.98825C68.1627 5.20801 78.4076 5.20801 86.722 9.98825L87.7189 8.25438ZM183.851 63.524L87.7189 8.25438L86.722 9.98825L182.855 65.2578L183.851 63.524ZM188.962 67.2624C187.419 65.8491 185.709 64.5922 183.851 63.524L182.855 65.2578C184.584 66.2524 186.176 67.4221 187.611 68.7371L188.962 67.2624ZM189.738 66.9998H188.287V68.9998H189.738V66.9998ZM182.825 67.1991C181.905 66.5108 180.938 65.8734 179.927 65.2922L178.93 67.0261C179.871 67.567 180.771 68.1601 181.626 68.8004L182.825 67.1991ZM179.927 65.2922L87.64 12.2334L86.6431 13.9673L178.93 67.0261L179.927 65.2922ZM87.64 12.2334C78.757 7.12631 67.8133 7.12631 58.9303 12.2334L59.9272 13.9673C68.1929 9.21502 78.3773 9.21502 86.6431 13.9673L87.64 12.2334ZM58.9303 12.2334L-0.498426 46.4009L0.498426 48.1347L59.9272 13.9673L58.9303 12.2334ZM1 48.4213V47.2678H-1V48.4213H1ZM0.498426 49.2882L60.4256 14.8342L59.4287 13.1003L-0.498426 47.5543L0.498426 49.2882ZM60.4256 14.8342C68.3828 10.2594 78.1875 10.2594 86.1447 14.8342L87.1415 13.1003C78.5672 8.17066 68.0031 8.17066 59.4287 13.1003L60.4256 14.8342ZM86.1447 14.8342L178.432 67.893L179.429 66.1591L87.1415 13.1003L86.1447 14.8342ZM178.432 67.893C178.948 68.1895 179.45 68.5022 179.94 68.8303L181.054 67.1692C180.526 66.8155 179.984 66.4785 179.429 66.1591L178.432 67.893ZM182.226 66.9998H180.497V68.9998H182.226V66.9998ZM86.0658 18.8132L173.126 68.8667L174.123 67.1328L87.0626 17.0793L86.0658 18.8132ZM60.5045 18.8132C68.413 14.2664 78.1573 14.2664 86.0658 18.8132L87.0626 17.0793C78.5369 12.1777 68.0334 12.1777 59.5077 17.0793L60.5045 18.8132ZM0.498426 53.3126L60.5045 18.8132L59.5077 17.0793L-0.498426 51.5787L0.498426 53.3126ZM1 53.5992V52.4457H-1V53.5992H1ZM60.0061 17.9463L-0.498426 52.7322L0.498426 54.4661L61.0029 19.6801L60.0061 17.9463ZM86.5642 17.9463C78.3471 13.222 68.2232 13.222 60.0061 17.9463L61.0029 19.6801C68.6029 15.3107 77.9674 15.3107 85.5673 19.6801L86.5642 17.9463ZM172.116 67.1328L86.5642 17.9463L85.5673 19.6801L171.119 68.8667L172.116 67.1328ZM173.624 66.9998H171.618V68.9998H173.624V66.9998ZM165.116 67.1328L86.4853 21.9253L85.4884 23.6592L164.12 68.8667L165.116 67.1328ZM86.4853 21.9253C78.3168 17.229 68.2534 17.229 60.085 21.9253L61.0819 23.6592C68.6331 19.3177 77.9372 19.3177 85.4884 23.6592L86.4853 21.9253ZM60.085 21.9253L-0.498426 56.7566L0.498426 58.4905L61.0819 23.6592L60.085 21.9253ZM1 58.777V57.6236H-1V58.777H1ZM0.498426 59.644L61.5803 24.5261L60.5835 22.7922L-0.498426 57.9101L0.498426 59.644ZM61.5803 24.5261C68.8229 20.3621 77.7474 20.3621 84.99 24.5261L85.9869 22.7922C78.127 18.2734 68.4433 18.2734 60.5835 22.7922L61.5803 24.5261ZM84.99 24.5261L162.113 68.8667L163.11 67.1328L85.9869 22.7922L84.99 24.5261ZM164.618 66.9998H162.612V68.9998H164.618V66.9998ZM84.9111 28.5051L155.113 68.8667L156.11 67.1328L85.9079 26.7712L84.9111 28.5051ZM61.6592 28.5051C68.8532 24.3691 77.7171 24.3691 84.9111 28.5051L85.9079 26.7712C78.0967 22.2803 68.4735 22.2804 60.6624 26.7713L61.6592 28.5051ZM0.917116 63.4277L61.6592 28.5051L60.6624 26.7713L-0.079737 61.6938L0.917116 63.4277ZM1.70078 63.0568C1.57275 62.7935 1.46078 62.5211 1.36613 62.2408L-0.528752 62.8806C-0.4068 63.2418 -0.262596 63.5926 -0.0978015 63.9315L1.70078 63.0568ZM61.1608 27.6382L0.303063 62.6272L1.29992 64.3611L62.1576 29.372L61.1608 27.6382ZM85.4095 27.6382C77.9069 23.3247 68.6634 23.3247 61.1608 27.6382L62.1576 29.372C69.043 25.4134 77.5273 25.4134 84.4126 29.372L85.4095 27.6382ZM154.104 67.1328L85.4095 27.6382L84.4126 29.372L153.107 68.8667L154.104 67.1328ZM155.612 66.9998H153.606V68.9998H155.612V66.9998ZM146.11 67.1328L85.3306 32.1886L84.3337 33.9225L145.114 68.8667L146.11 67.1328ZM85.3306 32.1886C77.8767 27.9031 68.6936 27.9031 61.2397 32.1886L62.2366 33.9225C69.0733 29.9918 77.497 29.9918 84.3337 33.9225L85.3306 32.1886ZM61.2397 32.1886L2.94092 65.7064L3.93778 67.4403L62.2366 33.9225L61.2397 32.1886ZM4.87382 66.2649C4.57305 66.1145 4.2845 65.9429 4.01011 65.7522L2.86859 67.3945C3.22115 67.6395 3.5922 67.8601 3.97928 68.0537L4.87382 66.2649ZM4.92498 68.0262L62.735 34.7894L61.7381 33.0555L3.92812 66.2923L4.92498 68.0262ZM62.735 34.7894C69.2631 31.0362 77.3072 31.0362 83.8353 34.7894L84.8321 33.0555C77.6868 28.9475 68.8834 28.9475 61.7381 33.0555L62.735 34.7894ZM83.8353 34.7894L143.107 68.8667L144.104 67.1328L84.8321 33.0555L83.8353 34.7894ZM145.612 66.9998H143.606V68.9998H145.612V66.9998ZM83.7564 39.3398L135.114 68.8667L136.11 67.1328L84.7532 37.606L83.7564 39.3398ZM62.8139 39.3398C69.2934 35.6146 77.2769 35.6146 83.7564 39.3398L84.7532 37.606C77.6566 33.5259 68.9137 33.5259 61.8171 37.606L62.8139 39.3398ZM11.4567 68.8667L62.8139 39.3398L61.8171 37.606L10.4599 67.1328L11.4567 68.8667ZM12.9646 66.9998H10.9583V68.9998H12.9646V66.9998ZM62.3155 38.4729L12.4662 67.1328L13.463 68.8667L63.3123 40.2068L62.3155 38.4729ZM84.2548 38.4729C77.4668 34.5702 69.1035 34.5702 62.3155 38.4729L63.3123 40.2068C69.4832 36.659 77.0871 36.659 83.2579 40.2068L84.2548 38.4729ZM134.104 67.1328L84.2548 38.4729L83.2579 40.2068L133.107 68.8667L134.104 67.1328ZM135.612 66.9998H133.606V68.9998H135.612V66.9998ZM126.11 67.1328L84.1759 43.0234L83.179 44.7573L125.113 68.8667L126.11 67.1328ZM84.1759 43.0234C77.4365 39.1487 69.1338 39.1487 62.3944 43.0234L63.3913 44.7573C69.5135 41.2374 77.0568 41.2374 83.179 44.7573L84.1759 43.0234ZM62.3944 43.0234L20.46 67.1328L21.4568 68.8667L63.3913 44.7573L62.3944 43.0234ZM22.9647 66.9998H20.9584V68.9998H22.9647V66.9998ZM23.4631 68.8667L63.8897 45.6242L62.8928 43.8903L22.4663 67.1328L23.4631 68.8667ZM63.8897 45.6242C69.7033 42.2818 76.867 42.2818 82.6806 45.6242L83.6774 43.8903C77.2467 40.1931 69.3236 40.1931 62.8928 43.8903L63.8897 45.6242ZM82.6806 45.6242L123.107 68.8667L124.104 67.1328L83.6774 43.8903L82.6806 45.6242ZM125.612 66.9998H123.606V68.9998H125.612V66.9998ZM82.6017 50.1746L115.114 68.8667L116.11 67.1328L83.5985 48.4407L82.6017 50.1746ZM63.9686 50.1746C69.7335 46.8602 76.8368 46.8602 82.6017 50.1746L83.5985 48.4407C77.2164 44.7715 69.3539 44.7715 62.9718 48.4407L63.9686 50.1746ZM31.4568 68.8667L63.9686 50.1746L62.9718 48.4407L30.4599 67.1328L31.4568 68.8667ZM32.9647 66.9998H30.9583V68.9998H32.9647V66.9998ZM63.4702 49.3077L32.4662 67.1328L33.4631 68.8667L64.4671 51.0415L63.4702 49.3077ZM83.1001 49.3077C77.0266 45.8158 69.5437 45.8158 63.4702 49.3077L64.4671 51.0415C69.9234 47.9045 76.6469 47.9045 82.1033 51.0415L83.1001 49.3077ZM114.104 67.1328L83.1001 49.3077L82.1033 51.0415L113.107 68.8667L114.104 67.1328ZM115.612 66.9998H113.606V68.9998H115.612V66.9998ZM106.11 67.1328L83.0212 53.8581L82.0243 55.592L105.114 68.8667L106.11 67.1328ZM83.0212 53.8581C76.9963 50.3942 69.574 50.3942 63.5491 53.8581L64.546 55.592C69.9536 52.4829 76.6167 52.4829 82.0243 55.592L83.0212 53.8581ZM63.5491 53.8581L40.4599 67.1328L41.4568 68.8667L64.546 55.592L63.5491 53.8581ZM42.9646 66.9998H40.9583V68.9998H42.9646V66.9998ZM43.4631 68.8667L65.0444 56.4589L64.0475 54.725L42.4662 67.1328L43.4631 68.8667ZM65.0444 56.4589C70.1434 53.5273 76.4268 53.5273 81.5259 56.4589L82.5228 54.725C76.8065 51.4386 69.7638 51.4386 64.0475 54.725L65.0444 56.4589ZM81.5259 56.4589L103.107 68.8667L104.104 67.1328L82.5228 54.725L81.5259 56.4589ZM105.612 66.9998H103.606V68.9998H105.612V66.9998ZM81.447 61.0094L95.1135 68.8667L96.1103 67.1328L82.4438 59.2755L81.447 61.0094ZM65.1233 61.0094C70.1737 58.1058 76.3966 58.1058 81.447 61.0094L82.4438 59.2755C76.7763 56.017 69.794 56.017 64.1265 59.2755L65.1233 61.0094ZM51.4568 68.8667L65.1233 61.0094L64.1265 59.2755L50.46 67.1328L51.4568 68.8667ZM52.9647 66.9998H50.9584V68.9998H52.9647V66.9998ZM64.6249 60.1425L52.4663 67.1328L53.4631 68.8667L65.6217 61.8763L64.6249 60.1425ZM81.9454 60.1425C76.5864 57.0614 69.9839 57.0614 64.6249 60.1425L65.6217 61.8763C70.3635 59.1501 76.2067 59.1501 80.9485 61.8763L81.9454 60.1425ZM94.104 67.1328L81.9454 60.1425L80.9485 61.8763L93.1071 68.8667L94.104 67.1328ZM95.6119 66.9998H93.6056V68.9998H95.6119V66.9998ZM86.1104 67.1328L81.8665 64.6929L80.8696 66.4268L85.1135 68.8667L86.1104 67.1328ZM81.8665 64.6929C76.5562 61.6398 70.0141 61.6398 64.7038 64.6929L65.7007 66.4268C70.3938 63.7285 76.1765 63.7285 80.8696 66.4268L81.8665 64.6929ZM64.7038 64.6929L60.4599 67.1328L61.4568 68.8667L65.7007 66.4268L64.7038 64.6929ZM62.9647 66.9998H60.9584V68.9998H62.9647V66.9998ZM63.4631 68.8667L66.1991 67.2937L65.2022 65.5598L62.4662 67.1328L63.4631 68.8667ZM66.1991 67.2937C70.5836 64.7729 75.9867 64.7729 80.3712 67.2937L81.3681 65.5598C76.3663 62.6842 70.204 62.6842 65.2022 65.5598L66.1991 67.2937ZM80.3712 67.2937L83.1072 68.8667L84.1041 67.1328L81.3681 65.5598L80.3712 67.2937ZM85.6119 66.9998H83.6056V68.9998H85.6119V66.9998ZM2.66813 -0.867176L-0.498426 0.953378L0.498426 2.68724L3.66499 0.866688L2.66813 -0.867176ZM1 1.82031V0.666817H-1V1.82031H1ZM0.498426 1.53375L1.65867 0.866688L0.661818 -0.867176L-0.498426 -0.200115L0.498426 1.53375ZM1.16024 0.999756H3.16656V-1.00024H1.16024V0.999756Z" fill="url(#paint0_linear)" mask="url(#path-1-inside-1)"/>
<defs>
<linearGradient id="paint0_linear" x1="0" y1="46.2464" x2="275" y2="46.2464" gradientUnits="userSpaceOnUse">
<stop stop-color="#451181"/>
<stop offset="1" stop-color="#9654FB"/>
</linearGradient>
</defs>
</svg>
