<svg width="24" height="24" viewBox="0 0 24 24" fill="none" xmlns="http://www.w3.org/2000/svg">
<path d="M16 4H8C5.79086 4 4 5.79086 4 8V16C4 18.2091 5.79086 20 8 20H16C18.2091 20 20 18.2091 20 16V8C20 5.79086 18.2091 4 16 4Z" fill="#FF5655"/>
<path d="M8.28602 7.10156L9.69885 11.7279L6 8.86866H10.572L6.87318 11.7279L8.28602 7.10156Z" fill="#FFD965"/>
<path d="M12.6055 6.31725L12.4718 7.93246L11.6877 6.54206L13.0901 7.17656L11.605 7.54031L12.6055 6.31725Z" fill="#FFD965"/>
<path d="M14.47 8.21302L13.7576 9.64641L13.5421 8.04124L14.6032 9.20507L13.1018 8.92713L14.47 8.21302Z" fill="#FFD965"/>
<path d="M14.647 11.0716L13.447 12.0711L13.8657 10.512L14.3883 12.0352L13.124 11.1298L14.647 11.0716Z" fill="#FFD965"/>
<path d="M12.5743 12.2709L12.5036 13.8906L11.666 12.536L13.092 13.1081L11.6223 13.5371L12.5743 12.2709Z" fill="#FFD965"/>
</svg>
