<svg width="163" height="145" viewBox="0 0 163 145" fill="none" xmlns="http://www.w3.org/2000/svg">
<mask id="path-1-inside-1" fill="white">
<path fill-rule="evenodd" clip-rule="evenodd" d="M162.85 4.7092L31.5577 80.745C15.1235 90.2626 4.99955 107.852 4.99954 126.887L4.99954 144.419C5.32291 144.55 5.65678 144.66 5.99954 144.748L5.99954 126.887C5.99955 108.214 15.931 90.9569 32.0561 81.6183L162.986 5.79227C162.965 5.42403 162.919 5.06245 162.85 4.7092ZM160.766 0.711014L27.6335 77.8127C11.1511 87.3581 0.999546 104.997 0.999544 124.085L0.999543 140.876C0.364762 139.732 0.00224362 138.416 -0.000457066 137.016C-0.000457065 137.011 -0.000472324 137.005 -0.000472323 137L-0.000455935 124.085C-0.000454235 104.636 10.3436 86.6639 27.1351 76.9394L159.987 0.000381206C160.262 0.220062 160.523 0.457519 160.766 0.711014ZM163 10.9897L35.9804 84.5507C19.9034 93.8614 9.99955 111.068 9.99954 129.69L9.99954 145L10.9995 145L10.9995 129.69C10.9995 111.43 20.7109 94.5557 36.4788 85.4239L163 12.1516L163 10.9897ZM163 17.3566L40.403 88.3563C24.6833 97.4601 14.9995 114.285 14.9995 132.492L14.9995 145L15.9995 145L15.9995 132.492C15.9995 114.647 25.4908 98.1543 40.9014 89.2295L163 18.5185L163 17.3566ZM163 23.7235L44.8257 92.1619C29.4632 101.059 19.9995 117.501 19.9995 135.295L19.9995 145L20.9995 145L20.9995 135.295C20.9995 117.863 30.2707 101.753 45.3241 93.0352L163 24.8854L163 23.7235ZM163 30.0904L49.2483 95.9675C34.2431 104.658 24.9995 120.717 24.9995 138.097L24.9995 145L25.9995 145L25.9995 138.097C25.9995 121.079 35.0506 105.352 49.7467 96.8408L163 31.2524L163 30.0904ZM163 36.4574L53.6709 99.7732C39.023 108.256 29.9995 123.934 29.9995 140.9L29.9995 145L30.9995 145L30.9995 140.9C30.9995 124.296 39.8305 108.951 54.1693 100.646L163 37.6193L163 36.4574ZM163 42.8243L58.0936 103.579C43.803 111.855 34.9995 127.15 34.9995 143.702L34.9995 145L35.9995 145L35.9995 143.702C35.9995 127.512 44.6105 112.549 58.592 104.452L163 43.9863L163 42.8243ZM163 49.1913L62.5163 107.384C49.017 115.202 40.5396 129.444 40.0244 145L41.025 145C41.5397 129.806 49.8246 115.897 63.0147 108.258L163 50.3532L163 49.1913ZM163 55.5582L66.9389 111.19C54.6124 118.329 46.5832 130.965 45.2096 145L46.2146 145C47.5846 131.327 55.4204 119.023 67.4373 112.063L163 56.7201L163 55.5582ZM163 61.9251L71.3615 114.996C60.2196 121.448 52.6836 132.514 50.5907 145L51.6052 145C53.6879 132.877 61.0285 122.142 71.86 115.869L163 63.087L163 61.9251ZM163 68.292L75.7842 118.801C65.8431 124.559 58.8524 134.09 56.1902 145L57.2207 145C59.8619 134.455 66.6536 125.251 76.2826 119.675L163 69.454L163 68.292ZM163 74.659L80.2068 122.607C71.4891 127.656 65.1051 135.69 62.0381 145L63.0932 145C66.1233 136.056 72.3022 128.347 80.7053 123.48L163 75.8209L163 74.659ZM163 81.0259L84.6295 126.413C77.1661 130.735 71.4635 137.309 68.1755 145L69.267 145C72.4957 137.678 77.9837 131.423 85.1279 127.286L163 82.1879L163 81.0259ZM163 87.3929L89.0521 130.218C82.8869 133.789 77.9597 138.943 74.6615 145L75.8067 145C79.0141 139.312 83.712 134.473 89.5505 131.092L163 88.5548L163 87.3929ZM163 93.7598L93.4748 134.024C88.6717 136.806 84.6434 140.578 81.5867 145L82.8136 145C85.7344 140.946 89.5098 137.482 93.9732 134.897L163 94.9217L163 93.7598ZM163 100.127L97.8974 137.83C94.555 139.765 91.5999 142.196 89.1027 145L90.4622 145C92.7549 142.558 95.4171 140.428 98.3959 138.703L163 101.289L163 100.127ZM163 106.494L102.32 141.635C100.606 142.628 98.9965 143.756 97.5028 145L99.1074 145C100.279 144.095 101.517 143.262 102.819 142.508L163 107.656L163 106.494ZM163 112.861L107.503 145L109.51 145L163 114.023L163 112.861ZM163 119.228L118.497 145L120.504 145L163 120.389L163 119.228ZM163 125.594L129.491 145L131.498 145L163 126.756L163 125.594ZM163 131.961L140.485 145L142.491 145L163 133.123L163 131.961ZM162.878 138.399L151.479 145L153.485 145L162.504 139.777C162.668 139.335 162.794 138.874 162.878 138.399Z"/>
</mask>
<path d="M162.85 4.7092L163.831 4.51698L163.562 3.14133L162.349 3.84384L162.85 4.7092ZM31.5577 80.745L31.0566 79.8797L31.5577 80.745ZM4.99954 144.419L3.99954 144.419L3.99954 145.093L4.62433 145.346L4.99954 144.419ZM5.99954 144.748L5.75029 145.717L6.99954 146.038L6.99954 144.748L5.99954 144.748ZM32.0561 81.6183L32.5573 82.4837L32.0561 81.6183ZM162.986 5.79227L163.487 6.65762L164.02 6.34935L163.985 5.73523L162.986 5.79227ZM160.766 0.711014L161.267 1.57637L162.371 0.937149L161.487 0.0178374L160.766 0.711014ZM27.6335 77.8127L28.1346 78.678L27.6335 77.8127ZM0.999544 124.085L1.99954 124.085L0.999544 124.085ZM0.999543 140.876L0.125138 141.361L1.99954 144.739L1.99954 140.876L0.999543 140.876ZM-0.000457066 137.016L-1.00046 137.016L-1.00046 137.018L-0.000457066 137.016ZM-0.000472323 137L-1.00047 137L-1.00047 137L-0.000472323 137ZM-0.000455935 124.085L0.999544 124.085L0.999544 124.085L-0.000455935 124.085ZM27.1351 76.9394L27.6362 77.8047L27.1351 76.9394ZM159.987 0.000381206L160.611 -0.781113L160.077 -1.20735L159.486 -0.864975L159.987 0.000381206ZM35.9804 84.5507L35.4792 83.6853L35.9804 84.5507ZM163 10.9897L164 10.9897L164 9.25494L162.498 10.1243L163 10.9897ZM9.99954 145L8.99954 145L8.99954 146L9.99954 146L9.99954 145ZM10.9995 145L10.9995 146L11.9995 146L11.9995 145L10.9995 145ZM36.4788 85.4239L35.9776 84.5586L36.4788 85.4239ZM163 12.1516L163.501 13.0169L164 12.728L164 12.1516L163 12.1516ZM163 17.3566L164 17.3566L164 15.6219L162.498 16.4912L163 17.3566ZM40.403 88.3563L40.9041 89.2217L40.403 88.3563ZM14.9995 132.492L13.9995 132.492L14.9995 132.492ZM14.9995 145L13.9995 145L13.9995 146L14.9995 146L14.9995 145ZM15.9995 145L15.9995 146L16.9995 146L16.9995 145L15.9995 145ZM40.9014 89.2295L40.4003 88.3642L40.9014 89.2295ZM163 18.5185L163.501 19.3838L164 19.0949L164 18.5185L163 18.5185ZM44.8257 92.1619L45.3268 93.0273L44.8257 92.1619ZM163 23.7235L164 23.7235L164 21.9888L162.498 22.8582L163 23.7235ZM19.9995 145L18.9995 145L18.9995 146L19.9995 146L19.9995 145ZM20.9995 145L20.9995 146L21.9995 146L21.9995 145L20.9995 145ZM45.3241 93.0352L44.8229 92.1698L45.3241 93.0352ZM163 24.8854L163.501 25.7508L164 25.4619L164 24.8854L163 24.8854ZM163 30.0904L164 30.0904L164 28.3557L162.498 29.2251L163 30.0904ZM49.2483 95.9675L48.7471 95.1022L49.2483 95.9675ZM24.9995 145L23.9995 145L23.9995 146L24.9995 146L24.9995 145ZM25.9995 145L25.9995 146L26.9995 146L26.9995 145L25.9995 145ZM49.7467 96.8408L49.2455 95.9755L49.7467 96.8408ZM163 31.2524L163.501 32.1177L164 31.8288L164 31.2524L163 31.2524ZM53.6709 99.7732L54.1721 100.639L53.6709 99.7732ZM163 36.4574L164 36.4574L164 34.7227L162.498 35.592L163 36.4574ZM29.9995 145L28.9995 145L28.9995 146L29.9995 146L29.9995 145ZM30.9995 145L30.9995 146L31.9995 146L31.9995 145L30.9995 145ZM54.1693 100.646L54.6705 101.512L54.1693 100.646ZM163 37.6193L163.501 38.4847L164 38.1958L164 37.6193L163 37.6193ZM163 42.8243L164 42.8243L164 41.0896L162.498 41.959L163 42.8243ZM58.0936 103.579L57.5924 102.713L58.0936 103.579ZM34.9995 145L33.9995 145L33.9995 146L34.9995 146L34.9995 145ZM35.9995 145L35.9995 146L36.9995 146L36.9995 145L35.9995 145ZM58.592 104.452L58.0909 103.587L58.592 104.452ZM163 43.9863L163.501 44.8516L164 44.5627L164 43.9863L163 43.9863ZM62.5163 107.384L63.0174 108.25L62.5163 107.384ZM163 49.1913L164 49.1913L164 47.4565L162.498 48.3259L163 49.1913ZM40.0244 145L39.025 144.967L38.9908 146L40.0244 146L40.0244 145ZM41.025 145L41.025 146L41.9917 146L42.0244 145.034L41.025 145ZM63.0147 108.258L62.5135 107.392L63.0147 108.258ZM163 50.3532L163.501 51.2186L164 50.9297L164 50.3532L163 50.3532ZM163 55.5582L164 55.5582L164 53.8235L162.498 54.6928L163 55.5582ZM66.9389 111.19L66.4377 110.325L66.9389 111.19ZM45.2096 145L44.2144 144.903L44.107 146L45.2096 146L45.2096 145ZM46.2146 145L46.2146 146L47.1194 146L47.2096 145.1L46.2146 145ZM67.4373 112.063L66.9362 111.198L67.4373 112.063ZM163 56.7201L163.501 57.5855L164 57.2966L164 56.7201L163 56.7201ZM71.3615 114.996L70.8604 114.13L71.3615 114.996ZM163 61.9251L164 61.9251L164 60.1904L162.498 61.0598L163 61.9251ZM50.5907 145L49.6044 144.835L49.4091 146L50.5907 146L50.5907 145ZM51.6052 145L51.6052 146L52.4481 146L52.5908 145.17L51.6052 145ZM71.86 115.869L71.3588 115.004L71.86 115.869ZM163 63.087L163.501 63.9524L164 63.6635L164 63.087L163 63.087ZM163 68.292L164 68.292L164 66.5573L162.498 67.4267L163 68.292ZM75.7842 118.801L75.283 117.936L75.7842 118.801ZM56.1902 145L55.2187 144.763L54.9168 146L56.1902 146L56.1902 145ZM57.2207 145L57.2207 146L58.0012 146L58.1908 145.243L57.2207 145ZM76.2826 119.675L76.7838 120.54L76.2826 119.675ZM163 69.454L163.501 70.3193L164 70.0304L164 69.454L163 69.454ZM80.2068 122.607L79.7057 121.742L80.2068 122.607ZM163 74.659L164 74.659L164 72.9243L162.498 73.7936L163 74.659ZM62.0381 145L61.0883 144.687L60.6558 146L62.0381 146L62.0381 145ZM63.0932 145L63.0932 146L63.8102 146L64.0403 145.321L63.0932 145ZM80.7053 123.48L81.2064 124.346L80.7053 123.48ZM163 75.8209L163.501 76.6863L164 76.3974L164 75.8209L163 75.8209ZM163 81.0259L164 81.0259L164 79.2912L162.498 80.1606L163 81.0259ZM84.6295 126.413L84.1283 125.547L84.6295 126.413ZM68.1755 145L67.256 144.607L66.6604 146L68.1755 146L68.1755 145ZM69.267 145L69.267 146L69.9189 146L70.1819 145.404L69.267 145ZM85.1279 127.286L85.6291 128.151L85.1279 127.286ZM163 82.1879L163.501 83.0532L164 82.7643L164 82.1879L163 82.1879ZM89.0521 130.218L88.551 129.353L89.0521 130.218ZM163 87.3929L164 87.3929L164 85.6581L162.498 86.5275L163 87.3929ZM74.6615 145L73.7833 144.522L72.9784 146L74.6615 146L74.6615 145ZM75.8067 145L75.8067 146L76.3909 146L76.6778 145.491L75.8067 145ZM89.5505 131.092L90.0517 131.957L89.5505 131.092ZM163 88.5548L163.501 89.4202L164 89.1313L164 88.5548L163 88.5548ZM163 93.7598L164 93.7598L164 92.0251L162.498 92.8944L163 93.7598ZM93.4748 134.024L92.9736 133.159L93.4748 134.024ZM81.5867 145L80.7641 144.432L79.6798 146L81.5867 146L81.5867 145ZM82.8136 145L82.8136 146L83.3256 146L83.6249 145.585L82.8136 145ZM93.9732 134.897L94.4744 135.763L93.9732 134.897ZM163 94.9217L163.501 95.7871L164 95.4982L164 94.9217L163 94.9217ZM97.8974 137.83L98.3986 138.695L97.8974 137.83ZM163 100.127L164 100.127L164 98.392L162.498 99.2614L163 100.127ZM89.1027 145L88.356 144.335L86.873 146L89.1027 146L89.1027 145ZM90.4622 145L90.4622 146L90.895 146L91.1913 145.685L90.4622 145ZM98.3959 138.703L97.8947 137.837L98.3959 138.703ZM163 101.289L163.501 102.154L164 101.865L164 101.289L163 101.289ZM163 106.494L164 106.494L164 104.759L162.498 105.628L163 106.494ZM102.32 141.635L102.821 142.5L102.821 142.5L102.32 141.635ZM97.5028 145L96.8626 144.232L94.7405 146L97.5028 146L97.5028 145ZM99.1074 145L99.1074 146L99.4487 146L99.7188 145.792L99.1074 145ZM102.819 142.508L103.32 143.374L103.32 143.374L102.819 142.508ZM163 107.656L163.501 108.521L164 108.232L164 107.656L163 107.656ZM107.503 145L107.002 144.135L103.781 146L107.503 146L107.503 145ZM163 112.861L164 112.861L164 111.126L162.498 111.995L163 112.861ZM109.51 145L109.51 146L109.778 146L110.011 145.866L109.51 145ZM163 114.023L163.501 114.888L164 114.599L164 114.023L163 114.023ZM163 119.228L164 119.228L164 117.493L162.498 118.362L163 119.228ZM118.497 145L117.996 144.135L114.775 146L118.497 146L118.497 145ZM120.504 145L120.504 146L120.772 146L121.005 145.866L120.504 145ZM163 120.389L163.501 121.255L164 120.966L164 120.389L163 120.389ZM129.491 145L128.99 144.135L125.769 146L129.491 146L129.491 145ZM163 125.594L164 125.594L164 123.86L162.498 124.729L163 125.594ZM131.498 145L131.498 146L131.766 146L131.999 145.866L131.498 145ZM163 126.756L163.501 127.622L164 127.333L164 126.756L163 126.756ZM163 131.961L164 131.961L164 130.227L162.498 131.096L163 131.961ZM140.485 145L139.984 144.135L136.763 146L140.485 146L140.485 145ZM142.491 145L142.491 146L142.76 146L142.993 145.866L142.491 145ZM163 133.123L163.501 133.989L164 133.7L164 133.123L163 133.123ZM151.479 145L150.978 144.135L147.757 146L151.479 146L151.479 145ZM162.878 138.399L163.862 138.573L164.236 136.457L162.377 137.534L162.878 138.399ZM153.485 145L153.485 146L153.754 146L153.986 145.866L153.485 145ZM162.504 139.777L163.006 140.642L163.317 140.462L163.442 140.124L162.504 139.777ZM162.349 3.84384L31.0566 79.8797L32.0589 81.6104L163.351 5.57455L162.349 3.84384ZM31.0566 79.8797C14.3127 89.5766 3.99955 107.496 3.99954 126.887L5.99954 126.887C5.99955 108.208 15.9343 90.9487 32.0589 81.6104L31.0566 79.8797ZM3.99954 126.887L3.99954 144.419L5.99954 144.419L5.99954 126.887L3.99954 126.887ZM6.24879 143.78C5.94922 143.703 5.65741 143.606 5.37476 143.492L4.62433 145.346C4.9884 145.493 5.36435 145.617 5.75029 145.717L6.24879 143.78ZM6.99954 144.748L6.99954 126.887L4.99954 126.887L4.99954 144.748L6.99954 144.748ZM6.99954 126.887C6.99955 108.57 16.7418 91.6429 32.5573 82.4837L31.555 80.7529C15.1202 90.2709 4.99955 107.858 4.99954 126.887L6.99954 126.887ZM32.5573 82.4837L163.487 6.65762L162.485 4.92691L31.555 80.7529L32.5573 82.4837ZM161.869 4.90141C161.929 5.21027 161.97 5.52667 161.988 5.8493L163.985 5.73523C163.961 5.32138 163.909 4.91464 163.831 4.51698L161.869 4.90141ZM160.265 -0.154343L27.1323 76.9473L28.1346 78.678L161.267 1.57637L160.265 -0.154343ZM27.1323 76.9473C10.3403 86.6721 -0.000454235 104.642 -0.000455935 124.085L1.99954 124.085C1.99955 105.353 11.9619 88.0442 28.1346 78.678L27.1323 76.9473ZM-0.000455935 124.085L-0.000457403 140.876L1.99954 140.876L1.99954 124.085L-0.000455935 124.085ZM1.87395 140.391C1.31912 139.391 1.00191 138.241 0.999543 137.014L-1.00046 137.018C-0.997421 138.592 -0.589599 140.073 0.125138 141.361L1.87395 140.391ZM0.999543 137.016C0.999543 137.013 0.999543 137.009 0.999528 137.007C0.999528 137.004 0.999528 137.002 0.999528 137L-1.00047 137C-1.00047 137.004 -1.00047 137.007 -1.00046 137.01C-1.00046 137.012 -1.00046 137.014 -1.00046 137.016L0.999543 137.016ZM0.999528 137L0.999544 124.085L-1.00046 124.085L-1.00047 137L0.999528 137ZM0.999544 124.085C0.999546 104.991 11.1544 87.3499 27.6362 77.8047L26.6339 76.074C9.53281 85.9778 -1.00045 104.28 -1.00046 124.085L0.999544 124.085ZM27.6362 77.8047L160.488 0.865738L159.486 -0.864975L26.6339 76.074L27.6362 77.8047ZM159.363 0.781875C159.604 0.974228 159.832 1.18219 160.046 1.40419L161.487 0.0178374C161.213 -0.267151 160.92 -0.534104 160.611 -0.781113L159.363 0.781875ZM36.4815 85.416L163.501 11.855L162.498 10.1243L35.4792 83.6853L36.4815 85.416ZM10.9995 129.69C10.9995 111.424 20.7142 94.5474 36.4815 85.416L35.4792 83.6853C19.0926 93.1753 8.99955 110.712 8.99954 129.69L10.9995 129.69ZM10.9995 145L10.9995 129.69L8.99954 129.69L8.99954 145L10.9995 145ZM10.9995 144L9.99954 144L9.99954 146L10.9995 146L10.9995 144ZM9.99954 129.69L9.99954 145L11.9995 145L11.9995 129.69L9.99954 129.69ZM35.9776 84.5586C19.9001 93.8696 9.99955 111.074 9.99954 129.69L11.9995 129.69C11.9995 111.786 21.5217 95.2417 36.9799 86.2893L35.9776 84.5586ZM162.498 11.2862L35.9776 84.5586L36.9799 86.2893L163.501 13.0169L162.498 11.2862ZM162 10.9897L162 12.1516L164 12.1516L164 10.9897L162 10.9897ZM162.498 16.4912L39.9018 87.491L40.9041 89.2217L163.501 18.222L162.498 16.4912ZM39.9018 87.491C23.8725 96.774 13.9995 113.929 13.9995 132.492L15.9995 132.492C15.9995 114.64 25.4941 98.1461 40.9041 89.2217L39.9018 87.491ZM13.9995 132.492L13.9995 145L15.9995 145L15.9995 132.492L13.9995 132.492ZM15.9995 144L14.9995 144L14.9995 146L15.9995 146L15.9995 144ZM16.9995 145L16.9995 132.492L14.9995 132.492L14.9995 145L16.9995 145ZM16.9995 132.492C16.9995 115.002 26.3016 98.8404 41.4026 90.0949L40.4003 88.3642C24.68 97.4683 14.9995 114.291 14.9995 132.492L16.9995 132.492ZM41.4026 90.0949L163.501 19.3838L162.498 17.6531L40.4003 88.3642L41.4026 90.0949ZM162 17.3566L162 18.5185L164 18.5185L164 17.3566L162 17.3566ZM45.3268 93.0273L163.501 24.5889L162.498 22.8582L44.3245 91.2966L45.3268 93.0273ZM20.9995 135.295C20.9995 117.857 30.274 101.745 45.3268 93.0273L44.3245 91.2966C28.6524 100.373 18.9995 117.145 18.9995 135.295L20.9995 135.295ZM20.9995 145L20.9995 135.295L18.9995 135.295L18.9995 145L20.9995 145ZM20.9995 144L19.9995 144L19.9995 146L20.9995 146L20.9995 144ZM19.9995 135.295L19.9995 145L21.9995 145L21.9995 135.295L19.9995 135.295ZM44.8229 92.1698C29.4599 101.067 19.9995 117.507 19.9995 135.295L21.9995 135.295C21.9995 118.219 31.0815 102.439 45.8252 93.9005L44.8229 92.1698ZM162.498 24.0201L44.8229 92.1698L45.8252 93.9005L163.501 25.7508L162.498 24.0201ZM162 23.7235L162 24.8854L164 24.8854L164 23.7235L162 23.7235ZM162.498 29.2251L48.7471 95.1022L49.7495 96.8329L163.501 30.9558L162.498 29.2251ZM48.7471 95.1022C33.4323 103.972 23.9995 120.362 23.9995 138.097L25.9995 138.097C25.9995 121.073 35.0539 105.344 49.7495 96.8329L48.7471 95.1022ZM23.9995 138.097L23.9995 145L25.9995 145L25.9995 138.097L23.9995 138.097ZM25.9995 144L24.9995 144L24.9995 146L25.9995 146L25.9995 144ZM26.9995 145L26.9995 138.097L24.9995 138.097L24.9995 145L26.9995 145ZM26.9995 138.097C26.9995 121.435 35.8614 106.038 50.2479 97.7062L49.2455 95.9755C34.2398 104.666 24.9995 120.723 24.9995 138.097L26.9995 138.097ZM50.2479 97.7062L163.501 32.1177L162.498 30.387L49.2455 95.9755L50.2479 97.7062ZM162 30.0904L162 31.2524L164 31.2524L164 30.0904L162 30.0904ZM54.1721 100.639L163.501 37.3227L162.498 35.592L53.1698 98.9079L54.1721 100.639ZM30.9995 140.9C30.9995 124.289 39.8338 108.942 54.1721 100.639L53.1698 98.9079C38.2123 107.57 28.9995 123.578 28.9995 140.9L30.9995 140.9ZM30.9995 145L30.9995 140.9L28.9995 140.9L28.9995 145L30.9995 145ZM30.9995 144L29.9995 144L29.9995 146L30.9995 146L30.9995 144ZM29.9995 140.9L29.9995 145L31.9995 145L31.9995 140.9L29.9995 140.9ZM53.6682 99.7811C39.0197 108.265 29.9995 123.94 29.9995 140.9L31.9995 140.9C31.9995 124.651 40.6413 109.637 54.6705 101.512L53.6682 99.7811ZM162.498 36.754L53.6682 99.7811L54.6705 101.512L163.501 38.4847L162.498 36.754ZM162 36.4574L162 37.6193L164 37.6193L164 36.4574L162 36.4574ZM162.498 41.959L57.5924 102.713L58.5948 104.444L163.501 43.6897L162.498 41.959ZM57.5924 102.713C42.9922 111.169 33.9995 126.794 33.9995 143.702L35.9995 143.702C35.9995 127.506 44.6138 112.541 58.5948 104.444L57.5924 102.713ZM33.9995 143.702L33.9995 145L35.9995 145L35.9995 143.702L33.9995 143.702ZM35.9995 144L34.9995 144L34.9995 146L35.9995 146L35.9995 144ZM36.9995 145L36.9995 143.702L34.9995 143.702L34.9995 145L36.9995 145ZM36.9995 143.702C36.9995 127.868 45.4213 113.235 59.0932 105.317L58.0909 103.587C43.7997 111.863 34.9995 127.156 34.9995 143.702L36.9995 143.702ZM59.0932 105.317L163.501 44.8516L162.498 43.1209L58.0909 103.587L59.0932 105.317ZM162 42.8243L162 43.9863L164 43.9863L164 42.8243L162 42.8243ZM63.0174 108.25L163.501 50.0566L162.498 48.3259L62.0151 106.519L63.0174 108.25ZM41.0239 145.033C41.5277 129.82 49.8182 115.894 63.0174 108.25L62.0151 106.519C48.2158 114.511 39.5515 129.068 39.025 144.967L41.0239 145.033ZM41.025 144L40.0244 144L40.0244 146L41.025 146L41.025 144ZM62.5135 107.392C49.0237 115.205 40.5519 129.429 40.0256 144.966L42.0244 145.034C42.5275 130.182 50.6256 116.588 63.5158 109.123L62.5135 107.392ZM162.498 49.4878L62.5135 107.392L63.5158 109.123L163.501 51.2186L162.498 49.4878ZM162 49.1913L162 50.3532L164 50.3532L164 49.1913L162 49.1913ZM162.498 54.6928L66.4377 110.325L67.4401 112.055L163.501 56.4236L162.498 54.6928ZM66.4377 110.325C53.83 117.626 45.6191 130.549 44.2144 144.903L46.2049 145.098C47.5473 131.38 55.3947 119.031 67.4401 112.055L66.4377 110.325ZM46.2146 144L45.2096 144L45.2096 146L46.2146 146L46.2146 144ZM47.2096 145.1C48.5479 131.743 56.2021 119.726 67.9385 112.929L66.9362 111.198C54.6387 118.32 46.6213 130.91 45.2196 144.901L47.2096 145.1ZM67.9385 112.929L163.501 57.5855L162.498 55.8548L66.9362 111.198L67.9385 112.929ZM162 55.5582L162 56.7201L164 56.7201L164 55.5582L162 55.5582ZM71.8627 115.861L163.501 62.7905L162.498 61.0598L70.8604 114.13L71.8627 115.861ZM51.5769 145.166C53.6212 132.969 60.9819 122.163 71.8627 115.861L70.8604 114.13C59.4573 120.734 51.746 132.058 49.6044 144.835L51.5769 145.166ZM51.6052 144L50.5907 144L50.5907 146L51.6052 146L51.6052 144ZM71.3588 115.004C60.2674 121.427 52.7519 132.419 50.6196 144.831L52.5908 145.17C54.6239 133.335 61.7896 122.857 72.3611 116.734L71.3588 115.004ZM162.498 62.2217L71.3588 115.004L72.3611 116.734L163.501 63.9524L162.498 62.2217ZM162 61.9251L162 63.087L164 63.087L164 61.9251L162 61.9251ZM162.498 67.4267L75.283 117.936L76.2853 119.667L163.501 69.1574L162.498 67.4267ZM75.283 117.936C65.1024 123.832 57.9445 133.592 55.2187 144.763L57.1617 145.237C59.7603 134.587 66.5838 125.285 76.2853 119.667L75.283 117.936ZM57.2207 144L56.1902 144L56.1902 146L57.2207 146L57.2207 144ZM58.1908 145.243C60.7673 134.956 67.3924 125.979 76.7838 120.54L75.7815 118.809C65.9147 124.523 58.9566 133.953 56.2507 144.757L58.1908 145.243ZM76.7838 120.54L163.501 70.3193L162.498 68.5886L75.7815 118.809L76.7838 120.54ZM162 68.292L162 69.454L164 69.454L164 68.292L162 68.292ZM80.708 123.472L163.501 75.5243L162.498 73.7936L79.7057 121.742L80.708 123.472ZM62.9879 145.313C65.9795 136.231 72.2063 128.396 80.708 123.472L79.7057 121.742C70.7719 126.915 64.2306 135.148 61.0883 144.687L62.9879 145.313ZM63.0932 144L62.0381 144L62.0381 146L63.0932 146L63.0932 144ZM80.2041 122.615C71.5875 127.605 65.2526 135.51 62.1461 144.679L64.0403 145.321C66.9941 136.603 73.0168 129.088 81.2064 124.346L80.2041 122.615ZM162.498 74.9556L80.2041 122.615L81.2064 124.346L163.501 76.6863L162.498 74.9556ZM162 74.659L162 75.8209L164 75.8209L164 74.659L162 74.659ZM162.498 80.1606L84.1283 125.547L85.1306 127.278L163.501 81.8913L162.498 80.1606ZM84.1283 125.547C76.4746 129.98 70.6272 136.722 67.256 144.607L69.095 145.393C72.2998 137.897 77.8576 131.49 85.1306 127.278L84.1283 125.547ZM69.267 144L68.1755 144L68.1755 146L69.267 146L69.267 144ZM70.1819 145.404C73.3269 138.272 78.6718 132.18 85.6291 128.151L84.6267 126.421C77.2956 130.666 71.6646 137.084 68.352 144.597L70.1819 145.404ZM85.6291 128.151L163.501 83.0532L162.498 81.3225L84.6267 126.421L85.6291 128.151ZM162 81.0259L162 82.1879L164 82.1879L164 81.0259L162 81.0259ZM89.5533 131.084L163.501 88.2582L162.498 86.5275L88.551 129.353L89.5533 131.084ZM75.5398 145.478C78.7519 139.579 83.55 134.56 89.5533 131.084L88.551 129.353C82.2239 133.017 77.1675 138.306 73.7833 144.522L75.5398 145.478ZM75.8067 144L74.6615 144L74.6615 146L75.8067 146L75.8067 144ZM89.0494 130.226C83.0534 133.699 78.2291 138.668 74.9357 144.509L76.6778 145.491C79.7992 139.956 84.3706 135.247 90.0517 131.957L89.0494 130.226ZM162.498 87.6894L89.0494 130.226L90.0517 131.957L163.501 89.4202L162.498 87.6894ZM162 87.3929L162 88.5548L164 88.5548L164 87.3929L162 87.3929ZM162.498 92.8944L92.9736 133.159L93.9759 134.889L163.501 94.6251L162.498 92.8944ZM92.9736 133.159C88.0406 136.015 83.9033 139.89 80.7641 144.432L82.4093 145.569C85.3836 141.266 89.3028 137.596 93.9759 134.889L92.9736 133.159ZM82.8136 144L81.5867 144L81.5867 146L82.8136 146L82.8136 144ZM83.6249 145.585C86.4648 141.643 90.1351 138.276 94.4744 135.763L93.472 134.032C88.8845 136.689 85.0041 140.249 82.0023 144.416L83.6249 145.585ZM94.4744 135.763L163.501 95.7871L162.498 94.0564L93.472 134.032L94.4744 135.763ZM162 93.7598L162 94.9217L164 94.9217L164 93.7598L162 93.7598ZM98.3986 138.695L163.501 100.992L162.498 99.2614L97.3963 136.964L98.3986 138.695ZM89.8495 145.665C92.2769 142.94 95.1494 140.577 98.3986 138.695L97.3963 136.964C93.9606 138.954 90.9229 141.453 88.356 144.335L89.8495 145.665ZM90.4622 144L89.1027 144L89.1027 146L90.4622 146L90.4622 144ZM97.8947 137.837C94.8305 139.612 92.0917 141.803 89.733 144.316L91.1913 145.685C93.4181 143.312 96.0037 141.244 98.897 139.568L97.8947 137.837ZM162.498 100.423L97.8947 137.837L98.897 139.568L163.501 102.154L162.498 100.423ZM162 100.127L162 101.289L164 101.289L164 100.127L162 100.127ZM162.498 105.628L101.819 140.77L102.821 142.5L163.501 107.359L162.498 105.628ZM101.819 140.77C100.055 141.791 98.3995 142.951 96.8626 144.232L98.1429 145.768C99.5934 144.56 101.156 143.465 102.821 142.5L101.819 140.77ZM99.1074 144L97.5028 144L97.5028 146L99.1074 146L99.1074 144ZM99.7188 145.792C100.855 144.914 102.057 144.105 103.32 143.374L102.317 141.643C100.978 142.419 99.7023 143.277 98.4961 144.209L99.7188 145.792ZM103.32 143.374L163.501 108.521L162.498 106.79L102.317 141.643L103.32 143.374ZM162 106.494L162 107.656L164 107.656L164 106.494L162 106.494ZM108.005 145.866L163.501 113.726L162.498 111.995L107.002 144.135L108.005 145.866ZM109.51 144L107.503 144L107.503 146L109.51 146L109.51 144ZM162.498 113.157L109.009 144.135L110.011 145.866L163.501 114.888L162.498 113.157ZM162 112.861L162 114.023L164 114.023L164 112.861L162 112.861ZM162.498 118.362L117.996 144.135L118.998 145.866L163.501 120.093L162.498 118.362ZM120.504 144L118.497 144L118.497 146L120.504 146L120.504 144ZM121.005 145.866L163.501 121.255L162.498 119.524L120.003 144.135L121.005 145.866ZM162 119.228L162 120.389L164 120.389L164 119.228L162 119.228ZM129.992 145.866L163.501 126.46L162.498 124.729L128.99 144.135L129.992 145.866ZM131.498 144L129.491 144L129.491 146L131.498 146L131.498 144ZM162.498 125.891L130.996 144.135L131.999 145.866L163.501 127.622L162.498 125.891ZM162 125.594L162 126.756L164 126.756L164 125.594L162 125.594ZM162.498 131.096L139.984 144.135L140.986 145.866L163.501 132.827L162.498 131.096ZM142.491 144L140.485 144L140.485 146L142.491 146L142.491 144ZM142.993 145.866L163.501 133.989L162.498 132.258L141.99 144.135L142.993 145.866ZM162 131.961L162 133.123L164 133.123L164 131.961L162 131.961ZM151.98 145.866L163.379 139.264L162.377 137.534L150.978 144.135L151.98 145.866ZM153.485 144L151.479 144L151.479 146L153.485 146L153.485 144ZM162.003 138.912L152.984 144.135L153.986 145.866L163.006 140.642L162.003 138.912ZM161.893 138.225C161.82 138.641 161.71 139.043 161.567 139.43L163.442 140.124C163.627 139.626 163.768 139.107 163.862 138.573L161.893 138.225Z" fill="url(#paint0_linear)" mask="url(#path-1-inside-1)"/>
<defs>
<linearGradient id="paint0_linear" x1="163" y1="-187.587" x2="-112" y2="-187.587" gradientUnits="userSpaceOnUse">
<stop stop-color="#38D499"/>
<stop offset="1" stop-color="#4B8FFB"/>
</linearGradient>
</defs>
</svg>
