<svg width="163" height="146" viewBox="0 0 163 146" fill="none" xmlns="http://www.w3.org/2000/svg">
<mask id="path-1-inside-1" fill="white">
<path fill-rule="evenodd" clip-rule="evenodd" d="M0.586836 140.847L131.441 64.627C147.876 55.0544 158 37.3635 158 18.2181V0.581758C157.676 0.450864 157.342 0.340498 157 0.252278V18.2181C157 36.9994 147.068 54.3561 130.943 63.7487L0.260787 139.869C0.348756 140.204 0.457947 140.531 0.586836 140.847ZM3.45029 144.415L135.366 67.5763C151.848 57.9756 162 40.2343 162 21.0369V4.12421C162.634 5.26817 162.997 6.58409 163 7.98445C163 7.98971 163 7.99498 163 8.00024L163 21.0369C163 40.5984 152.655 58.674 135.864 68.4547L4.44671 145.003C4.09952 144.83 3.76663 144.634 3.45029 144.415ZM-0.000488281 134.786L127.019 60.7993C143.096 51.4348 153 34.1285 153 15.3994V0.000244141H152V15.3994C152 33.7644 142.288 50.7365 126.52 59.9211L-0.000488281 133.617V134.786ZM-0.000488281 128.382L122.596 56.9717C138.316 47.8153 148 30.8935 148 12.5807V0.000244141H147V12.5807C147 30.5295 137.508 47.117 122.098 56.0934L-0.000488281 127.213V128.382ZM-0.000488281 121.978L118.173 53.1441C133.536 44.1958 143 27.6586 143 9.7619V0.000244141H142V9.7619C142 27.2946 132.728 43.4975 117.675 52.2658L-0.000488281 120.81V121.978ZM-0.000488281 115.574L113.751 49.3165C128.756 40.5762 138 24.4236 138 6.94315V0.000244141H137V6.94315C137 24.0596 127.948 39.878 113.252 48.4382L-0.000488281 114.406V115.574ZM-0.000488281 109.171L109.328 45.4888C123.976 36.9567 133 21.1887 133 4.12439V0.000244141H132V4.12439C132 20.8246 123.169 36.2584 108.83 44.6105L-0.000488281 108.002V109.171ZM-0.000488281 102.767L104.905 41.6612C119.196 33.3371 128 17.9537 128 1.30566V0.000244141H127V1.30566C127 17.5897 118.389 32.6389 104.407 40.7829L-0.000488281 101.598V102.767ZM-0.000488281 96.3632L100.483 37.8336C113.982 29.9705 122.459 15.6467 122.975 0.000244141H121.974C121.459 15.2827 113.174 29.2722 99.9844 36.9552L-0.000488281 95.1946V96.3632ZM-0.000488281 89.9595L96.0602 34.006C108.387 26.8259 116.416 14.1171 117.789 0.000244141H116.784C115.414 13.7527 107.579 26.128 95.5617 33.1276L-0.000488281 88.7908V89.9595ZM-0.000488281 83.5558L91.6375 30.1783C102.78 23.6883 110.315 12.559 112.408 0.000244141H111.394C109.311 12.1935 101.971 22.9908 91.1391 29.3L-0.000488281 82.3871V83.5558ZM-0.000488281 77.152L87.2149 26.3507C97.156 20.5602 104.147 10.9739 106.809 0.000244141H105.778C103.137 10.6069 96.3455 19.8636 86.7164 25.4724L-0.000488281 75.9834V77.152ZM-0.000488281 70.7483L82.7922 22.523C91.51 17.4451 97.894 9.36474 100.961 0.000244141H99.9059C96.8757 8.99587 90.6969 16.75 82.2938 21.6447L-0.000488281 69.5796V70.7483ZM-0.000488281 64.3445L78.3696 18.6954C85.8329 14.3481 91.5356 7.73556 94.8236 0.000244141H93.7321C90.5034 7.36495 85.0154 13.6557 77.8712 17.817L-0.000488281 63.1758V64.3445ZM-0.000488281 57.9408L73.9469 14.8677C80.1121 11.2766 85.0394 6.09292 88.3376 0.000244141H87.1924C83.9849 5.72138 79.287 10.5886 73.4485 13.9894L-0.000488281 56.7721V57.9408ZM-0.000488281 51.537L69.5243 11.0401C74.3274 8.2424 78.3557 4.44785 81.4124 0.000244141H80.1855C77.2646 4.07759 73.4893 7.56192 69.0258 10.1618L-0.000488281 50.3684V51.537ZM-0.000488281 45.1333L65.1016 7.21249C68.4441 5.26557 71.3992 2.82034 73.8964 0.000244141H72.537C70.2442 2.45692 67.582 4.59905 64.6032 6.33417L-0.000488281 43.9646V45.1333ZM-0.000488281 38.7295L60.679 3.38486C62.3934 2.3862 64.0026 1.25207 65.4963 0.000244141H63.8917C62.7202 0.910491 61.4816 1.74867 60.1805 2.50653L-0.000488281 37.5609V38.7295ZM-0.000488281 32.3258L55.4957 0.000244141H53.4894L-0.000488281 31.1571V32.3258ZM-0.000488281 25.922L44.5018 0.000244141H42.4955L-0.000488281 24.7534V25.922ZM-0.000488281 19.5183L33.5079 0.000244141H31.5016L-0.000488281 18.3496V19.5183ZM-0.000488281 13.1146L22.5141 0.000244141H20.5077L-0.000488281 11.9459V13.1146ZM0.11398 6.64411L11.5201 0.000244141H9.51384L0.480388 5.26206C0.318779 5.70573 0.195321 6.16774 0.11398 6.64411Z"/>
</mask>
<path d="M0.586836 140.847L-1.26557 141.601L-0.397065 143.735L1.59348 142.576L0.586836 140.847ZM131.441 64.627L132.448 66.3552L131.441 64.627ZM158 0.581758H160V-0.766304L158.75 -1.27212L158 0.581758ZM157 0.252278L157.498 -1.6846L155 -2.32767V0.252278H157ZM130.943 63.7487L131.95 65.4769H131.95L130.943 63.7487ZM0.260787 139.869L-0.745857 138.14L-2.0595 138.906L-1.67376 140.376L0.260787 139.869ZM3.45029 144.415L2.44365 142.686L-0.273056 144.269L2.31162 146.059L3.45029 144.415ZM135.366 67.5763L134.359 65.8481L135.366 67.5763ZM162 4.12421L163.748 3.1538L160 -3.60201V4.12421H162ZM163 7.98445H165V7.98059L163 7.98445ZM163 8.00024L165 8.00025V8.00024H163ZM163 21.0369L161 21.0369V21.0369H163ZM135.864 68.4547L134.857 66.7264V66.7265L135.864 68.4547ZM4.44671 145.003L3.5573 146.794L4.52234 147.273L5.45335 146.731L4.44671 145.003ZM127.019 60.7993L126.012 59.0711L127.019 60.7993ZM-0.000488281 134.786H-2.00049V138.265L1.00616 136.514L-0.000488281 134.786ZM153 0.000244141H155V-1.99976H153V0.000244141ZM152 0.000244141V-1.99976H150V0.000244141H152ZM126.52 59.9211L127.527 61.6493V61.6492L126.52 59.9211ZM-0.000488281 133.617L-1.00713 131.889L-2.00049 132.468V133.617H-0.000488281ZM-0.000488281 128.382H-2.00049V131.861L1.00616 130.11L-0.000488281 128.382ZM122.596 56.9717L121.589 55.2435L122.596 56.9717ZM148 0.000244141H150V-1.99976H148V0.000244141ZM147 0.000244141V-1.99976H145V0.000244141H147ZM122.098 56.0934L121.091 54.3652L122.098 56.0934ZM-0.000488281 127.213L-1.00713 125.485L-2.00049 126.064V127.213H-0.000488281ZM118.173 53.1441L119.18 54.8723L118.173 53.1441ZM-0.000488281 121.978H-2.00049V125.458L1.00616 123.706L-0.000488281 121.978ZM143 0.000244141H145V-1.99976H143V0.000244141ZM142 0.000244141V-1.99976H140V0.000244141H142ZM117.675 52.2658L118.682 53.994V53.994L117.675 52.2658ZM-0.000488281 120.81L-1.00713 119.081L-2.00049 119.66V120.81H-0.000488281ZM-0.000488281 115.574H-2.00049V119.054L1.00616 117.303L-0.000488281 115.574ZM113.751 49.3165L114.757 51.0447L113.751 49.3165ZM138 0.000244141H140V-1.99976H138V0.000244141ZM137 0.000244141V-1.99976H135V0.000244141H137ZM113.252 48.4382L114.259 50.1664L113.252 48.4382ZM-0.000488281 114.406L-1.00713 112.678L-2.00049 113.256V114.406H-0.000488281ZM109.328 45.4888L108.321 43.7606L109.328 45.4888ZM-0.000488281 109.171H-2.00049V112.65L1.00616 110.899L-0.000488281 109.171ZM133 0.000244141H135V-1.99976H133V0.000244141ZM132 0.000244141V-1.99976H130V0.000244141H132ZM108.83 44.6105L109.836 46.3387V46.3387L108.83 44.6105ZM-0.000488281 108.002L-1.00713 106.274L-2.00049 106.852V108.002H-0.000488281ZM-0.000488281 102.767H-2.00049V106.246L1.00616 104.495L-0.000488281 102.767ZM104.905 41.6612L105.912 43.3894L104.905 41.6612ZM128 0.000244141H130V-1.99976H128V0.000244141ZM127 0.000244141V-1.99976H125V0.000244141H127ZM104.407 40.7829L105.414 42.5111L104.407 40.7829ZM-0.000488281 101.598L-1.00713 99.8701L-2.00049 100.449V101.598H-0.000488281ZM100.483 37.8336L99.4761 36.1054L100.483 37.8336ZM-0.000488281 96.3632H-2.00049V99.8427L1.00616 98.0914L-0.000488281 96.3632ZM122.975 0.000244141L124.974 0.0660537L125.042 -1.99976H122.975V0.000244141ZM121.974 0.000244141V-1.99976H120.04L119.975 -0.0670764L121.974 0.000244141ZM99.9844 36.9552L100.991 38.6834L99.9844 36.9552ZM-0.000488281 95.1946L-1.00713 93.4664L-2.00049 94.045V95.1946H-0.000488281ZM-0.000488281 89.9595H-2.00049V93.439L1.00616 91.6877L-0.000488281 89.9595ZM96.0602 34.006L97.0668 35.7341V35.7341L96.0602 34.006ZM117.789 0.000244141L119.78 0.193926L119.993 -1.99976H117.789V0.000244141ZM116.784 0.000244141V-1.99976H114.974L114.794 -0.198008L116.784 0.000244141ZM95.5617 33.1276L94.5551 31.3994V31.3994L95.5617 33.1276ZM-0.000488281 88.7908L-1.00713 87.0627L-2.00049 87.6413V88.7908H-0.000488281ZM91.6375 30.1783L92.6442 31.9065L91.6375 30.1783ZM-0.000488281 83.5558H-2.00049V87.0353L1.00616 85.284L-0.000488281 83.5558ZM112.408 0.000244141L114.381 0.329012L114.769 -1.99976H112.408V0.000244141ZM111.394 0.000244141V-1.99976H109.707L109.422 -0.336494L111.394 0.000244141ZM91.1391 29.3L92.1457 31.0282V31.0282L91.1391 29.3ZM-0.000488281 82.3871L-1.00713 80.6589L-2.00049 81.2375V82.3871H-0.000488281ZM-0.000488281 77.152H-2.00049V80.6315L1.00616 78.8802L-0.000488281 77.152ZM87.2149 26.3507L88.2215 28.0789L87.2149 26.3507ZM106.809 0.000244141L108.753 0.471763L109.352 -1.99976H106.809V0.000244141ZM105.778 0.000244141V-1.99976H104.215L103.838 -0.483025L105.778 0.000244141ZM86.7164 25.4724L87.7231 27.2005L86.7164 25.4724ZM-0.000488281 75.9834L-1.00713 74.2552L-2.00049 74.8338V75.9834H-0.000488281ZM82.7922 22.523L83.7989 24.2512V24.2512L82.7922 22.523ZM-0.000488281 70.7483H-2.00049V74.2278L1.00616 72.4765L-0.000488281 70.7483ZM100.961 0.000244141L102.862 0.622736L103.721 -1.99976H100.961V0.000244141ZM99.9059 0.000244141V-1.99976H98.4692L98.0105 -0.638201L99.9059 0.000244141ZM82.2938 21.6447L81.2871 19.9165L82.2938 21.6447ZM-0.000488281 69.5796L-1.00713 67.8514L-2.00049 68.43V69.5796H-0.000488281ZM-0.000488281 64.3445H-2.00049V67.824L1.00616 66.0727L-0.000488281 64.3445ZM78.3696 18.6954L77.3629 16.9672V16.9672L78.3696 18.6954ZM94.8236 0.000244141L96.6642 0.782631L97.8469 -1.99976H94.8236V0.000244141ZM93.7321 0.000244141V-1.99976H92.4252L91.9004 -0.802794L93.7321 0.000244141ZM77.8712 17.817L76.8645 16.0888L77.8712 17.817ZM-0.000488281 63.1758L-1.00713 61.4476L-2.00049 62.0263V63.1758H-0.000488281ZM73.9469 14.8677L74.9536 16.5959L73.9469 14.8677ZM-0.000488281 57.9408H-2.00049V61.4203L1.00616 59.669L-0.000488281 57.9408ZM88.3376 0.000244141L90.0964 0.952355L91.6945 -1.99976H88.3376V0.000244141ZM87.1924 0.000244141V-1.99976H86.0208L85.4478 -0.977793L87.1924 0.000244141ZM73.4485 13.9894L72.4419 12.2612L73.4485 13.9894ZM-0.000488281 56.7721L-1.00713 55.0439L-2.00049 55.6225V56.7721H-0.000488281ZM-0.000488281 51.537H-2.00049V55.0165L1.00616 53.2652L-0.000488281 51.537ZM69.5243 11.0401L70.5309 12.7683V12.7683L69.5243 11.0401ZM81.4124 0.000244141L83.0607 1.13305L85.2138 -1.99976H81.4124V0.000244141ZM80.1855 0.000244141V-1.99976H79.158L78.5596 -1.16446L80.1855 0.000244141ZM69.0258 10.1618L68.0192 8.43357V8.43358L69.0258 10.1618ZM-0.000488281 50.3684L-1.00713 48.6402L-2.00049 49.2188V50.3684H-0.000488281ZM65.1016 7.21249L64.095 5.4843L65.1016 7.21249ZM-0.000488281 45.1333H-2.00049V48.6128L1.00616 46.8615L-0.000488281 45.1333ZM73.8964 0.000244141L75.3937 1.32613L78.3388 -1.99976H73.8964V0.000244141ZM72.537 0.000244141V-1.99976H71.6678L71.0748 -1.36435L72.537 0.000244141ZM64.6032 6.33417L63.5965 4.60597L63.5965 4.60597L64.6032 6.33417ZM-0.000488281 43.9646L-1.00713 42.2364L-2.00049 42.815V43.9646H-0.000488281ZM-0.000488281 38.7295H-2.00049V42.209L1.00616 40.4577L-0.000488281 38.7295ZM60.679 3.38486L59.6723 1.65666L59.6723 1.65666L60.679 3.38486ZM65.4963 0.000244141L66.781 1.53311L70.9964 -1.99976H65.4963V0.000244141ZM63.8917 0.000244141V-1.99976H63.206L62.6645 -1.57902L63.8917 0.000244141ZM60.1805 2.50653L59.1739 0.778332L59.1739 0.778333L60.1805 2.50653ZM-0.000488281 37.5609L-1.00713 35.8327L-2.00049 36.4113V37.5609H-0.000488281ZM55.4957 0.000244141L56.5023 1.72844L62.9029 -1.99976H55.4957V0.000244141ZM-0.000488281 32.3258H-2.00049V35.8053L1.00616 34.054L-0.000488281 32.3258ZM53.4894 0.000244141V-1.99976H52.9494L52.4828 -1.72795L53.4894 0.000244141ZM-0.000488281 31.1571L-1.00713 29.4289L-2.00049 30.0075V31.1571H-0.000488281ZM-0.000488281 25.922H-2.00049V29.4015L1.00616 27.6502L-0.000488281 25.922ZM44.5018 0.000244141L45.5084 1.72844L51.909 -1.99976H44.5018V0.000244141ZM42.4955 0.000244141V-1.99976H41.9555L41.4888 -1.72795L42.4955 0.000244141ZM-0.000488281 24.7534L-1.00713 23.0252L-2.00049 23.6038V24.7534H-0.000488281ZM33.5079 0.000244141L34.5146 1.72844L40.9151 -1.99976H33.5079V0.000244141ZM-0.000488281 19.5183H-2.00049V22.9978L1.00616 21.2465L-0.000488281 19.5183ZM31.5016 0.000244141V-1.99976H30.9616L30.495 -1.72795L31.5016 0.000244141ZM-0.000488281 18.3496L-1.00713 16.6214L-2.00049 17.2001V18.3496H-0.000488281ZM-0.000488281 13.1146H-2.00049V16.5941L1.00615 14.8428L-0.000488281 13.1146ZM22.5141 0.000244141L23.5207 1.72844L29.9213 -1.99976H22.5141V0.000244141ZM20.5077 0.000244141V-1.99976H19.9677L19.5011 -1.72795L20.5077 0.000244141ZM-0.000488281 11.9459L-1.00713 10.2177L-2.00049 10.7963V11.9459H-0.000488281ZM11.5201 0.000244141L12.5268 1.72844L18.9273 -1.99976H11.5201V0.000244141ZM0.11398 6.64411L-1.85749 6.30748L-2.57791 10.5266L1.12062 8.37231L0.11398 6.64411ZM9.51384 0.000244141V-1.99976H8.97382L8.50719 -1.72795L9.51384 0.000244141ZM0.480388 5.26206L-0.526255 3.53386L-1.15127 3.89792L-1.39883 4.57755L0.480388 5.26206ZM1.59348 142.576L132.448 66.3552L130.435 62.8988L-0.419807 139.119L1.59348 142.576ZM132.448 66.3552C149.502 56.4214 160 38.0694 160 18.2181H156C156 36.6575 146.249 53.6874 130.435 62.8988L132.448 66.3552ZM160 18.2181V0.581758H156V18.2181H160ZM156.501 2.18915C156.757 2.25514 157.007 2.3377 157.249 2.43563L158.75 -1.27212C158.345 -1.43597 157.927 -1.57415 157.498 -1.6846L156.501 2.18915ZM155 0.252278V18.2181H159V0.252278H155ZM155 18.2181C155 36.2935 145.441 52.9891 129.936 62.0205L131.95 65.4769C148.695 55.7231 159 37.7053 159 18.2181H155ZM129.936 62.0205L-0.745857 138.14L1.26743 141.597L131.95 65.4769L129.936 62.0205ZM2.43925 140.093C2.34281 139.856 2.26114 139.612 2.19534 139.361L-1.67376 140.376C-1.56362 140.796 -1.42691 141.205 -1.26557 141.601L2.43925 140.093ZM4.45694 146.143L136.372 69.3045L134.359 65.8481L2.44365 142.686L4.45694 146.143ZM136.372 69.3045C153.475 59.3426 164 40.9403 164 21.0369H160C160 39.5284 150.221 56.6087 134.359 65.8481L136.372 69.3045ZM164 21.0369V4.12421H160V21.0369H164ZM160.251 5.09462C160.726 5.9504 160.997 6.93475 161 7.98831L165 7.98059C164.996 6.23343 164.543 4.58594 163.748 3.1538L160.251 5.09462ZM161 7.98445C161 7.98877 161 7.99285 161 7.99524C161 7.99812 161 7.9993 161 8.00024H165C165 7.99592 165 7.99184 165 7.98945C165 7.98657 165 7.98539 165 7.98445H161ZM161 8.00024L161 21.0369L165 21.0369L165 8.00025L161 8.00024ZM161 21.0369C161 39.8925 151.029 57.3069 134.857 66.7264L136.871 70.1829C154.282 60.041 165 41.3043 165 21.0369H161ZM134.857 66.7265L3.44006 143.275L5.45335 146.731L136.871 70.1828L134.857 66.7265ZM5.33611 143.212C5.07601 143.082 4.82638 142.935 4.58896 142.77L2.31162 146.059C2.70687 146.333 3.12302 146.579 3.5573 146.794L5.33611 143.212ZM126.012 59.0711L-1.00713 133.058L1.00616 136.514L128.025 62.5275L126.012 59.0711ZM151 15.3994C151 33.4226 141.469 50.0678 126.012 59.0711L128.025 62.5275C144.722 52.8018 155 34.8344 155 15.3994H151ZM151 0.000244141V15.3994H155V0.000244141H151ZM152 2.00024H153V-1.99976H152V2.00024ZM154 15.3994V0.000244141H150V15.3994H154ZM127.527 61.6492C143.915 52.1035 154 34.4704 154 15.3994H150C150 33.0585 140.661 49.3695 125.514 58.1929L127.527 61.6492ZM1.00616 135.345L127.527 61.6493L125.514 58.1929L-1.00713 131.889L1.00616 135.345ZM1.99951 134.786V133.617H-2.00049V134.786H1.99951ZM1.00616 130.11L123.603 58.6999L121.589 55.2435L-1.00713 126.654L1.00616 130.11ZM123.603 58.6999C139.942 49.1823 150 31.5995 150 12.5807H146C146 30.1876 136.689 46.4483 121.589 55.2435L123.603 58.6999ZM150 12.5807V0.000244141H146V12.5807H150ZM147 2.00024H148V-1.99976H147V2.00024ZM145 0.000244141V12.5807H149V0.000244141H145ZM145 12.5807C145 29.8236 135.881 45.75 121.091 54.3652L123.104 57.8216C139.135 48.484 149 31.2354 149 12.5807H145ZM121.091 54.3652L-1.00713 125.485L1.00616 128.942L123.104 57.8216L121.091 54.3652ZM1.99951 128.382V127.213H-2.00049V128.382H1.99951ZM117.167 51.4159L-1.00713 120.25L1.00616 123.706L119.18 54.8723L117.167 51.4159ZM141 9.7619C141 26.9526 131.909 42.8288 117.167 51.4159L119.18 54.8723C135.163 45.5628 145 28.3645 145 9.7619H141ZM141 0.000244141V9.7619H145V0.000244141H141ZM142 2.00024H143V-1.99976H142V2.00024ZM144 9.7619V0.000244141H140V9.7619H144ZM118.682 53.994C134.355 44.8645 144 28.0005 144 9.7619H140C140 26.5886 131.102 42.1305 116.668 50.5376L118.682 53.994ZM1.00616 122.538L118.682 53.994L116.668 50.5376L-1.00713 119.081L1.00616 122.538ZM1.99951 121.978V120.81H-2.00049V121.978H1.99951ZM1.00616 117.303L114.757 51.0447L112.744 47.5883L-1.00713 113.846L1.00616 117.303ZM114.757 51.0447C130.383 41.9432 140 25.1296 140 6.94315H136C136 23.7177 127.129 39.2092 112.744 47.5883L114.757 51.0447ZM140 6.94315V0.000244141H136V6.94315H140ZM137 2.00024H138V-1.99976H137V2.00024ZM135 0.000244141V6.94315H139V0.000244141H135ZM135 6.94315C135 23.3537 126.322 38.511 112.246 46.71L114.259 50.1664C129.575 41.245 139 24.7655 139 6.94315H135ZM112.246 46.71L-1.00713 112.678L1.00616 116.134L114.259 50.1664L112.246 46.71ZM1.99951 115.574V114.406H-2.00049V115.574H1.99951ZM108.321 43.7606L-1.00713 107.443L1.00616 110.899L110.335 47.217L108.321 43.7606ZM131 4.12439C131 20.4827 122.349 35.5897 108.321 43.7606L110.335 47.217C125.603 38.3237 135 21.8946 135 4.12439H131ZM131 0.000244141V4.12439H135V0.000244141H131ZM132 2.00024H133V-1.99976H132V2.00024ZM134 4.12439V0.000244141H130V4.12439H134ZM109.836 46.3387C124.795 37.6254 134 21.5306 134 4.12439H130C130 20.1187 121.542 34.8914 107.823 42.8823L109.836 46.3387ZM1.00616 109.73L109.836 46.3387L107.823 42.8823L-1.00713 106.274L1.00616 109.73ZM1.99951 109.171V108.002H-2.00049V109.171H1.99951ZM1.00616 104.495L105.912 43.3894L103.899 39.933L-1.00713 101.039L1.00616 104.495ZM105.912 43.3894C120.823 34.7041 130 18.6596 130 1.30566H126C126 17.2478 117.569 31.9701 103.899 39.933L105.912 43.3894ZM130 1.30566V0.000244141H126V1.30566H130ZM127 2.00024H128V-1.99976H127V2.00024ZM125 0.000244141V1.30566H129V0.000244141H125ZM125 1.30566C125 16.8838 116.762 31.2719 103.4 39.0547L105.414 42.5111C120.015 34.0059 129 18.2956 129 1.30566H125ZM103.4 39.0547L-1.00713 99.8701L1.00616 103.327L105.414 42.5111L103.4 39.0547ZM1.99951 102.767V101.598H-2.00049V102.767H1.99951ZM99.4761 36.1054L-1.00713 94.635L1.00616 98.0914L101.489 39.5618L99.4761 36.1054ZM120.976 -0.0655655C120.483 14.8999 112.375 28.5923 99.4761 36.1054L101.489 39.5618C115.59 31.3487 124.436 16.3934 124.974 0.0660537L120.976 -0.0655655ZM121.974 2.00024H122.975V-1.99976H121.974V2.00024ZM100.991 38.6834C114.782 30.6507 123.435 16.0303 123.973 0.0675647L119.975 -0.0670764C119.483 14.535 111.567 27.8938 98.9777 35.227L100.991 38.6834ZM1.00616 96.9228L100.991 38.6834L98.9777 35.227L-1.00713 93.4664L1.00616 96.9228ZM1.99951 96.3632V95.1946H-2.00049V96.3632H1.99951ZM1.00616 91.6877L97.0668 35.7341L95.0535 32.2778L-1.00713 88.2313L1.00616 91.6877ZM97.0668 35.7341C109.957 28.226 118.345 14.9419 119.78 0.193926L115.799 -0.193438C114.487 13.2924 106.817 25.4258 95.0535 32.2778L97.0668 35.7341ZM116.784 2.00024H117.789V-1.99976H116.784V2.00024ZM114.794 -0.198008C113.487 12.9252 106.01 24.7271 94.5551 31.3994L96.5684 34.8558C109.147 27.5289 117.342 14.5802 118.775 0.198496L114.794 -0.198008ZM94.5551 31.3994L-1.00713 87.0627L1.00616 90.519L96.5684 34.8558L94.5551 31.3994ZM1.99951 89.9595V88.7908H-2.00049V89.9595H1.99951ZM90.6309 28.4501L-1.00713 81.8276L1.00616 85.284L92.6442 31.9065L90.6309 28.4501ZM110.436 -0.328524C108.439 11.6533 101.25 22.2647 90.6309 28.4501L92.6442 31.9065C104.309 25.1118 112.192 13.4646 114.381 0.329012L110.436 -0.328524ZM111.394 2.00024H112.408V-1.99976H111.394V2.00024ZM92.1457 31.0282C103.498 24.4158 111.185 13.1038 113.365 0.336983L109.422 -0.336494C107.438 11.2831 100.443 21.5659 90.1325 27.5718L92.1457 31.0282ZM1.00616 84.1153L92.1457 31.0282L90.1325 27.5718L-1.00713 80.6589L1.00616 84.1153ZM1.99951 83.5558V82.3871H-2.00049V83.5558H1.99951ZM1.00616 78.8802L88.2215 28.0789L86.2082 24.6225L-1.00713 75.4238L1.00616 78.8802ZM88.2215 28.0789C98.6423 22.0089 105.965 11.9637 108.753 0.471763L104.865 -0.471275C102.329 9.9841 95.6696 19.1114 86.2082 24.6225L88.2215 28.0789ZM105.778 2.00024H106.809V-1.99976H105.778V2.00024ZM103.838 -0.483025C101.324 9.61015 94.8628 18.4127 85.7098 23.7442L87.7231 27.2005C97.8282 21.3145 104.95 11.6036 107.719 0.483513L103.838 -0.483025ZM85.7098 23.7442L-1.00713 74.2552L1.00616 77.7116L87.7231 27.2005L85.7098 23.7442ZM1.99951 77.152V75.9834H-2.00049V77.152H1.99951ZM81.7856 20.7948L-1.00713 69.0201L1.00616 72.4765L83.7989 24.2512L81.7856 20.7948ZM99.0604 -0.622248C96.1425 8.28694 90.0707 15.9689 81.7856 20.7948L83.7989 24.2512C92.9493 18.9212 99.6456 10.4425 102.862 0.622736L99.0604 -0.622248ZM99.9059 2.00024H100.961V-1.99976H99.9059V2.00024ZM83.3004 23.3729C92.1312 18.2292 98.62 10.0829 101.801 0.638689L98.0105 -0.638201C95.1315 7.90881 89.2626 15.2709 81.2871 19.9165L83.3004 23.3729ZM1.00616 71.3078L83.3004 23.3729L81.2871 19.9165L-1.00713 67.8514L1.00616 71.3078ZM1.99951 70.7483V69.5796H-2.00049V70.7483H1.99951ZM1.00616 66.0727L79.3762 20.4236L77.3629 16.9672L-1.00713 62.6163L1.00616 66.0727ZM79.3762 20.4236C87.2208 15.8542 93.2114 8.90571 96.6642 0.782631L92.983 -0.782142C89.8598 6.56541 84.4451 12.842 77.3629 16.9672L79.3762 20.4236ZM93.7321 2.00024H94.8236V-1.99976H93.7321V2.00024ZM91.9004 -0.802794C88.8378 6.18291 83.6343 12.1456 76.8645 16.0888L78.8778 19.5452C86.3965 15.1657 92.1689 8.54698 95.5638 0.803282L91.9004 -0.802794ZM76.8645 16.0888L-1.00713 61.4476L1.00616 64.904L78.8778 19.5452L76.8645 16.0888ZM1.99951 64.3445V63.1758H-2.00049V64.3445H1.99951ZM72.9403 13.1395L-1.00713 56.2126L1.00616 59.669L74.9536 16.5959L72.9403 13.1395ZM86.5787 -0.951866C83.4514 4.82529 78.7812 9.73732 72.9403 13.1395L74.9536 16.5959C81.4431 12.8159 86.6274 7.36054 90.0964 0.952355L86.5787 -0.951866ZM87.1924 2.00024H88.3376V-1.99976H87.1924V2.00024ZM74.4552 15.7176C80.609 12.1331 85.5588 7.00387 88.9369 0.978281L85.4478 -0.977793C82.4111 4.43888 77.965 9.04406 72.4419 12.2612L74.4552 15.7176ZM1.00616 58.5003L74.4552 15.7176L72.4419 12.2612L-1.00713 55.0439L1.00616 58.5003ZM1.99951 57.9408V56.7721H-2.00049V57.9408H1.99951ZM1.00616 53.2652L70.5309 12.7683L68.5176 9.31193L-1.00713 49.8088L1.00616 53.2652ZM70.5309 12.7683C75.5944 9.81896 79.84 5.81913 83.0607 1.13305L79.7641 -1.13256C76.8713 3.07657 73.0604 6.66584 68.5176 9.31193L70.5309 12.7683ZM80.1855 2.00024H81.4124V-1.99976H80.1855V2.00024ZM78.5596 -1.16446C75.7999 2.68796 72.234 5.97852 68.0192 8.43357L70.0325 11.89C74.7445 9.14533 78.7294 5.46722 81.8114 1.16495L78.5596 -1.16446ZM68.0192 8.43358L-1.00713 48.6402L1.00616 52.0966L70.0325 11.89L68.0192 8.43358ZM1.99951 51.537V50.3684H-2.00049V51.537H1.99951ZM64.095 5.4843L-1.00713 43.4051L1.00616 46.8615L66.1083 8.94069L64.095 5.4843ZM72.399 -1.32564C70.0408 1.33756 67.2507 3.64616 64.095 5.4843L66.1083 8.94069C69.6375 6.88498 72.7576 4.30311 75.3937 1.32613L72.399 -1.32564ZM72.537 2.00024H73.8964V-1.99976H72.537V2.00024ZM65.6098 8.06237C68.7598 6.22755 71.575 3.96227 73.9991 1.36483L71.0748 -1.36435C68.9134 0.95157 66.4042 2.97056 63.5965 4.60597L65.6098 8.06237ZM1.00616 45.6928L65.6098 8.06237L63.5965 4.60597L-1.00713 42.2364L1.00616 45.6928ZM1.99951 45.1333V43.9646H-2.00049V45.1333H1.99951ZM1.00616 40.4577L61.6856 5.11306L59.6723 1.65666L-1.00713 37.0013L1.00616 40.4577ZM61.6856 5.11306C63.4989 4.05683 65.201 2.85722 66.781 1.53311L64.2117 -1.53262C62.8042 -0.35308 61.288 0.715576 59.6723 1.65666L61.6856 5.11306ZM63.8917 2.00024H65.4963V-1.99976H63.8917V2.00024ZM62.6645 -1.57902C61.5628 -0.722918 60.3978 0.0654427 59.1739 0.778332L61.1872 4.23473C62.5655 3.43189 63.8777 2.5439 65.1188 1.57951L62.6645 -1.57902ZM59.1739 0.778333L-1.00713 35.8327L1.00616 39.2891L61.1872 4.23473L59.1739 0.778333ZM1.99951 38.7295V37.5609H-2.00049V38.7295H1.99951ZM54.489 -1.72795L-1.00713 30.5976L1.00616 34.054L56.5023 1.72844L54.489 -1.72795ZM53.4894 2.00024H55.4957V-1.99976H53.4894V2.00024ZM1.00616 32.8853L54.4961 1.72844L52.4828 -1.72795L-1.00713 29.4289L1.00616 32.8853ZM1.99951 32.3258V31.1571H-2.00049V32.3258H1.99951ZM1.00616 27.6502L45.5084 1.72844L43.4951 -1.72795L-1.00713 24.1938L1.00616 27.6502ZM42.4955 2.00024H44.5018V-1.99976H42.4955V2.00024ZM41.4888 -1.72795L-1.00713 23.0252L1.00616 26.4816L43.5021 1.72844L41.4888 -1.72795ZM1.99951 25.922V24.7534H-2.00049V25.922H1.99951ZM32.5013 -1.72795L-1.00713 17.7901L1.00616 21.2465L34.5146 1.72844L32.5013 -1.72795ZM31.5016 2.00024H33.5079V-1.99976H31.5016V2.00024ZM1.00616 20.0778L32.5083 1.72844L30.495 -1.72795L-1.00713 16.6214L1.00616 20.0778ZM1.99951 19.5183V18.3496H-2.00049V19.5183H1.99951ZM1.00615 14.8428L23.5207 1.72844L21.5075 -1.72795L-1.00713 11.3864L1.00615 14.8428ZM20.5077 2.00024H22.5141V-1.99976H20.5077V2.00024ZM19.5011 -1.72795L-1.00713 10.2177L1.00616 13.6741L21.5144 1.72844L19.5011 -1.72795ZM1.99951 13.1146V11.9459H-2.00049V13.1146H1.99951ZM10.5135 -1.72795L-0.892663 4.91591L1.12062 8.37231L12.5268 1.72844L10.5135 -1.72795ZM9.51384 2.00024H11.5201V-1.99976H9.51384V2.00024ZM1.48703 6.99026L10.5205 1.72844L8.50719 -1.72795L-0.526255 3.53386L1.48703 6.99026ZM2.08545 6.98074C2.14636 6.624 2.23874 6.27837 2.3596 5.94656L-1.39883 4.57755C-1.60118 5.13308 -1.75572 5.71147 -1.85749 6.30748L2.08545 6.98074Z" fill="url(#paint0_linear)" mask="url(#path-1-inside-1)"/>
<defs>
<linearGradient id="paint0_linear" x1="-0.000488281" y1="58.6885" x2="163" y2="58.6771" gradientUnits="userSpaceOnUse">
<stop stop-color="#38D499"/>
<stop offset="0.319738" stop-color="#A0D1F1"/>
<stop offset="0.5" stop-color="#279EEF"/>
<stop offset="0.669572" stop-color="#443DF6"/>
<stop offset="1" stop-color="#9E68EF"/>
</linearGradient>
</defs>
</svg>
