<svg width="24" height="24" viewBox="0 0 24 24" fill="none" xmlns="http://www.w3.org/2000/svg">
<rect x="4" y="4" width="16" height="16" rx="4" fill="#7B61FF"/>
<mask id="mask0" mask-type="alpha" maskUnits="userSpaceOnUse" x="4" y="4" width="16" height="16">
<rect x="4" y="4" width="16" height="16" rx="4" fill="#7B61FF"/>
</mask>
<g mask="url(#mask0)">
<path d="M19.9995 16.4994V15.7311L17.5176 14.1051H19.9995V13.2629H13.2627V19.9997H14.1048V14.8891L19.4463 18.3888C19.6355 18.0943 19.7816 17.7694 19.876 17.4233" fill="white"/>
<path d="M4.23534 17.7636C4.32059 17.9836 4.42728 18.1929 4.55309 18.3888L9.89466 14.8891V19.9997H10.7367V13.2629H4V14.1051H6.48182L4 15.7311V16.4997C4 16.6343 4.00787 16.767 4.02266 16.8977" fill="white"/>
<path d="M4 7.61893V8.26864L6.48182 9.89469H4V10.7368H10.7368V4H9.89469V9.11057L4.55309 5.61092C4.3455 5.93414 4.18978 6.29379 4.09731 6.6781" fill="white"/>
<path d="M19.7595 6.22401C19.6751 6.00842 19.5699 5.8032 19.4463 5.61089L14.1048 9.11057V4H13.2627V10.7368H19.9995V9.89469H17.5176L19.9995 8.26864V7.49996C19.9995 7.36059 19.9911 7.22315 19.9752 7.08803" fill="white"/>
<path d="M13.2631 4H10.7368V10.7368H4V13.2631H10.7368V19.9998H13.2631V13.2631H19.9998V10.7368H13.2631V4Z" fill="#FF5655"/>
<path d="M8.32558 14.1053L4.02344 16.8979C4.05762 17.1998 4.13012 17.4901 4.23615 17.7638L9.87231 14.1052H8.32558V14.1053Z" fill="#FF5655"/>
<path d="M14.7646 14.1053L19.8767 17.4235C19.9569 17.1293 20.0001 16.8197 20.0001 16.4999V16.4996L16.3114 14.1052L14.7646 14.1053Z" fill="#FF5655"/>
<path d="M9.05257 9.89457L4.09731 6.67798C4.03384 6.9416 4 7.21675 4 7.49984V7.61881L7.50584 9.89457H9.05257Z" fill="#FF5655"/>
<path d="M15.6522 9.89452L19.9759 7.08787C19.9405 6.7865 19.8671 6.49681 19.7602 6.22388L14.1055 9.89452H15.6522Z" fill="#FF5655"/>
</g>
</svg>
