<svg width="54" height="60" viewBox="0 0 54 60" fill="none" xmlns="http://www.w3.org/2000/svg">
<path opacity="0.2" fill-rule="evenodd" clip-rule="evenodd" d="M30.1177 0.829512C28.1885 -0.276504 25.8115 -0.276504 23.8823 0.829513L3.11769 12.7337C1.18846 13.8397 0 15.8837 0 18.0958V41.9042C0 44.1162 1.18846 46.1603 3.11769 47.2663L23.8823 59.1705C25.8115 60.2765 28.1885 60.2765 30.1177 59.1705L50.8823 47.2663C52.8115 46.1603 54 44.1163 54 41.9042V18.0958C54 15.8837 52.8115 13.8397 50.8823 12.7337L30.1177 0.829512Z" fill="#38D47E"/>
<path d="M22.3645 37.2795C20.6178 37.2795 19.2445 36.6195 18.2445 35.2995C17.2578 33.9662 16.7645 32.1995 16.7645 29.9995C16.7645 27.7995 17.2578 26.0395 18.2445 24.7195C19.2445 23.3862 20.6178 22.7195 22.3645 22.7195C24.1245 22.7195 25.4978 23.3862 26.4845 24.7195C27.4711 26.0395 27.9645 27.7995 27.9645 29.9995C27.9645 32.1995 27.4711 33.9662 26.4845 35.2995C25.4978 36.6195 24.1245 37.2795 22.3645 37.2795ZM20.2445 33.4195C20.7245 34.1928 21.4311 34.5795 22.3645 34.5795C23.2978 34.5795 24.0045 34.1862 24.4845 33.3995C24.9778 32.6128 25.2245 31.4795 25.2245 29.9995C25.2245 28.5062 24.9778 27.3662 24.4845 26.5795C24.0045 25.7928 23.2978 25.3995 22.3645 25.3995C21.4311 25.3995 20.7245 25.7928 20.2445 26.5795C19.7645 27.3662 19.5245 28.5062 19.5245 29.9995C19.5245 31.4928 19.7645 32.6328 20.2445 33.4195ZM28.8505 36.9995V34.9395L33.6305 30.0195C34.6972 28.8995 35.2305 27.9662 35.2305 27.2195C35.2305 26.6728 35.0572 26.2328 34.7105 25.8995C34.3772 25.5662 33.9439 25.3995 33.4105 25.3995C32.3572 25.3995 31.5772 25.9462 31.0705 27.0395L28.7505 25.6795C29.1905 24.7195 29.8239 23.9862 30.6505 23.4795C31.4772 22.9728 32.3839 22.7195 33.3705 22.7195C34.6372 22.7195 35.7239 23.1195 36.6305 23.9195C37.5372 24.7062 37.9905 25.7728 37.9905 27.1195C37.9905 28.5728 37.2239 30.0662 35.6905 31.5995L32.9505 34.3395H38.2105V36.9995H28.8505Z" fill="#38D47E"/>
</svg>
