<svg width="54" height="60" viewBox="0 0 54 60" fill="none" xmlns="http://www.w3.org/2000/svg">
<path opacity="0.2" fill-rule="evenodd" clip-rule="evenodd" d="M30.1177 0.829512C28.1885 -0.276504 25.8115 -0.276504 23.8823 0.829513L3.11769 12.7337C1.18846 13.8397 0 15.8837 0 18.0958V41.9042C0 44.1162 1.18846 46.1603 3.11769 47.2663L23.8823 59.1705C25.8115 60.2765 28.1885 60.2765 30.1177 59.1705L50.8823 47.2663C52.8115 46.1603 54 44.1163 54 41.9042V18.0958C54 15.8837 52.8115 13.8397 50.8823 12.7337L30.1177 0.829512Z" fill="#38D47E"/>
<path d="M23.3293 37.2795C21.5826 37.2795 20.2093 36.6195 19.2093 35.2995C18.2226 33.9662 17.7293 32.1995 17.7293 29.9995C17.7293 27.7995 18.2226 26.0395 19.2093 24.7195C20.2093 23.3862 21.5826 22.7195 23.3293 22.7195C25.0893 22.7195 26.4626 23.3862 27.4493 24.7195C28.436 26.0395 28.9293 27.7995 28.9293 29.9995C28.9293 32.1995 28.436 33.9662 27.4493 35.2995C26.4626 36.6195 25.0893 37.2795 23.3293 37.2795ZM21.2093 33.4195C21.6893 34.1928 22.396 34.5795 23.3293 34.5795C24.2626 34.5795 24.9693 34.1862 25.4493 33.3995C25.9426 32.6128 26.1893 31.4795 26.1893 29.9995C26.1893 28.5062 25.9426 27.3662 25.4493 26.5795C24.9693 25.7928 24.2626 25.3995 23.3293 25.3995C22.396 25.3995 21.6893 25.7928 21.2093 26.5795C20.7293 27.3662 20.4893 28.5062 20.4893 29.9995C20.4893 31.4928 20.7293 32.6328 21.2093 33.4195ZM33.1363 22.9995H35.5363V36.9995H32.7763V25.9195L30.1363 26.6595L29.4563 24.2995L33.1363 22.9995Z" fill="#38D47E"/>
</svg>
