<svg width="54" height="60" viewBox="0 0 54 60" fill="none" xmlns="http://www.w3.org/2000/svg">
<path opacity="0.2" fill-rule="evenodd" clip-rule="evenodd" d="M30.1177 0.829512C28.1885 -0.276504 25.8115 -0.276504 23.8823 0.829513L3.11769 12.7337C1.18846 13.8397 0 15.8837 0 18.0958V41.9042C0 44.1162 1.18846 46.1603 3.11769 47.2663L23.8823 59.1705C25.8115 60.2765 28.1885 60.2765 30.1177 59.1705L50.8823 47.2663C52.8115 46.1603 54 44.1163 54 41.9042V18.0958C54 15.8837 52.8115 13.8397 50.8823 12.7337L30.1177 0.829512Z" fill="#38D47E"/>
<path fill-rule="evenodd" clip-rule="evenodd" d="M27.4988 40.5851L35.2969 28.8878C35.6033 28.4283 35.4791 27.8074 35.0196 27.5011C34.8553 27.3916 34.6623 27.3331 34.4649 27.3331H28.3334V19.9692C28.3334 19.417 27.8857 18.9692 27.3334 18.9692C26.9991 18.9692 26.6868 19.1363 26.5014 19.4145L18.7032 31.1118C18.3969 31.5713 18.521 32.1922 18.9806 32.4985C19.1448 32.608 19.3378 32.6665 19.5353 32.6665H25.6667V40.0304C25.6667 40.5826 26.1145 41.0304 26.6667 41.0304C27.0011 41.0304 27.3133 40.8633 27.4988 40.5851Z" stroke="#38D47E" stroke-width="2"/>
</svg>
