<svg width="54" height="60" viewBox="0 0 54 60" fill="none" xmlns="http://www.w3.org/2000/svg">
<path opacity="0.2" fill-rule="evenodd" clip-rule="evenodd" d="M30.1177 0.829512C28.1885 -0.276504 25.8115 -0.276504 23.8823 0.829513L3.11769 12.7337C1.18846 13.8397 0 15.8837 0 18.0958V41.9042C0 44.1162 1.18846 46.1603 3.11769 47.2663L23.8823 59.1705C25.8115 60.2765 28.1885 60.2765 30.1177 59.1705L50.8823 47.2663C52.8115 46.1603 54 44.1163 54 41.9042V18.0958C54 15.8837 52.8115 13.8397 50.8823 12.7337L30.1177 0.829512Z" fill="#38D47E"/>
<path d="M34.0287 25.5809C33.5241 25.0447 33.5496 24.2008 34.0859 23.6961C34.6221 23.1915 35.4659 23.217 35.9706 23.7533L41.304 29.4199C41.7872 29.9333 41.7872 30.7342 41.304 31.2476L35.9706 36.9142C35.4659 37.4505 34.6221 37.476 34.0859 36.9714C33.5496 36.4667 33.5241 35.6228 34.0287 35.0866L38.502 30.3337L34.0287 25.5809ZM19.9706 25.5809L15.4973 30.3337L19.9706 35.0866C20.4753 35.6228 20.4497 36.4667 19.9135 36.9713C19.3773 37.476 18.5334 37.4505 18.0287 36.9142L12.6954 31.2476C12.2122 30.7342 12.2122 29.9333 12.6954 29.4199L18.0287 23.7533C18.5334 23.217 19.3773 23.1915 19.9135 23.6961C20.4497 24.2008 20.4753 25.0447 19.9706 25.5809Z" fill="#38D47E"/>
<path opacity="0.3" d="M30.7034 21.3306C30.894 20.6193 30.4718 19.8882 29.7606 19.6976C29.0493 19.507 28.3182 19.9292 28.1276 20.6404L23.2963 38.6711C23.1057 39.3823 23.5278 40.1135 24.2391 40.3041C24.9504 40.4946 25.6815 40.0725 25.8721 39.3612L30.7034 21.3306Z" fill="#38D47E"/>
</svg>
