<svg width="54" height="60" viewBox="0 0 54 60" fill="none" xmlns="http://www.w3.org/2000/svg">
<path opacity="0.2" fill-rule="evenodd" clip-rule="evenodd" d="M30.1177 0.829512C28.1885 -0.276504 25.8115 -0.276504 23.8823 0.829513L3.11769 12.7337C1.18846 13.8397 0 15.8837 0 18.0958V41.9042C0 44.1162 1.18846 46.1603 3.11769 47.2663L23.8823 59.1705C25.8115 60.2765 28.1885 60.2765 30.1177 59.1705L50.8823 47.2663C52.8115 46.1603 54 44.1163 54 41.9042V18.0958C54 15.8837 52.8115 13.8397 50.8823 12.7337L30.1177 0.829512Z" fill="#38D47E"/>
<path d="M27.4961 19.2403L36.1669 24.195C36.4785 24.3731 36.6708 24.7044 36.6708 25.0633V34.9372C36.6708 35.2961 36.4785 35.6274 36.1669 35.8055L27.4961 40.7602C27.1886 40.9359 26.8112 40.9359 26.5038 40.7602L17.833 35.8055C17.5214 35.6274 17.3291 35.2961 17.3291 34.9372V25.0633C17.3291 24.7044 17.5214 24.3731 17.833 24.195L26.5038 19.2403C26.8112 19.0646 27.1886 19.0646 27.4961 19.2403ZM26.9999 34.3336C29.3932 34.3336 31.3333 32.3935 31.3333 30.0003C31.3333 27.607 29.3932 25.6669 26.9999 25.6669C24.6067 25.6669 22.6666 27.607 22.6666 30.0003C22.6666 32.3935 24.6067 34.3336 26.9999 34.3336Z" stroke="#38D47E" stroke-width="2"/>
</svg>
