<svg width="54" height="60" viewBox="0 0 54 60" fill="none" xmlns="http://www.w3.org/2000/svg">
<path opacity="0.2" fill-rule="evenodd" clip-rule="evenodd" d="M30.1177 0.829512C28.1885 -0.276504 25.8115 -0.276504 23.8823 0.829513L3.11769 12.7337C1.18846 13.8397 0 15.8837 0 18.0958V41.9042C0 44.1162 1.18846 46.1603 3.11769 47.2663L23.8823 59.1705C25.8115 60.2765 28.1885 60.2765 30.1177 59.1705L50.8823 47.2663C52.8115 46.1603 54 44.1163 54 41.9042V18.0958C54 15.8837 52.8115 13.8397 50.8823 12.7337L30.1177 0.829512Z" fill="#38D47E"/>
<path d="M17.6665 28C17.6665 22 21.6665 18 27.6665 18C33.6665 18 37.6665 23 37.6665 28C37.6665 31.1101 34.7647 35.3809 28.9612 40.8124C28.2204 41.5057 27.0778 41.5344 26.3031 40.8793C20.5454 36.0104 17.6665 31.7173 17.6665 28ZM27.6665 30C29.5075 30 30.9998 28.5076 30.9998 26.6667C30.9998 24.8257 29.5075 23.3333 27.6665 23.3333C25.8256 23.3333 24.3332 24.8257 24.3332 26.6667C24.3332 28.5076 25.8256 30 27.6665 30Z" fill="#38D47E"/>
</svg>
