<svg width="54" height="60" viewBox="0 0 54 60" fill="none" xmlns="http://www.w3.org/2000/svg">
<path opacity="0.2" fill-rule="evenodd" clip-rule="evenodd" d="M30.1177 0.829512C28.1885 -0.276504 25.8115 -0.276504 23.8823 0.829513L3.11769 12.7337C1.18846 13.8397 0 15.8837 0 18.0958V41.9042C0 44.1162 1.18846 46.1603 3.11769 47.2663L23.8823 59.1705C25.8115 60.2765 28.1885 60.2765 30.1177 59.1705L50.8823 47.2663C52.8115 46.1603 54 44.1163 54 41.9042V18.0958C54 15.8837 52.8115 13.8397 50.8823 12.7337L30.1177 0.829512Z" fill="#38D47E"/>
<path d="M22.3352 37.2795C20.5885 37.2795 19.2152 36.6195 18.2152 35.2995C17.2285 33.9662 16.7352 32.1995 16.7352 29.9995C16.7352 27.7995 17.2285 26.0395 18.2152 24.7195C19.2152 23.3862 20.5885 22.7195 22.3352 22.7195C24.0952 22.7195 25.4685 23.3862 26.4552 24.7195C27.4418 26.0395 27.9352 27.7995 27.9352 29.9995C27.9352 32.1995 27.4418 33.9662 26.4552 35.2995C25.4685 36.6195 24.0952 37.2795 22.3352 37.2795ZM20.2152 33.4195C20.6952 34.1928 21.4018 34.5795 22.3352 34.5795C23.2685 34.5795 23.9752 34.1862 24.4552 33.3995C24.9485 32.6128 25.1952 31.4795 25.1952 29.9995C25.1952 28.5062 24.9485 27.3662 24.4552 26.5795C23.9752 25.7928 23.2685 25.3995 22.3352 25.3995C21.4018 25.3995 20.6952 25.7928 20.2152 26.5795C19.7352 27.3662 19.4952 28.5062 19.4952 29.9995C19.4952 31.4928 19.7352 32.6328 20.2152 33.4195ZM35.1264 28.6795C36.0731 28.9595 36.8397 29.4528 37.4264 30.1595C38.0264 30.8528 38.3264 31.6928 38.3264 32.6795C38.3264 34.1195 37.8397 35.2462 36.8664 36.0595C35.9064 36.8728 34.7264 37.2795 33.3264 37.2795C32.2331 37.2795 31.2531 37.0328 30.3864 36.5395C29.5331 36.0328 28.9131 35.2928 28.5264 34.3195L30.8864 32.9595C31.2331 34.0395 32.0464 34.5795 33.3264 34.5795C34.0331 34.5795 34.5797 34.4128 34.9664 34.0795C35.3664 33.7328 35.5664 33.2662 35.5664 32.6795C35.5664 32.1062 35.3664 31.6462 34.9664 31.2995C34.5797 30.9528 34.0331 30.7795 33.3264 30.7795H32.7264L31.6664 29.1795L34.4264 25.5795H28.9464V22.9995H37.7464V25.2795L35.1264 28.6795Z" fill="#38D47E"/>
</svg>
