<svg width="54" height="61" viewBox="0 0 54 61" fill="none" xmlns="http://www.w3.org/2000/svg">
<path opacity="0.2" fill-rule="evenodd" clip-rule="evenodd" d="M30.1177 1.02458C28.1885 -0.081436 25.8115 -0.0814357 23.8823 1.02458L3.11769 12.9288C1.18846 14.0348 0 16.0788 0 18.2909V42.0993C0 44.3113 1.18846 46.3553 3.11769 47.4613L23.8823 59.3656C25.8115 60.4716 28.1885 60.4716 30.1177 59.3656L50.8823 47.4613C52.8115 46.3553 54 44.3113 54 42.0993V18.2909C54 16.0788 52.8115 14.0348 50.8823 12.9288L30.1177 1.02458Z" fill="#38D47E"/>
<path opacity="0.5" fill-rule="evenodd" clip-rule="evenodd" d="M16.3369 30.4627L28.3336 32.862V19.6112C33.5954 20.2673 37.667 24.7559 37.667 30.1953C37.667 36.0864 32.8913 40.862 27.0003 40.862C21.1986 40.862 16.4788 36.2302 16.3369 30.4627Z" stroke="#38D47E" stroke-width="2"/>
<path fill-rule="evenodd" clip-rule="evenodd" d="M15.0811 27.5445C15.73 22.275 20.2222 18.1951 25.6672 18.1951V29.6617L15.0811 27.5445Z" stroke="#38D47E" stroke-width="2"/>
</svg>
