<svg width="54" height="60" viewBox="0 0 54 60" fill="none" xmlns="http://www.w3.org/2000/svg">
<path opacity="0.2" fill-rule="evenodd" clip-rule="evenodd" d="M30.1177 0.829512C28.1885 -0.276504 25.8115 -0.276504 23.8823 0.829513L3.11769 12.7337C1.18846 13.8397 0 15.8837 0 18.0958V41.9042C0 44.1162 1.18846 46.1603 3.11769 47.2663L23.8823 59.1705C25.8115 60.2765 28.1885 60.2765 30.1177 59.1705L50.8823 47.2663C52.8115 46.1603 54 44.1163 54 41.9042V18.0958C54 15.8837 52.8115 13.8397 50.8823 12.7337L30.1177 0.829512Z" fill="#38D47E"/>
<path d="M22.201 42C18.8769 33.2088 25.9006 29.999 25.9006 29.999C25.4092 34.69 28.7307 38.3446 28.7307 38.3446C29.9523 38.0488 32.2839 36.6663 32.2839 36.6663C32.2839 38.3446 31.0536 41.9979 31.0536 41.9979C31.0536 41.9979 35.3606 39.3251 36.7163 34.8858C38.0704 30.4465 34.1372 25.9897 34.1372 25.9897C34.3742 29.1318 33.0498 32.2221 30.455 34.583C30.5848 34.4627 30.6938 34.3291 30.7774 34.1844C31.2436 33.4361 31.992 31.4913 31.5537 26.9877C30.9369 20.6658 23.7998 18 23.7998 18C24.415 21.8519 22.5704 22.7393 18.2495 30.0507C13.9286 37.3607 22.201 42 22.201 42Z" stroke="#38D47E" stroke-width="2"/>
</svg>
