<svg width="24" height="24" viewBox="0 0 24 24" fill="none" xmlns="http://www.w3.org/2000/svg">
<path d="M20 8.00029C20 5.79104 18.209 4.00014 15.9997 4.00016C13.3331 4.00019 10.6665 4.00009 7.99996 4.00004C5.79084 3.99999 4 5.79084 4 7.99996L4 9.33324L20 9.33324L20 8.00029Z" fill="#EEEFF1"/>
<path d="M20 9.3335L4 9.3335L4 14.6667L20 14.6667L20 9.3335Z" fill="#7B61FF"/>
<path d="M20 14.6667L4 14.6667L4 16C4 18.2091 5.79086 20 8 20L16 20C18.2091 20 20 18.2091 20 16L20 14.6667Z" fill="#FF5655"/>
</svg>
