<svg width="25" height="24" viewBox="0 0 25 24" fill="none" xmlns="http://www.w3.org/2000/svg">
<g clip-path="url(#clip0)">
<path fill-rule="evenodd" clip-rule="evenodd" d="M12.7451 18.0005C16.0588 18.0005 18.7451 15.3142 18.7451 12.0005C18.7451 8.68678 16.0588 6.00049 12.7451 6.00049C9.43141 6.00049 6.74512 8.68678 6.74512 12.0005C6.74512 15.3142 9.43141 18.0005 12.7451 18.0005Z" fill="#9A9BA2"/>
<path fill-rule="evenodd" clip-rule="evenodd" d="M11.7451 0.000488281H13.7451V4.06238C13.4175 4.02153 13.0838 4.00049 12.7451 4.00049C12.4065 4.00049 12.0727 4.02153 11.7451 4.06238V0.000488281ZM7.83942 5.68067L4.96685 2.8081L3.55264 4.22231L6.42522 7.0949C6.83583 6.56667 7.3112 6.09129 7.83942 5.68067ZM4.80701 11.0005H0.745117V13.0005H4.80701C4.76616 12.6729 4.74512 12.3391 4.74512 12.0005C4.74512 11.6618 4.76616 11.3281 4.80701 11.0005ZM6.42522 16.9061L3.55263 19.7787L4.96684 21.1929L7.83942 18.3203C7.3112 17.9097 6.83583 17.4343 6.42522 16.9061ZM11.7451 19.9386V24.0005H13.7451V19.9386C13.4175 19.9794 13.0838 20.0005 12.7451 20.0005C12.4065 20.0005 12.0727 19.9794 11.7451 19.9386ZM17.6507 18.3204L20.5232 21.1929L21.9374 19.7787L19.0649 16.9062C18.6543 17.4344 18.1789 17.9098 17.6507 18.3204ZM20.6832 13.0005H24.7451V11.0005H20.6832C20.7241 11.3281 20.7451 11.6618 20.7451 12.0005C20.7451 12.3391 20.7241 12.6729 20.6832 13.0005ZM19.0649 7.09479L21.9374 4.22232L20.5232 2.80811L17.6507 5.68059C18.1789 6.0912 18.6543 6.56657 19.0649 7.09479Z" fill="#9A9BA2"/>
</g>
<defs>
<clipPath id="clip0">
<rect width="24" height="24" fill="white" transform="translate(0.746094 0.000488281)"/>
</clipPath>
</defs>
</svg>
