<svg width="73" height="78" viewBox="0 0 73 78" fill="none" xmlns="http://www.w3.org/2000/svg">
<mask id="path-1-inside-1" fill="white">
<path fill-rule="evenodd" clip-rule="evenodd" d="M0 71.6562L41.4418 47.7442C57.876 38.2616 68 20.737 68 1.77183V-0.000244141L67 -0.000244141V1.77183C67 20.3764 57.0685 37.5699 40.9434 46.8741L0 70.4986L0 71.6562ZM0 76.8421L45.3661 50.6657C61.8484 41.1554 72 23.5809 72 4.56405V-0.000244141L73 -0.000244141V4.56405C73 23.9415 62.6559 41.8471 45.8645 51.5358L0 77.9997L0 76.8421ZM0 65.3127L37.0192 43.9525C52.801 34.8463 62.6343 18.1592 62.99 -0.000244141L61.9898 -0.000244141C61.6343 17.7986 51.9935 34.1547 36.5208 43.0825L0 64.1551L0 65.3127ZM0 58.9692L32.5966 40.1609C47.2085 31.7298 56.6052 16.6523 57.857 -0.000244141L56.8541 -0.000244141C55.6044 16.2915 46.4006 31.0383 32.0981 39.2908L0 57.8116L0 58.9692ZM0 52.6257L28.1739 36.3693C41.6066 28.6185 50.5294 15.1203 52.5591 -0.000244141L51.5499 -0.000244141C49.5268 14.7588 40.7982 27.9274 27.6755 35.4992L0 51.468L0 52.6257ZM0 46.2822L23.7513 32.5776C35.9926 25.5143 44.3993 13.5642 47.081 -0.000244141L46.061 -0.000244141C43.3933 13.2016 35.1832 24.8237 23.2528 31.7076L0 45.1245L0 46.2822ZM0 39.9386L19.3286 28.786C30.3624 22.4194 38.2049 11.9858 41.4031 -0.000244141L40.367 -0.000244141C37.1934 11.6217 29.5514 21.7297 18.8302 27.9159L0 38.781L0 39.9386ZM0 33.5951L14.9059 24.9943C24.711 19.3368 31.9329 10.3872 35.5006 -0.000244141L34.4414 -0.000244141C30.9131 10.0216 23.8974 18.6486 14.4075 24.1243L0 32.4375L0 33.5951ZM0 27.2516L10.4833 21.2027C19.0313 16.2705 25.5657 8.77206 29.34 -0.000244141L28.2484 -0.000244141C24.5335 8.40493 18.2138 15.5846 9.98486 20.3327L0 26.094L0 27.2516ZM0 20.9081L6.06064 17.4111C13.3134 13.2262 19.0785 7.14527 22.8754 -0.000244141L21.7383 -0.000244141C18.0275 6.77726 12.4896 12.5439 5.56223 16.541L0 19.7505L0 20.9081ZM0 14.5646L1.638 13.6195C7.54265 10.2125 12.4346 5.51482 16.0404 -0.000244141L14.8381 -0.000244141C11.3548 5.14739 6.70863 9.53605 1.13959 12.7494L0 13.407L0 14.5646ZM0 8.071C3.31867 5.7889 6.24987 3.06305 8.73219 -0.000244141L8 -0.000244141C7.80315 -0.000244141 7.60797 0.00686534 7.41469 0.0208415C5.28071 2.54429 2.82727 4.81965 0.092196 6.78133C0.0314861 7.17862 0 7.58552 0 7.99977L0 8.071Z"/>
</mask>
<path d="M0 71.6562H-1L-1 73.3878L0.499774 72.5224L0 71.6562ZM41.4418 47.7442L41.9416 48.6103V48.6103L41.4418 47.7442ZM68 -0.000244141L69 -0.000244141V-1.00024H68V-0.000244141ZM67 -0.000244141V-1.00024L66 -1.00024V-0.000244141L67 -0.000244141ZM40.9434 46.8741L41.4432 47.7403V47.7403L40.9434 46.8741ZM0 70.4986L-0.499774 69.6324L-1 69.9211L-1 70.4986H0ZM0 76.8421L-0.499774 75.9759L-1 76.2646L-1 76.8421H0ZM45.3661 50.6657L44.8663 49.7996V49.7996L45.3661 50.6657ZM72 -0.000244141V-1.00024L71 -1.00024V-0.000244141L72 -0.000244141ZM73 -0.000244141L74 -0.000244141V-1.00024L73 -1.00024V-0.000244141ZM45.8645 51.5358L45.3647 50.6696V50.6696L45.8645 51.5358ZM0 77.9997H-1L-1 79.7313L0.499775 78.8659L0 77.9997ZM37.0192 43.9525L37.519 44.8187V44.8187L37.0192 43.9525ZM0 65.3127H-1L-1 67.0442L0.499774 66.1788L0 65.3127ZM62.99 -0.000244141L63.9898 0.0193383L64.0098 -1.00024H62.99V-0.000244141ZM61.9898 -0.000244141V-1.00024H61.0096L60.99 -0.020215L61.9898 -0.000244141ZM36.5208 43.0825L37.0206 43.9486V43.9486L36.5208 43.0825ZM0 64.1551L-0.499774 63.2889L-1 63.5775L-1 64.1551H0ZM0 58.9692H-1L-1 60.7007L0.499774 59.8354L0 58.9692ZM32.5966 40.1609L32.0968 39.2947L32.5966 40.1609ZM57.857 -0.000244141L58.8542 0.0747173L58.935 -1.00024L57.857 -1.00024V-0.000244141ZM56.8541 -0.000244141V-1.00024H55.9279L55.857 -0.0767281L56.8541 -0.000244141ZM32.0981 39.2908L32.5979 40.157V40.157L32.0981 39.2908ZM0 57.8116L-0.499774 56.9454L-1 57.234L-1 57.8116H0ZM28.1739 36.3693L27.6741 35.5031V35.5031L28.1739 36.3693ZM0 52.6257H-1L-1 54.3572L0.499774 53.4918L0 52.6257ZM52.5591 -0.000244141L53.5502 0.132795L53.7023 -1.00024L52.5591 -1.00024V-0.000244141ZM51.5499 -0.000244141V-1.00024H50.6776L50.5591 -0.136049L51.5499 -0.000244141ZM27.6755 35.4992L28.1753 36.3654V36.3654L27.6755 35.4992ZM0 51.468L-0.499774 50.6019L-1 50.8905L-1 51.468H0ZM0 46.2822H-1L-1 48.0137L0.499774 47.1483L0 46.2822ZM23.7513 32.5776L23.2515 31.7115H23.2515L23.7513 32.5776ZM47.081 -0.000244141L48.062 0.193696L48.298 -1.00024L47.081 -1.00024V-0.000244141ZM46.061 -0.000244141V-1.00024H45.2429L45.0808 -0.198311L46.061 -0.000244141ZM23.2528 31.7076L23.7526 32.5737V32.5737L23.2528 31.7076ZM0 45.1245L-0.499774 44.2584L-1 44.547L-1 45.1245H0ZM19.3286 28.786L18.8288 27.9198H18.8288L19.3286 28.786ZM0 39.9386H-1L-1 41.6702L0.499774 40.8048L0 39.9386ZM41.4031 -0.000244141L42.3693 0.257567L42.7049 -1.00024L41.4031 -1.00024V-0.000244141ZM40.367 -0.000244141V-1.00024H39.6035L39.4024 -0.263671L40.367 -0.000244141ZM18.8302 27.9159L19.33 28.7821L18.8302 27.9159ZM0 38.781L-0.499774 37.9148L-1 38.2035L-1 38.781H0ZM0 33.5951H-1L-1 35.3266L0.499774 34.4613L0 33.5951ZM14.9059 24.9943L15.4057 25.8605H15.4057L14.9059 24.9943ZM35.5006 -0.000244141L36.4463 0.324587L36.9014 -1.00024H35.5006V-0.000244141ZM34.4414 -0.000244141V-1.00024H33.7333L33.4981 -0.332321L34.4414 -0.000244141ZM14.4075 24.1243L14.9073 24.9905H14.9073L14.4075 24.1243ZM0 32.4375L-0.499774 31.5713L-1 31.8599L-1 32.4375H0ZM10.4833 21.2027L10.9831 22.0689H10.9831L10.4833 21.2027ZM0 27.2516H-1L-1 28.9831L0.499774 28.1178L0 27.2516ZM29.34 -0.000244141L30.2586 0.394972L30.8588 -1.00024L29.34 -1.00024V-0.000244141ZM28.2484 -0.000244141V-1.00024L27.597 -1.00024L27.3337 -0.404496L28.2484 -0.000244141ZM9.98486 20.3327L10.4846 21.1988H10.4846L9.98486 20.3327ZM0 26.094L-0.499774 25.2278L-1 25.5164L-1 26.094H0ZM0 20.9081H-1L-1 22.6396L0.499774 21.7743L0 20.9081ZM6.06064 17.4111L6.56041 18.2773H6.56041L6.06064 17.4111ZM22.8754 -0.000244141L23.7585 0.468994L24.5392 -1.00024L22.8754 -1.00024V-0.000244141ZM21.7383 -0.000244141V-1.00024H21.1457L20.8611 -0.480489L21.7383 -0.000244141ZM5.56223 16.541L5.06245 15.6749H5.06245L5.56223 16.541ZM0 19.7505L-0.499774 18.8843L-1 19.1729L-1 19.7505H0ZM1.638 13.6195L2.13777 14.4856H2.13778L1.638 13.6195ZM0 14.5646H-1L-1 16.2961L0.499774 15.4308L0 14.5646ZM16.0404 -0.000244141L16.8773 0.546983L17.8889 -1.00024L16.0404 -1.00024V-0.000244141ZM14.8381 -0.000244141V-1.00024H14.3073L14.0098 -0.560663L14.8381 -0.000244141ZM1.13959 12.7494L1.63936 13.6156H1.63936L1.13959 12.7494ZM0 13.407L-0.499774 12.5408L-1 12.8294L-1 13.407H0ZM0 8.071H-1L-1 9.97227L0.566615 8.89498L0 8.071ZM8.73219 -0.000244141L9.50912 0.629337L10.8296 -1.00024L8.73219 -1.00024V-0.000244141ZM7.41469 0.0208415L7.34257 -0.976554L6.92285 -0.946204L6.65112 -0.624881L7.41469 0.0208415ZM0.092196 6.78133L-0.490626 5.96873L-0.832733 6.2141L-0.896329 6.63027L0.092196 6.78133ZM0.499774 72.5224L41.9416 48.6103L40.9421 46.878L-0.499774 70.7901L0.499774 72.5224ZM41.9416 48.6103C58.6852 38.9492 69 21.0946 69 1.77183L67 1.77183C67 20.3795 57.0669 37.5739 40.9421 46.878L41.9416 48.6103ZM69 1.77183V-0.000244141L67 -0.000244141V1.77183L69 1.77183ZM67 0.999756L68 0.999756V-1.00024L67 -1.00024V0.999756ZM66 -0.000244141V1.77183L68 1.77183V-0.000244141L66 -0.000244141ZM66 1.77183C66 20.0189 56.2594 36.8822 40.4436 46.0079L41.4432 47.7403C57.8777 38.2575 68 20.734 68 1.77183L66 1.77183ZM40.4436 46.0079L-0.499774 69.6324L0.499774 71.3647L41.4432 47.7403L40.4436 46.0079ZM1 71.6562L1 70.4986H-1L-1 71.6562H1ZM0.499774 77.7082L45.8658 51.5319L44.8663 49.7996L-0.499774 75.9759L0.499774 77.7082ZM45.8658 51.5319C62.6576 41.843 73 23.9385 73 4.56405H71C71 23.2234 61.0393 40.4677 44.8663 49.7996L45.8658 51.5319ZM73 4.56405V-0.000244141L71 -0.000244141V4.56405H73ZM72 0.999756L73 0.999756V-1.00024H72V0.999756ZM72 -0.000244141V4.56405H74V-0.000244141L72 -0.000244141ZM72 4.56405C72 23.584 61.8468 41.1594 45.3647 50.6696L46.3642 52.402C63.4651 42.5347 74 24.2991 74 4.56405H72ZM45.3647 50.6696L-0.499775 77.1336L0.499775 78.8659L46.3642 52.402L45.3647 50.6696ZM1 77.9997L1 76.8421H-1L-1 77.9997H1ZM36.5194 43.0864L-0.499774 64.4465L0.499774 66.1788L37.519 44.8187L36.5194 43.0864ZM61.9902 -0.0198266C61.6414 17.7896 51.9976 34.1554 36.5194 43.0864L37.519 44.8187C53.6045 35.5373 63.6273 18.5288 63.9898 0.0193383L61.9902 -0.0198266ZM61.9898 0.999756L62.99 0.999756V-1.00024L61.9898 -1.00024V0.999756ZM37.0206 43.9486C52.7968 34.8456 62.6271 18.1685 62.9896 0.0197267L60.99 -0.020215C60.6415 17.4288 51.1901 33.4637 36.021 42.2163L37.0206 43.9486ZM0.499774 65.0212L37.0206 43.9486L36.021 42.2163L-0.499774 63.2889L0.499774 65.0212ZM1 65.3127L1 64.1551H-1L-1 65.3127H1ZM0.499774 59.8354L33.0963 41.027L32.0968 39.2947L-0.499774 58.103L0.499774 59.8354ZM33.0963 41.027C47.9958 32.43 57.5777 17.0557 58.8542 0.0747173L56.8598 -0.0752056C55.6327 16.249 46.4211 31.0296 32.0968 39.2947L33.0963 41.027ZM56.8541 0.999756L57.857 0.999756V-1.00024L56.8541 -1.00024V0.999756ZM55.857 -0.0767281C54.6324 15.8873 45.6136 30.3378 31.5983 38.4247L32.5979 40.157C47.1875 31.7387 56.5763 16.6958 57.8512 0.0762398L55.857 -0.0767281ZM31.5983 38.4247L-0.499774 56.9454L0.499774 58.6777L32.5979 40.157L31.5983 38.4247ZM1 58.9692L1 57.8116H-1L-1 58.9692H1ZM27.6741 35.5031L-0.499774 51.7595L0.499774 53.4918L28.6737 37.2354L27.6741 35.5031ZM51.568 -0.133284C49.5793 14.6822 40.8362 27.9085 27.6741 35.5031L28.6737 37.2354C42.377 29.3285 51.4796 15.5583 53.5502 0.132795L51.568 -0.133284ZM51.5499 0.999756L52.5591 0.999756V-1.00024L51.5499 -1.00024V0.999756ZM28.1753 36.3654C41.5677 28.6378 50.4759 15.1985 52.5406 0.135561L50.5591 -0.136049C48.5777 14.3191 40.0286 27.2169 27.1757 34.6331L28.1753 36.3654ZM0.499774 52.3342L28.1753 36.3654L27.1757 34.6331L-0.499774 50.6019L0.499774 52.3342ZM1 52.6257L1 51.468H-1L-1 52.6257H1ZM0.499774 47.1483L24.251 33.4438L23.2515 31.7115L-0.499774 45.416L0.499774 47.1483ZM24.251 33.4438C36.7449 26.2348 45.325 14.0381 48.062 0.193696L46.0999 -0.194184C43.4737 13.0903 35.2403 24.7939 23.2515 31.7115L24.251 33.4438ZM46.061 0.999756L47.081 0.999756V-1.00024L46.061 -1.00024V0.999756ZM45.0808 -0.198311C42.4693 12.7253 34.4321 24.1026 22.7531 30.8414L23.7526 32.5737C35.9342 25.5449 44.3173 13.6779 47.0412 0.197822L45.0808 -0.198311ZM22.7531 30.8414L-0.499774 44.2584L0.499774 45.9907L23.7526 32.5737L22.7531 30.8414ZM1 46.2822L1 45.1245H-1L-1 46.2822H1ZM18.8288 27.9198L-0.499774 39.0725L0.499774 40.8048L19.8284 29.6521L18.8288 27.9198ZM40.4369 -0.258055C37.3063 11.4747 29.6295 21.6878 18.8288 27.9198L19.8284 29.6521C31.0954 23.151 39.1035 12.4968 42.3693 0.257567L40.4369 -0.258055ZM40.367 0.999756L41.4031 0.999756V-1.00024L40.367 -1.00024V0.999756ZM19.33 28.7821C30.2827 22.4624 38.0896 12.136 41.3317 0.263183L39.4024 -0.263671C36.2972 11.1074 28.8202 20.9971 18.3304 27.0498L19.33 28.7821ZM0.499774 39.6472L19.33 28.7821L18.3304 27.0498L-0.499774 37.9148L0.499774 39.6472ZM1 39.9386L1 38.781H-1L-1 39.9386H1ZM0.499774 34.4613L15.4057 25.8605L14.4062 24.1282L-0.499774 32.729L0.499774 34.4613ZM15.4057 25.8605C25.4232 20.0804 32.8015 10.9369 36.4463 0.324587L34.5548 -0.325076C31.0643 9.8376 23.9988 18.5932 14.4062 24.1282L15.4057 25.8605ZM34.4414 0.999756L35.5006 0.999756V-1.00024L34.4414 -1.00024V0.999756ZM33.4981 -0.332321C30.0479 9.4678 23.1876 17.9036 13.9077 23.2581L14.9073 24.9905C24.6073 19.3935 31.7783 10.5754 35.3846 0.331833L33.4981 -0.332321ZM13.9077 23.2581L-0.499774 31.5713L0.499774 33.3036L14.9073 24.9905L13.9077 23.2581ZM1 33.5951L1 32.4375H-1L-1 33.5951H1ZM9.9835 20.3366L-0.499774 26.3855L0.499774 28.1178L10.9831 22.0689L9.9835 20.3366ZM28.4214 -0.39546C24.7309 8.1822 18.3417 15.5139 9.9835 20.3366L10.9831 22.0689C19.721 17.0271 26.4006 9.36192 30.2586 0.394972L28.4214 -0.39546ZM28.2484 0.999756L29.34 0.999756V-1.00024H28.2484V0.999756ZM10.4846 21.1988C18.9005 16.3429 25.3638 8.99995 29.163 0.404008L27.3337 -0.404496C23.7032 7.80992 17.5271 14.8263 9.48509 19.4665L10.4846 21.1988ZM0.499774 26.9601L10.4846 21.1988L9.48509 19.4665L-0.499774 25.2278L0.499774 26.9601ZM1 27.2516L1 26.094H-1L-1 27.2516H1ZM0.499774 21.7743L6.56041 18.2773L5.56086 16.545L-0.499774 20.042L0.499774 21.7743ZM6.56041 18.2773C13.9785 13.997 19.8751 7.77726 23.7585 0.468994L21.9923 -0.469482C18.2819 6.51329 12.6484 12.4554 5.56086 16.545L6.56041 18.2773ZM21.7383 0.999756L22.8754 0.999756V-1.00024L21.7383 -1.00024V0.999756ZM20.8611 -0.480489C17.2369 6.13901 11.8283 11.771 5.06245 15.6749L6.062 17.4072C13.1509 13.3169 18.8181 7.4155 22.6154 0.480001L20.8611 -0.480489ZM5.06245 15.6749L-0.499774 18.8843L0.499774 20.6166L6.062 17.4072L5.06245 15.6749ZM1 20.9081L1 19.7505H-1L-1 20.9081H1ZM1.13823 12.7533L-0.499774 13.6985L0.499774 15.4308L2.13777 14.4856L1.13823 12.7533ZM15.2034 -0.547471C11.682 4.83849 6.90478 9.426 1.13823 12.7533L2.13778 14.4856C8.18051 10.999 13.1871 6.19116 16.8773 0.546983L15.2034 -0.547471ZM14.8381 0.999756L16.0404 0.999756V-1.00024L14.8381 -1.00024V0.999756ZM1.63936 13.6156C7.34175 10.3253 12.0995 5.83124 15.6663 0.560175L14.0098 -0.560663C10.6102 4.46353 6.07552 8.74684 0.639813 11.8833L1.63936 13.6156ZM0.499774 14.2731L1.63936 13.6156L0.639813 11.8833L-0.499774 12.5408L0.499774 14.2731ZM1 14.5646L1 13.407H-1L-1 14.5646H1ZM0.566615 8.89498C3.9652 6.55793 6.96704 3.76639 9.50912 0.629337L7.95525 -0.629826C5.53271 2.35971 2.67215 5.01987 -0.566615 7.24702L0.566615 8.89498ZM8 0.999756L8.73219 0.999756V-1.00024L8 -1.00024V0.999756ZM7.48681 1.01824C7.65611 1.006 7.82724 0.999756 8 0.999756V-1.00024C7.77907 -1.00024 7.55983 -0.992264 7.34257 -0.976554L7.48681 1.01824ZM6.65112 -0.624881C4.5698 1.83629 2.17694 4.05546 -0.490626 5.96873L0.675019 7.59393C3.4776 5.58383 5.99162 3.25228 8.17826 0.666564L6.65112 -0.624881ZM1 7.99977C1 7.63626 1.02762 7.27986 1.08072 6.93239L-0.896329 6.63027C-0.964651 7.07737 -1 7.53477 -1 7.99977H1ZM1 8.071V7.99977H-1V8.071H1Z" fill="url(#paint0_linear)" mask="url(#path-1-inside-1)"/>
<defs>
<linearGradient id="paint0_linear" x1="0" y1="178.909" x2="123.16" y2="178.909" gradientUnits="userSpaceOnUse">
<stop stop-color="#38D499"/>
<stop offset="1" stop-color="#4B8FFB"/>
</linearGradient>
</defs>
</svg>
