<svg width="73" height="78" viewBox="0 0 73 78" fill="none" xmlns="http://www.w3.org/2000/svg">
<mask id="path-1-inside-1" fill="white">
<path fill-rule="evenodd" clip-rule="evenodd" d="M0 71.6565L41.4418 47.7444C57.876 38.2618 68 20.7373 68 1.77207V0L67 0V1.77207C67 20.3767 57.0685 37.5701 40.9434 46.8743L0 70.4988L0 71.6565ZM0 76.8423L45.3661 50.666C61.8484 41.1556 72 23.5812 72 4.56429V0L73 0V4.56429C73 23.9418 62.6559 41.8473 45.8645 51.536L0 78L0 76.8423ZM0 65.3129L37.0192 43.9528C52.801 34.8466 62.6343 18.1594 62.99 0L61.9898 0C61.6343 17.7989 51.9935 34.1549 36.5208 43.0827L0 64.1553L0 65.3129ZM0 58.9694L32.5966 40.1611C47.2085 31.73 56.6052 16.6526 57.857 0L56.8541 0C55.6044 16.2918 46.4006 31.0385 32.0981 39.2911L0 57.8118L0 58.9694ZM0 52.6259L28.1739 36.3695C41.6066 28.6188 50.5294 15.1205 52.5591 0L51.5499 0C49.5268 14.759 40.7982 27.9276 27.6755 35.4995L0 51.4683L0 52.6259ZM0 46.2824L23.7513 32.5779C35.9926 25.5146 44.3993 13.5645 47.081 0L46.061 0C43.3933 13.2018 35.1832 24.824 23.2528 31.7078L0 45.1248L0 46.2824ZM0 39.9389L19.3286 28.7862C30.3624 22.4197 38.2049 11.986 41.4031 0L40.367 0C37.1934 11.6219 29.5514 21.73 18.8302 27.9162L0 38.7812L0 39.9389ZM0 33.5954L14.9059 24.9946C24.711 19.337 31.9329 10.3875 35.5006 0L34.4414 0C30.9131 10.0218 23.8974 18.6488 14.4075 24.1245L0 32.4377L0 33.5954ZM0 27.2519L10.4833 21.203C19.0313 16.2707 25.5657 8.7723 29.34 0L28.2484 0C24.5335 8.40518 18.2138 15.5848 9.98486 20.3329L0 26.0942L0 27.2519ZM0 20.9084L6.06064 17.4114C13.3134 13.2265 19.0785 7.14552 22.8754 0L21.7383 0C18.0275 6.7775 12.4896 12.5442 5.56223 16.5413L0 19.7507L0 20.9084ZM0 14.5649L1.638 13.6197C7.54265 10.2127 12.4346 5.51507 16.0404 0L14.8381 0C11.3548 5.14763 6.70863 9.5363 1.13959 12.7497L0 13.4072L0 14.5649ZM0 8.07124C3.31867 5.78914 6.24987 3.0633 8.73219 0L8 0C7.80315 0 7.60797 0.00710949 7.41469 0.0210857C5.28071 2.54453 2.82727 4.81989 0.092196 6.78158C0.0314861 7.17886 0 7.58576 0 8.00001L0 8.07124Z"/>
</mask>
<path d="M0 71.6565H-1L-1 73.388L0.499774 72.5226L0 71.6565ZM41.4418 47.7444L41.9416 48.6106V48.6106L41.4418 47.7444ZM68 0L69 0V-1H68V0ZM67 0V-1L66 -1V0L67 0ZM40.9434 46.8743L41.4432 47.7405V47.7405L40.9434 46.8743ZM0 70.4988L-0.499774 69.6327L-1 69.9213L-1 70.4988H0ZM0 76.8423L-0.499774 75.9762L-1 76.2648L-1 76.8423H0ZM45.3661 50.666L44.8663 49.7998V49.7998L45.3661 50.666ZM72 0V-1L71 -1V0L72 0ZM73 0L74 0V-1L73 -1V0ZM45.8645 51.536L45.3647 50.6699V50.6699L45.8645 51.536ZM0 78H-1L-1 79.7315L0.499775 78.8661L0 78ZM37.0192 43.9528L37.519 44.8189V44.8189L37.0192 43.9528ZM0 65.3129H-1L-1 67.0445L0.499774 66.1791L0 65.3129ZM62.99 0L63.9898 0.0195825L64.0098 -1H62.99V0ZM61.9898 0V-1H61.0096L60.99 -0.0199709L61.9898 0ZM36.5208 43.0827L37.0206 43.9489V43.9489L36.5208 43.0827ZM0 64.1553L-0.499774 63.2892L-1 63.5778L-1 64.1553H0ZM0 58.9694H-1L-1 60.701L0.499774 59.8356L0 58.9694ZM32.5966 40.1611L32.0968 39.295L32.5966 40.1611ZM57.857 0L58.8542 0.0749615L58.935 -1L57.857 -1V0ZM56.8541 0V-1H55.9279L55.857 -0.0764839L56.8541 0ZM32.0981 39.2911L32.5979 40.1572V40.1572L32.0981 39.2911ZM0 57.8118L-0.499774 56.9456L-1 57.2343L-1 57.8118H0ZM28.1739 36.3695L27.6741 35.5033V35.5033L28.1739 36.3695ZM0 52.6259H-1L-1 54.3574L0.499774 53.4921L0 52.6259ZM52.5591 0L53.5502 0.133039L53.7023 -1L52.5591 -1V0ZM51.5499 0V-1H50.6776L50.5591 -0.135805L51.5499 0ZM27.6755 35.4995L28.1753 36.3656V36.3656L27.6755 35.4995ZM0 51.4683L-0.499774 50.6021L-1 50.8908L-1 51.4683H0ZM0 46.2824H-1L-1 48.0139L0.499774 47.1486L0 46.2824ZM23.7513 32.5779L23.2515 31.7117H23.2515L23.7513 32.5779ZM47.081 0L48.062 0.19394L48.298 -1L47.081 -1V0ZM46.061 0V-1H45.2429L45.0808 -0.198066L46.061 0ZM23.2528 31.7078L23.7526 32.574V32.574L23.2528 31.7078ZM0 45.1248L-0.499774 44.2586L-1 44.5473L-1 45.1248H0ZM19.3286 28.7862L18.8288 27.9201H18.8288L19.3286 28.7862ZM0 39.9389H-1L-1 41.6704L0.499774 40.805L0 39.9389ZM41.4031 0L42.3693 0.257811L42.7049 -1L41.4031 -1V0ZM40.367 0V-1H39.6035L39.4024 -0.263427L40.367 0ZM18.8302 27.9162L19.33 28.7823L18.8302 27.9162ZM0 38.7812L-0.499774 37.9151L-1 38.2037L-1 38.7812H0ZM0 33.5954H-1L-1 35.3269L0.499774 34.4615L0 33.5954ZM14.9059 24.9946L15.4057 25.8607H15.4057L14.9059 24.9946ZM35.5006 0L36.4463 0.324831L36.9014 -1H35.5006V0ZM34.4414 0V-1H33.7333L33.4981 -0.332077L34.4414 0ZM14.4075 24.1245L14.9073 24.9907H14.9073L14.4075 24.1245ZM0 32.4377L-0.499774 31.5716L-1 31.8602L-1 32.4377H0ZM10.4833 21.203L10.9831 22.0691H10.9831L10.4833 21.203ZM0 27.2519H-1L-1 28.9834L0.499774 28.118L0 27.2519ZM29.34 0L30.2586 0.395216L30.8588 -1L29.34 -1V0ZM28.2484 0V-1L27.597 -1L27.3337 -0.404252L28.2484 0ZM9.98486 20.3329L10.4846 21.1991H10.4846L9.98486 20.3329ZM0 26.0942L-0.499774 25.2281L-1 25.5167L-1 26.0942H0ZM0 20.9084H-1L-1 22.6399L0.499774 21.7745L0 20.9084ZM6.06064 17.4114L6.56041 18.2775H6.56041L6.06064 17.4114ZM22.8754 0L23.7585 0.469238L24.5392 -1L22.8754 -1V0ZM21.7383 0V-1H21.1457L20.8611 -0.480245L21.7383 0ZM5.56223 16.5413L5.06245 15.6751H5.06245L5.56223 16.5413ZM0 19.7507L-0.499774 18.8846L-1 19.1732L-1 19.7507H0ZM1.638 13.6197L2.13777 14.4859H2.13778L1.638 13.6197ZM0 14.5649H-1L-1 16.2964L0.499774 15.431L0 14.5649ZM16.0404 0L16.8773 0.547227L17.8889 -1L16.0404 -1V0ZM14.8381 0V-1H14.3073L14.0098 -0.560419L14.8381 0ZM1.13959 12.7497L1.63936 13.6158H1.63936L1.13959 12.7497ZM0 13.4072L-0.499774 12.541L-1 12.8297L-1 13.4072H0ZM0 8.07124H-1L-1 9.97252L0.566615 8.89523L0 8.07124ZM8.73219 0L9.50912 0.629581L10.8296 -1L8.73219 -1V0ZM7.41469 0.0210857L7.34257 -0.97631L6.92285 -0.94596L6.65112 -0.624637L7.41469 0.0210857ZM0.092196 6.78158L-0.490626 5.96898L-0.832733 6.21435L-0.896329 6.63052L0.092196 6.78158ZM0.499774 72.5226L41.9416 48.6106L40.9421 46.8783L-0.499774 70.7903L0.499774 72.5226ZM41.9416 48.6106C58.6852 38.9495 69 21.0949 69 1.77207L67 1.77207C67 20.3797 57.0669 37.5742 40.9421 46.8783L41.9416 48.6106ZM69 1.77207V0L67 0V1.77207L69 1.77207ZM67 1L68 1V-1L67 -1V1ZM66 0V1.77207L68 1.77207V0L66 0ZM66 1.77207C66 20.0191 56.2594 36.8824 40.4436 46.0082L41.4432 47.7405C57.8777 38.2578 68 20.7342 68 1.77207L66 1.77207ZM40.4436 46.0082L-0.499774 69.6327L0.499774 71.365L41.4432 47.7405L40.4436 46.0082ZM1 71.6565L1 70.4988H-1L-1 71.6565H1ZM0.499774 77.7085L45.8658 51.5321L44.8663 49.7998L-0.499774 75.9762L0.499774 77.7085ZM45.8658 51.5321C62.6576 41.8433 73 23.9387 73 4.56429H71C71 23.2236 61.0393 40.4679 44.8663 49.7998L45.8658 51.5321ZM73 4.56429V0L71 0V4.56429H73ZM72 1L73 1V-1H72V1ZM72 0V4.56429H74V0L72 0ZM72 4.56429C72 23.5842 61.8468 41.1597 45.3647 50.6699L46.3642 52.4022C63.4651 42.535 74 24.2994 74 4.56429H72ZM45.3647 50.6699L-0.499775 77.1338L0.499775 78.8661L46.3642 52.4022L45.3647 50.6699ZM1 78L1 76.8423H-1L-1 78H1ZM36.5194 43.0866L-0.499774 64.4468L0.499774 66.1791L37.519 44.8189L36.5194 43.0866ZM61.9902 -0.0195825C61.6414 17.7898 51.9976 34.1557 36.5194 43.0866L37.519 44.8189C53.6045 35.5375 63.6273 18.5291 63.9898 0.0195825L61.9902 -0.0195825ZM61.9898 1L62.99 1V-1L61.9898 -1V1ZM37.0206 43.9489C52.7968 34.8459 62.6271 18.1687 62.9896 0.0199709L60.99 -0.0199709C60.6415 17.429 51.1901 33.4639 36.021 42.2166L37.0206 43.9489ZM0.499774 65.0215L37.0206 43.9489L36.021 42.2166L-0.499774 63.2892L0.499774 65.0215ZM1 65.3129L1 64.1553H-1L-1 65.3129H1ZM0.499774 59.8356L33.0963 41.0273L32.0968 39.295L-0.499774 58.1033L0.499774 59.8356ZM33.0963 41.0273C47.9958 32.4302 57.5777 17.0559 58.8542 0.0749615L56.8598 -0.0749615C55.6327 16.2492 46.4211 31.0298 32.0968 39.295L33.0963 41.0273ZM56.8541 1L57.857 1V-1L56.8541 -1V1ZM55.857 -0.0764839C54.6324 15.8875 45.6136 30.3381 31.5983 38.4249L32.5979 40.1572C47.1875 31.739 56.5763 16.696 57.8512 0.0764839L55.857 -0.0764839ZM31.5983 38.4249L-0.499774 56.9456L0.499774 58.678L32.5979 40.1572L31.5983 38.4249ZM1 58.9694L1 57.8118H-1L-1 58.9694H1ZM27.6741 35.5033L-0.499774 51.7598L0.499774 53.4921L28.6737 37.2357L27.6741 35.5033ZM51.568 -0.133039C49.5793 14.6825 40.8362 27.9088 27.6741 35.5033L28.6737 37.2357C42.377 29.3288 51.4796 15.5586 53.5502 0.133039L51.568 -0.133039ZM51.5499 1L52.5591 1V-1L51.5499 -1V1ZM28.1753 36.3656C41.5677 28.6381 50.4759 15.1987 52.5406 0.135805L50.5591 -0.135805C48.5777 14.3193 40.0286 27.2171 27.1757 34.6333L28.1753 36.3656ZM0.499774 52.3344L28.1753 36.3656L27.1757 34.6333L-0.499774 50.6021L0.499774 52.3344ZM1 52.6259L1 51.4683H-1L-1 52.6259H1ZM0.499774 47.1486L24.251 33.444L23.2515 31.7117L-0.499774 45.4163L0.499774 47.1486ZM24.251 33.444C36.7449 26.235 45.325 14.0384 48.062 0.19394L46.0999 -0.19394C43.4737 13.0905 35.2403 24.7941 23.2515 31.7117L24.251 33.444ZM46.061 1L47.081 1V-1L46.061 -1V1ZM45.0808 -0.198066C42.4693 12.7255 34.4321 24.1028 22.7531 30.8417L23.7526 32.574C35.9342 25.5451 44.3173 13.6782 47.0412 0.198066L45.0808 -0.198066ZM22.7531 30.8417L-0.499774 44.2586L0.499774 45.9909L23.7526 32.574L22.7531 30.8417ZM1 46.2824L1 45.1248H-1L-1 46.2824H1ZM18.8288 27.9201L-0.499774 39.0727L0.499774 40.805L19.8284 29.6524L18.8288 27.9201ZM40.4369 -0.257811C37.3063 11.4749 29.6295 21.6881 18.8288 27.9201L19.8284 29.6524C31.0954 23.1513 39.1035 12.4971 42.3693 0.257811L40.4369 -0.257811ZM40.367 1L41.4031 1V-1L40.367 -1V1ZM19.33 28.7823C30.2827 22.4626 38.0896 12.1362 41.3317 0.263427L39.4024 -0.263427C36.2972 11.1076 28.8202 20.9974 18.3304 27.05L19.33 28.7823ZM0.499774 39.6474L19.33 28.7823L18.3304 27.05L-0.499774 37.9151L0.499774 39.6474ZM1 39.9389L1 38.7812H-1L-1 39.9389H1ZM0.499774 34.4615L15.4057 25.8607L14.4062 24.1284L-0.499774 32.7292L0.499774 34.4615ZM15.4057 25.8607C25.4232 20.0806 32.8015 10.9371 36.4463 0.324831L34.5548 -0.324831C31.0643 9.83785 23.9988 18.5934 14.4062 24.1284L15.4057 25.8607ZM34.4414 1L35.5006 1V-1L34.4414 -1V1ZM33.4981 -0.332077C30.0479 9.46805 23.1876 17.9039 13.9077 23.2584L14.9073 24.9907C24.6073 19.3937 31.7783 10.5756 35.3846 0.332077L33.4981 -0.332077ZM13.9077 23.2584L-0.499774 31.5716L0.499774 33.3039L14.9073 24.9907L13.9077 23.2584ZM1 33.5954L1 32.4377H-1L-1 33.5954H1ZM9.9835 20.3368L-0.499774 26.3857L0.499774 28.118L10.9831 22.0691L9.9835 20.3368ZM28.4214 -0.395216C24.7309 8.18244 18.3417 15.5141 9.9835 20.3368L10.9831 22.0691C19.721 17.0273 26.4006 9.36217 30.2586 0.395216L28.4214 -0.395216ZM28.2484 1L29.34 1V-1H28.2484V1ZM10.4846 21.1991C18.9005 16.3431 25.3638 9.00019 29.163 0.404252L27.3337 -0.404252C23.7032 7.81016 17.5271 14.8265 9.48509 19.4668L10.4846 21.1991ZM0.499774 26.9604L10.4846 21.1991L9.48509 19.4668L-0.499774 25.2281L0.499774 26.9604ZM1 27.2519L1 26.0942H-1L-1 27.2519H1ZM0.499774 21.7745L6.56041 18.2775L5.56086 16.5452L-0.499774 20.0422L0.499774 21.7745ZM6.56041 18.2775C13.9785 13.9973 19.8751 7.7775 23.7585 0.469238L21.9923 -0.469238C18.2819 6.51353 12.6484 12.4557 5.56086 16.5452L6.56041 18.2775ZM21.7383 1L22.8754 1V-1L21.7383 -1V1ZM20.8611 -0.480245C17.2369 6.13926 11.8283 11.7712 5.06245 15.6751L6.062 17.4074C13.1509 13.3171 18.8181 7.41575 22.6154 0.480245L20.8611 -0.480245ZM5.06245 15.6751L-0.499774 18.8846L0.499774 20.6169L6.062 17.4074L5.06245 15.6751ZM1 20.9084L1 19.7507H-1L-1 20.9084H1ZM1.13823 12.7536L-0.499774 13.6987L0.499774 15.431L2.13777 14.4859L1.13823 12.7536ZM15.2034 -0.547227C11.682 4.83873 6.90478 9.42625 1.13823 12.7536L2.13778 14.4859C8.18051 10.9992 13.1871 6.19141 16.8773 0.547227L15.2034 -0.547227ZM14.8381 1L16.0404 1V-1L14.8381 -1V1ZM1.63936 13.6158C7.34175 10.3255 12.0995 5.83149 15.6663 0.560419L14.0098 -0.560419C10.6102 4.46377 6.07552 8.74708 0.639813 11.8835L1.63936 13.6158ZM0.499774 14.2734L1.63936 13.6158L0.639813 11.8835L-0.499774 12.541L0.499774 14.2734ZM1 14.5649L1 13.4072H-1L-1 14.5649H1ZM0.566615 8.89523C3.9652 6.55817 6.96704 3.76664 9.50912 0.629581L7.95525 -0.629581C5.53271 2.35996 2.67215 5.02011 -0.566615 7.24726L0.566615 8.89523ZM8 1L8.73219 1V-1L8 -1V1ZM7.48681 1.01848C7.65611 1.00624 7.82724 1 8 1V-1C7.77907 -1 7.55983 -0.99202 7.34257 -0.97631L7.48681 1.01848ZM6.65112 -0.624637C4.5698 1.83654 2.17694 4.05571 -0.490626 5.96898L0.675019 7.59417C3.4776 5.58408 5.99162 3.25253 8.17826 0.666808L6.65112 -0.624637ZM1 8.00001C1 7.6365 1.02762 7.2801 1.08072 6.93263L-0.896329 6.63052C-0.964651 7.07762 -1 7.53501 -1 8.00001H1ZM1 8.07124V8.00001H-1V8.07124H1Z" fill="#33343E" mask="url(#path-1-inside-1)"/>
</svg>
