<svg width="275" height="68" viewBox="0 0 275 68" fill="none" xmlns="http://www.w3.org/2000/svg">
<mask id="path-1-inside-1" fill="white">
<path fill-rule="evenodd" clip-rule="evenodd" d="M13.5808 -0.000244141H11.5745L0 6.65427V7.81124C0.131462 7.73335 0.263558 7.65624 0.396282 7.57993L13.5808 -0.000244141ZM0 12.2856C1.35196 11.2088 2.79452 10.2255 4.32051 9.34817L20.5806 -0.000244141H22.5869L4.81893 10.2151C3.09994 11.2034 1.49001 12.3301 0 13.5764V12.2856ZM275 13.1133C273.366 11.7087 271.588 10.4455 269.679 9.34817L253.419 -0.000244141H251.413L269.181 10.2151C271.292 11.4287 273.238 12.8509 275 14.447V13.1133ZM275 8.42674C274.543 8.13456 274.077 7.85217 273.604 7.57993L260.419 -0.000244141H262.426L274.102 6.713C274.405 6.88691 274.704 7.06484 275 7.24672V8.42674ZM275 20.458C272.378 17.0817 269.09 14.1869 265.257 11.9833L244.413 -0.000244141H242.407L264.758 12.8503C268.872 15.2155 272.339 18.4015 275 22.1323V20.458ZM275 31.3519C272.424 24.4053 267.476 18.4369 260.834 14.6185L235.407 -0.000244141H233.401L260.336 15.4854C267.704 19.7217 272.921 26.6879 275 34.6797V31.3519ZM0 31.5328V28.9567C2.7565 23.0387 7.30103 17.9903 13.1658 14.6185L38.5927 -0.000244141H40.5991L13.6642 15.4854C7.28114 19.1553 2.51275 24.8737 0 31.5328ZM272 66.2451V44.1405C272 33.0488 266.058 22.7995 256.411 17.2537L226.401 -0.000244141H224.395L255.913 18.1206C265.25 23.4888 271 33.4081 271 44.1405V66.9295C271.351 66.7264 271.685 66.4974 272 66.2451ZM3 66.2451C2.63985 65.9564 2.30521 65.6372 2 65.2914V44.1405C2 33.0488 7.94229 22.7995 17.5885 17.2537L47.5988 -0.000244141H49.6051L18.0869 18.1206C8.74978 23.4888 3 33.4081 3 44.1405V66.2451ZM267 67.9998V45.7799C267 35.0989 261.278 25.2293 251.989 19.8888L217.395 -0.000244141H215.389L251.49 20.7558C260.47 25.9185 266 35.4582 266 45.7799V67.9998H267ZM7.99999 67.9998C7.66133 67.9998 7.32759 67.9787 7 67.9379V45.7799C7 35.0989 12.7222 25.2293 22.0111 19.8888L56.6049 -0.000244141H58.6112L22.5095 20.7558C13.5297 25.9185 8 35.4582 8 45.7799L7.99999 67.9998ZM262 67.9998V47.4192C262 37.1491 256.498 27.6591 247.566 22.524L208.389 -0.000244141H206.383L247.068 23.3909C255.69 28.3483 261 37.5084 261 47.4192V67.9998H262ZM13 67.9998H12V47.4192C12 37.1491 17.5021 27.6591 26.4338 22.524L65.611 -0.000244141H67.6173L26.9322 23.3909C18.3096 28.3483 13 37.5084 13 47.4192V67.9998ZM257 67.9998V49.0586C257 39.1992 251.718 30.0888 243.144 25.1592L199.383 -0.000244141H197.377L242.645 26.0261C250.91 30.7781 256 39.5586 256 49.0586V67.9998H257ZM18 67.9998H17V49.0586C17 39.1992 22.282 30.0888 30.8564 25.1592L74.6171 -0.000244141H76.6234L31.3548 26.0261C23.0895 30.7781 18 39.5586 18 49.0586V67.9998ZM252 67.9998V50.698C252 41.2494 246.938 32.5186 238.721 27.7943L190.377 -0.000244141H188.37L238.222 28.6613C246.131 33.2078 251 41.6087 251 50.698V67.9998H252ZM23 67.9998H22V50.698C22 41.2494 27.0619 32.5186 35.2791 27.7943L83.6232 -0.000244141H85.6295L35.7775 28.6613C27.8694 33.2078 23 41.6087 23 50.698V67.9998ZM247 67.9998V52.3373C247 43.2996 242.158 34.9483 234.298 30.4295L181.371 -0.000244141H179.364L233.8 31.2964C241.351 35.6376 246 43.6589 246 52.3373V67.9998H247ZM28 67.9998H27V52.3373C27 43.2996 31.8419 34.9483 39.7017 30.4295L92.6293 -0.000244141H94.6356L40.2001 31.2964C32.6494 35.6376 28 43.6589 28 52.3373V67.9998ZM242 67.9998V53.9767C242 45.3497 237.378 37.3781 229.876 33.0647L172.365 -0.000244141H170.358L229.377 33.9316C236.571 38.0674 241 45.709 241 53.9767V67.9998H242ZM33 67.9998H32V53.9767C32 45.3497 36.6218 37.3781 44.1244 33.0647L101.635 -0.000244141H103.642L44.6228 33.9316C37.4293 38.0674 33 45.709 33 53.9767V67.9998ZM237 67.9998V56.1874C237 47.9713 232.598 40.3793 225.453 36.2712L162.365 -0.000244141H160.358L224.955 37.1382C231.791 41.0685 236 48.3306 236 56.1874V67.9998H237ZM38 67.9998H37V56.1874C37 47.9713 41.4017 40.3793 48.547 36.2712L111.635 -0.000244141H113.642L49.0454 37.1382C42.2092 41.0685 38 48.3306 38 56.1874V67.9998ZM232 67.9998V58.3982C232 50.5929 227.818 43.3805 221.03 39.4778L152.365 -0.000244141H150.358L220.532 40.3447C227.011 44.0697 231 50.9522 231 58.3982V67.9998H232ZM43 67.9998H42V58.3982C42 50.5929 46.1816 43.3805 52.9697 39.4778L121.635 -0.000244141H123.642L53.4681 40.3447C46.9891 44.0697 43 50.9522 43 58.3982V67.9998ZM227 67.9998V60.609C227 53.2145 223.038 46.3817 216.608 42.6844L147.392 2.89034C140.962 -0.806915 133.038 -0.806915 126.608 2.89034L57.3923 42.6844C50.9615 46.3817 47 53.2145 47 60.609V67.9998H48V60.609C48 53.5738 51.769 47.0709 57.8907 43.5514L127.106 3.75728C133.228 0.237442 140.772 0.237442 146.894 3.75728L216.109 43.5514C222.231 47.0709 226 53.5738 226 60.609V67.9998H227ZM222 67.9998V62.8198C222 55.8361 218.259 49.3829 212.185 45.891L146.815 8.3077C140.741 4.81585 133.259 4.81585 127.185 8.3077L61.815 45.891C55.7414 49.3829 52 55.8361 52 62.8198V67.9998H53V62.8198C53 56.1954 56.5489 50.0721 62.3134 46.7579L127.683 9.17464C133.448 5.86021 140.552 5.86021 146.317 9.17464L211.687 46.7579C217.451 50.0721 221 56.1954 221 62.8198V67.9998H222ZM217 67.9998V65.0306C217 58.4577 213.479 52.384 207.762 49.0976L146.238 13.7251C140.521 10.4386 133.479 10.4386 127.762 13.7251L66.2376 49.0976C60.5214 52.384 57 58.4576 57 65.0305V67.9998H58V65.0305C58 58.817 61.3288 53.0733 66.736 49.9645L128.261 14.592C133.668 11.483 140.332 11.483 145.739 14.592L207.264 49.9645C212.671 53.0733 216 58.817 216 65.0306V67.9998H217ZM212 67.9998V67.2414C212 61.0793 208.699 55.3853 203.34 52.3042L145.66 19.1425C140.301 16.0614 133.699 16.0614 128.34 19.1425L70.6603 52.3042C65.3013 55.3853 62 61.0793 62 67.2414V67.9998H63V67.2414C63 61.4386 66.1088 56.0745 71.1587 53.1712L128.838 20.0094C133.889 17.1058 140.111 17.1058 145.162 20.0094L202.841 53.1712C207.891 56.0745 211 61.4386 211 67.2414V67.9998H212ZM206.934 67.9998C206.464 62.8171 203.495 58.1426 198.917 55.5108L145.083 24.5598C140.081 21.6842 133.919 21.6842 128.917 24.5598L75.0829 55.5108C70.5053 58.1426 67.5363 62.8171 67.0658 67.9998H68.0702C68.5376 63.1768 71.3133 58.8315 75.5813 56.3777L129.416 25.4268C134.109 22.7286 139.891 22.7286 144.584 25.4268L198.419 56.3777C202.687 58.8315 205.462 63.1768 205.93 67.9998H206.934ZM201.543 67.9998C200.561 64.1343 198.051 60.762 194.494 58.7174L144.506 29.9772C139.861 27.307 134.139 27.307 129.494 29.9772L79.5056 58.7174C75.9493 60.762 73.4386 64.1343 72.4573 67.9998H73.4915C74.4494 64.4968 76.7601 61.4493 80.004 59.5843L129.993 30.8441C134.329 28.3513 139.671 28.3513 144.007 30.8441L193.996 59.5843C197.24 61.4493 199.551 64.4968 200.508 67.9998H201.543ZM195.682 67.9998C194.497 65.4933 192.562 63.3559 190.072 61.924L143.928 35.3946C139.641 32.9297 134.359 32.9297 130.072 35.3946L83.9282 61.924C81.4376 63.3559 79.5026 65.4933 78.3182 67.9998H79.434C80.5447 65.8597 82.2585 64.0374 84.4266 62.7909L130.57 36.2615C134.549 33.9741 139.451 33.9741 143.43 36.2615L189.573 62.7909C191.742 64.0374 193.455 65.8597 194.566 67.9998H195.682ZM189.067 67.9998C188.121 66.8666 186.971 65.8903 185.649 65.1306L143.351 40.812C139.421 38.5525 134.579 38.5525 130.649 40.812L88.3509 65.1306C87.0295 65.8903 85.8787 66.8666 84.9332 67.9998H86.2771C87.0261 67.2262 87.8887 66.5498 88.8493 65.9975L131.148 41.6789C134.769 39.5969 139.231 39.5969 142.852 41.6789L185.151 65.9975C186.111 66.5498 186.974 67.2262 187.723 67.9998H189.067ZM180.64 67.9998L142.773 46.2293C139.201 44.1753 134.799 44.1753 131.226 46.2293L93.3604 67.9998H95.3667L131.725 47.0963C134.989 45.2197 139.011 45.2197 142.275 47.0963L178.633 67.9998H180.64ZM170.64 67.9998L142.196 51.6467C138.981 49.7981 135.019 49.7981 131.804 51.6467L103.36 67.9998H105.367L132.302 52.5136C135.209 50.8424 138.791 50.8424 141.698 52.5136L168.633 67.9998H170.64ZM160.64 67.9998L141.619 57.0641C138.761 55.4209 135.239 55.4209 132.381 57.0641L113.36 67.9998H115.367L132.88 57.931C135.429 56.4652 138.571 56.4652 141.12 57.931L158.633 67.9998H160.64ZM150.64 67.9998L141.041 62.4815C138.541 61.0437 135.459 61.0437 132.959 62.4815L123.36 67.9998H125.367L133.457 63.3484C135.649 62.088 138.351 62.088 140.543 63.3484L148.633 67.9998H150.64ZM31.5929 -0.000244141L9.24158 12.8503C5.62498 14.9296 2.5083 17.6431 0 20.8036V19.2315C2.44127 16.3784 5.38299 13.9152 8.74315 11.9833L29.5866 -0.000244141H31.5929Z"/>
</mask>
<path fill-rule="evenodd" clip-rule="evenodd" d="M13.5808 -0.000244141H11.5745L0 6.65427V7.81124C0.131462 7.73335 0.263558 7.65624 0.396282 7.57993L13.5808 -0.000244141ZM0 12.2856C1.35196 11.2088 2.79452 10.2255 4.32051 9.34817L20.5806 -0.000244141H22.5869L4.81893 10.2151C3.09994 11.2034 1.49001 12.3301 0 13.5764V12.2856ZM275 13.1133C273.366 11.7087 271.588 10.4455 269.679 9.34817L253.419 -0.000244141H251.413L269.181 10.2151C271.292 11.4287 273.238 12.8509 275 14.447V13.1133ZM275 8.42674C274.543 8.13456 274.077 7.85217 273.604 7.57993L260.419 -0.000244141H262.426L274.102 6.713C274.405 6.88691 274.704 7.06484 275 7.24672V8.42674ZM275 20.458C272.378 17.0817 269.09 14.1869 265.257 11.9833L244.413 -0.000244141H242.407L264.758 12.8503C268.872 15.2155 272.339 18.4015 275 22.1323V20.458ZM275 31.3519C272.424 24.4053 267.476 18.4369 260.834 14.6185L235.407 -0.000244141H233.401L260.336 15.4854C267.704 19.7217 272.921 26.6879 275 34.6797V31.3519ZM0 31.5328V28.9567C2.7565 23.0387 7.30103 17.9903 13.1658 14.6185L38.5927 -0.000244141H40.5991L13.6642 15.4854C7.28114 19.1553 2.51275 24.8737 0 31.5328ZM272 66.2451V44.1405C272 33.0488 266.058 22.7995 256.411 17.2537L226.401 -0.000244141H224.395L255.913 18.1206C265.25 23.4888 271 33.4081 271 44.1405V66.9295C271.351 66.7264 271.685 66.4974 272 66.2451ZM3 66.2451C2.63985 65.9564 2.30521 65.6372 2 65.2914V44.1405C2 33.0488 7.94229 22.7995 17.5885 17.2537L47.5988 -0.000244141H49.6051L18.0869 18.1206C8.74978 23.4888 3 33.4081 3 44.1405V66.2451ZM267 67.9998V45.7799C267 35.0989 261.278 25.2293 251.989 19.8888L217.395 -0.000244141H215.389L251.49 20.7558C260.47 25.9185 266 35.4582 266 45.7799V67.9998H267ZM7.99999 67.9998C7.66133 67.9998 7.32759 67.9787 7 67.9379V45.7799C7 35.0989 12.7222 25.2293 22.0111 19.8888L56.6049 -0.000244141H58.6112L22.5095 20.7558C13.5297 25.9185 8 35.4582 8 45.7799L7.99999 67.9998ZM262 67.9998V47.4192C262 37.1491 256.498 27.6591 247.566 22.524L208.389 -0.000244141H206.383L247.068 23.3909C255.69 28.3483 261 37.5084 261 47.4192V67.9998H262ZM13 67.9998H12V47.4192C12 37.1491 17.5021 27.6591 26.4338 22.524L65.611 -0.000244141H67.6173L26.9322 23.3909C18.3096 28.3483 13 37.5084 13 47.4192V67.9998ZM257 67.9998V49.0586C257 39.1992 251.718 30.0888 243.144 25.1592L199.383 -0.000244141H197.377L242.645 26.0261C250.91 30.7781 256 39.5586 256 49.0586V67.9998H257ZM18 67.9998H17V49.0586C17 39.1992 22.282 30.0888 30.8564 25.1592L74.6171 -0.000244141H76.6234L31.3548 26.0261C23.0895 30.7781 18 39.5586 18 49.0586V67.9998ZM252 67.9998V50.698C252 41.2494 246.938 32.5186 238.721 27.7943L190.377 -0.000244141H188.37L238.222 28.6613C246.131 33.2078 251 41.6087 251 50.698V67.9998H252ZM23 67.9998H22V50.698C22 41.2494 27.0619 32.5186 35.2791 27.7943L83.6232 -0.000244141H85.6295L35.7775 28.6613C27.8694 33.2078 23 41.6087 23 50.698V67.9998ZM247 67.9998V52.3373C247 43.2996 242.158 34.9483 234.298 30.4295L181.371 -0.000244141H179.364L233.8 31.2964C241.351 35.6376 246 43.6589 246 52.3373V67.9998H247ZM28 67.9998H27V52.3373C27 43.2996 31.8419 34.9483 39.7017 30.4295L92.6293 -0.000244141H94.6356L40.2001 31.2964C32.6494 35.6376 28 43.6589 28 52.3373V67.9998ZM242 67.9998V53.9767C242 45.3497 237.378 37.3781 229.876 33.0647L172.365 -0.000244141H170.358L229.377 33.9316C236.571 38.0674 241 45.709 241 53.9767V67.9998H242ZM33 67.9998H32V53.9767C32 45.3497 36.6218 37.3781 44.1244 33.0647L101.635 -0.000244141H103.642L44.6228 33.9316C37.4293 38.0674 33 45.709 33 53.9767V67.9998ZM237 67.9998V56.1874C237 47.9713 232.598 40.3793 225.453 36.2712L162.365 -0.000244141H160.358L224.955 37.1382C231.791 41.0685 236 48.3306 236 56.1874V67.9998H237ZM38 67.9998H37V56.1874C37 47.9713 41.4017 40.3793 48.547 36.2712L111.635 -0.000244141H113.642L49.0454 37.1382C42.2092 41.0685 38 48.3306 38 56.1874V67.9998ZM232 67.9998V58.3982C232 50.5929 227.818 43.3805 221.03 39.4778L152.365 -0.000244141H150.358L220.532 40.3447C227.011 44.0697 231 50.9522 231 58.3982V67.9998H232ZM43 67.9998H42V58.3982C42 50.5929 46.1816 43.3805 52.9697 39.4778L121.635 -0.000244141H123.642L53.4681 40.3447C46.9891 44.0697 43 50.9522 43 58.3982V67.9998ZM227 67.9998V60.609C227 53.2145 223.038 46.3817 216.608 42.6844L147.392 2.89034C140.962 -0.806915 133.038 -0.806915 126.608 2.89034L57.3923 42.6844C50.9615 46.3817 47 53.2145 47 60.609V67.9998H48V60.609C48 53.5738 51.769 47.0709 57.8907 43.5514L127.106 3.75728C133.228 0.237442 140.772 0.237442 146.894 3.75728L216.109 43.5514C222.231 47.0709 226 53.5738 226 60.609V67.9998H227ZM222 67.9998V62.8198C222 55.8361 218.259 49.3829 212.185 45.891L146.815 8.3077C140.741 4.81585 133.259 4.81585 127.185 8.3077L61.815 45.891C55.7414 49.3829 52 55.8361 52 62.8198V67.9998H53V62.8198C53 56.1954 56.5489 50.0721 62.3134 46.7579L127.683 9.17464C133.448 5.86021 140.552 5.86021 146.317 9.17464L211.687 46.7579C217.451 50.0721 221 56.1954 221 62.8198V67.9998H222ZM217 67.9998V65.0306C217 58.4577 213.479 52.384 207.762 49.0976L146.238 13.7251C140.521 10.4386 133.479 10.4386 127.762 13.7251L66.2376 49.0976C60.5214 52.384 57 58.4576 57 65.0305V67.9998H58V65.0305C58 58.817 61.3288 53.0733 66.736 49.9645L128.261 14.592C133.668 11.483 140.332 11.483 145.739 14.592L207.264 49.9645C212.671 53.0733 216 58.817 216 65.0306V67.9998H217ZM212 67.9998V67.2414C212 61.0793 208.699 55.3853 203.34 52.3042L145.66 19.1425C140.301 16.0614 133.699 16.0614 128.34 19.1425L70.6603 52.3042C65.3013 55.3853 62 61.0793 62 67.2414V67.9998H63V67.2414C63 61.4386 66.1088 56.0745 71.1587 53.1712L128.838 20.0094C133.889 17.1058 140.111 17.1058 145.162 20.0094L202.841 53.1712C207.891 56.0745 211 61.4386 211 67.2414V67.9998H212ZM206.934 67.9998C206.464 62.8171 203.495 58.1426 198.917 55.5108L145.083 24.5598C140.081 21.6842 133.919 21.6842 128.917 24.5598L75.0829 55.5108C70.5053 58.1426 67.5363 62.8171 67.0658 67.9998H68.0702C68.5376 63.1768 71.3133 58.8315 75.5813 56.3777L129.416 25.4268C134.109 22.7286 139.891 22.7286 144.584 25.4268L198.419 56.3777C202.687 58.8315 205.462 63.1768 205.93 67.9998H206.934ZM201.543 67.9998C200.561 64.1343 198.051 60.762 194.494 58.7174L144.506 29.9772C139.861 27.307 134.139 27.307 129.494 29.9772L79.5056 58.7174C75.9493 60.762 73.4386 64.1343 72.4573 67.9998H73.4915C74.4494 64.4968 76.7601 61.4493 80.004 59.5843L129.993 30.8441C134.329 28.3513 139.671 28.3513 144.007 30.8441L193.996 59.5843C197.24 61.4493 199.551 64.4968 200.508 67.9998H201.543ZM195.682 67.9998C194.497 65.4933 192.562 63.3559 190.072 61.924L143.928 35.3946C139.641 32.9297 134.359 32.9297 130.072 35.3946L83.9282 61.924C81.4376 63.3559 79.5026 65.4933 78.3182 67.9998H79.434C80.5447 65.8597 82.2585 64.0374 84.4266 62.7909L130.57 36.2615C134.549 33.9741 139.451 33.9741 143.43 36.2615L189.573 62.7909C191.742 64.0374 193.455 65.8597 194.566 67.9998H195.682ZM189.067 67.9998C188.121 66.8666 186.971 65.8903 185.649 65.1306L143.351 40.812C139.421 38.5525 134.579 38.5525 130.649 40.812L88.3509 65.1306C87.0295 65.8903 85.8787 66.8666 84.9332 67.9998H86.2771C87.0261 67.2262 87.8887 66.5498 88.8493 65.9975L131.148 41.6789C134.769 39.5969 139.231 39.5969 142.852 41.6789L185.151 65.9975C186.111 66.5498 186.974 67.2262 187.723 67.9998H189.067ZM180.64 67.9998L142.773 46.2293C139.201 44.1753 134.799 44.1753 131.226 46.2293L93.3604 67.9998H95.3667L131.725 47.0963C134.989 45.2197 139.011 45.2197 142.275 47.0963L178.633 67.9998H180.64ZM170.64 67.9998L142.196 51.6467C138.981 49.7981 135.019 49.7981 131.804 51.6467L103.36 67.9998H105.367L132.302 52.5136C135.209 50.8424 138.791 50.8424 141.698 52.5136L168.633 67.9998H170.64ZM160.64 67.9998L141.619 57.0641C138.761 55.4209 135.239 55.4209 132.381 57.0641L113.36 67.9998H115.367L132.88 57.931C135.429 56.4652 138.571 56.4652 141.12 57.931L158.633 67.9998H160.64ZM150.64 67.9998L141.041 62.4815C138.541 61.0437 135.459 61.0437 132.959 62.4815L123.36 67.9998H125.367L133.457 63.3484C135.649 62.088 138.351 62.088 140.543 63.3484L148.633 67.9998H150.64ZM31.5929 -0.000244141L9.24158 12.8503C5.62498 14.9296 2.5083 17.6431 0 20.8036V19.2315C2.44127 16.3784 5.38299 13.9152 8.74315 11.9833L29.5866 -0.000244141H31.5929Z" fill="#111112"/>
<path d="M11.5745 -0.000244141V-1.00024H11.3075L11.076 -0.867176L11.5745 -0.000244141ZM13.5808 -0.000244141L14.0792 0.866688L17.3264 -1.00024H13.5808V-0.000244141ZM0 6.65427L-0.498426 5.78734L-1 6.07571V6.65427H0ZM0 7.81124H-1V9.56612L0.509757 8.67156L0 7.81124ZM0.396282 7.57993L0.894709 8.44687H0.894709L0.396282 7.57993ZM4.32051 9.34817L4.81893 10.2151L4.32051 9.34817ZM0 12.2856L-0.623021 11.5034L-1 11.8037V12.2856H0ZM20.5806 -0.000244141V-1.00024H20.3136L20.0821 -0.867176L20.5806 -0.000244141ZM22.5869 -0.000244141L23.0853 0.866688L26.3325 -1.00024H22.5869V-0.000244141ZM4.81893 10.2151L4.32051 9.34816H4.3205L4.81893 10.2151ZM0 13.5764H-1V15.7165L0.641586 14.3434L0 13.5764ZM275 13.1133H276V12.6543L275.652 12.355L275 13.1133ZM269.679 9.34817L269.181 10.2151V10.2151L269.679 9.34817ZM253.419 -0.000244141L253.918 -0.867176L253.686 -1.00024H253.419V-0.000244141ZM251.413 -0.000244141V-1.00024H247.667L250.915 0.866688L251.413 -0.000244141ZM269.181 10.2151L268.683 11.082V11.082L269.181 10.2151ZM275 14.447L274.329 15.1881L276 16.7023V14.447H275ZM275 8.42674L274.462 9.26943L276 10.2523V8.42674H275ZM273.604 7.57993L274.102 6.713L274.102 6.713L273.604 7.57993ZM260.419 -0.000244141V-1.00024H256.674L259.921 0.866688L260.419 -0.000244141ZM262.426 -0.000244141L262.924 -0.867176L262.692 -1.00024H262.426V-0.000244141ZM274.102 6.713L273.604 7.57993V7.57993L274.102 6.713ZM275 7.24672H276V6.68739L275.523 6.39464L275 7.24672ZM265.257 11.9833L265.755 11.1164L265.257 11.9833ZM275 20.458H276V20.1152L275.79 19.8446L275 20.458ZM244.413 -0.000244141L244.912 -0.867176L244.68 -1.00024H244.413V-0.000244141ZM242.407 -0.000244141V-1.00024H238.661L241.909 0.866688L242.407 -0.000244141ZM264.758 12.8503L265.257 11.9833L264.758 12.8503ZM275 22.1323L274.186 22.7129L276 25.2568V22.1323H275ZM275 31.3519H276V31.1725L275.938 31.0042L275 31.3519ZM260.834 14.6185L261.333 13.7516L260.834 14.6185ZM235.407 -0.000244141L235.906 -0.867176L235.674 -1.00024H235.407V-0.000244141ZM233.401 -0.000244141V-1.00024H229.655L232.902 0.866688L233.401 -0.000244141ZM260.336 15.4854L259.837 16.3524L260.336 15.4854ZM275 34.6797L274.032 34.9315L276 34.6797H275ZM0 31.5328H-1L0.935608 31.8859L0 31.5328ZM0 28.9567L-0.906491 28.5345L-1 28.7353V28.9567H0ZM13.1658 14.6185L13.6642 15.4854L13.1658 14.6185ZM38.5927 -0.000244141V-1.00024H38.3258L38.0943 -0.867176L38.5927 -0.000244141ZM40.5991 -0.000244141L41.0975 0.866688L44.3447 -1.00024H40.5991V-0.000244141ZM13.6642 15.4854L14.1627 16.3524L13.6642 15.4854ZM272 66.2451L272.625 67.0254L273 66.7251V66.2451H272ZM256.411 17.2537L255.913 18.1206L256.411 17.2537ZM226.401 -0.000244141L226.9 -0.867176L226.668 -1.00024H226.401V-0.000244141ZM224.395 -0.000244141V-1.00024H220.649L223.896 0.866688L224.395 -0.000244141ZM255.913 18.1206L256.411 17.2537L255.913 18.1206ZM271 66.9295H270V68.6632L271.501 67.7951L271 66.9295ZM3 66.2451L2.37453 67.0254L4 68.3284V66.2451H3ZM2 65.2914H1V65.6696L1.25026 65.9531L2 65.2914ZM17.5885 17.2537L17.09 16.3867L17.5885 17.2537ZM47.5988 -0.000244141V-1.00024H47.3318L47.1004 -0.867176L47.5988 -0.000244141ZM49.6051 -0.000244141L50.1036 0.866688L53.3508 -1.00024H49.6051V-0.000244141ZM18.0869 18.1206L17.5885 17.2537L18.0869 18.1206ZM267 67.9998V68.9998H268V67.9998H267ZM251.989 19.8888L252.487 19.0219L251.989 19.8888ZM217.395 -0.000244141L217.893 -0.867176L217.662 -1.00024H217.395V-0.000244141ZM215.389 -0.000244141V-1.00024H211.643L214.89 0.866688L215.389 -0.000244141ZM251.49 20.7558L251.989 19.8888L251.49 20.7558ZM266 67.9998H265V68.9998H266V67.9998ZM7.99999 67.9998V68.9998H8.99999V67.9998H7.99999ZM7 67.9379H6V68.8209L6.87627 68.9302L7 67.9379ZM22.0111 19.8888L21.5127 19.0219L22.0111 19.8888ZM56.6049 -0.000244141V-1.00024H56.338L56.1065 -0.867176L56.6049 -0.000244141ZM58.6112 -0.000244141L59.1097 0.866688L62.3569 -1.00024H58.6112V-0.000244141ZM22.5095 20.7558L22.0111 19.8888L22.5095 20.7558ZM8 45.7799H9H8ZM262 67.9998V68.9998H263V67.9998H262ZM247.566 22.524L247.068 23.3909L247.566 22.524ZM208.389 -0.000244141L208.887 -0.867176L208.656 -1.00024H208.389V-0.000244141ZM206.383 -0.000244141V-1.00024H202.637L205.884 0.866688L206.383 -0.000244141ZM247.068 23.3909L247.566 22.524L247.068 23.3909ZM261 67.9998H260V68.9998H261V67.9998ZM13 67.9998V68.9998H14V67.9998H13ZM12 67.9998H11V68.9998H12V67.9998ZM26.4338 22.524L26.9322 23.3909L26.4338 22.524ZM65.611 -0.000244141V-1.00024H65.344L65.1126 -0.867176L65.611 -0.000244141ZM67.6173 -0.000244141L68.1158 0.866688L71.363 -1.00024H67.6173V-0.000244141ZM26.9322 23.3909L27.4306 24.2579L26.9322 23.3909ZM257 67.9998V68.9998H258V67.9998H257ZM243.144 25.1592L243.642 24.2922L243.144 25.1592ZM199.383 -0.000244141L199.881 -0.867176L199.65 -1.00024H199.383V-0.000244141ZM197.377 -0.000244141V-1.00024H193.631L196.878 0.866688L197.377 -0.000244141ZM242.645 26.0261L242.147 26.893L242.645 26.0261ZM256 67.9998H255V68.9998H256V67.9998ZM18 67.9998V68.9998H19V67.9998H18ZM17 67.9998H16V68.9998H17V67.9998ZM30.8564 25.1592L30.358 24.2922L30.8564 25.1592ZM74.6171 -0.000244141V-1.00024H74.3501L74.1187 -0.867176L74.6171 -0.000244141ZM76.6234 -0.000244141L77.1218 0.866688L80.3691 -1.00024H76.6234V-0.000244141ZM31.3548 26.0261L31.8533 26.893L31.3548 26.0261ZM252 67.9998V68.9998H253V67.9998H252ZM238.721 27.7943L239.219 26.9274L238.721 27.7943ZM190.377 -0.000244141L190.875 -0.867176L190.644 -1.00024H190.377V-0.000244141ZM188.37 -0.000244141V-1.00024H184.625L187.872 0.866688L188.37 -0.000244141ZM238.222 28.6613L237.724 29.5282L238.222 28.6613ZM251 67.9998H250V68.9998H251V67.9998ZM23 67.9998V68.9998H24V67.9998H23ZM22 67.9998H21V68.9998H22V67.9998ZM35.2791 27.7943L34.7806 26.9274L35.2791 27.7943ZM83.6232 -0.000244141V-1.00024H83.3562L83.1248 -0.867176L83.6232 -0.000244141ZM85.6295 -0.000244141L86.1279 0.866688L89.3752 -1.00024H85.6295V-0.000244141ZM35.7775 28.6613L36.2759 29.5282L35.7775 28.6613ZM247 67.9998V68.9998H248V67.9998H247ZM234.298 30.4295L234.797 29.5625L234.298 30.4295ZM181.371 -0.000244141L181.869 -0.867176L181.638 -1.00024H181.371V-0.000244141ZM179.364 -0.000244141V-1.00024H175.619L178.866 0.866688L179.364 -0.000244141ZM233.8 31.2964L233.301 32.1633L233.8 31.2964ZM246 67.9998H245V68.9998H246V67.9998ZM28 67.9998V68.9998H29V67.9998H28ZM27 67.9998H26V68.9998H27V67.9998ZM39.7017 30.4295L40.2001 31.2964L39.7017 30.4295ZM92.6293 -0.000244141V-1.00024H92.3623L92.1309 -0.867176L92.6293 -0.000244141ZM94.6356 -0.000244141L95.134 0.866688L98.3813 -1.00024H94.6356V-0.000244141ZM40.2001 31.2964L40.6986 32.1633L40.2001 31.2964ZM242 67.9998V68.9998H243V67.9998H242ZM229.876 33.0647L229.377 33.9316L229.876 33.0647ZM172.365 -0.000244141L172.863 -0.867176L172.632 -1.00024H172.365V-0.000244141ZM170.358 -0.000244141V-1.00024H166.613L169.86 0.866688L170.358 -0.000244141ZM229.377 33.9316L228.879 34.7985L229.377 33.9316ZM241 67.9998H240V68.9998H241V67.9998ZM33 67.9998V68.9998H34V67.9998H33ZM32 67.9998H31V68.9998H32V67.9998ZM44.1244 33.0647L44.6228 33.9316L44.1244 33.0647ZM101.635 -0.000244141V-1.00024H101.368L101.137 -0.867176L101.635 -0.000244141ZM103.642 -0.000244141L104.14 0.866688L107.387 -1.00024H103.642V-0.000244141ZM44.6228 33.9316L45.1212 34.7985L44.6228 33.9316ZM237 67.9998V68.9998H238V67.9998H237ZM225.453 36.2712L225.951 35.4043L225.453 36.2712ZM162.365 -0.000244141L162.863 -0.867176L162.632 -1.00024H162.365V-0.000244141ZM160.358 -0.000244141V-1.00024H156.613L159.86 0.866688L160.358 -0.000244141ZM224.955 37.1382L224.456 38.0051L224.955 37.1382ZM236 67.9998H235V68.9998H236V67.9998ZM38 67.9998V68.9998H39V67.9998H38ZM37 67.9998H36V68.9998H37V67.9998ZM48.547 36.2712L49.0454 37.1382H49.0454L48.547 36.2712ZM111.635 -0.000244141V-1.00024H111.368L111.137 -0.867176L111.635 -0.000244141ZM113.642 -0.000244141L114.14 0.866688L117.387 -1.00024H113.642V-0.000244141ZM49.0454 37.1382L49.5439 38.0051L49.0454 37.1382ZM232 67.9998V68.9998H233V67.9998H232ZM221.03 39.4778L221.529 38.6109L221.03 39.4778ZM152.365 -0.000244141L152.863 -0.867176L152.632 -1.00024H152.365V-0.000244141ZM150.358 -0.000244141V-1.00024H146.613L149.86 0.866688L150.358 -0.000244141ZM220.532 40.3447L220.033 41.2117L220.532 40.3447ZM231 67.9998H230V68.9998H231V67.9998ZM43 67.9998V68.9998H44V67.9998H43ZM42 67.9998H41V68.9998H42V67.9998ZM52.9697 39.4778L52.4712 38.6109H52.4712L52.9697 39.4778ZM121.635 -0.000244141V-1.00024H121.368L121.137 -0.867176L121.635 -0.000244141ZM123.642 -0.000244141L124.14 0.866688L127.387 -1.00024H123.642V-0.000244141ZM53.4681 40.3447L52.9697 39.4778H52.9697L53.4681 40.3447ZM227 67.9998V68.9998H228V67.9998H227ZM216.608 42.6844L217.106 41.8175L216.608 42.6844ZM147.392 2.89034L147.891 2.02341V2.02341L147.392 2.89034ZM126.608 2.89034L126.109 2.02341V2.02341L126.608 2.89034ZM57.3923 42.6844L56.8939 41.8175H56.8939L57.3923 42.6844ZM47 67.9998H46V68.9998H47V67.9998ZM48 67.9998V68.9998H49V67.9998H48ZM57.8907 43.5514L58.3892 44.4183H58.3892L57.8907 43.5514ZM127.106 3.75728L127.605 4.62421L127.106 3.75728ZM146.894 3.75728L146.395 4.62421L146.894 3.75728ZM216.109 43.5514L216.608 42.6844L216.109 43.5514ZM226 67.9998H225V68.9998H226V67.9998ZM222 67.9998V68.9998H223V67.9998H222ZM212.185 45.891L211.687 46.758L212.185 45.891ZM146.815 8.3077L147.313 7.44077V7.44077L146.815 8.3077ZM127.185 8.3077L126.687 7.44077V7.44077L127.185 8.3077ZM61.815 45.891L62.3134 46.758H62.3134L61.815 45.891ZM52 67.9998H51V68.9998H52V67.9998ZM53 67.9998V68.9998H54V67.9998H53ZM62.3134 46.7579L61.815 45.891H61.8149L62.3134 46.7579ZM127.683 9.17464L127.185 8.3077L127.683 9.17464ZM146.317 9.17464L146.815 8.3077L146.317 9.17464ZM211.687 46.7579L211.188 47.6249L211.687 46.7579ZM221 67.9998H220V68.9998H221V67.9998ZM217 67.9998V68.9998H218V67.9998H217ZM207.762 49.0976L208.261 48.2307L207.762 49.0976ZM146.238 13.7251L145.739 14.592L146.238 13.7251ZM127.762 13.7251L128.261 14.592L127.762 13.7251ZM66.2376 49.0976L65.7392 48.2307L66.2376 49.0976ZM57 67.9998H56V68.9998H57V67.9998ZM58 67.9998V68.9998H59V67.9998H58ZM66.736 49.9645L67.2345 50.8315L66.736 49.9645ZM128.261 14.592L128.759 15.4589L128.261 14.592ZM145.739 14.592L146.238 13.7251V13.7251L145.739 14.592ZM207.264 49.9645L206.766 50.8315L207.264 49.9645ZM216 67.9998H215V68.9998H216V67.9998ZM212 67.9998V68.9998H213V67.9998H212ZM203.34 52.3042L202.841 53.1712L203.34 52.3042ZM145.66 19.1425L145.162 20.0094L145.66 19.1425ZM128.34 19.1425L128.838 20.0094L128.34 19.1425ZM70.6603 52.3042L71.1587 53.1712L70.6603 52.3042ZM62 67.9998H61V68.9998H62V67.9998ZM63 67.9998V68.9998H64V67.9998H63ZM71.1587 53.1712L70.6602 52.3042L71.1587 53.1712ZM128.838 20.0094L129.337 20.8763L128.838 20.0094ZM145.162 20.0094L144.663 20.8763L145.162 20.0094ZM202.841 53.1712L202.343 54.0381L202.841 53.1712ZM211 67.9998H210V68.9998H211V67.9998ZM206.934 67.9998V68.9998H208.029L207.93 67.9093L206.934 67.9998ZM198.917 55.5108L199.416 54.6439L198.917 55.5108ZM145.083 24.5598L144.584 25.4268L145.083 24.5598ZM128.917 24.5598L128.419 23.6929L128.917 24.5598ZM75.0829 55.5108L75.5813 56.3777L75.0829 55.5108ZM67.0658 67.9998L66.0699 67.9093L65.9708 68.9998H67.0658V67.9998ZM68.0702 67.9998V68.9998H68.9779L69.0655 68.0962L68.0702 67.9998ZM75.5813 56.3777L75.0829 55.5108L75.5813 56.3777ZM129.416 25.4268L129.914 26.2937L129.416 25.4268ZM144.584 25.4268L144.086 26.2937L144.584 25.4268ZM198.419 56.3777L198.917 55.5108L198.419 56.3777ZM205.93 67.9998L204.935 68.0962L205.022 68.9998H205.93V67.9998ZM201.543 67.9998V68.9998H202.828L202.512 67.7537L201.543 67.9998ZM194.494 58.7174L194.993 57.8504L194.494 58.7174ZM144.506 29.9772L144.007 30.8441L144.506 29.9772ZM129.494 29.9772L128.996 29.1103L129.494 29.9772ZM79.5056 58.7174L79.0071 57.8504L79.5056 58.7174ZM72.4573 67.9998L71.4881 67.7537L71.1718 68.9998H72.4573V67.9998ZM73.4915 67.9998V68.9998H74.2548L74.4561 68.2635L73.4915 67.9998ZM80.004 59.5843L80.5024 60.4512L80.004 59.5843ZM129.993 30.8441L129.494 29.9772L129.993 30.8441ZM144.007 30.8441L144.506 29.9772L144.007 30.8441ZM193.996 59.5843L193.498 60.4512L193.996 59.5843ZM200.508 67.9998L199.544 68.2635L199.745 68.9998H200.508V67.9998ZM190.072 61.924L190.57 61.057L190.072 61.924ZM195.682 67.9998V68.9998H197.26L196.586 67.5725L195.682 67.9998ZM143.928 35.3946L144.427 34.5276L143.928 35.3946ZM130.072 35.3946L129.573 34.5276L130.072 35.3946ZM83.9282 61.924L83.4298 61.057L83.9282 61.924ZM78.3182 67.9998L77.414 67.5725L76.7396 68.9998H78.3182V67.9998ZM79.434 67.9998V68.9998H80.0417L80.3216 68.4604L79.434 67.9998ZM84.4266 62.7909L84.925 63.6578H84.9251L84.4266 62.7909ZM130.57 36.2615L131.069 37.1284L130.57 36.2615ZM143.43 36.2615L143.928 35.3946L143.43 36.2615ZM189.573 62.7909L189.075 63.6578L189.573 62.7909ZM194.566 67.9998L193.678 68.4604L193.958 68.9998H194.566V67.9998ZM189.067 67.9998V68.9998H191.204L189.835 67.3591L189.067 67.9998ZM185.649 65.1306L185.151 65.9975L185.649 65.1306ZM143.351 40.812L142.852 41.6789L143.351 40.812ZM130.649 40.812L131.148 41.6789L130.649 40.812ZM88.3509 65.1306L88.8493 65.9975H88.8493L88.3509 65.1306ZM84.9332 67.9998L84.1654 67.3591L82.7964 68.9998H84.9332V67.9998ZM86.2771 67.9998V68.9998H86.7008L86.9955 68.6954L86.2771 67.9998ZM88.8493 65.9975L88.3509 65.1306V65.1306L88.8493 65.9975ZM131.148 41.6789L130.649 40.812L131.148 41.6789ZM142.852 41.6789L143.351 40.812L142.852 41.6789ZM185.151 65.9975L185.649 65.1306V65.1306L185.151 65.9975ZM187.723 67.9998L187.005 68.6954L187.299 68.9998H187.723V67.9998ZM142.773 46.2293L143.272 45.3624L142.773 46.2293ZM180.64 67.9998V68.9998H184.385L181.138 67.1328L180.64 67.9998ZM131.226 46.2293L131.725 47.0963L131.226 46.2293ZM93.3604 67.9998L92.862 67.1328L89.6147 68.9998H93.3604V67.9998ZM95.3667 67.9998V68.9998H95.6337L95.8651 68.8667L95.3667 67.9998ZM131.725 47.0963L132.223 47.9632L131.725 47.0963ZM142.275 47.0963L141.777 47.9632L142.275 47.0963ZM178.633 67.9998L178.135 68.8667L178.366 68.9998H178.633V67.9998ZM170.64 67.9998V68.9998H174.385L171.138 67.1328L170.64 67.9998ZM142.196 51.6467L142.695 50.7798L142.196 51.6467ZM131.804 51.6467L131.305 50.7798L131.804 51.6467ZM103.36 67.9998L102.862 67.1328L99.6147 68.9998H103.36V67.9998ZM105.367 67.9998V68.9998H105.634L105.865 68.8667L105.367 67.9998ZM132.302 52.5136L131.804 51.6467L132.302 52.5136ZM141.698 52.5136L141.199 53.3806L141.698 52.5136ZM168.633 67.9998L168.135 68.8667L168.366 68.9998H168.633V67.9998ZM141.619 57.0641L141.12 57.931L141.619 57.0641ZM160.64 67.9998V68.9998H164.385L161.138 67.1328L160.64 67.9998ZM132.381 57.0641L132.88 57.931L132.381 57.0641ZM113.36 67.9998L112.862 67.1328L109.615 68.9998H113.36V67.9998ZM115.367 67.9998V68.9998H115.634L115.865 68.8667L115.367 67.9998ZM132.88 57.931L133.378 58.798L132.88 57.931ZM141.12 57.931L140.622 58.798L141.12 57.931ZM158.633 67.9998L158.135 68.8667L158.366 68.9998H158.633V67.9998ZM150.64 67.9998V68.9998H154.385L151.138 67.1328L150.64 67.9998ZM141.041 62.4815L140.543 63.3484L141.041 62.4815ZM132.959 62.4815L133.457 63.3484L132.959 62.4815ZM123.36 67.9998L122.862 67.1328L119.615 68.9998H123.36V67.9998ZM125.367 67.9998V68.9998H125.634L125.865 68.8667L125.367 67.9998ZM133.457 63.3484L132.959 62.4815L133.457 63.3484ZM140.543 63.3484L141.041 62.4815L140.543 63.3484ZM148.633 67.9998L148.135 68.8667L148.366 68.9998H148.633V67.9998ZM31.5929 -0.000244141L32.0914 0.866688L35.3386 -1.00024H31.5929V-0.000244141ZM9.24158 12.8503L8.74315 11.9833L9.24158 12.8503ZM0 20.8036H-1V23.6721L0.783285 21.4252L0 20.8036ZM0 19.2315L-0.759816 18.5814L-1 18.8621V19.2315H0ZM8.74315 11.9833L8.24473 11.1164L8.74315 11.9833ZM29.5866 -0.000244141V-1.00024H29.3197L29.0882 -0.867176L29.5866 -0.000244141ZM11.5745 0.999756H13.5808V-1.00024H11.5745V0.999756ZM0.498426 7.5212L12.0729 0.866688L11.076 -0.867176L-0.498426 5.78734L0.498426 7.5212ZM1 7.81124V6.65427H-1V7.81124H1ZM-0.102144 6.713C-0.238662 6.79149 -0.374534 6.8708 -0.509757 6.95092L0.509757 8.67156C0.637459 8.59589 0.765778 8.52099 0.894709 8.44687L-0.102144 6.713ZM13.0823 -0.867176L-0.102144 6.713L0.894709 8.44687L14.0792 0.866688L13.0823 -0.867176ZM3.82208 8.48124C2.25226 9.38377 0.768068 10.3954 -0.623021 11.5034L0.623021 13.0678C1.93585 12.0221 3.33678 11.0672 4.81893 10.2151L3.82208 8.48124ZM20.0821 -0.867176L3.82208 8.48124L4.81893 10.2151L21.079 0.866688L20.0821 -0.867176ZM20.5806 0.999756H22.5869V-1.00024H20.5806V0.999756ZM5.31736 11.082L23.0853 0.866688L22.0884 -0.867176L4.32051 9.34816L5.31736 11.082ZM0.641586 14.3434C2.08716 13.1343 3.64922 12.0411 5.31736 11.082L4.3205 9.34816C2.55066 10.3657 0.892859 11.5259 -0.641586 12.8093L0.641586 14.3434ZM1 13.5764V12.2856H-1V13.5764H1ZM275.652 12.355C273.971 10.9097 272.141 9.61015 270.178 8.48123L269.181 10.2151C271.035 11.2809 272.762 12.5076 274.348 13.8715L275.652 12.355ZM270.178 8.48124L253.918 -0.867176L252.921 0.866688L269.181 10.2151L270.178 8.48124ZM251.413 0.999756H253.419V-1.00024H251.413V0.999756ZM250.915 0.866688L268.683 11.082L269.679 9.34816L251.912 -0.867176L250.915 0.866688ZM268.683 11.082C270.731 12.2597 272.619 13.6396 274.329 15.1881L275.671 13.7059C273.857 12.0621 271.853 10.5976 269.679 9.34816L268.683 11.082ZM274 13.1133V14.447H276V13.1133H274ZM275.538 7.58405C275.068 7.28349 274.589 6.99302 274.102 6.713L273.105 8.44686C273.565 8.71132 274.017 8.98563 274.462 9.26943L275.538 7.58405ZM274.102 6.713L260.918 -0.867176L259.921 0.866688L273.105 8.44687L274.102 6.713ZM260.419 0.999756H262.426V-1.00024H260.419V0.999756ZM261.927 0.866688L273.604 7.57993L274.601 5.84607L262.924 -0.867176L261.927 0.866688ZM273.604 7.57993C273.898 7.74901 274.189 7.92199 274.477 8.0988L275.523 6.39464C275.219 6.20769 274.911 6.0248 274.601 5.84606L273.604 7.57993ZM274 7.24672V8.42674H276V7.24672H274ZM264.758 12.8503C268.477 14.9882 271.667 17.7964 274.21 21.0714L275.79 19.8446C273.089 16.3671 269.702 13.3856 265.755 11.1164L264.758 12.8503ZM243.915 0.866688L264.758 12.8503L265.755 11.1164L244.912 -0.867176L243.915 0.866688ZM242.407 0.999756H244.413V-1.00024H242.407V0.999756ZM265.257 11.9833L242.905 -0.867176L241.909 0.866688L264.26 13.7172L265.257 11.9833ZM275.814 21.5517C273.071 17.7055 269.497 14.4212 265.257 11.9833L264.26 13.7172C268.248 16.0098 271.608 19.0974 274.186 22.7129L275.814 21.5517ZM274 20.458V22.1323H276V20.458H274ZM275.938 31.0042C273.282 23.8415 268.179 17.688 261.333 13.7516L260.336 15.4854C266.772 19.1858 271.567 24.969 274.062 31.6996L275.938 31.0042ZM261.333 13.7516L235.906 -0.867176L234.909 0.866688L260.336 15.4854L261.333 13.7516ZM233.401 0.999756H235.407V-1.00024H233.401V0.999756ZM232.902 0.866688L259.837 16.3524L260.834 14.6185L233.899 -0.867176L232.902 0.866688ZM259.837 16.3524C266.971 20.4535 272.02 27.1967 274.032 34.9315L275.968 34.428C273.822 26.1791 268.438 18.9899 260.834 14.6185L259.837 16.3524ZM274 31.3519V34.6797H276V31.3519H274ZM1 31.5328V28.9567H-1V31.5328H1ZM12.6674 13.7516C6.62135 17.2276 1.93567 22.4326 -0.906491 28.5345L0.906491 29.3789C3.57733 23.6448 7.9807 18.7531 13.6642 15.4854L12.6674 13.7516ZM38.0943 -0.867176L12.6674 13.7516L13.6642 15.4854L39.0912 0.866688L38.0943 -0.867176ZM38.5927 0.999756H40.5991V-1.00024H38.5927V0.999756ZM14.1627 16.3524L41.0975 0.866688L40.1006 -0.867176L13.1658 14.6185L14.1627 16.3524ZM0.935608 31.8859C3.36769 25.4405 7.98318 19.9051 14.1627 16.3524L13.1658 14.6185C6.57911 18.4054 1.65781 24.3069 -0.935608 31.1798L0.935608 31.8859ZM271 44.1405V66.2451H273V44.1405H271ZM255.913 18.1206C265.25 23.4888 271 33.4081 271 44.1405H273C273 32.6894 266.865 22.1103 256.91 16.3867L255.913 18.1206ZM225.903 0.866688L255.913 18.1206L256.91 16.3867L226.9 -0.867176L225.903 0.866688ZM224.395 0.999756H226.401V-1.00024H224.395V0.999756ZM256.411 17.2537L224.893 -0.867176L223.896 0.866688L255.415 18.9875L256.411 17.2537ZM272 44.1405C272 33.0488 266.058 22.7995 256.411 17.2537L255.415 18.9875C264.443 24.178 270 33.7674 270 44.1405H272ZM272 66.9295V44.1405H270V66.9295H272ZM271.375 65.4649C271.099 65.6858 270.806 65.8862 270.499 66.0639L271.501 67.7951C271.896 67.5666 272.272 67.3091 272.625 67.0254L271.375 65.4649ZM3.62547 65.4649C3.31011 65.2121 3.01704 64.9325 2.74974 64.6297L1.25026 65.9531C1.59339 66.3419 1.9696 66.7008 2.37453 67.0254L3.62547 65.4649ZM3 65.2914V44.1405H1V65.2914H3ZM3 44.1405C3 33.4081 8.74978 23.4888 18.0869 18.1206L17.09 16.3867C7.13479 22.1103 1 32.6894 1 44.1405H3ZM18.0869 18.1206L48.0972 0.866688L47.1004 -0.867176L17.09 16.3867L18.0869 18.1206ZM47.5988 0.999756H49.6051V-1.00024H47.5988V0.999756ZM49.1067 -0.867176L17.5885 17.2537L18.5853 18.9875L50.1036 0.866688L49.1067 -0.867176ZM17.5885 17.2537C7.94228 22.7995 2 33.0488 2 44.1405H4C4 33.7674 9.55728 24.178 18.5853 18.9875L17.5885 17.2537ZM2 44.1405V66.2451H4V44.1405H2ZM268 67.9998V45.7799H266V67.9998H268ZM268 45.7799C268 34.7396 262.085 24.5401 252.487 19.0219L251.49 20.7558C260.47 25.9185 266 35.4582 266 45.7799H268ZM252.487 19.0219L217.893 -0.867176L216.897 0.866688L251.49 20.7558L252.487 19.0219ZM215.389 0.999756H217.395V-1.00024H215.389V0.999756ZM214.89 0.866688L250.992 21.6227L251.989 19.8888L215.887 -0.867176L214.89 0.866688ZM250.992 21.6227C259.663 26.6078 265 35.8176 265 45.7799H267C267 35.0989 261.278 25.2293 251.989 19.8888L250.992 21.6227ZM265 45.7799V67.9998H267V45.7799H265ZM267 66.9998H266V68.9998H267V66.9998ZM7.99999 66.9998C7.7028 66.9998 7.41038 66.9813 7.12373 66.9455L6.87627 68.9302C7.24481 68.9761 7.61987 68.9998 7.99999 68.9998V66.9998ZM6 45.7799V67.9379H8V45.7799H6ZM21.5127 19.0219C11.9147 24.5401 6 34.7396 6 45.7799H8C8 35.4582 13.5297 25.9185 22.5095 20.7558L21.5127 19.0219ZM56.1065 -0.867176L21.5127 19.0219L22.5095 20.7558L57.1034 0.866688L56.1065 -0.867176ZM56.6049 0.999756H58.6112V-1.00024H56.6049V0.999756ZM23.008 21.6227L59.1097 0.866688L58.1128 -0.867176L22.0111 19.8888L23.008 21.6227ZM9 45.7799C9 35.8176 14.3372 26.6078 23.008 21.6227L22.0111 19.8888C12.7222 25.2293 7 35.0989 7 45.7799H9ZM8.99999 67.9998L9 45.7799H7L6.99999 67.9998H8.99999ZM261 47.4192V67.9998H263V47.4192H261ZM247.068 23.3909C255.69 28.3483 261 37.5084 261 47.4192H263C263 36.7898 257.305 26.9698 248.065 21.6571L247.068 23.3909ZM207.891 0.866688L247.068 23.3909L248.065 21.6571L208.887 -0.867176L207.891 0.866688ZM206.383 0.999756H208.389V-1.00024H206.383V0.999756ZM247.566 22.524L206.881 -0.867176L205.884 0.866688L246.569 24.2579L247.566 22.524ZM262 47.4192C262 37.1491 256.498 27.6591 247.566 22.524L246.569 24.2579C254.883 29.0375 260 37.8677 260 47.4192H262ZM262 67.9998V47.4192H260V67.9998H262ZM262 66.9998H261V68.9998H262V66.9998ZM13 66.9998H12V68.9998H13V66.9998ZM13 67.9998V47.4192H11V67.9998H13ZM13 47.4192C13 37.5084 18.3096 28.3483 26.9322 23.3909L25.9353 21.6571C16.6946 26.9698 11 36.7898 11 47.4192H13ZM26.9322 23.3909L66.1094 0.866688L65.1126 -0.867176L25.9353 21.6571L26.9322 23.3909ZM65.611 0.999756H67.6173V-1.00024H65.611V0.999756ZM67.1189 -0.867176L26.4338 22.524L27.4306 24.2579L68.1158 0.866688L67.1189 -0.867176ZM26.4338 22.524C17.5021 27.6591 12 37.1491 12 47.4192H14C14 37.8677 19.1171 29.0375 27.4306 24.2579L26.4338 22.524ZM12 47.4192V67.9998H14V47.4192H12ZM258 67.9998V49.0586H256V67.9998H258ZM258 49.0586C258 38.8399 252.525 29.3996 243.642 24.2922L242.645 26.0261C250.91 30.7781 256 39.5586 256 49.0586H258ZM243.642 24.2922L199.881 -0.867176L198.884 0.866688L242.645 26.0261L243.642 24.2922ZM197.377 0.999756H199.383V-1.00024H197.377V0.999756ZM196.878 0.866688L242.147 26.893L243.144 25.1592L197.875 -0.867176L196.878 0.866688ZM242.147 26.893C250.103 31.4673 255 39.9179 255 49.0586H257C257 39.1992 251.718 30.0888 243.144 25.1592L242.147 26.893ZM255 49.0586V67.9998H257V49.0586H255ZM257 66.9998H256V68.9998H257V66.9998ZM18 66.9998H17V68.9998H18V66.9998ZM16 49.0586V67.9998H18V49.0586H16ZM30.358 24.2922C21.4745 29.3996 16 38.8399 16 49.0586H18C18 39.5586 23.0895 30.7781 31.3548 26.0261L30.358 24.2922ZM74.1187 -0.867176L30.358 24.2922L31.3548 26.0261L75.1155 0.866688L74.1187 -0.867176ZM74.6171 0.999756H76.6234V-1.00024H74.6171V0.999756ZM31.8533 26.893L77.1218 0.866688L76.125 -0.867176L30.8564 25.1592L31.8533 26.893ZM19 49.0586C19 39.9179 23.897 31.4673 31.8533 26.893L30.8564 25.1592C22.282 30.0888 17 39.1993 17 49.0586H19ZM19 67.9998V49.0586H17V67.9998H19ZM251 50.698V67.9998H253V50.698H251ZM238.222 28.6613C246.131 33.2078 251 41.6087 251 50.698H253C253 40.8901 247.746 31.8294 239.219 26.9274L238.222 28.6613ZM189.878 0.866688L238.222 28.6613L239.219 26.9274L190.875 -0.867176L189.878 0.866688ZM188.37 0.999756H190.377V-1.00024H188.37V0.999756ZM238.721 27.7943L188.869 -0.867176L187.872 0.866688L237.724 29.5282L238.721 27.7943ZM252 50.698C252 41.2494 246.938 32.5186 238.721 27.7943L237.724 29.5282C245.323 33.8971 250 41.968 250 50.698H252ZM252 67.9998V50.698H250V67.9998H252ZM252 66.9998H251V68.9998H252V66.9998ZM23 66.9998H22V68.9998H23V66.9998ZM23 67.9998V50.698H21V67.9998H23ZM23 50.698C23 41.6087 27.8694 33.2078 35.7775 28.6613L34.7806 26.9274C26.2544 31.8294 21 40.8901 21 50.698H23ZM35.7775 28.6613L84.1216 0.866688L83.1248 -0.867176L34.7806 26.9274L35.7775 28.6613ZM83.6232 0.999756H85.6295V-1.00024H83.6232V0.999756ZM85.1311 -0.867176L35.2791 27.7943L36.2759 29.5282L86.1279 0.866688L85.1311 -0.867176ZM35.2791 27.7943C27.0619 32.5186 22 41.2494 22 50.698H24C24 41.968 28.6769 33.8971 36.2759 29.5282L35.2791 27.7943ZM22 50.698V67.9998H24V50.698H22ZM248 67.9998V52.3373H246V67.9998H248ZM248 52.3373C248 42.9403 242.966 34.2591 234.797 29.5625L233.8 31.2964C241.351 35.6376 246 43.6589 246 52.3373H248ZM234.797 29.5625L181.869 -0.867176L180.872 0.866688L233.8 31.2964L234.797 29.5625ZM179.364 0.999756H181.371V-1.00024H179.364V0.999756ZM178.866 0.866688L233.301 32.1633L234.298 30.4295L179.863 -0.867176L178.866 0.866688ZM233.301 32.1633C240.543 36.3268 245 44.0182 245 52.3373H247C247 43.2996 242.158 34.9484 234.298 30.4295L233.301 32.1633ZM245 52.3373V67.9998H247V52.3373H245ZM247 66.9998H246V68.9998H247V66.9998ZM28 66.9998H27V68.9998H28V66.9998ZM26 52.3373V67.9998H28V52.3373H26ZM39.2033 29.5625C31.0344 34.2591 26 42.9403 26 52.3373H28C28 43.6589 32.6494 35.6376 40.2001 31.2964L39.2033 29.5625ZM92.1309 -0.867176L39.2033 29.5625L40.2001 31.2964L93.1277 0.866688L92.1309 -0.867176ZM92.6293 0.999756H94.6356V-1.00024H92.6293V0.999756ZM40.6986 32.1633L95.134 0.866688L94.1372 -0.867176L39.7017 30.4295L40.6986 32.1633ZM29 52.3373C29 44.0182 33.4569 36.3268 40.6986 32.1633L39.7017 30.4295C31.8419 34.9484 27 43.2996 27 52.3373H29ZM29 67.9998V52.3373H27V67.9998H29ZM241 53.9767V67.9998H243V53.9767H241ZM229.377 33.9316C236.571 38.0674 241 45.709 241 53.9767H243C243 44.9904 238.186 36.6889 230.374 32.1977L229.377 33.9316ZM171.866 0.866688L229.377 33.9316L230.374 32.1977L172.863 -0.867176L171.866 0.866688ZM170.358 0.999756H172.365V-1.00024H170.358V0.999756ZM229.876 33.0646L170.857 -0.867176L169.86 0.866688L228.879 34.7985L229.876 33.0646ZM242 53.9767C242 45.3497 237.378 37.3781 229.876 33.0646L228.879 34.7985C235.763 38.7566 240 46.0684 240 53.9767H242ZM242 67.9998V53.9767H240V67.9998H242ZM242 66.9998H241V68.9998H242V66.9998ZM33 66.9998H32V68.9998H33V66.9998ZM33 67.9998V53.9767H31V67.9998H33ZM33 53.9767C33 45.709 37.4293 38.0674 44.6228 33.9316L43.6259 32.1977C35.8143 36.6889 31 44.9904 31 53.9767H33ZM44.6228 33.9316L102.134 0.866688L101.137 -0.867176L43.6259 32.1977L44.6228 33.9316ZM101.635 0.999756H103.642V-1.00024H101.635V0.999756ZM103.143 -0.867176L44.1244 33.0646L45.1212 34.7985L104.14 0.866688L103.143 -0.867176ZM44.1244 33.0646C36.6218 37.3781 32 45.3497 32 53.9767H34C34 46.0684 38.2368 38.7566 45.1212 34.7985L44.1244 33.0646ZM32 53.9767V67.9998H34V53.9767H32ZM238 67.9998V56.1874H236V67.9998H238ZM238 56.1874C238 47.612 233.406 39.69 225.951 35.4043L224.955 37.1382C231.791 41.0685 236 48.3306 236 56.1874H238ZM225.951 35.4043L162.863 -0.867176L161.866 0.866688L224.955 37.1382L225.951 35.4043ZM160.358 0.999756H162.365V-1.00024H160.358V0.999756ZM159.86 0.866688L224.456 38.0051L225.453 36.2712L160.857 -0.867176L159.86 0.866688ZM224.456 38.0051C230.983 41.7578 235 48.6899 235 56.1874H237C237 47.9713 232.598 40.3793 225.453 36.2712L224.456 38.0051ZM235 56.1874V67.9998H237V56.1874H235ZM237 66.9998H236V68.9998H237V66.9998ZM38 66.9998H37V68.9998H38V66.9998ZM36 56.1874V67.9998H38V56.1874H36ZM48.0486 35.4043C40.5942 39.69 36 47.612 36 56.1874H38C38 48.3306 42.2092 41.0685 49.0454 37.1382L48.0486 35.4043ZM111.137 -0.867176L48.0486 35.4043L49.0454 37.1382L112.134 0.866688L111.137 -0.867176ZM111.635 0.999756H113.642V-1.00024H111.635V0.999756ZM49.5439 38.0051L114.14 0.866688L113.143 -0.867176L48.547 36.2712L49.5439 38.0051ZM39 56.1874C39 48.6899 43.0167 41.7578 49.5439 38.0051L48.547 36.2712C41.4017 40.3793 37 47.9713 37 56.1874H39ZM39 67.9998V56.1874H37V67.9998H39ZM231 58.3982V67.9998H233V58.3982H231ZM220.532 40.3447C227.011 44.0697 231 50.9522 231 58.3982H233C233 50.2336 228.626 42.6912 221.529 38.6109L220.532 40.3447ZM151.866 0.866688L220.532 40.3447L221.529 38.6109L152.863 -0.867176L151.866 0.866688ZM150.358 0.999756H152.365V-1.00024H150.358V0.999756ZM221.03 39.4778L150.857 -0.867176L149.86 0.866688L220.033 41.2117L221.03 39.4778ZM232 58.3982C232 50.5929 227.818 43.3805 221.03 39.4778L220.033 41.2117C226.203 44.7589 230 51.3115 230 58.3982H232ZM232 67.9998V58.3982H230V67.9998H232ZM232 66.9998H231V68.9998H232V66.9998ZM43 66.9998H42V68.9998H43V66.9998ZM43 67.9998V58.3982H41V67.9998H43ZM43 58.3982C43 50.9522 46.9891 44.0697 53.4681 40.3447L52.4712 38.6109C45.3741 42.6912 41 50.2336 41 58.3982H43ZM53.4681 40.3447L122.134 0.866688L121.137 -0.867176L52.4712 38.6109L53.4681 40.3447ZM121.635 0.999756H123.642V-1.00024H121.635V0.999756ZM123.143 -0.867176L52.9697 39.4778L53.9665 41.2117L124.14 0.866688L123.143 -0.867176ZM52.9697 39.4778C46.1816 43.3805 42 50.5929 42 58.3982H44C44 51.3115 47.7966 44.7589 53.9665 41.2117L52.9697 39.4778ZM42 58.3982V67.9998H44V58.3982H42ZM228 67.9998V60.609H226V67.9998H228ZM228 60.609C228 52.8552 223.846 45.6925 217.106 41.8175L216.109 43.5514C222.231 47.0709 226 53.5738 226 60.609H228ZM217.106 41.8175L147.891 2.02341L146.894 3.75727L216.109 43.5514L217.106 41.8175ZM147.891 2.02341C141.151 -1.85127 132.849 -1.85127 126.109 2.02341L127.106 3.75727C133.228 0.237441 140.772 0.237441 146.894 3.75727L147.891 2.02341ZM126.109 2.02341L56.8939 41.8175L57.8907 43.5514L127.106 3.75727L126.109 2.02341ZM56.8939 41.8175C50.154 45.6925 46 52.8552 46 60.609H48C48 53.5738 51.769 47.0709 57.8907 43.5514L56.8939 41.8175ZM46 60.609V67.9998H48V60.609H46ZM48 66.9998H47V68.9998H48V66.9998ZM49 67.9998V60.609H47V67.9998H49ZM49 60.609C49 53.9331 52.5765 47.7602 58.3892 44.4183L57.3923 42.6844C50.9615 46.3817 47 53.2145 47 60.609H49ZM58.3892 44.4183L127.605 4.62421L126.608 2.89035L57.3923 42.6844L58.3892 44.4183ZM127.605 4.62421C133.418 1.2818 140.582 1.2818 146.395 4.62421L147.392 2.89035C140.962 -0.806914 133.038 -0.806914 126.608 2.89035L127.605 4.62421ZM146.395 4.62421L215.611 44.4183L216.608 42.6844L147.392 2.89035L146.395 4.62421ZM215.611 44.4183C221.423 47.7602 225 53.9331 225 60.609H227C227 53.2145 223.038 46.3817 216.608 42.6844L215.611 44.4183ZM225 60.609V67.9998H227V60.609H225ZM227 66.9998H226V68.9998H227V66.9998ZM221 62.8198V67.9998H223V62.8198H221ZM211.687 46.758C217.451 50.0721 221 56.1954 221 62.8198H223C223 55.4768 219.066 48.6936 212.683 45.0241L211.687 46.758ZM146.317 9.17463L211.687 46.758L212.683 45.0241L147.313 7.44077L146.317 9.17463ZM127.683 9.17463C133.448 5.86021 140.552 5.86021 146.317 9.17463L147.313 7.44077C140.931 3.77149 133.069 3.77149 126.687 7.44077L127.683 9.17463ZM62.3134 46.758L127.683 9.17463L126.687 7.44077L61.3165 45.0241L62.3134 46.758ZM53 62.8198C53 56.1954 56.5489 50.0721 62.3134 46.758L61.3165 45.0241C54.9339 48.6936 51 55.4768 51 62.8198H53ZM53 67.9998V62.8198H51V67.9998H53ZM53 66.9998H52V68.9998H53V66.9998ZM52 62.8198V67.9998H54V62.8198H52ZM61.8149 45.891C55.7414 49.3829 52 55.8361 52 62.8198H54C54 56.5547 57.3564 50.7613 62.8118 47.6249L61.8149 45.891ZM127.185 8.3077L61.815 45.891L62.8118 47.6249L128.182 10.0416L127.185 8.3077ZM146.815 8.3077C140.741 4.81585 133.259 4.81585 127.185 8.3077L128.182 10.0416C133.638 6.90456 140.362 6.90456 145.818 10.0416L146.815 8.3077ZM212.185 45.891L146.815 8.3077L145.818 10.0416L211.188 47.6249L212.185 45.891ZM222 62.8198C222 55.8361 218.259 49.3829 212.185 45.891L211.188 47.6249C216.644 50.7613 220 56.5547 220 62.8198H222ZM222 67.9998V62.8198H220V67.9998H222ZM222 66.9998H221V68.9998H222V66.9998ZM218 67.9998V65.0306H216V67.9998H218ZM218 65.0306C218 58.0983 214.286 51.6948 208.261 48.2307L207.264 49.9645C212.671 53.0733 216 58.817 216 65.0306H218ZM208.261 48.2307L146.736 12.8581L145.739 14.592L207.264 49.9645L208.261 48.2307ZM146.736 12.8581C140.711 9.39425 133.289 9.39425 127.264 12.8581L128.261 14.592C133.668 11.483 140.332 11.483 145.739 14.592L146.736 12.8581ZM127.264 12.8581L65.7392 48.2307L66.736 49.9645L128.261 14.592L127.264 12.8581ZM65.7392 48.2307C59.7139 51.6948 56 58.0983 56 65.0305H58C58 58.817 61.3288 53.0733 66.736 49.9645L65.7392 48.2307ZM56 65.0305V67.9998H58V65.0305H56ZM58 66.9998H57V68.9998H58V66.9998ZM59 67.9998V65.0305H57V67.9998H59ZM59 65.0305C59 59.1763 62.1364 53.7625 67.2345 50.8315L66.2376 49.0976C60.5213 52.384 57 58.4577 57 65.0305H59ZM67.2345 50.8315L128.759 15.4589L127.762 13.7251L66.2376 49.0976L67.2345 50.8315ZM128.759 15.4589C133.858 12.5273 140.142 12.5273 145.241 15.4589L146.238 13.7251C140.521 10.4386 133.479 10.4386 127.762 13.7251L128.759 15.4589ZM145.241 15.4589L206.766 50.8315L207.762 49.0976L146.238 13.7251L145.241 15.4589ZM206.766 50.8315C211.864 53.7625 215 59.1763 215 65.0306H217C217 58.4577 213.479 52.384 207.762 49.0976L206.766 50.8315ZM215 65.0306V67.9998H217V65.0306H215ZM217 66.9998H216V68.9998H217V66.9998ZM211 67.2414V67.9998H213V67.2414H211ZM202.841 53.1712C207.891 56.0745 211 61.4386 211 67.2414H213C213 60.72 209.506 54.696 203.838 51.4373L202.841 53.1712ZM145.162 20.0094L202.841 53.1712L203.838 51.4373L146.159 18.2755L145.162 20.0094ZM128.838 20.0094C133.889 17.1058 140.111 17.1058 145.162 20.0094L146.159 18.2755C140.491 15.0171 133.509 15.0171 127.841 18.2755L128.838 20.0094ZM71.1587 53.1712L128.838 20.0094L127.841 18.2755L70.1618 51.4373L71.1587 53.1712ZM63 67.2414C63 61.4386 66.1088 56.0745 71.1587 53.1712L70.1618 51.4373C64.4938 54.696 61 60.72 61 67.2414H63ZM63 67.9998V67.2414H61V67.9998H63ZM63 66.9998H62V68.9998H63V66.9998ZM62 67.2414V67.9998H64V67.2414H62ZM70.6602 52.3042C65.3013 55.3853 62 61.0793 62 67.2414H64C64 61.7979 66.9163 56.7638 71.6571 54.0381L70.6602 52.3042ZM128.34 19.1425L70.6602 52.3042L71.6571 54.0381L129.337 20.8763L128.34 19.1425ZM145.66 19.1425C140.301 16.0614 133.699 16.0614 128.34 19.1425L129.337 20.8763C134.078 18.1501 139.922 18.1501 144.663 20.8763L145.66 19.1425ZM203.34 52.3042L145.66 19.1425L144.663 20.8763L202.343 54.0381L203.34 52.3042ZM212 67.2414C212 61.0793 208.699 55.3853 203.34 52.3042L202.343 54.0381C207.084 56.7638 210 61.7979 210 67.2414H212ZM212 67.9998V67.2414H210V67.9998H212ZM212 66.9998H211V68.9998H212V66.9998ZM207.93 67.9093C207.43 62.4029 204.276 57.4383 199.416 54.6439L198.419 56.3777C202.713 58.8469 205.497 63.2313 205.938 68.0902L207.93 67.9093ZM199.416 54.6439L145.581 23.6929L144.584 25.4268L198.419 56.3777L199.416 54.6439ZM145.581 23.6929C140.271 20.6398 133.729 20.6398 128.419 23.6929L129.416 25.4268C134.109 22.7286 139.891 22.7286 144.584 25.4268L145.581 23.6929ZM128.419 23.6929L74.5845 54.6439L75.5813 56.3777L129.416 25.4268L128.419 23.6929ZM74.5845 54.6439C69.7239 57.4383 66.5698 62.4029 66.0699 67.9093L68.0617 68.0902C68.5028 63.2314 71.2867 58.8469 75.5813 56.3777L74.5845 54.6439ZM68.0702 66.9998H67.0658V68.9998H68.0702V66.9998ZM69.0655 68.0962C69.5018 63.5946 72.0929 59.5368 76.0798 57.2447L75.0829 55.5108C70.5337 58.1263 67.5734 62.759 67.0748 67.9033L69.0655 68.0962ZM76.0798 57.2447L129.914 26.2937L128.917 24.5598L75.0829 55.5108L76.0798 57.2447ZM129.914 26.2937C134.298 23.7729 139.702 23.7729 144.086 26.2937L145.083 24.5598C140.081 21.6842 133.919 21.6842 128.917 24.5598L129.914 26.2937ZM144.086 26.2937L197.92 57.2447L198.917 55.5108L145.083 24.5598L144.086 26.2937ZM197.92 57.2447C201.907 59.5368 204.498 63.5946 204.935 68.0962L206.925 67.9033C206.427 62.759 203.466 58.1263 198.917 55.5108L197.92 57.2447ZM206.934 66.9998H205.93V68.9998H206.934V66.9998ZM202.512 67.7537C201.465 63.6287 198.786 60.0312 194.993 57.8504L193.996 59.5843C197.315 61.4928 199.658 64.6398 200.573 68.2458L202.512 67.7537ZM194.993 57.8504L145.004 29.1103L144.007 30.8441L193.996 59.5843L194.993 57.8504ZM145.004 29.1103C140.051 26.2626 133.949 26.2626 128.996 29.1103L129.993 30.8441C134.329 28.3513 139.671 28.3513 144.007 30.8441L145.004 29.1103ZM128.996 29.1103L79.0071 57.8504L80.004 59.5843L129.993 30.8441L128.996 29.1103ZM79.0071 57.8504C75.2141 60.0312 72.5352 63.6287 71.4881 67.7537L73.4266 68.2458C74.342 64.6398 76.6845 61.4928 80.004 59.5843L79.0071 57.8504ZM73.4915 66.9998H72.4573V68.9998H73.4915V66.9998ZM74.4561 68.2635C75.3451 65.0126 77.49 62.1832 80.5024 60.4512L79.5056 58.7174C76.0303 60.7154 73.5538 63.9811 72.5269 67.736L74.4561 68.2635ZM80.5024 60.4512L130.491 31.7111L129.494 29.9772L79.5056 58.7174L80.5024 60.4512ZM130.491 31.7111C134.519 29.3957 139.481 29.3957 143.509 31.7111L144.506 29.9772C139.861 27.307 134.139 27.307 129.494 29.9772L130.491 31.7111ZM143.509 31.7111L193.498 60.4512L194.494 58.7174L144.506 29.9772L143.509 31.7111ZM193.498 60.4512C196.51 62.1832 198.655 65.0126 199.544 68.2635L201.473 67.736C200.446 63.9811 197.97 60.7154 194.494 58.7174L193.498 60.4512ZM201.543 66.9998H200.508V68.9998H201.543V66.9998ZM189.573 62.7909C191.884 64.1196 193.679 66.1023 194.778 68.427L196.586 67.5725C195.316 64.8843 193.24 62.5922 190.57 61.057L189.573 62.7909ZM143.43 36.2615L189.573 62.7909L190.57 61.057L144.427 34.5276L143.43 36.2615ZM130.57 36.2615C134.549 33.9741 139.451 33.9741 143.43 36.2615L144.427 34.5276C139.831 31.8854 134.169 31.8854 129.573 34.5276L130.57 36.2615ZM84.4266 62.7909L130.57 36.2615L129.573 34.5276L83.4298 61.057L84.4266 62.7909ZM79.2223 68.427C80.3208 66.1023 82.1156 64.1196 84.4266 62.7909L83.4298 61.057C80.7596 62.5922 78.6843 64.8843 77.414 67.5725L79.2223 68.427ZM79.434 66.9998H78.3182V68.9998H79.434V66.9998ZM83.9282 61.924C81.5916 63.2673 79.7439 65.2318 78.5464 67.5391L80.3216 68.4604C81.3455 66.4876 82.9253 64.8075 84.925 63.6578L83.9282 61.924ZM130.072 35.3946L83.9282 61.924L84.9251 63.6578L131.069 37.1284L130.072 35.3946ZM143.928 35.3946C139.641 32.9297 134.359 32.9297 130.072 35.3946L131.069 37.1284C134.739 35.0184 139.261 35.0184 142.931 37.1284L143.928 35.3946ZM190.072 61.924L143.928 35.3946L142.931 37.1284L189.075 63.6578L190.072 61.924ZM195.454 67.5391C194.256 65.2318 192.408 63.2673 190.072 61.924L189.075 63.6578C191.075 64.8075 192.655 66.4876 193.678 68.4604L195.454 67.5391ZM195.682 66.9998H194.566V68.9998H195.682V66.9998ZM189.835 67.3591C188.814 66.1363 187.573 65.083 186.148 64.2636L185.151 65.9975C186.368 66.6976 187.428 67.5969 188.299 68.6404L189.835 67.3591ZM186.148 64.2636L143.849 39.945L142.852 41.6789L185.151 65.9975L186.148 64.2636ZM143.849 39.945C139.611 37.5082 134.389 37.5082 130.151 39.945L131.148 41.6789C134.769 39.5969 139.231 39.5969 142.852 41.6789L143.849 39.945ZM130.151 39.945L87.8524 64.2636L88.8493 65.9975L131.148 41.6789L130.151 39.945ZM87.8524 64.2636C86.4273 65.083 85.1857 66.1363 84.1654 67.3591L85.701 68.6404C86.5718 67.5969 87.6316 66.6976 88.8493 65.9975L87.8524 64.2636ZM86.2771 66.9998H84.9332V68.9998H86.2771V66.9998ZM86.9955 68.6954C87.6802 67.9883 88.4689 67.3697 89.3477 66.8645L88.3509 65.1306C87.3085 65.7299 86.372 66.4642 85.5587 67.3041L86.9955 68.6954ZM89.3477 66.8645L131.646 42.5458L130.649 40.812L88.3509 65.1306L89.3477 66.8645ZM131.646 42.5458C134.959 40.6413 139.041 40.6413 142.354 42.5458L143.351 40.812C139.421 38.5525 134.579 38.5525 130.649 40.812L131.646 42.5458ZM142.354 42.5458L184.652 66.8645L185.649 65.1306L143.351 40.812L142.354 42.5458ZM184.652 66.8645C185.531 67.3697 186.32 67.9883 187.005 68.6954L188.441 67.3041C187.628 66.4642 186.692 65.7299 185.649 65.1306L184.652 66.8645ZM189.067 66.9998H187.723V68.9998H189.067V66.9998ZM142.275 47.0963L180.141 68.8667L181.138 67.1328L143.272 45.3624L142.275 47.0963ZM131.725 47.0963C134.989 45.2197 139.011 45.2197 142.275 47.0963L143.272 45.3624C139.391 43.1309 134.609 43.131 130.728 45.3624L131.725 47.0963ZM93.8588 68.8667L131.725 47.0963L130.728 45.3624L92.862 67.1328L93.8588 68.8667ZM95.3667 66.9998H93.3604V68.9998H95.3667V66.9998ZM131.226 46.2293L94.8683 67.1328L95.8651 68.8667L132.223 47.9632L131.226 46.2293ZM142.773 46.2293C139.201 44.1753 134.799 44.1753 131.226 46.2293L132.223 47.9632C135.179 46.264 138.821 46.264 141.777 47.9632L142.773 46.2293ZM179.132 67.1328L142.773 46.2293L141.777 47.9632L178.135 68.8667L179.132 67.1328ZM180.64 66.9998H178.633V68.9998H180.64V66.9998ZM171.138 67.1328L142.695 50.7798L141.698 52.5136L170.141 68.8667L171.138 67.1328ZM142.695 50.7798C139.171 48.7537 134.829 48.7537 131.305 50.7798L132.302 52.5136C135.209 50.8424 138.791 50.8424 141.698 52.5136L142.695 50.7798ZM131.305 50.7798L102.862 67.1328L103.859 68.8667L132.302 52.5136L131.305 50.7798ZM105.367 66.9998H103.36V68.9998H105.367V66.9998ZM105.865 68.8667L132.801 53.3806L131.804 51.6467L104.868 67.1328L105.865 68.8667ZM132.801 53.3806C135.399 51.8868 138.601 51.8868 141.199 53.3806L142.196 51.6467C138.981 49.7981 135.019 49.7981 131.804 51.6467L132.801 53.3806ZM141.199 53.3806L168.135 68.8667L169.132 67.1328L142.196 51.6467L141.199 53.3806ZM170.64 66.9998H168.633V68.9998H170.64V66.9998ZM141.12 57.931L160.141 68.8667L161.138 67.1328L142.117 56.1972L141.12 57.931ZM132.88 57.931C135.429 56.4652 138.571 56.4652 141.12 57.931L142.117 56.1972C138.951 54.3765 135.049 54.3765 131.883 56.1972L132.88 57.931ZM113.859 68.8667L132.88 57.931L131.883 56.1972L112.862 67.1328L113.859 68.8667ZM115.367 66.9998H113.36V68.9998H115.367V66.9998ZM132.381 57.0641L114.868 67.1328L115.865 68.8667L133.378 58.798L132.381 57.0641ZM141.619 57.0641C138.761 55.4209 135.239 55.4209 132.381 57.0641L133.378 58.798C135.619 57.5096 138.381 57.5096 140.622 58.798L141.619 57.0641ZM159.132 67.1328L141.619 57.0641L140.622 58.798L158.135 68.8667L159.132 67.1328ZM160.64 66.9998H158.633V68.9998H160.64V66.9998ZM151.138 67.1328L141.54 61.6145L140.543 63.3484L150.141 68.8667L151.138 67.1328ZM141.54 61.6145C138.73 59.9993 135.27 59.9993 132.46 61.6145L133.457 63.3484C135.649 62.088 138.351 62.088 140.543 63.3484L141.54 61.6145ZM132.46 61.6145L122.862 67.1328L123.859 68.8667L133.457 63.3484L132.46 61.6145ZM125.367 66.9998H123.36V68.9998H125.367V66.9998ZM125.865 68.8667L133.955 64.2153L132.959 62.4815L124.868 67.1328L125.865 68.8667ZM133.955 64.2153C135.839 63.1324 138.161 63.1324 140.045 64.2153L141.041 62.4815C138.541 61.0437 135.459 61.0437 132.959 62.4815L133.955 64.2153ZM140.045 64.2153L148.135 68.8667L149.132 67.1328L141.041 62.4815L140.045 64.2153ZM150.64 66.9998H148.633V68.9998H150.64V66.9998ZM31.0945 -0.867176L8.74315 11.9833L9.74001 13.7172L32.0914 0.866688L31.0945 -0.867176ZM8.74315 11.9833C5.01553 14.1265 1.80259 16.9237 -0.783285 20.1819L0.783285 21.4252C3.21402 18.3625 6.23443 15.7327 9.74001 13.7172L8.74315 11.9833ZM1 20.8036V19.2315H-1V20.8036H1ZM0.759816 19.8817C3.12785 17.1141 5.98146 14.7246 9.24158 12.8503L8.24473 11.1164C4.78452 13.1058 1.75469 15.6427 -0.759816 18.5814L0.759816 19.8817ZM9.24158 12.8503L30.0851 0.866688L29.0882 -0.867176L8.24473 11.1164L9.24158 12.8503ZM29.5866 0.999756H31.5929V-1.00024H29.5866V0.999756Z" fill="url(#paint0_linear)" mask="url(#path-1-inside-1)"/>
<defs>
<linearGradient id="paint0_linear" x1="18.9019" y1="19.4841" x2="253.806" y2="19.4841" gradientUnits="userSpaceOnUse">
<stop stop-color="#FFD965"/>
<stop offset="1" stop-color="#FFB865"/>
</linearGradient>
</defs>
</svg>
