<svg width="275" height="68" viewBox="0 0 275 68" fill="none" xmlns="http://www.w3.org/2000/svg">
<mask id="path-1-inside-1" fill="white">
<path fill-rule="evenodd" clip-rule="evenodd" d="M275 7.19259L262.49 1.31669e-08H260.483L275 8.34608V7.19259ZM275 3.1682L269.489 1.31669e-08H271.496L275 2.01472V3.1682ZM275 12.4813C274.122 11.9029 273.223 11.349 272.304 10.8206L253.484 1.31669e-08H251.477L271.806 11.6876C272.9 12.3167 273.965 12.9829 275 13.6839V12.4813ZM275 18.3993C272.794 16.5698 270.417 14.9132 267.882 13.4558L244.477 1.31669e-08H242.471L267.383 14.3227C270.115 15.8932 272.66 17.6996 275 19.7077V18.3993ZM275 25.2461C271.679 21.6877 267.805 18.5896 263.459 16.091L235.471 1.31669e-08H233.465L262.961 16.9579C267.542 19.592 271.588 22.9058 275 26.7294V25.2461ZM275 33.5532C270.946 27.5648 265.531 22.4602 259.036 18.7262L226.465 1.31669e-08H224.459L258.538 19.5931C265.352 23.5107 270.953 28.9686 275 35.3802V33.5532ZM275 44.9326C271.138 35.1592 264.041 26.7812 254.614 21.3613L217.459 1.31669e-08H215.453L254.115 22.2282C264.162 28.0041 271.504 37.2113 275 47.8755V44.9326ZM273.285 64.95V63.8289C273.285 47.3966 264.482 32.2126 250.191 23.9965L208.453 1.31669e-08H206.447L249.693 24.8634C263.674 32.9019 272.285 47.756 272.285 63.8289V66.0057C272.649 65.6849 272.984 65.3315 273.285 64.95ZM268.285 67.8973V65.4682C268.285 49.4468 259.702 34.6424 245.768 26.6317L199.447 1.31669e-08H197.441L245.27 27.4986C258.894 35.3316 267.285 49.8061 267.285 65.4682V67.995C267.624 67.9831 267.958 67.9501 268.285 67.8973ZM263.285 68V67.1076C263.285 51.4969 254.922 37.0721 241.346 29.2668L190.441 1.31669e-08H188.435L240.847 30.1337C254.114 37.7614 262.285 51.8563 262.285 67.1076V68H263.285ZM258.279 68C258.017 53.0881 249.925 39.3772 236.923 31.902L181.435 1.31669e-08H179.429L236.425 32.7689C249.118 40.0664 257.017 53.4474 257.278 68H258.279ZM253.216 68C252.415 54.139 244.667 41.5322 232.501 34.5371L172.429 1.31669e-08H170.422L232.002 35.4041C243.859 42.2213 251.414 54.4984 252.215 68H253.216ZM248.083 68C246.793 55.2011 239.406 43.6849 228.078 37.1723L163.423 1.31669e-08H161.416L227.579 38.0392C238.597 44.3738 245.792 55.5608 247.078 68H248.083ZM242.872 68C241.149 56.2744 234.139 45.835 223.655 39.8075L154.417 1.31669e-08H152.41L223.157 40.6744C233.33 46.5236 240.145 56.6348 241.861 68H242.872ZM237.573 68C235.478 57.3589 228.867 47.9815 219.233 42.4426L145.41 1.31669e-08H143.404L218.734 43.3096C228.057 48.6697 234.472 57.7202 236.554 68H237.573ZM232.178 68C229.776 58.4543 223.586 50.1236 214.81 45.0778L136.404 1.31669e-08H134.398L214.311 45.9447C222.776 50.811 228.765 58.8167 231.146 68H232.178ZM0 6.99819V5.8447L10.1659 1.31669e-08H12.1722L0 6.99819ZM226.672 68C224.036 59.5601 218.296 52.2598 210.387 47.713L127.398 1.31669e-08H125.392L209.889 48.5799C217.483 52.9462 223.02 59.9238 225.623 68H226.672ZM0 12.1761V11.0226L19.172 1.31669e-08H21.1783L0 12.1761ZM221.038 68C218.25 60.6755 212.992 54.3885 205.965 50.3481L118.392 1.31669e-08H116.386L205.466 51.2151C212.177 55.0733 217.226 61.0405 219.966 68H221.038ZM0 17.354V16.2005L28.1781 1.31669e-08H30.1844L0 17.354ZM215.255 68C212.408 61.7989 207.671 56.5071 201.542 52.9833L109.386 1.31669e-08H107.38L201.044 53.8502C206.852 57.1896 211.371 62.165 214.151 68H215.255ZM0 22.5318V21.3783L37.1842 1.31669e-08H39.1905L0 22.5318ZM209.291 68C206.493 62.9277 202.327 58.6123 197.119 55.6185L100.38 1.31669e-08H98.3737L196.621 56.4854C201.501 59.2912 205.437 63.2944 208.143 68H209.291ZM0 27.7097V26.5562L46.1903 1.31669e-08H48.1966L0 27.7097ZM203.103 68C200.482 64.0576 196.949 60.6986 192.697 58.2536L91.3739 1.31669e-08H89.3676L192.198 59.1206C196.114 61.3718 199.399 64.4236 201.893 68H203.103ZM0 32.8876V31.7341L55.1964 1.31669e-08H57.2027L0 32.8876ZM196.623 68C194.338 65.1812 191.525 62.7577 188.274 60.8888L88.2962 3.40844C85.4448 1.76903 82.3902 0.632885 79.2571 0L67.3132 2.94745e-08C64.1801 0.632885 61.1255 1.76903 58.274 3.40844L0 36.912V38.0655L58.7725 4.27537C67.7528 -0.887688 78.8175 -0.887688 87.7978 4.27537L187.776 61.7557C190.673 63.4217 193.212 65.5434 195.321 68H196.623ZM189.738 68C187.999 66.284 186.027 64.7748 183.851 63.524L87.7189 8.25439C78.7873 3.11931 67.783 3.11931 58.8514 8.25439L0 42.0899V43.2434L59.3498 9.12132C67.9729 4.16366 78.5974 4.16366 87.2205 9.12132L183.353 64.3909C185.147 65.4224 186.798 66.6358 188.287 68H189.738ZM182.226 68C181.338 67.3356 180.405 66.7203 179.429 66.1591L87.1415 13.1003C78.5672 8.17066 68.0031 8.17066 59.4287 13.1003L0 47.2678V48.4213L59.9272 13.9673C68.1929 9.21501 78.3773 9.21501 86.6431 13.9673L178.93 67.0261C179.466 67.3341 179.988 67.659 180.497 68H182.226ZM173.625 68L86.5642 17.9463C78.3471 13.222 68.2232 13.222 60.0061 17.9463L0 52.4457V53.5992L60.5045 18.8132C68.413 14.2664 78.1573 14.2664 86.0658 18.8132L171.618 68H173.625ZM164.618 68L85.9868 22.7922C78.127 18.2734 68.4433 18.2734 60.5834 22.7922L0 57.6236V58.777L61.0819 23.6592C68.6331 19.3177 77.9372 19.3177 85.4884 23.6592L162.612 68H164.618ZM155.612 68L85.4095 27.6382C77.9069 23.3247 68.6634 23.3247 61.1608 27.6382L0.41862 62.5608C0.526914 62.8815 0.65499 63.1931 0.801397 63.4942L61.6592 28.5051C68.8532 24.3691 77.7171 24.3691 84.9111 28.5051L153.606 68H155.612ZM145.612 68L84.8322 33.0555C77.6868 28.9475 68.8834 28.9475 61.7381 33.0555L3.43916 66.5734C3.75262 66.7913 4.08241 66.9874 4.42632 67.1594L62.2366 33.9225C69.0733 29.9918 77.497 29.9918 84.3337 33.9225L143.606 68H145.612ZM135.612 68L84.2548 38.4729C77.4667 34.5702 69.1035 34.5702 62.3155 38.4729L10.9579 68H12.9642L62.8139 39.3398C69.2934 35.6146 77.2769 35.6146 83.7564 39.3398L133.606 68H135.612ZM125.612 68L83.6775 43.8903C77.2467 40.1931 69.3236 40.1931 62.8929 43.8903L20.958 68H22.9643L63.3913 44.7572C69.5134 41.2374 77.0568 41.2374 83.179 44.7572L123.606 68H125.612ZM115.612 68L83.1001 49.3077C77.0266 45.8158 69.5437 45.8158 63.4702 49.3077L30.9579 68H32.9642L63.9686 50.1746C69.7336 46.8602 76.8368 46.8602 82.6017 50.1746L113.606 68H115.612ZM105.612 68L82.5228 54.725C76.8065 51.4386 69.7638 51.4386 64.0475 54.725L40.9579 68H42.9642L64.546 55.592C69.9536 52.4829 76.6167 52.4829 82.0243 55.592L103.606 68H105.612ZM95.6123 68L81.9454 60.1425C76.5864 57.0614 69.9839 57.0614 64.6249 60.1425L50.958 68H52.9643L65.1233 61.0094C70.1737 58.1058 76.3966 58.1058 81.447 61.0094L93.606 68H95.6123ZM85.6124 68L81.368 65.5598C76.3663 62.6842 70.204 62.6842 65.2022 65.5598L60.9579 68H62.9642L65.7007 66.4267C70.3938 63.7285 76.1765 63.7285 80.8696 66.4267L83.6061 68H85.6124ZM3.16613 1.31669e-08L0 1.82031V0.666817L1.15982 1.31669e-08H3.16613Z"/>
</mask>
<path d="M275 7.19259H276V6.61403L275.498 6.32566L275 7.19259ZM262.49 1.31669e-08L262.988 -0.866932L262.757 -1H262.49V1.31669e-08ZM260.483 1.31669e-08V-1H256.738L259.985 0.866932L260.483 1.31669e-08ZM275 8.34608L274.502 9.21301L276 10.0745V8.34608H275ZM275 3.1682L274.502 4.03513L276 4.89663V3.1682H275ZM269.489 1.31669e-08V-1H265.744L268.991 0.866932L269.489 1.31669e-08ZM271.496 1.31669e-08L271.994 -0.866932L271.763 -1H271.496V1.31669e-08ZM275 2.01472H276V1.43616L275.498 1.14778L275 2.01472ZM272.304 10.8206L272.803 9.95372L272.803 9.95372L272.304 10.8206ZM275 12.4813H276V11.9426L275.55 11.6462L275 12.4813ZM253.484 1.31669e-08L253.982 -0.866932L253.751 -1H253.484V1.31669e-08ZM251.477 1.31669e-08V-1H247.732L250.979 0.866932L251.477 1.31669e-08ZM271.806 11.6876L271.308 12.5545V12.5545L271.806 11.6876ZM275 13.6839L274.439 14.5118L276 15.5694V13.6839H275ZM275 18.3993H276V17.9296L275.638 17.6297L275 18.3993ZM267.882 13.4558L268.38 12.5889L268.38 12.5889L267.882 13.4558ZM244.477 1.31669e-08L244.976 -0.866932L244.744 -1H244.477V1.31669e-08ZM242.471 1.31669e-08V-1H238.726L241.973 0.866932L242.471 1.31669e-08ZM267.383 14.3227L267.882 13.4558L267.383 14.3227ZM275 19.7077L274.349 20.4666L276 21.8838V19.7077H275ZM263.459 16.091L262.961 16.9579V16.9579L263.459 16.091ZM275 25.2461H276V24.8519L275.731 24.5637L275 25.2461ZM235.471 1.31669e-08L235.97 -0.866932L235.738 -1H235.471V1.31669e-08ZM233.465 1.31669e-08V-1H229.719L232.967 0.866932L233.465 1.31669e-08ZM262.961 16.9579L262.462 17.8248L262.961 16.9579ZM275 26.7294L274.254 27.3952L276 29.3521V26.7294H275ZM275 33.5532H276V33.2465L275.828 32.9926L275 33.5532ZM259.036 18.7262L259.535 17.8592L259.036 18.7262ZM226.465 1.31669e-08L226.964 -0.866932L226.732 -1H226.465V1.31669e-08ZM224.459 1.31669e-08V-1H220.713L223.961 0.866932L224.459 1.31669e-08ZM258.538 19.5931L259.036 18.7262L258.538 19.5931ZM275 35.3802L274.154 35.914L276 38.8378V35.3802H275ZM254.614 21.3613L254.115 22.2282L254.614 21.3613ZM275 44.9326H276V44.7422L275.93 44.5651L275 44.9326ZM217.459 1.31669e-08L217.958 -0.866932L217.726 -1H217.459V1.31669e-08ZM215.453 1.31669e-08V-1H211.707L214.954 0.866932L215.453 1.31669e-08ZM254.115 22.2282L254.614 21.3613L254.115 22.2282ZM275 47.8755L274.05 48.187L276 47.8755H275ZM273.285 64.95L274.07 65.5692L274.285 65.2969V64.95H273.285ZM250.191 23.9965L250.69 23.1295L250.191 23.9965ZM208.453 1.31669e-08L208.952 -0.866932L208.72 -1H208.453V1.31669e-08ZM206.447 1.31669e-08V-1H202.701L205.948 0.866932L206.447 1.31669e-08ZM249.693 24.8634L249.194 25.7304L249.693 24.8634ZM272.285 66.0057H271.285V68.2189L272.946 66.7562L272.285 66.0057ZM268.285 67.8973L268.445 68.8845L269.285 68.7488V67.8973H268.285ZM245.768 26.6317L245.27 27.4986L245.768 26.6317ZM199.447 1.31669e-08L199.945 -0.866932L199.714 -1H199.447V1.31669e-08ZM197.441 1.31669e-08V-1H193.695L196.942 0.866932L197.441 1.31669e-08ZM245.27 27.4986L244.772 28.3655L245.27 27.4986ZM267.285 67.995H266.285V69.0307L267.32 68.9944L267.285 67.995ZM263.285 68V69H264.285V68H263.285ZM241.346 29.2668L241.844 28.3999L241.346 29.2668ZM190.441 1.31669e-08L190.939 -0.866932L190.708 -1H190.441V1.31669e-08ZM188.435 1.31669e-08V-1H184.689L187.936 0.866932L188.435 1.31669e-08ZM240.847 30.1337L240.349 31.0007L240.847 30.1337ZM262.285 68H261.285V69H262.285V68ZM236.923 31.902L237.422 31.035L236.923 31.902ZM258.279 68V69H259.296L259.278 67.9824L258.279 68ZM181.435 1.31669e-08L181.933 -0.866932L181.702 -1H181.435V1.31669e-08ZM179.429 1.31669e-08V-1H175.683L178.93 0.866932L179.429 1.31669e-08ZM236.425 32.7689L236.923 31.902L236.425 32.7689ZM257.278 68L256.279 68.018L256.296 69H257.278V68ZM253.216 68V69H254.276L254.215 67.9423L253.216 68ZM232.501 34.5371L232.999 33.6702L232.501 34.5371ZM172.429 1.31669e-08L172.927 -0.866932L172.696 -1H172.429V1.31669e-08ZM170.422 1.31669e-08V-1H166.677L169.924 0.866932L170.422 1.31669e-08ZM232.002 35.4041L232.501 34.5372L232.002 35.4041ZM252.215 68L251.216 68.0592L251.272 69H252.215V68ZM228.078 37.1723L228.576 36.3054L228.078 37.1723ZM248.083 68V69H249.189L249.078 67.8997L248.083 68ZM163.423 1.31669e-08L163.921 -0.866932L163.69 -1H163.423V1.31669e-08ZM161.416 1.31669e-08V-1H157.671L160.918 0.866932L161.416 1.31669e-08ZM227.579 38.0392L228.078 37.1723L227.579 38.0392ZM247.078 68L246.083 68.1029L246.176 69H247.078V68ZM242.872 68V69H244.029L243.861 67.8546L242.872 68ZM223.655 39.8075L223.157 40.6744L223.655 39.8075ZM154.417 1.31669e-08L154.915 -0.866932L154.684 -1H154.417V1.31669e-08ZM152.41 1.31669e-08V-1H148.665L151.912 0.866932L152.41 1.31669e-08ZM223.157 40.6744L223.655 39.8075L223.157 40.6744ZM241.861 68L240.872 68.1492L241 69H241.861V68ZM219.233 42.4426L219.731 41.5757L219.233 42.4426ZM237.573 68V69H238.79L238.555 67.8068L237.573 68ZM145.41 1.31669e-08L145.909 -0.866932L145.677 -1H145.41V1.31669e-08ZM143.404 1.31669e-08V-1H139.659L142.906 0.866932L143.404 1.31669e-08ZM218.734 43.3096L219.233 42.4426L218.734 43.3096ZM236.554 68L235.574 68.1985L235.736 69H236.554V68ZM232.178 68V69H233.461L233.148 67.7559L232.178 68ZM214.81 45.0778L214.312 45.9447L214.81 45.0778ZM136.404 1.31669e-08L136.903 -0.866932L136.671 -1H136.404V1.31669e-08ZM134.398 1.31669e-08V-1H130.652L133.9 0.866932L134.398 1.31669e-08ZM214.311 45.9447L213.813 46.8117L214.311 45.9447ZM231.146 68L230.178 68.2509L230.372 69H231.146V68ZM0 6.99819H-1V8.72662L0.498426 7.86512L0 6.99819ZM0 5.8447L-0.498426 4.97777L-1 5.26614V5.8447H0ZM10.1659 1.31669e-08V-1H9.89894L9.66749 -0.866932L10.1659 1.31669e-08ZM12.1722 1.31669e-08L12.6707 0.866932L15.9179 -1H12.1722V1.31669e-08ZM210.387 47.713L210.886 46.846L210.387 47.713ZM226.672 68V69H228.032L227.626 67.7019L226.672 68ZM127.398 1.31669e-08L127.897 -0.866932L127.665 -1H127.398V1.31669e-08ZM125.392 1.31669e-08V-1H121.646L124.894 0.866932L125.392 1.31669e-08ZM209.889 48.5799L209.39 49.4468L209.889 48.5799ZM225.623 68L224.671 68.3068L224.894 69H225.623V68ZM0 12.1761H-1V13.9045L0.498426 13.043L0 12.1761ZM0 11.0226L-0.498426 10.1557L-1 10.444V11.0226H0ZM19.172 1.31669e-08V-1H18.905L18.6736 -0.866932L19.172 1.31669e-08ZM21.1783 1.31669e-08L21.6767 0.866932L24.924 -1H21.1783V1.31669e-08ZM221.038 68V69H222.489L221.973 67.6443L221.038 68ZM205.965 50.3481L205.466 51.2151L205.965 50.3481ZM118.392 1.31669e-08L118.891 -0.866932L118.659 -1H118.392V1.31669e-08ZM116.386 1.31669e-08V-1H112.64L115.887 0.866932L116.386 1.31669e-08ZM205.466 51.2151L204.968 52.082L205.466 51.2151ZM219.966 68L219.035 68.3664L219.285 69H219.966V68ZM0 17.354H-1V19.0824L0.498426 18.2209L0 17.354ZM0 16.2005L-0.498426 15.3335L-1 15.6219V16.2005H0ZM28.1781 1.31669e-08V-1H27.9111L27.6797 -0.866932L28.1781 1.31669e-08ZM30.1844 1.31669e-08L30.6828 0.866932L33.9301 -1H30.1844V1.31669e-08ZM201.542 52.9833L202.04 52.1164L201.542 52.9833ZM215.255 68V69H216.814L216.164 67.5828L215.255 68ZM109.386 1.31669e-08L109.885 -0.866932L109.653 -1H109.386V1.31669e-08ZM107.38 1.31669e-08V-1H103.634L106.881 0.866932L107.38 1.31669e-08ZM201.044 53.8502L201.542 52.9833L201.044 53.8502ZM214.151 68L213.248 68.4301L213.52 69H214.151V68ZM0 22.5318H-1V24.2603L0.498426 23.3988L0 22.5318ZM0 21.3783L-0.498426 20.5114L-1 20.7998V21.3783H0ZM37.1842 1.31669e-08V-1H36.9172L36.6858 -0.866932L37.1842 1.31669e-08ZM39.1905 1.31669e-08L39.6889 0.866932L42.9361 -1H39.1905V1.31669e-08ZM209.291 68V69H210.985L210.167 67.517L209.291 68ZM197.119 55.6185L196.621 56.4854L197.119 55.6185ZM100.38 1.31669e-08L100.878 -0.866932L100.647 -1H100.38V1.31669e-08ZM98.3737 1.31669e-08V-1H94.628L97.8753 0.866932L98.3737 1.31669e-08ZM196.621 56.4854L196.122 57.3523L196.621 56.4854ZM208.143 68L207.277 68.4985L207.565 69H208.143V68ZM0 27.7097H-1V29.4382L0.498426 28.5767L0 27.7097ZM0 26.5562L-0.498426 25.6893L-1 25.9777V26.5562H0ZM46.1903 1.31669e-08V-1H45.9233L45.6918 -0.866932L46.1903 1.31669e-08ZM48.1966 1.31669e-08L48.695 0.866932L51.9422 -1H48.1966V1.31669e-08ZM192.697 58.2536L193.195 57.3867L192.697 58.2536ZM203.103 68V69H204.969L203.936 67.4464L203.103 68ZM91.3739 1.31669e-08L91.8723 -0.866932L91.6409 -1H91.3739V1.31669e-08ZM89.3676 1.31669e-08V-1H85.6219L88.8692 0.866932L89.3676 1.31669e-08ZM192.198 59.1206L192.697 58.2536L192.198 59.1206ZM201.893 68L201.073 68.5721L201.371 69H201.893V68ZM0 32.8876H-1V34.616L0.498426 33.7545L0 32.8876ZM0 31.7341L-0.498426 30.8672L-1 31.1556V31.7341H0ZM55.1964 1.31669e-08V-1H54.9294L54.6979 -0.866932L55.1964 1.31669e-08ZM57.2027 1.31669e-08L57.7011 0.866932L60.9483 -1H57.2027V1.31669e-08ZM196.623 68V69H198.721L197.4 67.3703L196.623 68ZM188.274 60.8888L188.772 60.0219L188.274 60.8888ZM88.2962 3.40844L88.7947 2.54151L88.2962 3.40844ZM79.2571 0L79.4551 -0.980201L79.3571 -1H79.2571V0ZM67.3132 2.94745e-08V-1H67.2132L67.1152 -0.980201L67.3132 2.94745e-08ZM58.274 3.40844L57.7756 2.54151V2.54151L58.274 3.40844ZM0 36.912L-0.498426 36.0451L-1 36.3335V36.912H0ZM0 38.0655H-1V39.7939L0.498426 38.9324L0 38.0655ZM58.7725 4.27537L58.274 3.40844V3.40844L58.7725 4.27537ZM87.7978 4.27537L88.2962 3.40844L87.7978 4.27537ZM187.776 61.7557L188.274 60.8888L187.776 61.7557ZM195.321 68L194.562 68.6514L194.861 69H195.321V68ZM183.851 63.524L184.35 62.657L183.851 63.524ZM189.738 68V69H192.175L190.44 67.2883L189.738 68ZM87.7189 8.25439L88.2173 7.38745L87.7189 8.25439ZM58.8514 8.25439L59.3498 9.12132H59.3498L58.8514 8.25439ZM0 42.0899L-0.498426 41.223L-1 41.5113V42.0899H0ZM0 43.2434H-1V44.9718L0.498426 44.1103L0 43.2434ZM59.3498 9.12132L58.8514 8.25438H58.8514L59.3498 9.12132ZM87.2205 9.12132L86.722 9.98825L87.2205 9.12132ZM183.353 64.3909L182.855 65.2578L183.353 64.3909ZM188.287 68L187.611 68.7374L187.898 69H188.287V68ZM182.226 68V69H185.231L182.825 67.1994L182.226 68ZM179.429 66.1591L179.927 65.2922V65.2922L179.429 66.1591ZM87.1415 13.1003L87.64 12.2334L87.1415 13.1003ZM59.4287 13.1003L58.9303 12.2334L59.4287 13.1003ZM0 47.2678L-0.498426 46.4009L-1 46.6892V47.2678H0ZM0 48.4213H-1V50.1497L0.498426 49.2882L0 48.4213ZM59.9272 13.9673L59.4287 13.1003H59.4287L59.9272 13.9673ZM86.6431 13.9673L86.1447 14.8342L86.6431 13.9673ZM178.93 67.0261L179.429 66.1591V66.1591L178.93 67.0261ZM180.497 68L179.94 68.8306L180.193 69H180.497V68ZM86.5642 17.9463L86.0658 18.8132L86.5642 17.9463ZM173.625 68V69H177.37L174.123 67.1331L173.625 68ZM60.0061 17.9463L59.5077 17.0793H59.5077L60.0061 17.9463ZM0 52.4457L-0.498426 51.5787L-1 51.8671V52.4457H0ZM0 53.5992H-1V55.3276L0.498426 54.4661L0 53.5992ZM60.5045 18.8132L61.0029 19.6801H61.0029L60.5045 18.8132ZM86.0658 18.8132L86.5642 17.9463L86.0658 18.8132ZM171.618 68L171.12 68.8669L171.351 69H171.618V68ZM164.618 68V69H168.364L165.117 67.1331L164.618 68ZM85.9868 22.7922L85.4884 23.6592L85.9868 22.7922ZM60.5834 22.7922L61.0819 23.6592H61.0819L60.5834 22.7922ZM0 57.6236L-0.498426 56.7566L-1 57.045V57.6236H0ZM0 58.777H-1V60.5055L0.498426 59.644L0 58.777ZM61.0819 23.6592L61.5803 24.5261H61.5803L61.0819 23.6592ZM85.4884 23.6592L84.99 24.5261L85.4884 23.6592ZM162.612 68L162.114 68.8669L162.345 69H162.612V68ZM85.4095 27.6382L85.9079 26.7712L85.4095 27.6382ZM155.612 68V69H159.358L156.111 67.1331L155.612 68ZM61.1608 27.6382L61.6592 28.5051H61.6592L61.1608 27.6382ZM0.41862 62.5608L-0.079806 61.6938L-0.79142 62.103L-0.52883 62.8807L0.41862 62.5608ZM0.801397 63.4942L-0.0979053 63.9315L0.370763 64.8953L1.29982 64.3611L0.801397 63.4942ZM61.6592 28.5051L62.1576 29.372H62.1576L61.6592 28.5051ZM84.9111 28.5051L84.4126 29.372L84.9111 28.5051ZM153.606 68L153.108 68.8669L153.339 69H153.606V68ZM145.612 68V69H149.358L146.111 67.1331L145.612 68ZM84.8322 33.0555L85.3306 32.1886L84.8322 33.0555ZM61.7381 33.0555L62.2366 33.9225L61.7381 33.0555ZM3.43916 66.5734L2.94073 65.7065L1.57203 66.4934L2.86839 67.3946L3.43916 66.5734ZM4.42632 67.1594L3.97903 68.0538L4.45926 68.294L4.92475 68.0263L4.42632 67.1594ZM62.2366 33.9225L62.735 34.7894L62.2366 33.9225ZM84.3337 33.9225L84.8321 33.0555L84.3337 33.9225ZM143.606 68L143.108 68.8669L143.339 69H143.606V68ZM84.2548 38.4729L83.7564 39.3398L84.2548 38.4729ZM135.612 68V69H139.358L136.111 67.1331L135.612 68ZM62.3155 38.4729L62.8139 39.3398H62.8139L62.3155 38.4729ZM10.9579 68L10.4594 67.1331L7.21222 69H10.9579V68ZM12.9642 68V69H13.2312L13.4626 68.8669L12.9642 68ZM62.8139 39.3398L62.3155 38.4729H62.3155L62.8139 39.3398ZM83.7564 39.3398L84.2548 38.4729L83.7564 39.3398ZM133.606 68L133.108 68.8669L133.339 69H133.606V68ZM125.612 68V69H129.358L126.111 67.1331L125.612 68ZM83.6775 43.8903L84.1759 43.0234L83.6775 43.8903ZM62.8929 43.8903L62.3944 43.0234L62.8929 43.8903ZM20.958 68L20.4595 67.1331L17.2123 69H20.958V68ZM22.9643 68V69H23.2312L23.4627 68.8669L22.9643 68ZM63.3913 44.7572L63.8897 45.6242L63.3913 44.7572ZM83.179 44.7572L82.6806 45.6242L83.179 44.7572ZM123.606 68L123.108 68.8669L123.339 69H123.606V68ZM83.1001 49.3077L83.5985 48.4407L83.1001 49.3077ZM115.612 68V69H119.358L116.111 67.1331L115.612 68ZM63.4702 49.3077L62.9718 48.4407H62.9718L63.4702 49.3077ZM30.9579 68L30.4595 67.1331L27.2123 69H30.9579V68ZM32.9642 68V69H33.2312L33.4627 68.8669L32.9642 68ZM63.9686 50.1746L64.4671 51.0415L63.9686 50.1746ZM82.6017 50.1746L83.1001 49.3077L82.6017 50.1746ZM113.606 68L113.108 68.8669L113.339 69H113.606V68ZM105.612 68V69H109.358L106.111 67.1331L105.612 68ZM82.5228 54.725L82.0243 55.592L82.5228 54.725ZM64.0475 54.725L64.546 55.592L64.0475 54.725ZM40.9579 68L40.4595 67.1331L37.2122 69H40.9579V68ZM42.9642 68V69H43.2312L43.4626 68.8669L42.9642 68ZM64.546 55.592L65.0444 56.4589L64.546 55.592ZM82.0243 55.592L82.5228 54.725L82.0243 55.592ZM103.606 68L103.108 68.8669L103.339 69H103.606V68ZM81.9454 60.1425L81.447 61.0094L81.9454 60.1425ZM95.6123 68V69H99.358L96.1108 67.1331L95.6123 68ZM64.6249 60.1425L65.1233 61.0094L64.6249 60.1425ZM50.958 68L50.4595 67.1331L47.2123 69H50.958V68ZM52.9643 68V69H53.2313L53.4627 68.8669L52.9643 68ZM65.1233 61.0094L64.6249 60.1425L65.1233 61.0094ZM81.447 61.0094L80.9485 61.8763L81.447 61.0094ZM93.606 68L93.1076 68.8669L93.339 69H93.606V68ZM85.6124 68V69H89.358L86.1108 67.1331L85.6124 68ZM81.368 65.5598L80.8696 66.4268L81.368 65.5598ZM65.2022 65.5598L64.7038 64.6929L65.2022 65.5598ZM60.9579 68L60.4595 67.1331L57.2123 69H60.9579V68ZM62.9642 68V69H63.2312L63.4627 68.8669L62.9642 68ZM65.7007 66.4267L66.1991 67.2937V67.2937L65.7007 66.4267ZM80.8696 66.4267L80.3712 67.2937V67.2937L80.8696 66.4267ZM83.6061 68L83.1076 68.8669L83.3391 69H83.6061V68ZM3.16613 1.31669e-08L3.66456 0.866932L6.91179 -1H3.16613V1.31669e-08ZM0 1.82031H-1V3.54873L0.498426 2.68724L0 1.82031ZM0 0.666817L-0.498426 -0.200115L-1 0.0882553V0.666817H0ZM1.15982 1.31669e-08V-1H0.892844L0.661394 -0.866932L1.15982 1.31669e-08ZM275.498 6.32566L262.988 -0.866932L261.991 0.866932L274.502 8.05953L275.498 6.32566ZM260.483 1H262.49V-1H260.483V1ZM259.985 0.866932L274.502 9.21301L275.498 7.47915L260.982 -0.866932L259.985 0.866932ZM274 7.19259V8.34608H276V7.19259H274ZM275.498 2.30127L269.988 -0.866932L268.991 0.866932L274.502 4.03513L275.498 2.30127ZM269.489 1H271.496V-1H269.489V1ZM270.997 0.866932L274.502 2.88165L275.498 1.14778L271.994 -0.866932L270.997 0.866932ZM274 2.01472V3.1682H276V2.01472H274ZM271.806 11.6876C272.707 12.2058 273.589 12.7491 274.45 13.3164L275.55 11.6462C274.655 11.0567 273.739 10.4922 272.803 9.95372L271.806 11.6876ZM252.985 0.866932L271.806 11.6876L272.803 9.95372L253.982 -0.866932L252.985 0.866932ZM251.477 1H253.484V-1H251.477V1ZM272.304 10.8207L251.976 -0.866932L250.979 0.866932L271.308 12.5545L272.304 10.8207ZM275.561 12.856C274.506 12.1412 273.42 11.4621 272.304 10.8207L271.308 12.5545C272.38 13.1714 273.425 13.8245 274.439 14.5118L275.561 12.856ZM274 12.4813V13.6839H276V12.4813H274ZM275.638 17.6297C273.389 15.764 270.965 14.0748 268.38 12.5889L267.383 14.3227C269.868 15.7515 272.199 17.3756 274.362 19.169L275.638 17.6297ZM268.38 12.5889L244.976 -0.866932L243.979 0.866932L267.383 14.3228L268.38 12.5889ZM242.471 1H244.477V-1H242.471V1ZM241.973 0.866932L266.885 15.1897L267.882 13.4558L242.97 -0.866932L241.973 0.866932ZM266.885 15.1897C269.562 16.7287 272.056 18.4989 274.349 20.4666L275.651 18.9489C273.264 16.9003 270.668 15.0576 267.882 13.4558L266.885 15.1897ZM274 18.3993V19.7077H276V18.3993H274ZM262.961 16.9579C267.219 19.4064 271.015 22.442 274.269 25.9284L275.731 24.5637C272.343 20.9334 268.391 17.7728 263.957 15.224L262.961 16.9579ZM234.973 0.866932L262.961 16.9579L263.957 15.224L235.97 -0.866932L234.973 0.866932ZM233.465 1H235.471V-1H233.465V1ZM263.459 16.091L233.964 -0.866932L232.967 0.866932L262.462 17.8248L263.459 16.091ZM275.746 26.0636C272.264 22.161 268.134 18.779 263.459 16.091L262.462 17.8248C266.95 20.4049 270.912 23.6505 274.254 27.3952L275.746 26.0636ZM274 25.2461V26.7294H276V25.2461H274ZM275.828 32.9926C271.691 26.8803 266.163 21.6701 259.535 17.8592L258.538 19.5931C264.899 23.2502 270.202 28.2494 274.172 34.1137L275.828 32.9926ZM259.535 17.8592L226.964 -0.866932L225.967 0.866932L258.538 19.5931L259.535 17.8592ZM224.459 1H226.465V-1H224.459V1ZM223.961 0.866932L258.04 20.46L259.036 18.7262L224.957 -0.866932L223.961 0.866932ZM258.04 20.46C264.71 24.2953 270.193 29.638 274.154 35.914L275.846 34.8464C271.713 28.2992 265.994 22.7262 259.036 18.7262L258.04 20.46ZM274 33.5532V35.3802H276V33.5532H274ZM254.115 22.2282C263.343 27.5337 270.29 35.7342 274.07 45.3001L275.93 44.5651C271.986 34.5841 264.738 26.0286 255.112 20.4944L254.115 22.2282ZM216.961 0.866932L254.115 22.2282L255.112 20.4944L217.958 -0.866932L216.961 0.866932ZM215.453 1H217.459V-1H215.453V1ZM254.614 21.3613L215.951 -0.866932L214.954 0.866932L253.617 23.0952L254.614 21.3613ZM275.95 47.564C272.378 36.6682 264.877 27.2618 254.614 21.3613L253.617 23.0952C263.447 28.7465 270.63 37.7544 274.05 48.187L275.95 47.564ZM274 44.9326V47.8755H276V44.9326H274ZM274.285 64.95V63.8289H272.285V64.95H274.285ZM274.285 63.8289C274.285 47.0373 265.289 31.5234 250.69 23.1295L249.693 24.8634C263.674 32.9018 272.285 47.7559 272.285 63.8289H274.285ZM250.69 23.1295L208.952 -0.866932L207.955 0.866932L249.693 24.8634L250.69 23.1295ZM206.447 1H208.453V-1H206.447V1ZM205.948 0.866932L249.194 25.7304L250.191 23.9965L206.945 -0.866932L205.948 0.866932ZM249.194 25.7304C262.867 33.5911 271.285 48.1153 271.285 63.8289H273.285C273.285 47.3966 264.482 32.2126 250.191 23.9965L249.194 25.7304ZM271.285 63.8289V66.0057H273.285V63.8289H271.285ZM272.5 64.3307C272.237 64.6648 271.943 64.9743 271.624 65.2553L272.946 66.7562C273.356 66.3955 273.732 65.9981 274.07 65.5692L272.5 64.3307ZM267.285 65.4682V67.8973H269.285V65.4682H267.285ZM245.27 27.4986C258.894 35.3316 267.285 49.8061 267.285 65.4682H269.285C269.285 49.0875 260.509 33.9531 246.267 25.7647L245.27 27.4986ZM198.949 0.866932L245.27 27.4986L246.267 25.7647L199.945 -0.866932L198.949 0.866932ZM197.441 1H199.447V-1H197.441V1ZM245.768 26.6316L197.939 -0.866932L196.942 0.866932L244.772 28.3655L245.768 26.6316ZM268.285 65.4682C268.285 49.4468 259.702 34.6424 245.768 26.6316L244.772 28.3655C258.087 36.0208 266.285 50.1654 266.285 65.4682H268.285ZM268.285 67.995V65.4682H266.285V67.995H268.285ZM268.126 66.9101C267.84 66.9563 267.547 66.9852 267.25 66.9956L267.32 68.9944C267.701 68.9811 268.076 68.944 268.445 68.8845L268.126 66.9101ZM264.285 68V67.1076H262.285V68H264.285ZM264.285 67.1076C264.285 51.1376 255.729 36.3829 241.844 28.3999L240.847 30.1337C254.114 37.7614 262.285 51.8563 262.285 67.1076H264.285ZM241.844 28.3999L190.939 -0.866932L189.942 0.866932L240.847 30.1337L241.844 28.3999ZM188.435 1H190.441V-1H188.435V1ZM187.936 0.866932L240.349 31.0007L241.346 29.2668L188.933 -0.866932L187.936 0.866932ZM240.349 31.0007C253.307 38.4506 261.285 52.2156 261.285 67.1076H263.285C263.285 51.497 254.922 37.0721 241.346 29.2668L240.349 31.0007ZM261.285 67.1076V68H263.285V67.1076H261.285ZM263.285 67H262.285V69H263.285V67ZM236.425 32.7689C249.123 40.0694 257.023 53.4582 257.279 68.0176L259.278 67.9824C259.01 52.718 250.728 38.6851 237.422 31.035L236.425 32.7689ZM180.936 0.866932L236.425 32.7689L237.422 31.035L181.933 -0.866932L180.936 0.866932ZM179.429 1H181.435V-1H179.429V1ZM236.923 31.902L179.927 -0.866932L178.93 0.866932L235.926 33.6358L236.923 31.902ZM258.278 67.982C258.01 53.077 249.92 39.3742 236.923 31.902L235.926 33.6358C248.315 40.7587 256.023 53.8178 256.279 68.018L258.278 67.982ZM258.279 67H257.278V69H258.279V67ZM254.215 67.9423C253.393 53.7444 245.458 40.8333 232.999 33.6702L232.002 35.4041C243.876 42.231 251.436 54.5336 252.218 68.0577L254.215 67.9423ZM232.999 33.6702L172.927 -0.866932L171.93 0.866932L232.002 35.4041L232.999 33.6702ZM170.422 1H172.429V-1H170.422V1ZM169.924 0.866932L231.504 36.271L232.501 34.5372L170.921 -0.866932L169.924 0.866932ZM231.504 36.271C243.069 42.9203 250.436 54.8938 251.216 68.0592L253.213 67.9408C252.392 54.1029 244.65 41.5222 232.501 34.5372L231.504 36.271ZM253.216 67H252.215V69H253.216V67ZM227.579 38.0392C238.627 44.3909 245.83 55.6212 247.088 68.1003L249.078 67.8997C247.756 54.781 240.184 42.979 228.576 36.3054L227.579 38.0392ZM162.924 0.866932L227.579 38.0392L228.576 36.3054L163.921 -0.866932L162.924 0.866932ZM161.416 1H163.423V-1H161.416V1ZM228.078 37.1723L161.915 -0.866932L160.918 0.866932L227.081 38.9062L228.078 37.1723ZM248.072 67.8971C246.753 55.1392 239.375 43.6675 228.078 37.1723L227.081 38.9062C237.82 45.0802 244.83 55.9825 246.083 68.1029L248.072 67.8971ZM248.083 67H247.078V69H248.083V67ZM243.861 67.8546C242.094 55.8276 234.904 45.1215 224.154 38.9405L223.157 40.6744C233.374 46.5485 240.204 56.7212 241.882 68.1454L243.861 67.8546ZM224.154 38.9405L154.915 -0.866932L153.918 0.866932L223.157 40.6744L224.154 38.9405ZM152.41 1H154.417V-1H152.41V1ZM151.912 0.866932L222.658 41.5413L223.655 39.8075L152.909 -0.866932L151.912 0.866932ZM222.658 41.5413C232.566 47.2377 239.202 57.0839 240.872 68.1492L242.849 67.8508C241.089 56.1857 234.095 45.8094 223.655 39.8075L222.658 41.5413ZM242.872 67H241.861V69H242.872V67ZM218.734 43.3096C228.115 48.7032 234.552 57.8338 236.592 68.1932L238.555 67.8068C236.403 56.884 229.618 47.2599 219.731 41.5757L218.734 43.3096ZM144.912 0.866932L218.734 43.3096L219.731 41.5757L145.909 -0.866932L144.912 0.866932ZM143.404 1H145.41V-1H143.404V1ZM219.233 42.4426L143.903 -0.866932L142.906 0.866932L218.236 44.1765L219.233 42.4426ZM237.534 67.8015C235.395 57.2422 228.807 47.9471 219.233 42.4426L218.236 44.1765C227.308 49.3922 233.548 58.1981 235.574 68.1985L237.534 67.8015ZM237.573 67H236.554V69H237.573V67ZM233.148 67.7559C230.68 57.9499 224.322 49.3931 215.308 44.2109L214.312 45.9447C222.85 50.854 228.871 58.9586 231.208 68.2441L233.148 67.7559ZM215.308 44.2109L136.903 -0.866932L135.906 0.866932L214.312 45.9447L215.308 44.2109ZM134.398 1H136.404V-1H134.398V1ZM133.9 0.866932L213.813 46.8117L214.81 45.0778L134.896 -0.866932L133.9 0.866932ZM213.813 46.8117C222.042 51.5426 227.864 59.325 230.178 68.2509L232.114 67.7491C229.667 58.3084 223.509 50.0794 214.81 45.0778L213.813 46.8117ZM232.178 67H231.146V69H232.178V67ZM1 6.99819V5.8447H-1V6.99819H1ZM9.66749 -0.866932L-0.498426 4.97777L0.498426 6.71163L10.6643 0.866932L9.66749 -0.866932ZM10.1659 1H12.1722V-1H10.1659V1ZM0.498426 7.86512L12.6707 0.866932L11.6738 -0.866932L-0.498426 6.13126L0.498426 7.86512ZM209.889 48.5799C217.576 52.9998 223.155 60.0956 225.717 68.2981L227.626 67.7019C224.916 59.0247 219.015 51.5198 210.886 46.846L209.889 48.5799ZM126.9 0.866932L209.889 48.5799L210.886 46.846L127.897 -0.866932L126.9 0.866932ZM125.392 1H127.398V-1H125.392V1ZM210.387 47.713L125.89 -0.866932L124.894 0.866932L209.39 49.4468L210.387 47.713ZM226.574 67.6932C223.896 59.3834 218.2 52.2047 210.387 47.713L209.39 49.4468C216.767 53.6877 222.143 60.4642 224.671 68.3068L226.574 67.6932ZM226.672 67H225.623V69H226.672V67ZM1 12.1761V11.0226H-1V12.1761H1ZM0.498426 11.8895L19.6704 0.866932L18.6736 -0.866932L-0.498426 10.1557L0.498426 11.8895ZM19.172 1H21.1783V-1H19.172V1ZM20.6799 -0.866932L-0.498426 11.3091L0.498426 13.043L21.6767 0.866932L20.6799 -0.866932ZM221.973 67.6443C219.104 60.1071 213.693 53.6381 206.463 49.4812L205.466 51.2151C212.291 55.1388 217.397 61.2439 220.104 68.3557L221.973 67.6443ZM206.463 49.4812L118.891 -0.866932L117.894 0.866932L205.466 51.2151L206.463 49.4812ZM116.386 1H118.392V-1H116.386V1ZM115.887 0.866932L204.968 52.082L205.965 50.3481L116.884 -0.866932L115.887 0.866932ZM204.968 52.082C211.479 55.8256 216.377 61.6149 219.035 68.3664L220.896 67.6336C218.074 60.4661 212.875 54.321 205.965 50.3481L204.968 52.082ZM221.038 67H219.966V69H221.038V67ZM1 17.354V16.2005H-1V17.354H1ZM27.6797 -0.866932L-0.498426 15.3335L0.498426 17.0674L28.6765 0.866932L27.6797 -0.866932ZM28.1781 1H30.1844V-1H28.1781V1ZM0.498426 18.2209L30.6828 0.866932L29.686 -0.866932L-0.498426 16.487L0.498426 18.2209ZM201.044 53.8502C206.99 57.2689 211.585 62.4022 214.346 68.4172L216.164 67.5828C213.231 61.1956 208.352 55.7453 202.04 52.1164L201.044 53.8502ZM108.888 0.866932L201.044 53.8502L202.04 52.1164L109.885 -0.866932L108.888 0.866932ZM107.38 1H109.386V-1H107.38V1ZM201.542 52.9833L107.878 -0.866932L106.881 0.866932L200.545 54.7172L201.542 52.9833ZM215.054 67.5699C212.188 61.5544 207.529 56.4254 201.542 52.9833L200.545 54.7172C206.175 57.9539 210.554 62.7757 213.248 68.4301L215.054 67.5699ZM215.255 67H214.151V69H215.255V67ZM1 22.5318V21.3783H-1V22.5318H1ZM0.498426 22.2453L37.6826 0.866932L36.6858 -0.866932L-0.498426 20.5114L0.498426 22.2453ZM37.1842 1H39.1905V-1H37.1842V1ZM38.6921 -0.866932L-0.498426 21.6649L0.498426 23.3988L39.6889 0.866932L38.6921 -0.866932ZM210.167 67.517C207.282 62.2871 202.986 57.8378 197.618 54.7515L196.621 56.4854C201.667 59.3867 205.704 63.5683 208.416 68.483L210.167 67.517ZM197.618 54.7515L100.878 -0.866932L99.8816 0.866932L196.621 56.4854L197.618 54.7515ZM98.3737 1H100.38V-1H98.3737V1ZM97.8753 0.866932L196.122 57.3523L197.119 55.6185L98.8721 -0.866932L97.8753 0.866932ZM196.122 57.3523C200.847 60.0687 204.657 63.9438 207.277 68.4985L209.01 67.5015C206.218 62.645 202.155 58.5137 197.119 55.6185L196.122 57.3523ZM209.291 67H208.143V69H209.291V67ZM1 27.7097V26.5562H-1V27.7097H1ZM45.6918 -0.866932L-0.498426 25.6893L0.498426 27.4232L46.6887 0.866932L45.6918 -0.866932ZM46.1903 1H48.1966V-1H46.1903V1ZM0.498426 28.5767L48.695 0.866932L47.6982 -0.866932L-0.498426 26.8428L0.498426 28.5767ZM192.198 59.1206C196.315 61.4872 199.734 64.7383 202.27 68.5536L203.936 67.4464C201.23 63.377 197.584 59.9099 193.195 57.3867L192.198 59.1206ZM90.8755 0.866932L192.198 59.1206L193.195 57.3867L91.8723 -0.866932L90.8755 0.866932ZM89.3676 1H91.3739V-1H89.3676V1ZM192.697 58.2536L89.866 -0.866932L88.8692 0.866932L191.7 59.9875L192.697 58.2536ZM202.713 67.4279C200.136 63.7325 196.742 60.5794 192.697 58.2536L191.7 59.9875C195.486 62.1643 198.662 65.1147 201.073 68.5721L202.713 67.4279ZM203.103 67H201.893V69H203.103V67ZM1 32.8876V31.7341H-1V32.8876H1ZM0.498426 32.6011L55.6948 0.866932L54.6979 -0.866932L-0.498426 30.8672L0.498426 32.6011ZM55.1964 1H57.2027V-1H55.1964V1ZM56.7043 -0.866932L-0.498426 32.0207L0.498426 33.7545L57.7011 0.866932L56.7043 -0.866932ZM197.4 67.3703C195.039 64.4572 192.131 61.9528 188.772 60.0219L187.776 61.7557C190.918 63.5625 193.638 65.9051 195.846 68.6297L197.4 67.3703ZM188.772 60.0219L88.7947 2.54151L87.7978 4.27537L187.776 61.7557L188.772 60.0219ZM88.7947 2.54151C85.8485 0.847673 82.6923 -0.326281 79.4551 -0.980201L79.0591 0.980201C82.088 1.59205 85.041 2.69039 87.7978 4.27537L88.7947 2.54151ZM67.3132 1H79.2571V-1H67.3132V1ZM67.1152 -0.980201C63.878 -0.326282 60.7218 0.847672 57.7756 2.54151L58.7725 4.27537C61.5293 2.69039 64.4823 1.59205 67.5112 0.980201L67.1152 -0.980201ZM57.7756 2.54151L-0.498426 36.0451L0.498426 37.7789L58.7725 4.27537L57.7756 2.54151ZM1 38.0655V36.912H-1V38.0655H1ZM0.498426 38.9324L59.2709 5.1423L58.274 3.40844L-0.498426 37.1986L0.498426 38.9324ZM59.2709 5.1423C67.9426 0.156668 78.6277 0.156668 87.2994 5.1423L88.2962 3.40844C79.0073 -1.93204 67.5629 -1.93204 58.274 3.40844L59.2709 5.1423ZM87.2994 5.1423L187.277 62.6227L188.274 60.8888L88.2962 3.40844L87.2994 5.1423ZM187.277 62.6227C190.075 64.2314 192.526 66.2798 194.562 68.6514L196.08 67.3486C193.897 64.8069 191.271 62.612 188.274 60.8888L187.277 62.6227ZM196.623 67H195.321V69H196.623V67ZM183.353 64.3909C185.454 65.5986 187.357 67.0555 189.035 68.7117L190.44 67.2883C188.641 65.5126 186.601 63.951 184.35 62.657L183.353 64.3909ZM87.2205 9.12132L183.353 64.3909L184.35 62.657L88.2173 7.38745L87.2205 9.12132ZM59.3498 9.12132C67.9728 4.16366 78.5974 4.16366 87.2205 9.12132L88.2173 7.38745C78.9771 2.07495 67.5932 2.07495 58.353 7.38745L59.3498 9.12132ZM0.498426 42.9568L59.3498 9.12132L58.353 7.38745L-0.498426 41.223L0.498426 42.9568ZM1 43.2434V42.0899H-1V43.2434H1ZM58.8514 8.25438L-0.498426 42.3765L0.498426 44.1103L59.8483 9.98825L58.8514 8.25438ZM87.7189 8.25438C78.7873 3.1193 67.783 3.1193 58.8514 8.25438L59.8482 9.98825C68.1627 5.20801 78.4076 5.20801 86.722 9.98825L87.7189 8.25438ZM183.851 63.524L87.7189 8.25438L86.722 9.98825L182.855 65.2578L183.851 63.524ZM188.962 67.2626C187.419 65.8492 185.71 64.5923 183.851 63.524L182.855 65.2578C184.584 66.2524 186.176 67.4223 187.611 68.7374L188.962 67.2626ZM189.738 67H188.287V69H189.738V67ZM182.825 67.1994C181.905 66.511 180.938 65.8735 179.927 65.2922L178.93 67.0261C179.871 67.5671 180.771 68.1602 181.627 68.8006L182.825 67.1994ZM179.927 65.2922L87.64 12.2334L86.6431 13.9673L178.93 67.0261L179.927 65.2922ZM87.64 12.2334C78.757 7.12631 67.8133 7.12631 58.9303 12.2334L59.9272 13.9673C68.1929 9.21502 78.3773 9.21502 86.6431 13.9673L87.64 12.2334ZM58.9303 12.2334L-0.498426 46.4009L0.498426 48.1347L59.9272 13.9673L58.9303 12.2334ZM1 48.4213V47.2678H-1V48.4213H1ZM0.498426 49.2882L60.4256 14.8342L59.4287 13.1003L-0.498426 47.5543L0.498426 49.2882ZM60.4256 14.8342C68.3828 10.2594 78.1875 10.2594 86.1447 14.8342L87.1415 13.1003C78.5672 8.17066 68.0031 8.17066 59.4287 13.1003L60.4256 14.8342ZM86.1447 14.8342L178.432 67.893L179.429 66.1591L87.1415 13.1003L86.1447 14.8342ZM178.432 67.893C178.948 68.1896 179.451 68.5024 179.94 68.8306L181.054 67.1694C180.526 66.8157 179.984 66.4786 179.429 66.1591L178.432 67.893ZM182.226 67H180.497V69H182.226V67ZM86.0658 18.8132L173.126 68.8669L174.123 67.1331L87.0626 17.0793L86.0658 18.8132ZM60.5045 18.8132C68.413 14.2664 78.1573 14.2664 86.0658 18.8132L87.0626 17.0793C78.5369 12.1777 68.0334 12.1777 59.5077 17.0793L60.5045 18.8132ZM0.498426 53.3126L60.5045 18.8132L59.5077 17.0793L-0.498426 51.5787L0.498426 53.3126ZM1 53.5992V52.4457H-1V53.5992H1ZM60.0061 17.9463L-0.498426 52.7322L0.498426 54.4661L61.0029 19.6801L60.0061 17.9463ZM86.5642 17.9463C78.3471 13.222 68.2232 13.222 60.0061 17.9463L61.0029 19.6801C68.6029 15.3107 77.9674 15.3107 85.5673 19.6801L86.5642 17.9463ZM172.117 67.1331L86.5642 17.9463L85.5673 19.6801L171.12 68.8669L172.117 67.1331ZM173.625 67H171.618V69H173.625V67ZM165.117 67.1331L86.4853 21.9253L85.4884 23.6592L164.12 68.8669L165.117 67.1331ZM86.4853 21.9253C78.3168 17.229 68.2534 17.229 60.085 21.9253L61.0819 23.6592C68.6331 19.3177 77.9372 19.3177 85.4884 23.6592L86.4853 21.9253ZM60.085 21.9253L-0.498426 56.7566L0.498426 58.4905L61.0819 23.6592L60.085 21.9253ZM1 58.777V57.6236H-1V58.777H1ZM0.498426 59.644L61.5803 24.5261L60.5835 22.7922L-0.498426 57.9101L0.498426 59.644ZM61.5803 24.5261C68.8229 20.3621 77.7474 20.3621 84.99 24.5261L85.9869 22.7922C78.127 18.2734 68.4433 18.2734 60.5835 22.7922L61.5803 24.5261ZM84.99 24.5261L162.114 68.8669L163.111 67.1331L85.9869 22.7922L84.99 24.5261ZM164.618 67H162.612V69H164.618V67ZM84.9111 28.5051L155.114 68.8669L156.111 67.1331L85.9079 26.7712L84.9111 28.5051ZM61.6592 28.5051C68.8532 24.3691 77.7171 24.3691 84.9111 28.5051L85.9079 26.7712C78.0967 22.2803 68.4735 22.2804 60.6624 26.7713L61.6592 28.5051ZM0.917047 63.4277L61.6592 28.5051L60.6624 26.7713L-0.079806 61.6938L0.917047 63.4277ZM1.7007 63.0569C1.57267 62.7936 1.46072 62.5212 1.36607 62.2409L-0.52883 62.8807C-0.406888 63.2418 -0.262693 63.5926 -0.0979053 63.9315L1.7007 63.0569ZM61.1608 27.6382L0.30297 62.6272L1.29982 64.3611L62.1576 29.372L61.1608 27.6382ZM85.4095 27.6382C77.9069 23.3247 68.6634 23.3247 61.1608 27.6382L62.1576 29.372C69.043 25.4134 77.5273 25.4134 84.4126 29.372L85.4095 27.6382ZM154.104 67.1331L85.4095 27.6382L84.4126 29.372L153.108 68.8669L154.104 67.1331ZM155.612 67H153.606V69H155.612V67ZM146.111 67.1331L85.3306 32.1886L84.3337 33.9225L145.114 68.8669L146.111 67.1331ZM85.3306 32.1886C77.8767 27.9031 68.6936 27.9031 61.2397 32.1886L62.2366 33.9225C69.0733 29.9918 77.497 29.9918 84.3337 33.9225L85.3306 32.1886ZM61.2397 32.1886L2.94073 65.7065L3.93758 67.4404L62.2366 33.9225L61.2397 32.1886ZM4.87362 66.265C4.57287 66.1146 4.28432 65.9431 4.00993 65.7523L2.86839 67.3946C3.22092 67.6396 3.59196 67.8602 3.97903 68.0538L4.87362 66.265ZM4.92475 68.0263L62.735 34.7894L61.7381 33.0555L3.9279 66.2925L4.92475 68.0263ZM62.735 34.7894C69.2631 31.0362 77.3072 31.0362 83.8353 34.7894L84.8321 33.0555C77.6868 28.9475 68.8834 28.9475 61.7381 33.0555L62.735 34.7894ZM83.8353 34.7894L143.108 68.8669L144.104 67.1331L84.8321 33.0555L83.8353 34.7894ZM145.612 67H143.606V69H145.612V67ZM83.7564 39.3398L135.114 68.8669L136.111 67.1331L84.7532 37.606L83.7564 39.3398ZM62.8139 39.3398C69.2934 35.6146 77.2769 35.6146 83.7564 39.3398L84.7532 37.606C77.6566 33.5259 68.9137 33.5259 61.8171 37.606L62.8139 39.3398ZM11.4563 68.8669L62.8139 39.3398L61.8171 37.606L10.4594 67.1331L11.4563 68.8669ZM12.9642 67H10.9579V69H12.9642V67ZM62.3155 38.4729L12.4658 67.1331L13.4626 68.8669L63.3123 40.2068L62.3155 38.4729ZM84.2548 38.4729C77.4668 34.5702 69.1035 34.5702 62.3155 38.4729L63.3123 40.2068C69.4832 36.659 77.0871 36.659 83.2579 40.2068L84.2548 38.4729ZM134.105 67.1331L84.2548 38.4729L83.2579 40.2068L133.108 68.8669L134.105 67.1331ZM135.612 67H133.606V69H135.612V67ZM126.111 67.1331L84.1759 43.0234L83.179 44.7573L125.114 68.8669L126.111 67.1331ZM84.1759 43.0234C77.4365 39.1487 69.1338 39.1487 62.3944 43.0234L63.3913 44.7573C69.5135 41.2374 77.0568 41.2374 83.179 44.7573L84.1759 43.0234ZM62.3944 43.0234L20.4595 67.1331L21.4564 68.8669L63.3913 44.7573L62.3944 43.0234ZM22.9643 67H20.958V69H22.9643V67ZM23.4627 68.8669L63.8897 45.6242L62.8928 43.8903L22.4658 67.1331L23.4627 68.8669ZM63.8897 45.6242C69.7033 42.2818 76.867 42.2818 82.6806 45.6242L83.6774 43.8903C77.2467 40.1931 69.3236 40.1931 62.8928 43.8903L63.8897 45.6242ZM82.6806 45.6242L123.108 68.8669L124.104 67.1331L83.6774 43.8903L82.6806 45.6242ZM125.612 67H123.606V69H125.612V67ZM82.6017 50.1746L115.114 68.8669L116.111 67.1331L83.5985 48.4407L82.6017 50.1746ZM63.9686 50.1746C69.7335 46.8602 76.8368 46.8602 82.6017 50.1746L83.5985 48.4407C77.2164 44.7715 69.3539 44.7715 62.9718 48.4407L63.9686 50.1746ZM31.4564 68.8669L63.9686 50.1746L62.9718 48.4407L30.4595 67.1331L31.4564 68.8669ZM32.9642 67H30.9579V69H32.9642V67ZM63.4702 49.3077L32.4658 67.1331L33.4627 68.8669L64.4671 51.0415L63.4702 49.3077ZM83.1001 49.3077C77.0266 45.8158 69.5437 45.8158 63.4702 49.3077L64.4671 51.0415C69.9234 47.9045 76.6469 47.9045 82.1033 51.0415L83.1001 49.3077ZM114.104 67.1331L83.1001 49.3077L82.1033 51.0415L113.108 68.8669L114.104 67.1331ZM115.612 67H113.606V69H115.612V67ZM106.111 67.1331L83.0212 53.8581L82.0243 55.592L105.114 68.8669L106.111 67.1331ZM83.0212 53.8581C76.9963 50.3942 69.574 50.3942 63.5491 53.8581L64.546 55.592C69.9536 52.4829 76.6167 52.4829 82.0243 55.592L83.0212 53.8581ZM63.5491 53.8581L40.4595 67.1331L41.4563 68.8669L64.546 55.592L63.5491 53.8581ZM42.9642 67H40.9579V69H42.9642V67ZM43.4626 68.8669L65.0444 56.4589L64.0475 54.725L42.4658 67.1331L43.4626 68.8669ZM65.0444 56.4589C70.1434 53.5273 76.4268 53.5273 81.5259 56.4589L82.5228 54.725C76.8065 51.4386 69.7638 51.4386 64.0475 54.725L65.0444 56.4589ZM81.5259 56.4589L103.108 68.8669L104.105 67.1331L82.5228 54.725L81.5259 56.4589ZM105.612 67H103.606V69H105.612V67ZM81.447 61.0094L95.1139 68.8669L96.1108 67.1331L82.4438 59.2755L81.447 61.0094ZM65.1233 61.0094C70.1737 58.1058 76.3966 58.1058 81.447 61.0094L82.4438 59.2755C76.7763 56.017 69.794 56.017 64.1265 59.2755L65.1233 61.0094ZM51.4564 68.8669L65.1233 61.0094L64.1265 59.2755L50.4595 67.1331L51.4564 68.8669ZM52.9643 67H50.958V69H52.9643V67ZM64.6249 60.1425L52.4659 67.1331L53.4627 68.8669L65.6217 61.8763L64.6249 60.1425ZM81.9454 60.1425C76.5864 57.0614 69.9839 57.0614 64.6249 60.1425L65.6217 61.8763C70.3635 59.1501 76.2067 59.1501 80.9485 61.8763L81.9454 60.1425ZM94.1044 67.1331L81.9454 60.1425L80.9485 61.8763L93.1076 68.8669L94.1044 67.1331ZM95.6123 67H93.606V69H95.6123V67ZM86.1108 67.1331L81.8665 64.6929L80.8696 66.4268L85.1139 68.8669L86.1108 67.1331ZM81.8665 64.6929C76.5562 61.6398 70.0141 61.6398 64.7038 64.6929L65.7007 66.4268C70.3938 63.7285 76.1765 63.7285 80.8696 66.4268L81.8665 64.6929ZM64.7038 64.6929L60.4595 67.1331L61.4564 68.8669L65.7007 66.4268L64.7038 64.6929ZM62.9642 67H60.9579V69H62.9642V67ZM63.4627 68.8669L66.1991 67.2937L65.2022 65.5598L62.4658 67.1331L63.4627 68.8669ZM66.1991 67.2937C70.5836 64.7729 75.9867 64.7729 80.3712 67.2937L81.3681 65.5598C76.3663 62.6842 70.204 62.6842 65.2022 65.5598L66.1991 67.2937ZM80.3712 67.2937L83.1076 68.8669L84.1045 67.1331L81.3681 65.5598L80.3712 67.2937ZM85.6124 67H83.6061V69H85.6124V67ZM2.66771 -0.866932L-0.498426 0.953378L0.498426 2.68724L3.66456 0.866932L2.66771 -0.866932ZM1 1.82031V0.666817H-1V1.82031H1ZM0.498426 1.53375L1.65825 0.866932L0.661394 -0.866932L-0.498426 -0.200115L0.498426 1.53375ZM1.15982 1H3.16613V-1H1.15982V1Z" fill="url(#paint0_linear)" mask="url(#path-1-inside-1)"/>
<defs>
<linearGradient id="paint0_linear" x1="0" y1="46.2467" x2="275" y2="46.2467" gradientUnits="userSpaceOnUse">
<stop stop-color="#451181"/>
<stop offset="1" stop-color="#9654FB"/>
</linearGradient>
</defs>
</svg>
