<svg width="54" height="60" viewBox="0 0 54 60" fill="none" xmlns="http://www.w3.org/2000/svg">
<path opacity="0.2" fill-rule="evenodd" clip-rule="evenodd" d="M30.1177 0.829512C28.1885 -0.276504 25.8115 -0.276504 23.8823 0.829513L3.11769 12.7337C1.18846 13.8397 0 15.8837 0 18.0958V41.9042C0 44.1162 1.18846 46.1603 3.11769 47.2663L23.8823 59.1705C25.8115 60.2765 28.1885 60.2765 30.1177 59.1705L50.8823 47.2663C52.8115 46.1603 54 44.1163 54 41.9042V18.0958C54 15.8837 52.8115 13.8397 50.8823 12.7337L30.1177 0.829512Z" fill="#38D47E"/>
<path d="M21.7004 37.2795C19.9537 37.2795 18.5804 36.6195 17.5804 35.2995C16.5937 33.9662 16.1004 32.1995 16.1004 29.9995C16.1004 27.7995 16.5937 26.0395 17.5804 24.7195C18.5804 23.3862 19.9537 22.7195 21.7004 22.7195C23.4604 22.7195 24.8337 23.3862 25.8204 24.7195C26.8071 26.0395 27.3004 27.7995 27.3004 29.9995C27.3004 32.1995 26.8071 33.9662 25.8204 35.2995C24.8337 36.6195 23.4604 37.2795 21.7004 37.2795ZM19.5804 33.4195C20.0604 34.1928 20.7671 34.5795 21.7004 34.5795C22.6337 34.5795 23.3404 34.1862 23.8204 33.3995C24.3137 32.6128 24.5604 31.4795 24.5604 29.9995C24.5604 28.5062 24.3137 27.3662 23.8204 26.5795C23.3404 25.7928 22.6337 25.3995 21.7004 25.3995C20.7671 25.3995 20.0604 25.7928 19.5804 26.5795C19.1004 27.3662 18.8604 28.5062 18.8604 29.9995C18.8604 31.4928 19.1004 32.6328 19.5804 33.4195ZM39.318 32.0595V34.6195H37.818V36.9995H35.038V34.6195H28.418V32.0595L33.078 22.9995H36.038L31.398 32.0595H35.038V28.7395H37.818V32.0595H39.318Z" fill="#38D47E"/>
</svg>
