<svg width="54" height="60" viewBox="0 0 54 60" fill="none" xmlns="http://www.w3.org/2000/svg">
<path opacity="0.2" fill-rule="evenodd" clip-rule="evenodd" d="M30.1177 0.829512C28.1885 -0.276504 25.8115 -0.276504 23.8823 0.829513L3.11769 12.7337C1.18846 13.8397 0 15.8837 0 18.0958V41.9042C0 44.1162 1.18846 46.1603 3.11769 47.2663L23.8823 59.1705C25.8115 60.2765 28.1885 60.2765 30.1177 59.1705L50.8823 47.2663C52.8115 46.1603 54 44.1163 54 41.9042V18.0958C54 15.8837 52.8115 13.8397 50.8823 12.7337L30.1177 0.829512Z" fill="#38D47E"/>
<path d="M21.4738 37.2795C19.7272 37.2795 18.3538 36.6195 17.3538 35.2995C16.3672 33.9662 15.8738 32.1995 15.8738 29.9995C15.8738 27.7995 16.3672 26.0395 17.3538 24.7195C18.3538 23.3862 19.7272 22.7195 21.4738 22.7195C23.2338 22.7195 24.6072 23.3862 25.5938 24.7195C26.5805 26.0395 27.0738 27.7995 27.0738 29.9995C27.0738 32.1995 26.5805 33.9662 25.5938 35.2995C24.6072 36.6195 23.2338 37.2795 21.4738 37.2795ZM19.3538 33.4195C19.8338 34.1928 20.5405 34.5795 21.4738 34.5795C22.4072 34.5795 23.1138 34.1862 23.5938 33.3995C24.0872 32.6128 24.3338 31.4795 24.3338 29.9995C24.3338 28.5062 24.0872 27.3662 23.5938 26.5795C23.1138 25.7928 22.4072 25.3995 21.4738 25.3995C20.5405 25.3995 19.8338 25.7928 19.3538 26.5795C18.8738 27.3662 18.6338 28.5062 18.6338 29.9995C18.6338 31.4928 18.8738 32.6328 19.3538 33.4195ZM33.4715 27.5395C34.9248 27.5795 36.1048 28.0528 37.0115 28.9595C37.9182 29.8528 38.3715 30.9995 38.3715 32.3995C38.3715 33.8262 37.8982 34.9995 36.9515 35.9195C36.0048 36.8262 34.7848 37.2795 33.2915 37.2795C31.7982 37.2795 30.5782 36.8262 29.6315 35.9195C28.6982 35.0128 28.2315 33.8395 28.2315 32.3995C28.2315 31.3328 28.5048 30.3928 29.0515 29.5795L33.4115 22.9995H36.5715L33.4715 27.5395ZM31.6315 34.0595C32.0715 34.4728 32.6248 34.6795 33.2915 34.6795C33.9582 34.6795 34.5115 34.4728 34.9515 34.0595C35.4048 33.6462 35.6315 33.0928 35.6315 32.3995C35.6315 31.7195 35.4048 31.1728 34.9515 30.7595C34.5115 30.3462 33.9582 30.1395 33.2915 30.1395C32.6248 30.1395 32.0715 30.3462 31.6315 30.7595C31.1915 31.1595 30.9715 31.7062 30.9715 32.3995C30.9715 33.0928 31.1915 33.6462 31.6315 34.0595Z" fill="#38D47E"/>
</svg>
