<svg width="54" height="60" viewBox="0 0 54 60" fill="none" xmlns="http://www.w3.org/2000/svg">
<path opacity="0.2" fill-rule="evenodd" clip-rule="evenodd" d="M30.1177 0.829512C28.1885 -0.276504 25.8115 -0.276504 23.8823 0.829513L3.11769 12.7337C1.18846 13.8397 0 15.8837 0 18.0958V41.9042C0 44.1162 1.18846 46.1603 3.11769 47.2663L23.8823 59.1705C25.8115 60.2765 28.1885 60.2765 30.1177 59.1705L50.8823 47.2663C52.8115 46.1603 54 44.1163 54 41.9042V18.0958C54 15.8837 52.8115 13.8397 50.8823 12.7337L30.1177 0.829512Z" fill="#38D47E"/>
<path opacity="0.5" d="M14.4136 23.6667L18.147 19H35.8524L39.5857 23.6667H14.4136Z" stroke="#38D47E" stroke-width="2"/>
<path d="M14.6062 25.6667H39.3931L26.9997 39.1869L14.6062 25.6667Z" stroke="#38D47E" stroke-width="2"/>
</svg>
