<svg width="54" height="60" viewBox="0 0 54 60" fill="none" xmlns="http://www.w3.org/2000/svg">
<path opacity="0.2" fill-rule="evenodd" clip-rule="evenodd" d="M30.1177 0.829512C28.1885 -0.276504 25.8115 -0.276504 23.8823 0.829513L3.11769 12.7337C1.18846 13.8397 0 15.8837 0 18.0958V41.9042C0 44.1162 1.18846 46.1603 3.11769 47.2663L23.8823 59.1705C25.8115 60.2765 28.1885 60.2765 30.1177 59.1705L50.8823 47.2663C52.8115 46.1603 54 44.1163 54 41.9042V18.0958C54 15.8837 52.8115 13.8397 50.8823 12.7337L30.1177 0.829512Z" fill="#38D47E"/>
<path d="M21.6008 37.2795C19.8541 37.2795 18.4808 36.6195 17.4808 35.2995C16.4941 33.9662 16.0008 32.1995 16.0008 29.9995C16.0008 27.7995 16.4941 26.0395 17.4808 24.7195C18.4808 23.3862 19.8541 22.7195 21.6008 22.7195C23.3608 22.7195 24.7341 23.3862 25.7208 24.7195C26.7074 26.0395 27.2008 27.7995 27.2008 29.9995C27.2008 32.1995 26.7074 33.9662 25.7208 35.2995C24.7341 36.6195 23.3608 37.2795 21.6008 37.2795ZM19.4808 33.4195C19.9608 34.1928 20.6674 34.5795 21.6008 34.5795C22.5341 34.5795 23.2408 34.1862 23.7208 33.3995C24.2141 32.6128 24.4608 31.4795 24.4608 29.9995C24.4608 28.5062 24.2141 27.3662 23.7208 26.5795C23.2408 25.7928 22.5341 25.3995 21.6008 25.3995C20.6674 25.3995 19.9608 25.7928 19.4808 26.5795C19.0008 27.3662 18.7608 28.5062 18.7608 29.9995C18.7608 31.4928 19.0008 32.6328 19.4808 33.4195ZM33.3422 28.0995C34.6889 28.0995 35.8222 28.5062 36.7422 29.3195C37.6622 30.1195 38.1222 31.2395 38.1222 32.6795C38.1222 34.1195 37.6355 35.2462 36.6622 36.0595C35.7022 36.8728 34.5222 37.2795 33.1222 37.2795C31.9889 37.2795 30.9889 37.0262 30.1222 36.5195C29.2555 36.0128 28.6289 35.2662 28.2422 34.2795L30.6022 32.8995C30.9489 34.0195 31.7889 34.5795 33.1222 34.5795C33.8289 34.5795 34.3755 34.4128 34.7622 34.0795C35.1622 33.7328 35.3622 33.2662 35.3622 32.6795C35.3622 32.1062 35.1689 31.6462 34.7822 31.2995C34.3955 30.9528 33.8689 30.7795 33.2022 30.7795H28.9622L29.5222 22.9995H37.4622V25.5795H32.0822L31.9022 28.0995H33.3422Z" fill="#38D47E"/>
</svg>
