<svg width="149" height="552" viewBox="0 0 149 552" fill="none" xmlns="http://www.w3.org/2000/svg">
<path d="M148.993 166.319C145.729 171.876 143.967 177.895 143.967 184.097L143.967 365.904C143.967 372.107 145.729 378.126 148.993 383.683L148.993 379.372C147.009 375.056 145.967 370.525 145.967 365.904L145.967 184.097C145.967 179.477 147.009 174.946 148.993 170.629L148.993 166.319Z" fill="url(#paint0_linear)"/>
<path d="M148.996 146.858C138.221 155.819 131.97 167.365 131.97 179.614L131.97 370.389C131.97 382.638 138.221 394.184 148.996 403.145L148.996 400.514C139.371 392.02 133.97 381.438 133.97 370.389L133.97 179.614C133.97 168.565 139.371 157.983 148.996 149.489L148.996 146.858Z" fill="url(#paint1_linear)"/>
<path d="M148.996 132.582C130.964 142.434 119.972 158.137 119.972 175.129L119.972 374.872C119.972 391.865 130.963 407.568 148.996 417.42L148.996 415.134C131.998 405.508 121.972 390.647 121.972 374.872L121.972 175.129C121.972 159.355 131.998 144.494 148.996 134.868L148.996 132.582Z" fill="url(#paint2_linear)"/>
<path d="M148.996 0L38.6112 63.4657C14.7195 77.2022 3.92887e-05 102.589 3.68867e-05 130.065L1.13707e-05 421.935C8.96865e-06 449.411 14.7194 474.798 38.6111 488.534L148.996 552L148.996 549.695L39.6088 486.803C16.3355 473.422 2.00001 448.694 2.00001 421.935L2.00004 130.065C2.00004 103.306 16.3355 78.5782 39.6089 65.1972L148.996 2.30511L148.996 0Z" fill="url(#paint3_linear)"/>
<path d="M148.996 13.3198L49.3023 70.7647C26.218 84.0662 11.9971 108.649 11.9971 135.252L11.9971 417.746C11.9971 444.35 26.218 468.932 49.3022 482.233L148.996 539.678L148.996 537.372L50.3016 480.503C27.836 467.558 13.9971 443.635 13.9971 417.746L13.9971 135.252C13.9971 109.363 27.836 85.4402 50.3016 72.4952L148.996 15.6261L148.996 13.3198Z" fill="url(#paint4_linear)"/>
<path d="M148.996 26.8853L59.8642 78.2468C37.6683 91.0369 23.9947 114.674 23.9947 140.256L23.9946 411.743C23.9946 437.324 37.6683 460.962 59.8641 473.752L148.996 525.113L148.996 522.807L60.8635 472.021C39.2863 459.588 25.9946 436.61 25.9946 411.743L25.9947 140.256C25.9947 115.389 39.2863 92.4109 60.8635 79.9773L148.996 29.1917L148.996 26.8853Z" fill="url(#paint5_linear)"/>
<path d="M148.996 40.7715L71.8738 83.7445C49.681 96.1104 35.9917 118.976 35.9917 143.741L35.9917 406.26C35.9917 431.024 49.681 453.89 71.8737 466.256L148.996 509.229L148.996 506.942L72.848 464.511C51.2677 452.487 37.9917 430.277 37.9917 406.26L37.9917 143.741C37.9917 119.724 51.2678 97.5139 72.8481 85.4893L148.996 43.0591L148.996 40.7715Z" fill="url(#paint6_linear)"/>
<path d="M148.996 55.2006L83.8842 90.2419C61.6957 102.183 47.9893 124.276 47.9893 148.225L47.9893 401.777C47.9893 425.726 61.6956 447.819 83.8841 459.76L148.996 494.801L148.996 492.532L84.8327 458.001C63.2482 446.385 49.9893 424.943 49.9893 401.777L49.9893 148.225C49.9893 125.059 63.2482 103.617 84.8328 92.0008L148.996 57.4699L148.996 55.2006Z" fill="url(#paint7_linear)"/>
<path d="M148.996 69.1718L95.8944 96.7388C73.7114 108.255 59.9864 129.575 59.9864 152.709L59.9863 397.293C59.9863 420.427 73.7114 441.747 95.8944 453.263L148.996 480.83L148.996 478.579L96.8167 451.491C75.2266 440.282 61.9863 419.607 61.9863 397.293L61.9864 152.709C61.9864 130.395 75.2266 109.72 96.8167 98.5115L148.996 71.4233L148.996 69.1718Z" fill="url(#paint8_linear)"/>
<path d="M148.996 82.6861L107.905 103.236C85.729 114.326 71.9834 134.872 71.9834 157.194L71.9834 392.809C71.9834 415.13 85.7289 435.676 107.905 446.766L148.996 467.316L148.996 465.082L108.8 444.98C87.2032 434.179 73.9834 414.27 73.9834 392.809L73.9834 157.194C73.9834 135.733 87.2032 115.823 108.8 105.022L148.996 84.9203L148.996 82.6861Z" fill="url(#paint9_linear)"/>
<path d="M148.996 95.7434L119.916 109.733C97.7485 120.397 83.9805 140.169 83.9805 161.678L83.9805 388.325C83.9805 409.834 97.7484 429.606 119.916 440.27L148.996 454.259L148.996 452.042L120.784 438.47C99.1778 428.076 85.9805 408.931 85.9805 388.325L85.9805 161.678C85.9805 141.071 99.1779 121.927 120.784 111.533L148.996 97.9608L148.996 95.7434Z" fill="url(#paint10_linear)"/>
<path d="M148.996 108.343L131.927 116.23C109.77 126.467 95.9776 145.463 95.9776 166.161L95.9776 383.84C95.9776 404.538 109.77 423.535 131.927 433.772L148.996 441.659L148.996 439.457L132.767 431.959C111.15 421.971 97.9776 403.592 97.9776 383.84L97.9776 166.161C97.9776 146.41 111.15 128.03 132.767 118.043L148.996 110.544L148.996 108.343Z" fill="url(#paint11_linear)"/>
<path d="M148.996 120.487L143.938 122.727C121.794 132.537 107.975 150.757 107.975 170.646L107.975 379.357C107.975 399.245 121.794 417.465 143.938 427.275L148.996 429.516L148.996 427.33L144.749 425.449C123.12 415.867 109.975 398.251 109.975 379.357L109.975 170.646C109.975 151.751 123.12 134.135 144.749 124.553L148.996 122.672L148.996 120.487Z" fill="url(#paint12_linear)"/>
<defs>
<linearGradient id="paint0_linear" x1="58.2284" y1="552" x2="58.2284" y2="-1.71309e-05" gradientUnits="userSpaceOnUse">
<stop stop-color="#2CB774"/>
<stop offset="1" stop-color="#3FE388"/>
</linearGradient>
<linearGradient id="paint1_linear" x1="58.2284" y1="552" x2="58.2284" y2="-1.71309e-05" gradientUnits="userSpaceOnUse">
<stop stop-color="#2CB774"/>
<stop offset="1" stop-color="#3FE388"/>
</linearGradient>
<linearGradient id="paint2_linear" x1="58.2284" y1="552" x2="58.2284" y2="-1.71309e-05" gradientUnits="userSpaceOnUse">
<stop stop-color="#2CB774"/>
<stop offset="1" stop-color="#3FE388"/>
</linearGradient>
<linearGradient id="paint3_linear" x1="58.2284" y1="552" x2="58.2284" y2="-1.71309e-05" gradientUnits="userSpaceOnUse">
<stop stop-color="#2CB774"/>
<stop offset="1" stop-color="#3FE388"/>
</linearGradient>
<linearGradient id="paint4_linear" x1="58.2284" y1="552" x2="58.2284" y2="-1.71309e-05" gradientUnits="userSpaceOnUse">
<stop stop-color="#2CB774"/>
<stop offset="1" stop-color="#3FE388"/>
</linearGradient>
<linearGradient id="paint5_linear" x1="58.2284" y1="552" x2="58.2284" y2="-1.71309e-05" gradientUnits="userSpaceOnUse">
<stop stop-color="#2CB774"/>
<stop offset="1" stop-color="#3FE388"/>
</linearGradient>
<linearGradient id="paint6_linear" x1="58.2284" y1="552" x2="58.2284" y2="-1.71309e-05" gradientUnits="userSpaceOnUse">
<stop stop-color="#2CB774"/>
<stop offset="1" stop-color="#3FE388"/>
</linearGradient>
<linearGradient id="paint7_linear" x1="58.2284" y1="552" x2="58.2284" y2="-1.71309e-05" gradientUnits="userSpaceOnUse">
<stop stop-color="#2CB774"/>
<stop offset="1" stop-color="#3FE388"/>
</linearGradient>
<linearGradient id="paint8_linear" x1="58.2284" y1="552" x2="58.2284" y2="-1.71309e-05" gradientUnits="userSpaceOnUse">
<stop stop-color="#2CB774"/>
<stop offset="1" stop-color="#3FE388"/>
</linearGradient>
<linearGradient id="paint9_linear" x1="58.2284" y1="552" x2="58.2284" y2="-1.71309e-05" gradientUnits="userSpaceOnUse">
<stop stop-color="#2CB774"/>
<stop offset="1" stop-color="#3FE388"/>
</linearGradient>
<linearGradient id="paint10_linear" x1="58.2284" y1="552" x2="58.2284" y2="-1.71309e-05" gradientUnits="userSpaceOnUse">
<stop stop-color="#2CB774"/>
<stop offset="1" stop-color="#3FE388"/>
</linearGradient>
<linearGradient id="paint11_linear" x1="58.2284" y1="552" x2="58.2284" y2="-1.71309e-05" gradientUnits="userSpaceOnUse">
<stop stop-color="#2CB774"/>
<stop offset="1" stop-color="#3FE388"/>
</linearGradient>
<linearGradient id="paint12_linear" x1="58.2284" y1="552" x2="58.2284" y2="-1.71309e-05" gradientUnits="userSpaceOnUse">
<stop stop-color="#2CB774"/>
<stop offset="1" stop-color="#3FE388"/>
</linearGradient>
</defs>
</svg>
